<svg width="2127" height="2127" viewBox="0 0 2127 2127" fill="none" xmlns="http://www.w3.org/2000/svg">
<path d="M2127 1063.5C2127 1273.84 2064.63 1479.46 1947.77 1654.35C1830.91 1829.24 1664.81 1965.55 1470.48 2046.05C1276.15 2126.54 1062.32 2147.6 856.021 2106.57C649.723 2065.53 460.225 1964.24 311.492 1815.51C162.759 1666.77 61.4702 1477.28 20.4349 1270.98C-20.6005 1064.68 0.460321 850.845 80.9541 656.516C161.448 462.187 297.759 296.091 472.651 179.232C647.543 62.3732 853.16 -2.50828e-06 1063.5 0L1063.5 1063.5H2127Z" fill="#C4C4C4"/>
<path d="M2127 1063.5C2127 1273.84 2064.63 1479.46 1947.77 1654.35C1830.91 1829.24 1664.81 1965.55 1470.48 2046.05C1276.15 2126.54 1062.32 2147.6 856.021 2106.57C649.723 2065.53 460.225 1964.24 311.492 1815.51C162.759 1666.77 61.4702 1477.28 20.4349 1270.98C-20.6005 1064.68 0.460321 850.845 80.9541 656.516C161.448 462.187 297.759 296.091 472.651 179.232C647.543 62.3732 853.16 -2.50828e-06 1063.5 0L1063.5 1063.5H2127Z" fill="url(#paint0_linear)"/>
<rect x="1341" y="9" width="786" height="768" fill="#C33E22"/>
<rect x="1341" y="9" width="786" height="768" fill="url(#paint1_linear)"/>
<defs>
<linearGradient id="paint0_linear" x1="1063.5" y1="0" x2="1063.5" y2="2127" gradientUnits="userSpaceOnUse">
<stop stop-color="#C33E22"/>
<stop offset="1" stop-color="#FD982D"/>
</linearGradient>
<linearGradient id="paint1_linear" x1="2127" y1="777" x2="1207.67" y2="1661.05" gradientUnits="userSpaceOnUse">
<stop stop-color="#C33E22"/>
<stop offset="1" stop-color="#FD982D"/>
</linearGradient>
</defs>
</svg>
