<svg width="346" height="71" viewBox="0 0 346 71" fill="none" xmlns="http://www.w3.org/2000/svg">
<path d="M86.3516 54.8438V25.6641C86.3516 25.0234 86.5703 24.4844 87.0078 24.0469C87.4453 23.6094 87.9688 23.3906 88.5781 23.3906H92.9844C93.5938 23.3906 94.1094 23.6094 94.5312 24.0469C94.9688 24.4844 95.1875 25.0234 95.1875 25.6641V50.3672H115.602C116.211 50.3672 116.727 50.5859 117.148 51.0234C117.586 51.4609 117.805 51.9844 117.805 52.5938V54.7969C117.805 55.4062 117.586 55.9297 117.148 56.3672C116.727 56.7891 116.211 57 115.602 57H88.5781C87.9688 57 87.4453 56.7969 87.0078 56.3906C86.5703 55.9688 86.3516 55.4531 86.3516 54.8438ZM151.953 53.5312C148.766 56.3281 144.078 57.7266 137.891 57.7266C131.719 57.7266 127.031 56.3281 123.828 53.5312C120.625 50.7188 119.023 46.2734 119.023 40.1953C119.023 34.1172 120.625 29.6797 123.828 26.8828C127.031 24.0859 131.719 22.6875 137.891 22.6875C144.078 22.6875 148.766 24.0859 151.953 26.8828C155.156 29.6797 156.758 34.1172 156.758 40.1953C156.758 46.2734 155.156 50.7188 151.953 53.5312ZM145.555 31.8281C143.977 29.9531 141.422 29.0156 137.891 29.0156C134.375 29.0156 131.82 29.9531 130.227 31.8281C128.648 33.7031 127.859 36.5 127.859 40.2188C127.859 43.9219 128.648 46.7109 130.227 48.5859C131.82 50.4453 134.375 51.375 137.891 51.375C141.422 51.375 143.977 50.4453 145.555 48.5859C147.133 46.7109 147.922 43.9219 147.922 40.2188C147.922 36.5 147.133 33.7031 145.555 31.8281ZM175.766 57.1875C170.578 57.1875 166.594 55.7891 163.812 52.9922C161.047 50.1953 159.664 45.9219 159.664 40.1719C159.664 34.4062 161.109 30.1406 164 27.375C166.906 24.5938 171.258 23.2031 177.055 23.2031H182.281C185.734 23.2031 188.844 24.0312 191.609 25.6875C194.391 27.3281 195.781 29.3828 195.781 31.8516C195.781 32.7734 195.508 33.4375 194.961 33.8438C194.414 34.2344 193.883 34.4297 193.367 34.4297H190.578C189.234 34.4297 188.164 33.6641 187.367 32.1328C186.57 30.6016 184.602 29.8359 181.461 29.8359H177.289C173.867 29.8359 171.547 30.5703 170.328 32.0391C169.109 33.5078 168.5 36.2109 168.5 40.1484C168.5 44.0859 169.047 46.8125 170.141 48.3281C171.234 49.8281 173.188 50.5781 176 50.5781H180.805C183.32 50.5781 185.117 50.1016 186.195 49.1484C187.273 48.1797 187.828 46.7969 187.859 45H182.562C181.953 45 181.43 44.7891 180.992 44.3672C180.57 43.9297 180.359 43.4062 180.359 42.7969V40.9688C180.359 40.3594 180.57 39.8438 180.992 39.4219C181.43 38.9844 181.953 38.7656 182.562 38.7656H194.328C194.938 38.7656 195.453 38.9844 195.875 39.4219C196.312 39.8438 196.531 40.3594 196.531 40.9688V43.5703C196.531 47.9453 195.219 51.3125 192.594 53.6719C189.969 56.0156 186.117 57.1875 181.039 57.1875H175.766ZM215.516 57.1875C210.328 57.1875 206.344 55.7891 203.562 52.9922C200.797 50.1953 199.414 45.9219 199.414 40.1719C199.414 34.4062 200.859 30.1406 203.75 27.375C206.656 24.5938 211.008 23.2031 216.805 23.2031H222.031C225.484 23.2031 228.594 24.0312 231.359 25.6875C234.141 27.3281 235.531 29.3828 235.531 31.8516C235.531 32.7734 235.258 33.4375 234.711 33.8438C234.164 34.2344 233.633 34.4297 233.117 34.4297H230.328C228.984 34.4297 227.914 33.6641 227.117 32.1328C226.32 30.6016 224.352 29.8359 221.211 29.8359H217.039C213.617 29.8359 211.297 30.5703 210.078 32.0391C208.859 33.5078 208.25 36.2109 208.25 40.1484C208.25 44.0859 208.797 46.8125 209.891 48.3281C210.984 49.8281 212.938 50.5781 215.75 50.5781H220.555C223.07 50.5781 224.867 50.1016 225.945 49.1484C227.023 48.1797 227.578 46.7969 227.609 45H222.312C221.703 45 221.18 44.7891 220.742 44.3672C220.32 43.9297 220.109 43.4062 220.109 42.7969V40.9688C220.109 40.3594 220.32 39.8438 220.742 39.4219C221.18 38.9844 221.703 38.7656 222.312 38.7656H234.078C234.688 38.7656 235.203 38.9844 235.625 39.4219C236.062 39.8438 236.281 40.3594 236.281 40.9688V43.5703C236.281 47.9453 234.969 51.3125 232.344 53.6719C229.719 56.0156 225.867 57.1875 220.789 57.1875H215.516ZM238.32 54.8438L244.203 32.5312C245.797 26.4531 250.984 23.4062 259.766 23.3906H272.398C272.977 23.3906 273.453 23.6094 273.828 24.0469C274.219 24.4844 274.414 24.9922 274.414 25.5703V54.8438C274.414 55.4531 274.195 55.9688 273.758 56.3906C273.32 56.7969 272.797 57 272.188 57H267.781C267.141 57 266.609 56.7969 266.188 56.3906C265.781 55.9688 265.578 55.4375 265.578 54.7969V48.8906H248.914L247.344 54.7969C247.188 55.4375 246.836 55.9688 246.289 56.3906C245.742 56.7969 245.164 57 244.555 57H239.938C239.328 57 238.891 56.8281 238.625 56.4844C238.359 56.125 238.227 55.8125 238.227 55.5469C238.242 55.2812 238.273 55.0469 238.32 54.8438ZM250.648 42.2578H265.578V30.0234H258.898C257.398 30.0234 256.086 30.4531 254.961 31.3125C253.852 32.1562 253.102 33.2969 252.711 34.7344L250.648 42.2578Z" fill="#3A3A3A"/>
<path fill-rule="evenodd" clip-rule="evenodd" d="M26.0688 69.5405C40.5701 22.6841 81.3554 4.13469 109.91 1.00114C111.539 0.822373 47.7914 21.7366 43.5124 69.5405H26.0703H26.0688Z" fill="#3A3A3A" stroke="#3A3A3A" stroke-width="1.232"/>
<path fill-rule="evenodd" clip-rule="evenodd" d="M65.9145 12.7842C20.4609 15.7129 20.0359 32.4056 30.2102 39.9606C40.3441 47.4865 31.3858 47.0411 27.8942 45.1821C-2.75734 28.8607 33.8318 7.10722 65.9139 12.7836L65.9145 12.7842Z" fill="#3A3A3A" stroke="#3A3A3A" stroke-width="0.868"/>
<path d="M0.00014968 17.4937C-0.00721245 16.5059 0.257079 15.5268 0.777834 14.6126C1.29859 13.6985 2.06554 12.8673 3.0346 12.1669C4.00366 11.4666 5.15572 10.9108 6.42455 10.5315C7.69339 10.1523 9.05398 9.95703 10.4281 9.95703C11.8023 9.95703 13.1629 10.1523 14.4317 10.5315C15.7005 10.9108 16.8526 11.4666 17.8217 12.1669C18.7907 12.8673 19.5577 13.6985 20.0784 14.6126C20.5992 15.5268 20.8635 16.5059 20.8561 17.4937C20.8635 18.4816 20.5992 19.4607 20.0784 20.3748C19.5577 21.289 18.7907 22.1201 17.8217 22.8205C16.8526 23.5209 15.7005 24.0767 14.4317 24.4559C13.1629 24.8352 11.8023 25.0304 10.4281 25.0304C9.05398 25.0304 7.69339 24.8352 6.42455 24.4559C5.15572 24.0767 4.00366 23.5209 3.0346 22.8205C2.06554 22.1201 1.29859 21.289 0.777834 20.3748C0.257079 19.4607 -0.00721245 18.4816 0.00014968 17.4937V17.4937Z" fill="#3A3A3A"/>
</svg>
