<svg width="145" height="145" viewBox="0 0 145 145" fill="none" xmlns="http://www.w3.org/2000/svg">
<circle cx="72.5" cy="72.5" r="70" stroke="white" stroke-width="5"/>
<path d="M45 68.5C43.067 68.5 41.5 70.067 41.5 72C41.5 73.933 43.067 75.5 45 75.5L45 68.5ZM101.475 74.4749C102.842 73.108 102.842 70.892 101.475 69.5251L79.201 47.2513C77.8342 45.8844 75.6181 45.8844 74.2513 47.2513C72.8844 48.6181 72.8844 50.8342 74.2513 52.201L94.0503 72L74.2513 91.799C72.8844 93.1658 72.8844 95.3819 74.2513 96.7487C75.6181 98.1156 77.8342 98.1156 79.201 96.7487L101.475 74.4749ZM45 75.5L99 75.5L99 68.5L45 68.5L45 75.5Z" fill="white"/>
</svg>
