<svg width="1804" height="1808" viewBox="0 0 1804 1808" fill="none" xmlns="http://www.w3.org/2000/svg">
<path d="M811.602 1660.5C1029.23 1696.18 1236.89 1667.68 1396.83 1592C1556.7 1516.35 1670.24 1392.72 1695.61 1237.96C1720.99 1083.2 1652.87 929.791 1525.52 807.048C1398.13 684.253 1210.44 590.936 992.812 555.255C775.184 519.574 567.527 548.072 407.586 623.756C247.713 699.408 134.174 823.033 108.8 977.794C83.4267 1132.55 151.544 1285.96 278.89 1408.71C406.289 1531.5 593.974 1624.82 811.602 1660.5Z" fill="#F41212" stroke="black" stroke-width="30"/>
<path d="M534.22 318.32L875.719 461.819L875.719 120.317L1051.72 384.819L1292.92 230.32L1217.22 461.819L1503.22 461.819L1292.92 615.818L1580.22 725.819L919.72 670.82L534.22 318.32Z" fill="#67CA04" stroke="black" stroke-width="30"/>
</svg>
