<?xml version="1.0" encoding="UTF-8" standalone="no"?>
<svg
   xmlns:dc="http://purl.org/dc/elements/1.1/"
   xmlns:cc="http://creativecommons.org/ns#"
   xmlns:rdf="http://www.w3.org/1999/02/22-rdf-syntax-ns#"
   xmlns:svg="http://www.w3.org/2000/svg"
   xmlns="http://www.w3.org/2000/svg"
   viewBox="0 0 707 535"
   height="535"
   width="707"
   id="svg855"
   version="1.1">
  <metadata
     id="metadata861">
    <rdf:RDF>
      <cc:Work
         rdf:about="">
        <dc:format>image/svg+xml</dc:format>
        <dc:type
           rdf:resource="http://purl.org/dc/dcmitype/StillImage" />
        <dc:title></dc:title>
      </cc:Work>
    </rdf:RDF>
  </metadata>
  <defs
     id="defs859" />
  <g
     transform="translate(1.1867873,1.1867871)"
     id="g865">
    <path
       id="path879"
       d="M 129.25689,533.56317 C 125.66013,531.5737 123,528.81677 123,527.0786 c 0,-1.60109 44.50387,-50.66182 47.45374,-52.31265 1.09033,-0.61018 2.69748,0.065 5.48254,2.30309 4.93289,3.96418 5.60924,5.68822 3.27038,8.33642 -8.83491,10.00341 -40.15356,43.78265 -42.96866,46.34454 -3.94863,3.59346 -3.822,3.56057 -6.98111,1.81317 z m 57,0 C 182.66013,531.5737 180,528.81677 180,527.0786 c 0,-1.60109 44.50387,-50.66182 47.45374,-52.31265 1.09033,-0.61018 2.69748,0.065 5.48254,2.30309 4.93289,3.96418 5.60924,5.68822 3.27038,8.33642 -8.83491,10.00341 -40.15356,43.78265 -42.96866,46.34454 -3.94863,3.59346 -3.822,3.56057 -6.98111,1.81317 z m 57,0 C 239.66013,531.5737 237,528.81677 237,527.0786 c 0,-1.60109 44.50387,-50.66182 47.45374,-52.31265 1.09033,-0.61018 2.69748,0.065 5.48254,2.30309 4.93289,3.96418 5.60924,5.68822 3.27038,8.33642 -8.83491,10.00341 -40.15356,43.78265 -42.96866,46.34454 -3.94863,3.59346 -3.822,3.56057 -6.98111,1.81317 z m 57,0 C 296.66013,531.5737 294,528.81677 294,527.0786 c 0,-1.60109 44.50387,-50.66182 47.45374,-52.31265 1.09033,-0.61018 2.69748,0.065 5.48254,2.30309 4.93289,3.96418 5.60924,5.68822 3.27038,8.33642 -8.83491,10.00341 -40.15356,43.78265 -42.96866,46.34454 -3.94863,3.59346 -3.822,3.56057 -6.98111,1.81317 z m 51.3398,-56.72858 C 350.71851,475.58081 350,472.71222 350,470.45995 c 0,-3.94331 0.79985,-4.9632 21.58852,-27.52749 11.87369,-12.88785 22.50048,-23.58304 23.61508,-23.76709 2.3285,-0.38449 8.80086,5.34572 8.78854,7.7808 -0.004,0.85461 -10.37396,12.80383 -23.04362,26.55383 -24.12528,26.18243 -26.20118,27.83276 -29.35183,23.33459 z M 126.5348,471.89641 C 124.59066,470.18943 123,468.04455 123,467.12999 c 0,-1.58565 44.39887,-50.65445 47.30538,-52.28101 1.57217,-0.87984 9.10028,4.1598 10.0981,6.7601 0.74843,1.95037 0.99751,1.65375 -25.39323,30.23938 C 142.49376,465.40593 132.89732,475 131.85297,475 c -0.98086,0 -3.37404,-1.39662 -5.31817,-3.10359 z m 57,0 C 181.59066,470.18943 180,468.04455 180,467.12999 c 0,-1.58565 44.39887,-50.65445 47.30538,-52.28101 1.57217,-0.87984 9.10028,4.1598 10.0981,6.7601 0.74843,1.95037 0.99751,1.65375 -25.39323,30.23938 C 199.49376,465.40593 189.89732,475 188.85297,475 c -0.98086,0 -3.37404,-1.39662 -5.31817,-3.10359 z m 57,0 C 238.59066,470.18943 237,468.04388 237,467.12851 c 0,-0.91537 10.125,-12.65323 22.5,-26.08414 C 271.875,427.61346 282,416.25901 282,415.81227 282,415.36552 280.9327,415 279.62822,415 c -4.07524,0 -20.92617,-4.64985 -28.93785,-7.98513 -8.83322,-3.67728 -22.93672,-11.92138 -26.91977,-15.73576 l -2.72941,-2.61383 -7.77059,3.6141 c -16.22587,7.54665 -34.1421,12.86559 -49.2706,14.62736 -14.13225,1.64577 -38.89599,2.20393 -49.36474,1.11267 C 80.589384,404.47046 50.244313,392.49642 28.5,374.03079 14.68966,362.30282 3.6777948,346.23705 1.8918713,335.21085 -1.2400269,315.87467 0.25796878,297.3749 5.8530929,286.29102 11.297501,275.50571 20.650783,264.75241 34.809806,253 l 4.216717,-3.5 -3.623613,-8.88893 C 30.448814,228.4584 28.623357,217.30389 29.329609,203.5 c 0.675785,-13.20839 2.405196,-20.23454 7.735768,-31.42838 11.616392,-24.39364 31.854248,-42.1777 58.475829,-51.38577 14.528774,-5.02532 22.691044,-6.08077 41.764124,-5.40045 16.84001,0.60066 26.00059,2.29152 36.12787,6.66848 l 4.93321,2.1321 7.06679,-6.91098 c 12.33215,-12.06024 21.53256,-18.325527 36.40415,-24.790463 7.2239,-3.140355 7.39518,-3.298349 7.67737,-7.081962 0.45625,-6.117291 8.67062,-26.368211 14.58602,-35.958968 11.13494,-18.053308 31.48601,-35.044234 51.69237,-43.1575102 10.48491,-4.2099112 16.25056,-5.1396732 36.21944,-5.84070823 29.81414,-1.04666683 46.50475,2.91292183 65.85573,15.62325343 17.2768,11.347948 29.5796,25.49147 38.7975,44.602316 8.5102,17.643605 9.64674,23.686579 9.09061,48.334662 -0.40279,17.85166 -0.76592,21.52663 -2.7266,27.59438 -2.62004,8.10829 -8.71858,20.60077 -13.91304,28.5 -1.98921,3.025 -4.03916,6.17426 -4.55543,6.99836 -0.51627,0.82409 0.83373,0.011 3,-1.807 11.48325,-9.63679 22.18312,-16.85039 32.93868,-22.20647 62.43929,-31.09371 152.10387,-27.18189 206.78483,9.02144 15.10386,10.00001 32.16239,29.07582 36.04704,40.30984 5.18865,15.00506 4.54394,41.12386 -1.30043,52.68383 -3.98108,7.87443 -10.53611,16.26129 -19.22241,24.59416 -8.98531,8.61972 -22.05992,18.03489 -27.77994,20.00465 -3.40627,1.17298 -3.49227,1.34149 -4.6179,9.04822 -2.28019,15.61136 -6.45194,26.21766 -15.88608,40.38884 -24.00442,36.05746 -73.89167,62.35764 -131.02511,69.07546 -12.64607,1.48694 -52.20452,0.56232 -65.68214,-1.53521 -18.89163,-2.94013 -41.42568,-9.58894 -57.17031,-16.86846 -7.81443,-3.613 -8.959,-3.90251 -9.76122,-2.46902 -1.14737,2.05023 -16.22892,10.71965 -25.54378,14.68347 C 331.36136,412.87164 315.1417,416 298.27623,416 293.72431,416 290,416.20455 290,416.45455 c 0,0.25 1.125,1.57954 2.5,2.95454 1.375,1.375 2.5,2.88533 2.5,3.35628 C 295,424.60857 247.60312,475 245.86946,475 c -0.98993,0 -3.39053,-1.39662 -5.33466,-3.10359 z m 57,0 C 295.59066,470.18943 294,468.04455 294,467.12999 c 0,-1.58565 44.39887,-50.65445 47.30538,-52.28101 1.57217,-0.87984 9.10028,4.1598 10.0981,6.7601 0.74843,1.95037 0.99751,1.65375 -25.39323,30.23938 C 313.49376,465.40593 303.89732,475 302.85297,475 c -0.98086,0 -3.37404,-1.39662 -5.31817,-3.10359 z"
       style="fill:#e7e7e7" />
    <path
       id="path877"
       d="m 127.08396,530.58662 c -1.81961,-1.87735 -3.14538,-3.85659 -2.94617,-4.39831 0.40376,-1.09793 39.93697,-44.05072 44.6838,-48.54891 l 3.01872,-2.86059 4.24207,3.95695 4.24206,3.95695 -4.41222,4.88897 c -11.77125,13.04316 -41.42457,45.00413 -42.35676,45.65301 -1.89236,1.31723 -3.11182,0.81825 -6.4715,-2.64807 z m 57,0 c -1.81961,-1.87735 -3.14538,-3.85659 -2.94617,-4.39831 0.40376,-1.09793 39.93697,-44.05072 44.6838,-48.54891 l 3.01872,-2.86059 4.24207,3.95695 4.24206,3.95695 -4.41222,4.88897 c -11.77125,13.04316 -41.42457,45.00413 -42.35676,45.65301 -1.89236,1.31723 -3.11182,0.81825 -6.4715,-2.64807 z m 57,0 c -1.81961,-1.87735 -3.14538,-3.85659 -2.94617,-4.39831 0.40376,-1.09793 39.93697,-44.05072 44.6838,-48.54891 l 3.01872,-2.86059 4.24207,3.95695 4.24206,3.95695 -4.41222,4.88897 c -11.77125,13.04316 -41.42457,45.00413 -42.35676,45.65301 -1.89236,1.31723 -3.11182,0.81825 -6.4715,-2.64807 z m 57,0 c -1.81961,-1.87735 -3.14538,-3.85659 -2.94617,-4.39831 0.40376,-1.09793 39.93697,-44.05072 44.6838,-48.54891 l 3.01872,-2.86059 4.24207,3.95695 4.24206,3.95695 -4.41222,4.88897 c -11.77125,13.04316 -41.42457,45.00413 -42.35676,45.65301 -1.89236,1.31723 -3.11182,0.81825 -6.4715,-2.64807 z m 54.61087,-54.37134 c -0.99242,-1.09661 -1.69023,-3.4979 -1.68373,-5.79402 0.0105,-3.71518 1.14235,-5.14314 21.5365,-27.17126 12.52608,-13.52967 22.26807,-23.25 23.3018,-23.25 2.32534,0 7.43261,5.36404 6.99297,7.34454 -0.49999,2.25235 -44.91961,50.10219 -46.8329,50.44948 -0.8909,0.16171 -2.38249,-0.54872 -3.31464,-1.57874 z m -225.57316,-5.58975 c -1.84035,-1.89876 -3.18309,-3.8955 -2.98388,-4.43722 0.40376,-1.09793 39.93697,-44.05072 44.6838,-48.54891 l 3.01872,-2.86059 4.22795,3.94378 4.22794,3.94379 -3.8981,4.37159 c -17.22568,19.31804 -43.00944,46.51557 -44.32076,46.75093 -0.88528,0.1589 -3.11533,-1.26462 -4.95567,-3.16337 z m 57,0 c -1.84035,-1.89876 -3.18309,-3.8955 -2.98388,-4.43722 0.40376,-1.09793 39.93697,-44.05072 44.6838,-48.54891 l 3.01872,-2.86059 4.22795,3.94378 4.22794,3.94379 -3.8981,4.37159 c -17.22568,19.31804 -43.00944,46.51557 -44.32076,46.75093 -0.88528,0.1589 -3.11533,-1.26462 -4.95567,-3.16337 z m 57,0 c -1.84035,-1.89876 -3.18309,-3.90882 -2.98388,-4.4668 0.19922,-0.55799 10.59971,-12.06384 23.11221,-25.56856 12.5125,-13.50472 22.75,-24.74761 22.75,-24.98421 0,-0.23659 -1.9125,-0.73392 -4.25,-1.10517 -19.44065,-3.08764 -44.49061,-13.73173 -54.47306,-23.14639 l -3.61779,-3.41202 -10.07958,4.46517 C 184.1724,404.54871 158.4648,409.00648 123.5,407.68079 75.958061,405.87825 31.253831,384.30367 10.666193,353.22639 5.0513673,344.75074 3.2466247,340.40266 1.4407739,331 -1.0952228,317.79564 0.20535906,300.88936 4.5563949,290.5 10.026297,277.43903 23.280554,262.37213 39.903916,250.31838 40.126069,250.1573 38.923188,246.98226 37.230847,243.26275 31.923838,231.59874 30.809099,226.49378 30.295013,211.5 29.745465,195.47192 30.968485,187.74088 35.944533,175.78788 44.387099,155.50793 62.279045,136.86775 83.5,126.24367 c 3.3,-1.65212 10.5,-4.51322 16,-6.35801 l 10,-3.35417 22.5,-0.0157 c 20.46252,-0.0143 23.21059,0.19013 30.34712,2.25783 4.31591,1.25047 9.67596,3.15719 11.91122,4.23715 l 4.06411,1.96356 8.59057,-8.28133 c 10.68789,-10.30316 18.28348,-15.49939 32.61188,-22.310175 10.22845,-4.86194 11.16828,-5.536959 10.75068,-7.72149 -0.60593,-3.169758 4.91288,-19.177502 10.01606,-29.052332 C 255.37329,28.425435 284.64579,6.4133081 315,1.4302961 c 16.68517,-2.7390729 45.98507,-1.18736699 58.5,3.0981265 14.96639,5.1249497 33.25168,17.0374954 44.05294,28.6997244 11.45183,12.364654 21.59612,30.648751 26.13877,47.112567 1.32904,4.816836 1.69382,10.300439 1.67361,25.159286 -0.0285,20.96689 -0.99018,26.93369 -6.45766,40.06717 -3.16506,7.60281 -12.42003,23.17163 -16.159,27.18283 -4.14089,4.4424 0.31074,2.13084 7.4601,-3.87373 25.40007,-21.33291 56.99032,-34.39235 95.29124,-39.39351 16.06922,-2.09825 44.54697,-2.08115 61.08507,0.0367 29.06567,3.72206 57.83208,13.60727 78.41493,26.94629 15.20096,9.85121 29.44757,24.58627 35.66567,36.88849 5.93868,11.74939 7.79166,28.52814 4.84889,43.90674 -2.47383,12.92804 -8.78536,22.95761 -23.1436,36.77722 -9.85332,9.48368 -26.86726,21.25647 -29.50828,20.41825 -1.35986,-0.43161 -1.78879,0.44052 -2.3399,4.75755 -3.06642,24.02061 -11.94946,41.99847 -29.95153,60.61713 C 595.46526,385.79701 560.04833,403.00328 516,410.634 c -13.7569,2.38318 -15.96058,2.48885 -43,2.06193 -29.87839,-0.47175 -36.59543,-1.21225 -56,-6.17359 -12.97141,-3.31652 -23.6772,-6.97671 -35.24907,-12.05126 l -9.74906,-4.27521 -2.87177,2.68262 c -3.67278,3.43089 -22.43821,13.13298 -31.96691,16.5275 -10.07208,3.58809 -23.43867,5.58524 -37.41319,5.59002 -6.4625,0.002 -11.75,0.3201 -11.75,0.70641 0,0.38632 1.39198,2.13855 3.09329,3.89386 l 3.09329,3.19147 -3.84329,4.31092 c -17.13139,19.21586 -42.95638,46.45521 -44.26595,46.69026 -0.88528,0.1589 -3.11533,-1.26462 -4.95567,-3.16337 z m 57,0 c -1.84035,-1.89876 -3.18309,-3.8955 -2.98388,-4.43722 0.40376,-1.09793 39.93697,-44.05072 44.6838,-48.54891 l 3.01872,-2.86059 4.22795,3.94378 4.22794,3.94379 -3.8981,4.37159 c -17.22568,19.31804 -43.00944,46.51557 -44.32076,46.75093 -0.88528,0.1589 -3.11533,-1.26462 -4.95567,-3.16337 z"
       style="fill:#d7d7d7" />
    <path
       id="path875"
       d="m 128.24099,531.2231 c -1.79246,-1.49771 -3.24713,-3.3981 -3.2326,-4.2231 0.0286,-1.6253 44.52299,-50.31912 46.40059,-50.77995 0.62734,-0.15398 2.65198,1.27937 4.4992,3.18521 l 3.35857,3.46517 -3.38337,3.90975 c -6.88645,7.95781 -43.38948,47.21889 -43.87767,47.19292 -0.27814,-0.0148 -1.97227,-1.2523 -3.76472,-2.75 z m 57,0 c -1.79246,-1.49771 -3.24713,-3.3981 -3.2326,-4.2231 0.0286,-1.6253 44.52299,-50.31912 46.40059,-50.77995 0.62734,-0.15398 2.65198,1.27937 4.4992,3.18521 l 3.35857,3.46517 -3.38337,3.90975 c -6.88645,7.95781 -43.38948,47.21889 -43.87767,47.19292 -0.27814,-0.0148 -1.97227,-1.2523 -3.76472,-2.75 z m 57,0 c -1.79246,-1.49771 -3.24713,-3.3981 -3.2326,-4.2231 0.0286,-1.6253 44.52299,-50.31912 46.40059,-50.77995 0.62734,-0.15398 2.65198,1.27937 4.4992,3.18521 l 3.35857,3.46517 -3.38337,3.90975 c -6.88645,7.95781 -43.38948,47.21889 -43.87767,47.19292 -0.27814,-0.0148 -1.97227,-1.2523 -3.76472,-2.75 z m 57,0 c -1.79246,-1.49771 -3.24713,-3.3981 -3.2326,-4.2231 0.0286,-1.6253 44.52299,-50.31912 46.40059,-50.77995 0.62734,-0.15398 2.65198,1.27937 4.4992,3.18521 l 3.35857,3.46517 -3.38337,3.90975 c -6.88645,7.95781 -43.38948,47.21889 -43.87767,47.19292 -0.27814,-0.0148 -1.97227,-1.2523 -3.76472,-2.75 z m 54.54922,-54.28252 c -2.5198,-1.46631 -3.36161,-7.41957 -1.45961,-10.32239 1.93563,-2.95415 40.53999,-44.82734 42.32062,-45.90414 0.83358,-0.50409 2.65336,0.45647 5.07423,2.67839 l 3.77455,3.46435 -2.61721,2.8216 c -1.43946,1.55189 -11.9309,12.94661 -23.31432,25.32161 -11.38341,12.375 -21.00567,22.59799 -21.38279,22.71776 -0.37713,0.11977 -1.45508,-0.22996 -2.39547,-0.77718 z m -225.54922,-5.74745 c -1.79246,-1.48122 -3.24713,-3.36813 -3.2326,-4.19313 0.0286,-1.6253 44.52299,-50.31912 46.40059,-50.77995 0.62734,-0.15398 2.67524,1.30337 4.55089,3.23855 l 3.41027,3.5185 -2.0467,2.26145 c -16.42288,18.14604 -42.82241,46.5356 -44.12816,47.45458 -1.39753,0.98358 -2.26768,0.72012 -4.95429,-1.5 z m 57,0 c -1.79246,-1.48122 -3.24713,-3.36813 -3.2326,-4.19313 0.0286,-1.6253 44.52299,-50.31912 46.40059,-50.77995 0.62734,-0.15398 2.67524,1.30337 4.55089,3.23855 l 3.41027,3.5185 -2.0467,2.26145 c -16.42288,18.14604 -42.82241,46.5356 -44.12816,47.45458 -1.39753,0.98358 -2.26768,0.72012 -4.95429,-1.5 z m 57,0 C 240.44853,469.71191 238.9947,467.825 239.01026,467 c 0.0156,-0.825 10.40622,-12.73834 23.09036,-26.47409 18.97188,-20.5448 22.73726,-25.09296 21.23072,-25.64428 -1.00724,-0.3686 -4.98134,-1.23672 -8.83134,-1.92915 -8.46918,-1.52322 -21.04278,-5.67759 -29.72533,-9.82139 C 235.58242,398.74403 223,390.30117 223,388.52019 223,387.68409 222.84073,387 222.64607,387 c -0.19466,0 -4.58216,1.97165 -9.75,4.38144 -10.79686,5.03464 -25.41861,9.90852 -38.39607,12.79859 -10.76483,2.39732 -42.38447,3.83556 -58.68982,2.66954 C 89.874363,404.99486 60.684392,395.26642 40.275171,381.67525 26.00476,372.17211 11.934363,356.93434 6.0556999,344.61671 -1.324484,329.15292 -1.7917368,306.21779 4.9547249,290.57529 10.04328,278.77685 21.108406,265.36192 34.171324,255.15423 l 6.671324,-5.21313 -3.332409,-7.22055 C 31.850069,230.45629 30.613604,224.23141 30.613604,208 c 0,-16.20169 1.238553,-22.46074 6.851053,-34.62189 4.715726,-10.21803 10.782407,-18.77717 19.459344,-27.45411 12.486553,-12.48655 26.663078,-20.74466 45.581499,-26.55213 8.48545,-2.60482 10.09813,-2.76322 28.4945,-2.79874 12.76336,-0.0247 21.57281,0.42466 25.5,1.30057 8.4303,1.88028 17.68834,5.11239 19.72276,6.8855 1.57438,1.37215 2.34956,0.86177 9,-5.92568 11.31539,-11.54851 23.71259,-19.943275 38.27724,-25.919444 9.63946,-3.955267 9.05263,-3.543271 7.5779,-5.32021 -0.96417,-1.161761 -0.50061,-3.565768 2.30347,-11.945653 6.466,-19.323363 14.41706,-32.2461 27.87562,-45.305837 16.01337,-15.53884 34.45006,-25.2995843 54.36827,-28.7836352 16.98902,-2.9716836 43.9082,-1.41683183 57.58541,3.3261326 34.24309,11.8747796 61.25767,41.5546396 70.43746,77.3868736 2.12579,8.297774 1.40062,43.185783 -1.0856,52.228253 -2.43121,8.84237 -11.70803,26.95649 -18.05266,35.25 -7.34281,9.5983 -5.22754,9.39897 5.99013,-0.56448 17.10769,-15.1949 39.66926,-26.57966 66.59059,-33.60216 21.66428,-5.65119 33.27041,-7.03774 58.90941,-7.03774 25.12978,0 37.05071,1.37665 57.5,6.64021 29.34675,7.55373 51.47062,19.0151 68.66285,35.5711 14.67497,14.13189 20.63944,23.88105 23.39686,38.24307 5.92934,30.88306 -7.00363,55.87088 -40.74038,78.71458 -6.82166,4.61906 -10.29304,6.3948 -11.75417,6.01271 -2.30349,-0.60238 -2.14323,-1.06102 -4.03787,11.55553 -3.09972,20.64115 -13.31888,39.35186 -30.97704,56.71718 -24.54217,24.13518 -61.32815,41.45367 -103.06419,48.52165 -22.45477,3.80271 -65.11931,2.76344 -88.43576,-2.15422 -14.65414,-3.0907 -34.94283,-9.6796 -46.94015,-15.24416 C 374.72074,390.85547 370.55824,389 370.36015,389 370.16207,389 370,389.65338 370,390.45196 c 0,3.53247 -25.93648,17.07908 -39.18943,20.46861 C 321.25251,413.36511 306.83537,415 294.83647,415 h -9.24237 l 3.89131,3.98505 3.8913,3.98506 -2.04999,2.26494 c -16.4607,18.18677 -42.82552,46.53898 -44.13144,47.45808 -1.39753,0.98358 -2.26768,0.72012 -4.95429,-1.5 z m 57,0 c -1.79246,-1.48122 -3.24713,-3.36813 -3.2326,-4.19313 0.0286,-1.6253 44.52299,-50.31912 46.40059,-50.77995 0.62734,-0.15398 2.67524,1.30337 4.55089,3.23855 l 3.41027,3.5185 -2.0467,2.26145 c -16.42288,18.14604 -42.82241,46.5356 -44.12816,47.45458 -1.39753,0.98358 -2.26768,0.72012 -4.95429,-1.5 z"
       style="fill:#c7c7c7" />
    <path
       id="path873"
       d="m 128.14951,530.40297 -3.35049,-3.56013 1.96212,-2.17142 c 13.53842,-14.98256 42.6466,-46.37964 43.63606,-47.06735 1.46606,-1.01896 7.6028,2.99062 7.6028,4.96747 0,0.65748 -8.8875,10.82785 -19.75,22.60082 -10.8625,11.77297 -21.19875,23.07541 -22.96945,25.11652 -1.7707,2.04112 -3.3457,3.70282 -3.5,3.69267 -0.1543,-0.0101 -1.78827,-1.62051 -3.63104,-3.57858 z m 57,0 -3.35049,-3.56013 1.96212,-2.17142 c 13.53842,-14.98256 42.6466,-46.37964 43.63606,-47.06735 1.46606,-1.01896 7.6028,2.99062 7.6028,4.96747 0,0.65748 -8.8875,10.82785 -19.75,22.60082 -10.8625,11.77297 -21.19875,23.07541 -22.96945,25.11652 -1.7707,2.04112 -3.3457,3.70282 -3.5,3.69267 -0.1543,-0.0101 -1.78827,-1.62051 -3.63104,-3.57858 z m 57,0 -3.35049,-3.56013 1.96212,-2.17142 c 13.53842,-14.98256 42.6466,-46.37964 43.63606,-47.06735 1.46606,-1.01896 7.6028,2.99062 7.6028,4.96747 0,0.65748 -8.8875,10.82785 -19.75,22.60082 -10.8625,11.77297 -21.19875,23.07541 -22.96945,25.11652 -1.7707,2.04112 -3.3457,3.70282 -3.5,3.69267 -0.1543,-0.0101 -1.78827,-1.62051 -3.63104,-3.57858 z m 57,0 -3.35049,-3.56013 1.96212,-2.17142 c 13.53842,-14.98256 42.6466,-46.37964 43.63606,-47.06735 1.46606,-1.01896 7.6028,2.99062 7.6028,4.96747 0,0.65748 -8.8875,10.82785 -19.75,22.60082 -10.8625,11.77297 -21.19875,23.07541 -22.96945,25.11652 -1.7707,2.04112 -3.3457,3.70282 -3.5,3.69267 -0.1543,-0.0101 -1.78827,-1.62051 -3.63104,-3.57858 z m 53.88567,-55.33723 c -2.9236,-5.4628 -2.05482,-6.7967 20.01746,-30.73412 11.57896,-12.55739 21.60619,-22.95829 22.28275,-23.1131 0.67655,-0.15482 2.50941,1.05382 4.07301,2.68587 l 2.84292,2.96737 -2.87566,3.42532 C 390.96955,440.30997 356.33635,477 355.29089,477 c -0.67129,0 -1.68636,-0.87042 -2.25571,-1.93426 z m -225.15751,-5.03422 -3.13195,-3.13195 1.98877,-2.19979 c 13.82177,-15.2883 42.67259,-46.40754 43.66271,-47.09571 1.45733,-1.01289 7.6028,2.98525 7.6028,4.94626 0,1.27552 -44.2899,49.71297 -45.96752,50.27218 -0.56257,0.18752 -2.43224,-1.06842 -4.15481,-2.79099 z m 57,0 -3.13195,-3.13195 1.98877,-2.19979 c 13.82177,-15.2883 42.67259,-46.40754 43.66271,-47.09571 1.45733,-1.01289 7.6028,2.98525 7.6028,4.94626 0,1.27552 -44.2899,49.71297 -45.96752,50.27218 -0.56257,0.18752 -2.43224,-1.06842 -4.15481,-2.79099 z m 57,0 -3.13195,-3.13195 1.98877,-2.19979 c 13.82177,-15.2883 42.67259,-46.40754 43.66271,-47.09571 1.45733,-1.01289 7.6028,2.98525 7.6028,4.94626 0,1.27552 -44.2899,49.71297 -45.96752,50.27218 -0.56257,0.18752 -2.43224,-1.06842 -4.15481,-2.79099 z m 57,0 -3.13195,-3.13195 1.98877,-2.19979 c 13.82177,-15.2883 42.67259,-46.40754 43.66271,-47.09571 1.45733,-1.01289 7.6028,2.98525 7.6028,4.94626 0,1.27552 -44.2899,49.71297 -45.96752,50.27218 -0.56257,0.18752 -2.43224,-1.06842 -4.15481,-2.79099 z m -20.78385,-56.7387 c -9.46873,-1.48073 -22.22257,-5.41324 -31.75392,-9.79099 -8.80853,-4.04574 -21.19395,-11.95792 -21.99787,-14.05289 -0.33463,-0.87204 0.31041,-2.51314 1.47387,-3.74982 1.43545,-1.52577 -1.51118,-0.43034 -9.62348,3.5776 -13.20735,6.52519 -27.85653,11.55083 -43.23394,14.83209 -9.27809,1.97978 -13.50582,2.24066 -37.45848,2.31142 -24.76357,0.0732 -27.91114,-0.11548 -38,-2.27742 C 66.50182,397.50019 41.519736,385.20959 24.240422,368.1008 11.189467,355.17864 4.4898877,343.82125 1.5648663,329.66032 -4.1202971,302.13668 7.3988089,276.22513 34.572387,255.41185 c 6.535903,-5.00609 7.296208,-5.91424 6.123214,-7.31383 -2.29755,-2.7414 -6.562782,-13.40449 -8.262311,-20.6558 -2.416052,-10.30847 -1.547892,-35.44528 1.533781,-44.40926 5.152307,-14.98705 12.56998,-26.44039 24.675874,-38.10104 9.010165,-8.67878 13.879193,-12.17139 24.202621,-17.36082 18.609234,-9.35456 37.075344,-12.6414 60.343544,-10.74072 14.41884,1.17781 31.89732,5.71475 33.57668,8.71559 0.6361,1.13666 3.09745,-0.74427 10.84532,-8.28781 11.57335,-11.26814 23.76295,-19.244765 38.05126,-24.899969 7.65158,-3.028437 9.08933,-3.9059 7.41487,-4.525323 -2.78613,-1.030657 -2.62925,-3.101383 1.02305,-13.50319 C 245.26439,42.534119 266.96557,19.392735 297,7.2556059 311.5334,1.3825552 316.72751,0.51370503 337,0.564568 357.93324,0.61708876 364.68903,1.7285535 378.63542,7.4144417 408.3296,19.520634 430.029,42.987434 441.2044,75.079606 L 444.48484,84.5 444.44159,105 c -0.0337,15.98664 -0.42458,22.03093 -1.77525,27.45359 -3.12482,12.5455 -13.85757,32.70676 -21.98395,41.29641 -2.77687,2.93517 -2.87691,3.25 -1.03268,3.25 1.12312,0 5.1489,-2.60439 8.94617,-5.78753 20.94972,-17.56155 38.11805,-26.70679 64.29007,-34.24608 64.38502,-18.54718 143.09263,-5.99203 184.21141,29.38473 16.19716,13.93532 25.20984,27.56959 28.32963,42.85672 5.00539,24.52668 -2.06434,43.70947 -23.79024,64.55171 C 674.0958,280.9938 656.29845,294 653.94025,294 c -0.46248,0 -1.28297,-0.7875 -1.82331,-1.75 -1.27003,-2.26227 -1.52788,-1.4111 -3.02223,9.97631 -3.01795,22.99766 -13.21875,41.97107 -32.60315,60.6416 C 591.26978,387.16083 554.3213,404.04089 512,410.60527 c -13.5458,2.10106 -49.90275,2.34218 -67,0.44434 -18.92511,-2.10074 -46.45965,-9.64587 -63,-17.26353 -13.42459,-6.18269 -13.24243,-6.12528 -12.5541,-3.95655 0.47959,1.51107 -0.41722,2.56484 -4.1674,4.89678 -13.35382,8.30371 -24.71357,13.381 -36.7785,16.43832 -10.4974,2.6601 -39.24369,3.87379 -50.40618,2.12819 z"
       style="fill:#b7b7b7" />
    <path
       id="path871"
       d="m 128.65671,529.38251 -2.82825,-2.62251 3.41467,-3.63 c 1.87807,-1.9965 11.91523,-12.855 22.3048,-24.13 10.38957,-11.275 19.37389,-20.62765 19.96516,-20.78366 0.59127,-0.15602 2.14615,0.85648 3.45528,2.25 l 2.38026,2.53366 -2.03595,2.25 c -12.40313,13.70718 -42.67054,46.30784 -43.17429,46.50251 -0.35938,0.13887 -1.92614,-0.92763 -3.48168,-2.37 z m 57,0 -2.82825,-2.62251 3.41467,-3.63 c 1.87807,-1.9965 11.91523,-12.855 22.3048,-24.13 10.38957,-11.275 19.37389,-20.62765 19.96516,-20.78366 0.59127,-0.15602 2.14615,0.85648 3.45528,2.25 l 2.38026,2.53366 -2.03595,2.25 c -12.40313,13.70718 -42.67054,46.30784 -43.17429,46.50251 -0.35938,0.13887 -1.92614,-0.92763 -3.48168,-2.37 z m 57,0 -2.82825,-2.62251 3.41467,-3.63 c 1.87807,-1.9965 11.91523,-12.855 22.3048,-24.13 10.38957,-11.275 19.37389,-20.62765 19.96516,-20.78366 0.59127,-0.15602 2.14615,0.85648 3.45528,2.25 l 2.38026,2.53366 -2.03595,2.25 c -12.40313,13.70718 -42.67054,46.30784 -43.17429,46.50251 -0.35938,0.13887 -1.92614,-0.92763 -3.48168,-2.37 z m 57,0 -2.82825,-2.62251 3.41467,-3.63 c 1.87807,-1.9965 11.91523,-12.855 22.3048,-24.13 10.38957,-11.275 19.37389,-20.62765 19.96516,-20.78366 0.59127,-0.15602 2.14615,0.85648 3.45528,2.25 l 2.38026,2.53366 -2.03595,2.25 c -12.40313,13.70718 -42.67054,46.30784 -43.17429,46.50251 -0.35938,0.13887 -1.92614,-0.92763 -3.48168,-2.37 z m 53.96912,-54.91521 c -2.0177,-5.25802 -1.07771,-6.64266 20.06043,-29.54983 11.37745,-12.32961 21.18477,-22.54512 21.79406,-22.70113 0.60929,-0.15602 2.18176,0.85951 3.49438,2.25673 l 2.38658,2.5404 -2.54198,2.74326 c -1.39808,1.5088 -11.44828,12.41827 -22.33377,24.24327 -10.88549,11.825 -20.34127,21.63459 -21.01284,21.79909 -0.67157,0.1645 -1.50266,-0.4348 -1.84686,-1.33179 z m -224.96912,-5.08479 -2.82825,-2.62251 3.41467,-3.63 c 1.87807,-1.9965 11.91523,-12.855 22.3048,-24.13 10.38957,-11.275 19.37389,-20.62765 19.96516,-20.78366 0.59127,-0.15602 2.14615,0.85648 3.45528,2.25 l 2.38026,2.53366 -2.03595,2.25 c -12.40313,13.70718 -42.67054,46.30784 -43.17429,46.50251 -0.35938,0.13887 -1.92614,-0.92763 -3.48168,-2.37 z m 57,0 -2.82825,-2.62251 3.41467,-3.63 c 1.87807,-1.9965 11.91523,-12.855 22.3048,-24.13 10.38957,-11.275 19.37389,-20.62765 19.96516,-20.78366 0.59127,-0.15602 2.14615,0.85648 3.45528,2.25 l 2.38026,2.53366 -2.03595,2.25 c -12.40313,13.70718 -42.67054,46.30784 -43.17429,46.50251 -0.35938,0.13887 -1.92614,-0.92763 -3.48168,-2.37 z m 57,0 -2.82825,-2.62251 3.41467,-3.63 c 1.87807,-1.9965 11.91523,-12.855 22.3048,-24.13 10.38957,-11.275 19.37389,-20.62765 19.96516,-20.78366 0.59127,-0.15602 2.14615,0.85648 3.45528,2.25 l 2.38026,2.53366 -2.03595,2.25 c -12.40313,13.70718 -42.67054,46.30784 -43.17429,46.50251 -0.35938,0.13887 -1.92614,-0.92763 -3.48168,-2.37 z m 57,0 -2.82825,-2.62251 3.41467,-3.63 c 1.87807,-1.9965 11.91523,-12.855 22.3048,-24.13 10.38957,-11.275 19.37389,-20.62765 19.96516,-20.78366 0.59127,-0.15602 2.14615,0.85648 3.45528,2.25 l 2.38026,2.53366 -2.03595,2.25 c -12.40313,13.70718 -42.67054,46.30784 -43.17429,46.50251 -0.35938,0.13887 -1.92614,-0.92763 -3.48168,-2.37 z M 273,412.03311 c -9.75598,-2.096 -20.84003,-5.95656 -29.5,-10.2748 -8.38039,-4.17883 -19.5,-11.67074 -19.5,-13.13825 0,-0.67449 2.73489,-3.15504 6.07753,-5.51234 7.61507,-5.37029 7.13495,-6.49818 -0.64707,-1.52009 -15.85099,10.13976 -41.72875,19.88118 -60.79209,22.88456 -14.04994,2.21353 -43.18387,3.01169 -56.13837,1.53797 C 78.124053,402.0995 46.544201,388.74155 26.115976,369.4706 12.190928,356.33441 4.5959791,343.57605 1.4455418,328.028 -3.4832361,303.70348 7.4034456,277.90239 30.571666,259 43.670133,248.31328 42.690833,249.42484 40.840214,247.34464 35.574431,241.4256 31,223.13542 31,208 31,194.64719 33.198202,184.51821 38.566804,173.1333 50.804115,147.18229 72.35886,129.226 102,120.28997 c 7.12579,-2.14824 11.10744,-2.63984 24.6279,-3.04071 9.26536,-0.27472 19.6903,-0.001 24.5,0.64321 9.61892,1.2884 23.77722,5.6967 24.52094,7.63479 0.27753,0.72325 -1.73818,5.06298 -4.47936,9.64386 C 166.92479,142.26456 160,158.98377 160,162.1387 c 0,2.14425 1.78026,-0.28999 2.37053,-3.24134 0.9672,-4.83601 7.43219,-18.64388 12.21572,-26.09023 8.72641,-13.58411 27.11087,-29.09091 43.68429,-36.846548 3.66983,-1.717321 10.84775,-4.65685 15.95094,-6.532286 l 9.27852,-3.409885 -6.25,0.619961 c -5.06302,0.50222 -6.25,0.346181 -6.25,-0.821618 0,-2.553878 5.79835,-18.688556 9.38366,-26.111287 13.14472,-27.21375 39.52926,-48.414315 70.78471,-56.8770859 7.244,-1.96139842 10.68138,-2.24948266 26.33163,-2.20683694 16.08631,0.043834 19.02264,0.32269023 27.61888,2.62289184 19.36018,5.1804404 36.12811,15.062884 49.91483,29.418091 13.06892,13.607807 21.4692,27.851002 26.53058,44.984255 2.40152,8.129374 2.61732,10.365788 2.6395,27.353218 0.0182,13.91853 -0.39865,20.35735 -1.68313,26 -2.89172,12.70313 -13.51507,33.09042 -22.68442,43.53373 -1.9267,2.19439 -2.52875,3.46627 -1.64076,3.46627 1.87243,0 7.78898,-4.05278 17.9386,-12.28776 23.26083,-18.87285 56.92951,-31.63511 94.07651,-35.66007 12.20756,-1.32272 39.45385,-1.34743 51.28941,-0.0465 30.97822,3.405 61.68946,13.56363 83.23986,27.534 11.37684,7.37522 29.55833,25.57034 33.9349,33.96035 15.19898,29.1369 8.9173,58.17177 -17.97205,83.06954 C 673.21698,281.50082 656.70054,293 654.23076,293 c -0.7799,0 -1.65335,-0.9 -1.94101,-2 -1.061,-4.05725 -1.88669,-1.73985 -3.11765,8.75 -3.02685,25.79392 -15.72649,48.5874 -37.61445,67.51092 -25.35807,21.92364 -62.55303,37.75505 -101.44918,43.18012 -13.12073,1.83003 -44.87621,2.08106 -62.10847,0.49098 -29.16388,-2.69106 -65.45945,-14.7816 -89.47178,-29.80426 -9.30992,-5.8245 -9.26311,-5.80119 -7.64439,-3.80601 0.7611,0.93812 5.1486,3.97971 9.75,6.75908 4.60139,2.77938 8.36617,5.70812 8.36617,6.50832 0,2.83802 -20.85741,14.1194 -34,18.38994 -15.83694,5.14605 -45.46868,6.60566 -62,3.05402 z"
       style="fill:#a7a7a7" />
    <path
       id="path869"
       d="m 280.18919,412.9986 c -9.33076,-1.31694 -23.59182,-5.64582 -32.84709,-9.97057 C 237.11013,398.2469 225,390.47327 225,388.68639 c 0,-0.74468 2.42151,-3.02171 5.38113,-5.06008 5.96277,-4.10672 9.55518,-7.62631 7.78409,-7.62631 -0.62962,0 -4.41187,2.10069 -8.40499,4.66819 -15.59657,10.02831 -35.0222,17.84986 -55.86136,22.49206 -9.54125,2.12544 -12.74934,2.31607 -38.89887,2.31139 -25.92792,-0.005 -29.39667,-0.20804 -38.435561,-2.2539 C 72.923708,397.86692 51.716319,388.86965 37.08539,377.98365 26.263498,369.93173 13.188608,355.79906 8.8146128,347.42572 0.3456935,331.21329 -1.8066417,313.71404 2.9199494,299.5 8.0614486,284.03823 17.088642,270.9481 30,260.23181 c 15.795971,-13.11048 15.803928,-13.11866 12.822686,-13.17827 -2.406475,-0.0481 -2.985381,-0.85238 -5.722629,-7.9503 C 32.505138,227.18821 31.729502,222.72708 31.692282,208 c -0.02754,-10.89455 0.386466,-15.00373 2.14512,-21.29149 4.445862,-15.89539 13.046823,-29.66292 26.407546,-42.27045 10.620196,-10.0215 22.551395,-17.13095 36.557836,-21.78373 17.059536,-5.667 31.013776,-6.8971 51.986626,-4.58278 9.67848,1.068 23.67003,4.98439 25.86753,7.2406 0.8811,0.90463 -0.0737,3.2145 -4.00473,9.68785 -6.98875,11.50872 -14.43546,33.3048 -9.71435,28.43333 0.49749,-0.51333 1.86468,-3.80492 3.0382,-7.31465 10.47615,-31.33173 35.37689,-54.58193 70.94158,-66.239215 C 240.46294,88.061843 245,86.159226 245,85.651425 c 0,-0.8934 -6.08601,-0.354628 -10.75,0.95166 -1.96136,0.549335 -2.24537,0.262432 -2.21389,-2.236454 0.0601,-4.772056 8.32538,-24.722332 14.06706,-33.954328 10.17528,-16.360732 28.53678,-32.386842 46.37143,-40.4734559 3.56266,-1.6153879 11.32583,-4.3825547 17.25148,-6.1492596 10.3468,-3.08484623 11.44787,-3.2097357 27.77392,-3.15026356 14.94217,0.054431 18.08944,0.36426226 26,2.55956096 18.46251,5.1236223 34.98662,14.0315061 47.77731,25.7559961 12.02546,11.023045 23.11733,28.60805 29.37328,46.568299 2.69865,7.747552 2.77952,8.594767 2.81396,29.47682 0.0385,23.31703 -0.66851,27.92702 -6.2006,40.43374 -4.18879,9.46982 -11.67131,21.6908 -16.71597,27.30167 -7.94848,8.84063 -1.92638,7.95606 9.01269,-1.32385 25.88158,-21.95602 54.16008,-34.08647 93.43933,-40.08206 15.96616,-2.43707 50.09411,-2.43179 66,0.0102 30.55734,4.69143 57.24715,14.24221 77.32114,27.66888 10.08131,6.74298 26.10236,22.82171 30.95926,31.07072 4.45845,7.57231 8.39303,19.82228 9.28904,28.92068 1.07558,10.92183 -2.19927,22.9782 -9.71483,35.76509 -5.02039,8.54165 -21.71445,24.93227 -32.71405,32.11943 -5.14769,3.36352 -9.72444,6.11548 -10.17054,6.11548 -0.44611,0 -1.10762,-1.35 -1.47002,-3 -0.97506,-4.4394 -2.30339,-3.64427 -2.92354,1.75 -3.83064,33.32018 -11.84531,49.95572 -34.4156,71.43428 -24.139,22.9714 -59.52916,39.16004 -101.66086,46.50308 -12.15061,2.11771 -54.20018,2.3614 -70,0.40568 -29.62909,-3.66752 -62.1293,-15.19795 -86.64677,-30.74055 -4.89399,-3.10249 -9.22473,-5.31433 -9.62386,-4.91519 -0.87296,0.87296 2.37275,3.3845 13.09497,10.13294 4.4307,2.78862 8.21969,5.56185 8.41998,6.16273 0.48038,1.44112 -17.6878,11.68061 -27.50263,15.50034 -4.25793,1.6571 -11.79169,3.84888 -16.74169,4.87061 -10.45722,2.1585 -35.00485,3.20813 -44.31081,1.89468 z"
       style="fill:#8e8e8e" />
    <path
       id="path867"
       d="m 279.5,411.8915 c -8.8461,-1.27475 -22.65089,-5.43863 -31.33814,-9.45238 -9.78503,-4.52096 -22.17825,-12.23528 -22.106,-13.76016 0.0307,-0.64843 3.25708,-3.42896 7.16968,-6.17896 7.05083,-4.95573 9.78086,-7.82693 8.58202,-9.02577 -0.78209,-0.78209 -5.70039,1.72763 -12.80756,6.53545 -17.34768,11.73528 -44.17101,21.34061 -67.16885,24.0529 -5.78884,0.68271 -18.79534,0.94628 -32.94785,0.66767 -19.04842,-0.375 -25.19289,-0.86036 -33.144605,-2.61814 C 66.569691,395.66409 43.074928,383.91876 25.66181,367.07976 13.876832,355.68334 5.5025274,342.01077 3.2729219,330.52585 2.9498419,328.86163 2.2852374,327.23545 1.7960229,326.9121 0.59049539,326.11532 0.58588075,305.87879 1.7910514,305.11051 2.3177779,304.77473 3.067627,302.925 3.4573826,301 c 1.3578571,-6.70645 9.3558784,-21.40691 15.7779164,-29 3.488815,-4.125 11.050615,-11.1741 16.804001,-15.66467 5.753385,-4.49057 10.4607,-8.76557 10.4607,-9.5 0,-0.81666 -1.163797,-1.33533 -2.996201,-1.33533 -2.846283,0 -3.155867,-0.42821 -6.187197,-8.55793 -3.965006,-10.63374 -5.780714,-23.59536 -4.913874,-35.07821 0.85573,-11.33567 2.763669,-18.50471 7.662649,-28.79224 12.328154,-25.88829 34.987142,-44.0428 65.347823,-52.35706 7.15813,-1.96024 10.32614,-2.20081 27.5868,-2.09483 20.06539,0.1232 27.58912,1.25697 38.44691,5.79364 l 3.78617,1.58196 -1.82216,2.75234 c -7.17086,10.83146 -11.16076,19.3617 -14.5159,31.03443 -0.93852,3.26514 -0.95346,4.55946 -0.0629,5.45 1.76281,1.76281 3.04768,-0.0541 5.78361,-8.17877 5.04682,-14.98701 15.07705,-30.99183 25.50553,-40.69811 11.59176,-10.78901 27.3346,-19.676039 45.68883,-25.791931 10.25361,-3.41665 13.05771,-5.290905 10.3861,-6.942051 -0.73916,-0.456824 -7.05055,0.648492 -11.59565,2.030751 -1.67793,0.510294 -1.83382,0.173094 -1.33657,-2.891094 1.13978,-7.023634 8.90829,-24.671091 14.79157,-33.6015 9.9406,-15.089128 24.68034,-28.376258 40.27299,-36.304053 C 294.92719,9.5003688 313.70195,3 316.79332,3 c 1.12201,0 2.2042,-0.4925676 2.40488,-1.0945946 0.5078,-1.52340166 35.0958,-1.52340166 35.6036,0 C 355.00248,2.5074324 356.15071,3 357.35343,3 c 4.01152,0 17.05174,4.0976539 25.22975,7.927993 27.363,12.81602 46.44847,34.401226 57.09406,64.572007 2.76905,7.847779 2.82276,8.418609 2.82276,30 0,20.24515 -0.18628,22.59824 -2.33529,29.5 -4.32436,13.88809 -16.14215,34.70545 -22.2766,39.24084 -5.57312,4.12039 -2.59064,7.20562 3.76494,3.89463 2.11582,-1.10225 7.44695,-5.03765 11.84695,-8.74532 15.30176,-12.8941 32.08192,-21.97057 53.15264,-28.75054 53.48145,-17.20886 116.69498,-13.20467 163.84736,10.3787 14.8934,7.44897 22.50361,13.11537 34.74906,25.87339 10.08303,10.50508 15.34942,19.18531 17.96369,29.6083 0.68975,2.75 1.64796,5.28179 2.12937,5.62619 1.13195,0.80983 1.14728,20.92306 0.0166,21.74762 -0.47229,0.3444 -1.91341,3.77619 -3.2025,7.62619 -3.01168,8.99469 -11.17803,21.20705 -19.83498,29.66222 -6.53034,6.37812 -19.79313,16.4791 -25.53831,19.45004 -2.65048,1.37062 -2.74256,1.32278 -3.5654,-1.85265 -1.50163,-5.79498 -3.63382,-4.01854 -4.48945,3.74039 -2.39253,21.69564 -6.33551,33.79765 -15.80187,48.5 -23.28598,36.16583 -73.7709,62.81082 -130.95297,69.11452 -11.58587,1.27722 -45.82299,0.6487 -59.97322,-1.10098 -11.65177,-1.44075 -35.41892,-7.43176 -47.5,-11.97339 -12.68944,-4.77033 -26.68591,-11.77489 -37.28441,-18.65907 -4.55643,-2.95959 -9.16893,-5.38108 -10.25,-5.38108 -4.63661,0 -1.16288,3.43588 11.94152,11.8114 l 9.40711,6.01244 -5.85667,3.74646 c -8.48874,5.43018 -20.68974,10.92617 -30.68821,13.82361 -14.27258,4.13603 -37.19484,5.66987 -52.26934,3.49759 z"
       style="fill:#656565" />
  </g>
</svg>
