<?xml version="1.0" encoding="UTF-8" standalone="no"?>
<svg
   xmlns:dc="http://purl.org/dc/elements/1.1/"
   xmlns:cc="http://creativecommons.org/ns#"
   xmlns:rdf="http://www.w3.org/1999/02/22-rdf-syntax-ns#"
   xmlns:svg="http://www.w3.org/2000/svg"
   xmlns="http://www.w3.org/2000/svg"
   viewBox="0 0 983.03998 983.03998"
   height="983.03998"
   width="983.03998"
   id="svg259"
   version="1.1">
  <metadata
     id="metadata265">
    <rdf:RDF>
      <cc:Work
         rdf:about="">
        <dc:format>image/svg+xml</dc:format>
        <dc:type
           rdf:resource="http://purl.org/dc/dcmitype/StillImage" />
        <dc:title></dc:title>
      </cc:Work>
    </rdf:RDF>
  </metadata>
  <defs
     id="defs263" />
  <path
     id="path361"
     d="m 434.86862,682.16253 c -31.94882,-5.36946 -56.16639,-14.84202 -82.07985,-32.10506 -44.23593,-29.46912 -76.61678,-74.56966 -90.14033,-125.54875 -8.61528,-32.47665 -7.01882,-83.27173 3.61258,-114.94208 23.60151,-70.30768 80.6368,-123.2862 153.28408,-142.38132 13.77234,-3.62004 18.6844,-4.00776 48.52447,-3.8303 29.65907,0.1764 34.92648,0.6541 49.3758,4.47795 46.44677,12.2917 82.21393,34.85544 112.69049,71.0909 30.85548,36.68597 46.64871,76.85645 48.53089,123.43947 2.0156,49.88516 -8.39643,87.03772 -36.03988,128.59882 -11.89254,17.88006 -41.01857,47.48398 -58.15271,59.10686 -19.92132,13.51355 -47.2353,24.80407 -73.27011,30.28703 -17.96866,3.78418 -58.81609,4.75084 -76.33543,1.80648 z"
     style="opacity:1;fill:#ff9955;fill-opacity:1;fill-rule:evenodd;stroke:#000000;stroke-width:0.34052268;stroke-linejoin:round;stroke-miterlimit:4;stroke-dasharray:none;stroke-dashoffset:0;stroke-opacity:0.16190479" />
  <path
     id="path363"
     d="m 455.69002,896.75275 c -2.3636,-4.22896 -8.47562,-16.73563 -13.58228,-27.79258 -5.10667,-11.05699 -13.26609,-26.99918 -18.13207,-35.42711 -13.97931,-24.21236 -19.20353,-36.14675 -19.32444,-44.14544 -0.0604,-3.98741 0.49664,-8.23078 1.23761,-9.42967 1.07127,-1.73335 11.15169,-1.93934 49.21576,-1.00568 45.886,1.12552 48.22638,1.34489 56.50829,5.2968 4.788,2.28468 9.69674,6.09763 11.01063,8.55266 2.09119,3.9074 2.004,5.06478 -0.73906,9.81106 -1.71048,2.95959 -10.39183,19.17225 -19.29189,36.02811 -19.92805,37.7418 -29.13045,52.80698 -36.73709,60.14226 l -5.86798,5.65862 z"
     style="opacity:1;fill:#ff9955;fill-opacity:1;fill-rule:evenodd;stroke:#000000;stroke-width:0.34052268;stroke-linejoin:round;stroke-miterlimit:4;stroke-dasharray:none;stroke-dashoffset:0;stroke-opacity:0.16190479" />
  <path
     id="path365"
     d="m 139.46519,759.42974 c 0,-0.9224 9.27831,-27.53237 20.61846,-59.13323 11.34015,-31.60089 21.82977,-61.09549 23.31028,-65.54356 1.48048,-4.44809 3.12018,-8.07793 3.64376,-8.06635 0.52358,0.0115 2.56704,2.50166 4.54101,5.53352 1.97398,3.03181 14.34729,19.35339 27.49624,36.27014 13.14896,16.91674 27.79934,36.7199 32.5564,44.00701 8.26121,12.6549 15.58183,30.46152 13.41436,32.62901 -1.39369,1.39369 -27.02948,4.91733 -72.79951,10.00629 -21.06983,2.34267 -41.56503,4.64523 -45.54489,5.11683 -4.19596,0.49721 -7.23611,0.15274 -7.23611,-0.81966 z"
     style="opacity:1;fill:#ff9955;fill-opacity:1;fill-rule:evenodd;stroke:#000000;stroke-width:0.34052268;stroke-linejoin:round;stroke-miterlimit:4;stroke-dasharray:none;stroke-dashoffset:0;stroke-opacity:0.16190479" />
  <path
     id="path367"
     d="m 144.33469,501.18685 c -5.95576,-4.3991 -19.25658,-13.3133 -29.55741,-19.80936 -45.29825,-28.5667 -53.315626,-34.7166 -57.067772,-43.77502 -1.171895,-2.82924 -1.836057,-5.42049 -1.47588,-5.75836 1.253475,-1.17592 84.201632,-48.28269 101.532222,-57.66077 15.45126,-8.36115 17.35617,-9.01962 16.63565,-5.75045 -0.4475,2.03058 -2.01791,20.9309 -3.48977,42.00074 -1.47186,21.06984 -3.42895,45.20439 -4.34906,53.63231 -1.93813,17.75284 -8.01922,45.11926 -10.0259,45.11926 -0.75541,0 -6.24635,-3.59925 -12.20208,-7.99835 z"
     style="opacity:1;fill:#ff9955;fill-opacity:1;fill-rule:evenodd;stroke:#000000;stroke-width:0.34052268;stroke-linejoin:round;stroke-miterlimit:4;stroke-dasharray:none;stroke-dashoffset:0;stroke-opacity:0.16190479" />
  <path
     id="path369"
     d="m 203.36664,268.69105 c -0.81873,-3.63552 -9.43698,-128.97749 -9.42398,-137.06036 0.003,-2.10699 0.61016,-3.83089 1.34842,-3.83089 3.50267,0 112.27789,63.9258 125.1719,73.56188 2.77475,2.07369 0.28347,3.97738 -25.5392,19.51564 -28.58547,17.2007 -88.58701,51.64463 -89.96528,51.64463 -0.40102,0 -1.11735,-1.72389 -1.59186,-3.8309 z"
     style="opacity:1;fill:#ff9955;fill-opacity:1;fill-rule:evenodd;stroke:#000000;stroke-width:0.34052268;stroke-linejoin:round;stroke-miterlimit:4;stroke-dasharray:none;stroke-dashoffset:0;stroke-opacity:0.16190479" />
  <path
     id="path371"
     d="m 553.20026,200.85409 c -6.08685,-0.78647 -27.54553,-2.92854 -47.68596,-4.76019 -46.75445,-4.25198 -70.31685,-8.2905 -68.96247,-11.81995 0.53579,-1.39625 6.81965,-11.80094 13.96411,-23.12159 49.01004,-77.657908 62.43912,-98.10943 63.61829,-96.886185 3.77205,3.913092 57.79477,131.167585 57.79477,136.139815 0,2.54134 -2.13328,2.59238 -18.72874,0.4481 z"
     style="opacity:1;fill:#ff9955;fill-opacity:1;fill-rule:evenodd;stroke:#000000;stroke-width:0.34052268;stroke-linejoin:round;stroke-miterlimit:4;stroke-dasharray:none;stroke-dashoffset:0;stroke-opacity:0.16190479" />
  <path
     id="path373"
     d="m 731.07516,309.8166 c -4.65568,-4.78942 -18.80826,-17.71136 -31.45016,-28.71541 -12.64191,-11.00408 -26.52004,-23.80394 -30.84031,-28.44417 -8.3846,-9.00553 -14.33225,-19.60092 -12.97392,-23.11227 0.80596,-2.08349 123.33026,-48.40454 124.52085,-47.07586 0.78796,0.87936 -12.83734,63.24949 -19.4869,89.20175 -5.01771,19.58333 -15.87905,45.33681 -19.55388,46.3644 -0.96294,0.26928 -5.55998,-3.42902 -10.21568,-8.21844 z"
     style="opacity:1;fill:#ff9955;fill-opacity:1;fill-rule:evenodd;stroke:#000000;stroke-width:0.34052268;stroke-linejoin:round;stroke-miterlimit:4;stroke-dasharray:none;stroke-dashoffset:0;stroke-opacity:0.16190479" />
  <path
     id="path375"
     d="m 678.75818,776.88593 c -32.5466,-10.95138 -58.97967,-20.47654 -58.74017,-21.16703 0.6296,-1.81517 98.74218,-100.27003 99.33282,-99.67939 0.75857,0.75856 17.70019,78.74511 20.24963,93.21419 5.08707,28.87127 5.25734,47.7575 0.42917,47.60849 -1.15271,-0.0355 -28.72486,-9.02489 -61.27145,-19.97626 z"
     style="opacity:1;fill:#ff9955;fill-opacity:1;fill-rule:evenodd;stroke:#000000;stroke-width:0.34052268;stroke-linejoin:round;stroke-miterlimit:4;stroke-dasharray:none;stroke-dashoffset:0;stroke-opacity:0.16190479" />
  <path
     id="path387"
     d="m 762.76515,563.11145 c -1.32633,-2.04932 -1.07166,-116.52273 0.27723,-124.61002 0.25382,-1.52171 0.71892,-5.02371 1.03359,-7.7822 0.31465,-2.75852 0.67709,-5.12045 0.80538,-5.24875 0.12824,-0.12839 0.62321,-0.0247 1.09978,0.23046 0.47659,0.25505 3.08839,0.84359 5.80405,1.30784 5.36444,0.9171 5.34571,0.90994 9.64988,3.69429 1.61581,1.04527 4.03226,2.39337 5.36987,2.99579 1.33762,0.60241 3.67705,1.99763 5.19877,3.10046 10.73434,7.77965 19.62377,12.6093 42.16804,22.90993 24.41969,11.15752 31.92306,15.04315 46.15503,23.90148 5.15042,3.20572 10.46576,6.4796 11.81191,7.27527 2.16952,1.28235 3.17687,2.52471 2.04711,2.52471 -0.22022,0 -1.93355,1.04999 -3.80743,2.33335 -4.00413,2.74223 -13.5642,8.15209 -36.65491,20.74234 -32.59893,17.7746 -78.04392,41.88216 -85.83186,45.5319 -3.71872,1.74274 -4.58628,1.92772 -5.12644,1.09315 z"
     style="opacity:1;fill:#ff9955;fill-opacity:1;fill-rule:evenodd;stroke:#000000;stroke-width:0.08513066;stroke-linejoin:round;stroke-miterlimit:4;stroke-dasharray:none;stroke-dashoffset:0;stroke-opacity:0.16190479" />
  <path
     id="rect408"
     d="m 752.90304,220.22426 c 20.49347,0 36.99181,11.5661 36.99181,32.05956 v 652.69995 c 0,20.49345 -16.49834,36.99181 -36.99181,36.99181 -20.49345,0 -37.45394,-16.50356 -36.99181,-36.99181 l 14.79673,-655.98811 c 0.46213,-20.48824 1.70163,-28.7714 22.19508,-28.7714 z"
     style="opacity:1;fill:#000080;fill-opacity:1;fill-rule:evenodd;stroke:#000000;stroke-width:0.32881609;stroke-linejoin:round;stroke-miterlimit:4;stroke-dasharray:none;stroke-dashoffset:0;stroke-opacity:0.16190479" />
  <path
     id="rect410"
     d="m 188.98344,226.80058 h 1.64408 c 20.49347,0 28.47008,98.70458 28.77142,119.19583 l 8.22039,558.98736 c 0.30135,20.49123 -16.49834,36.99181 -36.99181,36.99181 h -1.64408 c -20.49346,0 -37.35234,-16.50154 -36.99181,-36.99181 l 9.86449,-560.63145 c 0.36053,-20.49027 6.63386,-117.55174 27.12732,-117.55174 z"
     style="opacity:1;fill:#000080;fill-opacity:1;fill-rule:evenodd;stroke:#000000;stroke-width:0.32881609;stroke-linejoin:round;stroke-miterlimit:4;stroke-dasharray:none;stroke-dashoffset:0;stroke-opacity:0.16190479" />
  <path
     id="rect412"
     d="m 159.39,146.24064 13.97468,67.40729 13.9747,-67.40729 15.61876,69.05137 18.90692,-69.05137 c 5.41209,-19.76591 36.99181,116.78726 36.99181,137.28071 0.60494,47.57623 -68.35165,87.97594 -53.43261,110.97543 H 174.18673 C 191.94784,374.48485 123.95109,330.10855 122.39819,283.52135 121.71545,263.03927 138.89654,146.24064 159.39,146.24064 Z"
     style="opacity:1;fill:#000080;fill-opacity:1;fill-rule:evenodd;stroke:#000000;stroke-width:0.32881609;stroke-linejoin:round;stroke-miterlimit:4;stroke-dasharray:none;stroke-dashoffset:0;stroke-opacity:0.16190479" />
  <path
     id="rect418"
     d="m 769.34385,110.07086 c 11.77156,4.74964 20.551,14.29857 20.551,32.05957 v 228.52718 c 0,17.761 -14.35088,33.42178 -32.05957,32.05957 L 736.46224,401.0731 C 668.06839,342.90024 724.27593,100.5753 769.34385,110.07086 Z"
     style="opacity:1;fill:#000080;fill-opacity:1;fill-rule:evenodd;stroke:#000000;stroke-width:0.32881609;stroke-linejoin:round;stroke-miterlimit:4;stroke-dasharray:none;stroke-dashoffset:0;stroke-opacity:0.16190479" />
</svg>
