<?xml version="1.0" encoding="UTF-8" standalone="no"?>
<svg
   xmlns:dc="http://purl.org/dc/elements/1.1/"
   xmlns:cc="http://creativecommons.org/ns#"
   xmlns:rdf="http://www.w3.org/1999/02/22-rdf-syntax-ns#"
   xmlns:svg="http://www.w3.org/2000/svg"
   xmlns="http://www.w3.org/2000/svg"
   id="svg1057"
   version="1.1"
   viewBox="0 0 210 148"
   height="148mm"
   width="210mm">
  <defs
     id="defs1051" />
  <metadata
     id="metadata1054">
    <rdf:RDF>
      <cc:Work
         rdf:about="">
        <dc:format>image/svg+xml</dc:format>
        <dc:type
           rdf:resource="http://purl.org/dc/dcmitype/StillImage" />
        <dc:title></dc:title>
      </cc:Work>
    </rdf:RDF>
  </metadata>
  <g
     transform="translate(0,-149)"
     id="layer1">
    <g
       transform="translate(2.4731476,-4.3280086)"
       id="g1886">
      <path
         id="path1900"
         d="m 86.678462,274.17195 c -1.091406,-0.13033 -2.69875,-0.41924 -3.571875,-0.64201 -2.757996,-0.70368 -8.050623,-3.40895 -9.749364,-4.98329 l -0.725522,-0.67239 -1.295276,0.65636 c -3.979405,2.01652 -9.748711,3.69199 -14.222825,4.13047 -1.635829,0.16032 -5.386298,0.241 -8.334376,0.17928 -4.668834,-0.0977 -5.76694,-0.20663 -8.514334,-0.84439 -8.79803,-2.04232 -14.811956,-5.37394 -19.762218,-10.94797 -4.040726,-4.54988 -5.202898,-10.64087 -3.39306,-17.78318 0.610184,-2.40801 4.389118,-7.16687 7.750217,-9.75994 l 1.429058,-1.10251 -0.905461,-2.09432 c -1.306617,-3.02218 -1.767735,-5.80244 -1.603001,-9.6651 0.147763,-3.46475 0.693174,-5.65281 2.110452,-8.46667 3.24143,-6.43552 8.901039,-11.05197 16.258374,-13.2617 1.949486,-0.58552 3.000202,-0.72005 6.459899,-0.82709 4.921031,-0.15226 7.643106,0.16666 10.865094,1.27293 l 2.369074,0.81343 2.053116,-1.96153 c 2.86733,-2.73943 6.3402,-5.00296 9.751299,-6.35563 0.888743,-0.35244 1.124479,-0.57967 1.124479,-1.08391 0,-0.74226 1.651923,-5.60138 2.434865,-7.16213 2.083419,-4.15319 6.312731,-8.77434 10.245191,-11.1944 2.902537,-1.78624 6.445118,-3.1107 9.294093,-3.47478 4.236919,-0.54144 11.107469,-0.27953 14.406059,0.54917 1.62295,0.40773 5.6247,2.39781 7.52836,3.74388 5.09321,3.60138 9.17526,9.37108 10.91074,15.42161 0.52956,1.84623 0.59716,2.65754 0.58192,6.98369 -0.0129,3.66482 -0.13064,5.36019 -0.46852,6.74688 -0.48505,1.99065 -2.53913,6.52385 -3.79883,8.38372 -0.42515,0.6277 -0.86378,1.29653 -0.97475,1.48628 -0.11096,0.18975 0.73198,-0.40856 1.87321,-1.32957 8.11076,-6.54571 18.62526,-9.83417 31.4437,-9.83417 9.3923,0 16.99917,1.6644 24.34167,5.32601 3.69737,1.84382 5.8565,3.40419 8.78583,6.34936 2.32613,2.33871 2.87596,3.06865 3.967,5.26644 l 1.26659,2.55143 -0.001,4.79087 c -0.001,4.62547 -0.0253,4.84266 -0.70133,6.29064 -1.09736,2.35055 -2.79152,4.67537 -5.00395,6.86667 -2.05831,2.03854 -6.94068,5.52419 -7.73788,5.52419 -0.23821,0 -0.48481,0.26768 -0.54843,0.59532 -0.0636,0.32742 -0.28964,1.54781 -0.50234,2.71198 -1.18974,6.51157 -5.79586,13.08015 -12.49558,17.81937 -4.99987,3.53678 -12.48758,6.64552 -19.47066,8.08381 -3.20789,0.66072 -3.6849,0.68744 -12.26989,0.68744 -8.51597,0 -9.08679,-0.0313 -12.24891,-0.67155 -3.90879,-0.79144 -9.10471,-2.43309 -12.15531,-3.84048 l -2.17633,-1.00404 -0.75834,0.70839 c -1.03412,0.96601 -5.56363,3.28868 -7.98587,4.09503 -3.285221,1.09365 -10.806563,1.53337 -15.874998,0.9281 z"
         style="fill:#e7e7e7;stroke-width:0.26458335" />
      <path
         id="path1898"
         d="m 86.810754,274.10552 c -1.309688,-0.1782 -3.214688,-0.59881 -4.233334,-0.9347 -3.381756,-1.1151 -8.130815,-3.69508 -9.12264,-4.95598 l -0.539517,-0.68589 -2.577254,1.20641 c -5.443709,2.5482 -10.092026,3.61942 -16.732464,3.85608 -8.040876,0.28656 -12.414139,-0.22749 -18.123959,-2.13034 -6.915153,-2.30455 -13.175945,-6.72795 -16.398376,-11.58585 -1.446252,-2.18026 -1.927365,-3.34581 -2.402711,-5.82083 -1.439348,-7.49436 1.155229,-13.62164 8.137646,-19.21763 l 1.771976,-1.42013 -0.773732,-1.65352 c -1.291039,-2.75903 -1.844777,-5.43977 -1.839584,-8.90573 0.0075,-4.97683 0.855399,-7.84281 3.568829,-12.06237 3.151123,-4.9002 7.670373,-8.30426 13.699794,-10.31919 3.501792,-1.17024 6.600439,-1.48532 11.466804,-1.16596 3.449542,0.22638 7.049355,1.06684 8.486712,1.98142 0.549174,0.34943 0.698137,0.25443 2.645833,-1.6874 2.470023,-2.46258 5.902497,-4.79935 9.033203,-6.14964 2.095892,-0.90397 2.284021,-1.04581 2.207961,-1.66466 -0.100007,-0.81367 1.292247,-4.98266 2.400573,-7.18832 2.957073,-5.88484 8.601554,-10.97512 14.83605,-13.3794 3.994153,-1.54031 10.241966,-2.00556 15.774136,-1.17464 4.99637,0.75044 9.64518,3.18142 13.83344,7.23385 3.3301,3.22211 5.53403,6.7769 7.12656,11.49465 0.72924,2.16034 0.83843,2.88002 0.95229,6.27658 0.25044,7.47062 -1.02302,12.00725 -4.87925,17.38203 -0.7626,1.06291 -1.28346,1.93256 -1.15748,1.93256 0.12598,0 1.10306,-0.73361 2.17128,-1.63024 7.74541,-6.50128 17.58001,-9.94163 29.85576,-10.44415 11.13135,-0.45569 22.61399,2.39186 30.42708,7.5455 2.34944,1.54973 5.78301,4.81553 7.46474,7.09999 0.6612,0.89819 1.54408,2.56236 1.96195,3.69817 0.71147,1.93381 0.75967,2.31742 0.75825,6.03385 l -0.002,3.96875 -0.96917,2.03273 c -1.48019,3.10465 -3.64217,5.80107 -6.70064,8.35712 -2.11347,1.76629 -5.25492,3.76536 -5.91709,3.76536 -0.43511,0 -0.56424,0.23039 -0.70443,1.25677 -0.84613,6.19487 -3.29189,11.11442 -7.79827,15.68596 -5.58321,5.66393 -13.41779,9.75156 -23.01875,12.00983 -4.88829,1.14978 -6.57018,1.27682 -15.0036,1.13327 -6.51369,-0.11088 -8.31943,-0.22641 -10.3964,-0.66515 -5.06024,-1.06892 -10.20285,-2.74993 -13.45621,-4.39853 l -1.38156,-0.70009 -0.74166,0.74167 c -0.90925,0.90924 -5.89104,3.52123 -8.23307,4.31666 -3.360622,1.14137 -10.691599,1.58238 -15.478126,0.93113 z"
         style="fill:#d0d0d0;stroke-width:0.26458335" />
      <path
         id="path1896"
         d="m 87.869087,274.18739 c -4.082299,-0.50992 -9.17176,-2.42266 -12.549352,-4.71634 -1.806535,-1.22679 -2.104226,-1.66092 -1.575654,-2.29781 0.194691,-0.23459 -0.595662,0.0496 -1.756339,0.63163 -2.88417,1.44617 -6.730495,2.85262 -9.979819,3.64921 -3.74351,0.91776 -12.183721,1.40987 -16.42668,0.95777 -5.753081,-0.61301 -10.884816,-2.08181 -15.500919,-4.43667 -3.538267,-1.80502 -5.706348,-3.43582 -8.574132,-6.44937 -2.625537,-2.75899 -4.16109,-5.53274 -4.809212,-8.68713 -1.450282,-7.05848 1.313392,-13.32928 8.367861,-18.98675 l 1.754089,-1.40673 -0.654006,-1.36655 c -2.826656,-5.90631 -2.784378,-13.15572 0.1101,-18.87901 4.213,-8.33041 13.499796,-13.91397 23.142272,-13.91397 4.829146,0 10.782068,1.20376 11.793268,2.38475 0.40985,0.47867 0.490231,0.43004 1.984645,-1.20085 2.782459,-3.03657 7.233486,-5.98104 11.394821,-7.53797 1.344642,-0.50309 1.481069,-0.61663 1.087086,-0.90471 -0.588857,-0.43059 -0.378047,-1.58712 0.870304,-4.77467 2.527356,-6.45335 7.250163,-11.69017 13.251816,-14.69409 4.181861,-2.09309 7.63461,-2.9069 12.320434,-2.90393 8.23528,0.005 14.1956,2.39841 19.76404,7.93563 4.01259,3.9901 6.43664,8.22121 7.54705,13.17314 0.56974,2.54077 0.40985,10.73369 -0.25667,13.1529 -0.64826,2.35289 -3.1238,7.17216 -4.66776,9.087 -2.07879,2.57813 -1.25184,2.47247 1.90369,-0.24323 5.6105,-4.82851 12.70957,-7.9346 21.78407,-9.5313 4.05343,-0.71322 11.79948,-0.96178 16.11304,-0.51705 12.39972,1.27841 22.70768,6.03907 28.55722,13.18895 2.79074,3.41112 4.04317,7.22294 3.79985,11.56499 -0.21382,3.81557 -1.41723,6.55409 -4.45632,10.14091 -2.96567,3.50016 -9.48567,8.0663 -9.48567,6.64308 0,-0.15411 -0.10148,-0.21748 -0.22552,-0.14081 -0.12404,0.0767 -0.2988,0.92397 -0.38834,1.88291 -0.41345,4.42752 -2.55534,9.50521 -5.60852,13.29588 -6.49421,8.06287 -18.4859,13.91341 -31.61303,15.42345 -3.15329,0.36273 -13.15523,0.18326 -16.40417,-0.29436 -4.76445,-0.7004 -11.07115,-2.5582 -15.27054,-4.49833 -2.56997,-1.18732 -2.67612,-1.21188 -2.62558,-0.60723 0.046,0.55048 -3.36606,2.65117 -6.31379,3.88719 -2.86026,1.19933 -4.983102,1.69687 -8.598425,2.01526 -3.483625,0.30679 -5.18769,0.30116 -7.805208,-0.0258 z"
         style="fill:#afafaf;stroke-width:0.26458335" />
      <path
         id="path1894"
         d="m 85.169374,273.57931 c -1.339321,-0.35368 -3.469227,-1.06464 -4.733124,-1.57993 -2.775288,-1.13147 -6.722372,-3.56134 -6.722372,-4.13837 0,-0.22821 0.739085,-0.93614 1.642412,-1.57318 2.382613,-1.68027 1.513599,-1.58679 -1.361451,0.14645 -2.91542,1.75757 -5.722514,2.99533 -9.230534,4.07011 -4.997032,1.53097 -6.442173,1.70947 -13.936885,1.72138 -6.247072,0.01 -7.146592,-0.0463 -9.789584,-0.61163 -7.899682,-1.68984 -14.114873,-4.79312 -18.617639,-9.29589 -6.378439,-6.37844 -7.729739,-13.39946 -3.972651,-20.64092 1.523446,-2.9363 3.386561,-4.99119 7.794191,-8.59644 0.903261,-0.73883 1.162535,-1.08053 0.863576,-1.1381 -0.46703,-0.0899 -1.515572,-2.26162 -2.198287,-4.55296 -0.610598,-2.04929 -0.820794,-6.65444 -0.418949,-9.17868 1.096022,-6.8848 6.212709,-13.49689 13.110176,-16.94176 1.927335,-0.96258 5.263073,-2.06436 7.390781,-2.44114 2.029354,-0.35935 7.481668,-0.35692 10.08021,0.005 2.030274,0.28239 5.545015,1.32871 6.00353,1.78722 0.147566,0.14757 -0.113514,0.80184 -0.664924,1.66631 -1.59222,2.49619 -3.362722,6.61332 -3.362722,7.81968 0,0.80275 0.488133,0.26402 0.768056,-0.84767 0.402135,-1.59702 2.147208,-5.3404 3.208994,-6.88365 1.289492,-1.87421 4.068223,-4.71644 6.038983,-6.17698 2.871298,-2.12793 6.058005,-3.6593 11.386941,-5.47199 0.20273,-0.069 0.298453,-0.19553 0.21272,-0.28126 -0.08573,-0.0857 -0.767247,-0.009 -1.514472,0.17004 -1.957494,0.46959 -2.044282,0.24597 -1.041371,-2.68318 0.927843,-2.70989 1.96451,-4.90361 3.321595,-7.02893 1.168318,-1.82969 4.326882,-5.13409 6.458138,-6.75633 2.156698,-1.6416 6.284383,-3.66458 9.392708,-4.60337 2.200032,-0.66446 2.733617,-0.71918 7.01146,-0.71904 3.95069,1.3e-4 4.96026,0.0872 6.87917,0.59316 2.73192,0.72035 7.14058,2.77801 9.38775,4.38155 4.7851,3.41458 8.39464,8.4596 10.32645,14.43319 0.69002,2.13368 0.72702,2.50663 0.72195,7.27604 -0.006,5.54605 -0.32205,7.37644 -1.85994,10.76819 -0.99211,2.18805 -3.21951,5.66995 -4.27243,6.67871 -1.6885,1.61769 -0.38584,1.68517 1.57809,0.0817 6.65317,-5.43187 11.00853,-7.70457 18.39489,-9.59877 5.28035,-1.35412 8.98012,-1.79683 14.93574,-1.78716 13.53806,0.022 25.07913,4.00261 32.27116,11.13064 3.52208,3.49074 4.93744,6.00536 5.81003,10.32248 1.01467,5.02008 -1.03993,10.23643 -5.90897,15.00208 -1.86336,1.82379 -5.94003,4.85664 -7.15468,5.32275 -0.26129,0.10026 -0.44566,-0.0759 -0.56119,-0.53619 -0.3009,-1.1989 -0.58467,-0.74415 -0.76924,1.23271 -1.12815,12.08301 -10.28653,21.77164 -25.31234,26.77786 -6.29628,2.09777 -9.1641,2.56484 -16.67804,2.71631 -7.89218,0.15909 -11.44028,-0.14241 -16.62173,-1.41242 -6.01353,-1.47396 -11.74463,-3.84894 -16.11446,-6.67789 -0.93207,-0.6034 -1.80985,-1.09709 -1.95063,-1.09709 -0.54796,0 0.50491,0.85905 2.61497,2.13358 1.21338,0.73292 2.28795,1.46495 2.38794,1.62673 0.2842,0.45985 -0.81583,1.19079 -4.53262,3.01182 -4.87926,2.39059 -6.702535,2.79705 -13.096871,2.91973 -4.797928,0.0921 -5.329973,0.0539 -7.594505,-0.54405 z"
         style="fill:#979797;stroke-width:0.26458335" />
      <path
         id="path1892"
         d="m 85.090962,273.43101 c -1.527969,-0.4037 -3.552031,-1.05627 -4.497917,-1.45016 -1.838658,-0.76567 -5.262023,-2.70192 -6.35,-3.59156 l -0.661458,-0.54088 0.767993,-0.58397 c 2.706113,-2.05771 3.40298,-2.67734 3.117948,-2.77235 -0.177031,-0.059 -1.600036,0.6598 -3.16224,1.59736 -7.538545,4.52426 -13.375016,6.03349 -23.61016,6.10527 -5.282264,0.037 -6.294652,-0.0274 -8.98377,-0.57178 -8.468967,-1.71447 -14.700786,-4.81645 -19.458939,-9.68598 -2.699573,-2.76276 -3.76603,-4.40295 -4.933406,-7.58745 -0.699127,-1.90716 -0.816583,-2.59515 -0.830906,-4.86697 -0.01418,-2.24942 0.09158,-2.94177 0.705892,-4.62111 1.534324,-4.19432 3.753904,-7.32143 7.103581,-10.00805 1.035761,-0.83073 2.309008,-1.89415 2.829437,-2.36316 l 0.946236,-0.85273 -0.702914,-0.007 c -0.621085,-0.006 -0.79548,-0.23047 -1.498055,-1.92539 -1.185215,-2.85926 -1.447492,-4.65367 -1.311578,-8.97337 0.109353,-3.47553 0.191712,-3.98725 0.984626,-6.11772 3.171206,-8.52067 11.509922,-14.80639 21.019886,-15.84478 3.729963,-0.40727 8.998736,0.0182 12.011866,0.97008 1.183098,0.37374 2.223199,0.79621 2.311339,0.93883 0.08814,0.14261 -0.250854,0.94261 -0.753324,1.77776 -1.869244,3.10688 -3.598487,7.39201 -3.226133,7.99449 0.332316,0.53771 0.650528,0.24977 0.943385,-0.85363 0.16415,-0.61846 0.714891,-2.07656 1.223867,-3.24022 3.060057,-6.99612 9.120103,-12.10224 17.614223,-14.84152 1.454843,-0.46917 2.315104,-0.88447 2.315104,-1.11762 0,-0.25232 -0.190455,-0.32357 -0.595312,-0.2227 -0.327422,0.0816 -1.101328,0.22876 -1.719792,0.32708 -1.394164,0.22163 -1.401588,0.14905 -0.304512,-2.97664 2.555815,-7.28181 7.218585,-12.6062 13.864408,-15.83169 6.516616,-3.16277 12.617363,-3.79911 19.314583,-2.01461 2.46963,0.65804 6.29325,2.43865 8.65722,4.03156 2.1387,1.44111 5.35695,4.66327 6.80762,6.8159 1.61857,2.40178 3.37739,6.2478 4.0209,8.79255 0.49311,1.94997 0.53731,2.70632 0.41469,7.09614 -0.0945,3.38242 -0.27221,5.39013 -0.57034,6.44297 -0.95418,3.36957 -3.7313,8.3861 -5.64385,10.19493 -0.63792,0.60332 -0.84147,0.96166 -0.65321,1.14993 0.4065,0.40649 1.76276,-0.33296 3.76801,-2.05435 5.85504,-5.02624 13.10527,-8.17484 22.49327,-9.76829 3.49549,-0.5933 11.31459,-0.80176 15.21972,-0.40576 6.41136,0.65014 12.73855,2.35352 17.67466,4.75828 4.02827,1.96249 5.83012,3.25095 9.06282,6.48059 3.36162,3.35845 4.45511,5.23152 5.3868,9.2273 0.6491,2.7838 0.66259,3.33784 0.13651,5.60627 -0.91059,3.92634 -2.75416,6.99024 -6.1689,10.25229 -1.89197,1.80737 -6.24866,4.96584 -6.84972,4.96584 -0.1475,0 -0.33961,-0.35718 -0.42693,-0.79375 -0.0873,-0.43656 -0.27852,-0.79375 -0.4249,-0.79375 -0.33331,0 -0.4669,0.64935 -0.66934,3.25348 -0.45399,5.83971 -3.26891,11.28893 -8.35173,16.16755 -5.4626,5.24313 -12.77924,8.99596 -21.68226,11.12121 -5.93215,1.41607 -12.38988,1.79916 -20.12159,1.19366 -8.38026,-0.65629 -17.54113,-3.70672 -24.44069,-8.13838 -2.1875,-1.40505 -3.29048,-1.57191 -1.72088,-0.26034 0.49892,0.4169 1.71305,1.24521 2.69808,1.84068 2.01919,1.22065 2.21055,1.42426 1.80166,1.91694 -0.41379,0.49859 -6.25354,3.45339 -7.82595,3.95979 -3.352988,1.07982 -6.242148,1.48966 -10.300087,1.46112 -3.458096,-0.0243 -4.356205,-0.12548 -6.765541,-0.76203 z"
         style="fill:#878787;stroke-width:0.26458335" />
      <path
         id="path1890"
         d="m 87.891926,273.99346 c -0.07738,-0.1252 -0.693063,-0.30334 -1.368192,-0.39588 -1.854909,-0.25425 -6.637304,-1.92974 -8.576522,-3.00476 -2.21106,-1.22571 -3.96875,-2.42255 -3.96875,-2.70239 0,-0.1209 0.892968,-0.89192 1.984375,-1.71337 1.721892,-1.296 2.482194,-2.27472 1.767075,-2.27472 -0.119515,0 -1.339905,0.72156 -2.711979,1.60347 -3.212518,2.06486 -5.722303,3.25009 -9.529628,4.50031 -5.277128,1.73285 -6.879497,1.94472 -14.793177,1.95601 -6.337414,0.009 -7.27215,-0.0477 -9.723182,-0.59027 -7.726038,-1.71025 -13.457392,-4.54438 -18.00659,-8.9042 -2.652864,-2.54242 -4.5569,-5.30516 -5.333969,-7.73952 -0.317072,-0.99331 -0.70854,-2.07661 -0.86993,-2.40734 -0.362273,-0.74239 -0.36827,-5.60895 -0.0072,-5.84308 0.144353,-0.0936 0.339158,-0.5869 0.432901,-1.09622 0.217658,-1.18258 1.495213,-3.88642 2.597295,-5.49696 1.30487,-1.90689 3.274262,-3.90601 5.973696,-6.06387 2.508013,-2.00484 2.965729,-2.62286 1.773783,-2.39501 -0.564329,0.10788 -0.753155,-0.0271 -1.163891,-0.83225 -1.291528,-2.5316 -1.730268,-4.75176 -1.731087,-8.75983 -9e-4,-4.43617 0.345294,-6.07221 1.989762,-9.40305 2.861824,-5.79658 8.186826,-10.24199 14.940288,-12.47244 2.731315,-0.90206 3.166438,-0.96875 7.070767,-1.08367 2.54218,-0.0748 5.012016,0.002 6.35,0.19741 2.562879,0.3744 5.494118,1.27987 5.675776,1.75326 0.06993,0.18224 -0.352449,1.12652 -0.938625,2.09841 -1.855261,3.07607 -3.206494,6.73289 -2.840395,7.68693 0.251526,0.65546 0.805185,0.0677 1.201312,-1.27527 2.473147,-8.38466 8.995698,-14.57806 18.604603,-17.66574 1.674476,-0.53807 2.579687,-0.96174 2.579687,-1.20739 0,-0.46468 -1.006702,-0.49443 -2.418405,-0.0715 -0.563523,0.16883 -1.091396,0.24016 -1.173046,0.15851 -0.221356,-0.22135 1.337164,-4.70559 2.297266,-6.60978 2.615274,-5.18694 6.914221,-9.48673 12.08323,-12.0856 1.863275,-0.93681 6.071653,-2.40761 6.888872,-2.40761 0.29383,0 0.578752,-0.13354 0.633158,-0.29676 0.131913,-0.39574 8.903756,-0.41006 9.620676,-0.0157 0.28103,0.15458 1.35742,0.47544 2.39199,0.71302 2.35104,0.53989 7.1267,2.83378 9.25448,4.44519 4.51781,3.42143 7.93246,8.29005 9.77671,13.93967 0.69979,2.14374 0.73369,2.48415 0.72441,7.27604 -0.0107,5.54275 -0.32742,7.36654 -1.86979,10.76819 -1.06392,2.34641 -3.28474,5.75652 -4.42415,6.79337 -0.99292,0.90353 -1.00631,1.35615 -0.0401,1.35615 0.68129,0 1.34166,-0.41861 3.35055,-2.12393 7.19538,-6.10804 15.97055,-9.39836 27.51667,-10.31758 11.93958,-0.95055 24.95339,2.14372 32.99045,7.84408 2.26513,1.60657 5.7204,5.09035 6.97704,7.0346 1.13172,1.75101 2.36584,5.24025 2.36584,6.689 0,0.49322 0.13045,0.97739 0.28989,1.07592 0.28972,0.17906 0.26895,0.43026 -0.2776,3.357 -0.63792,3.41598 -2.48638,6.59941 -5.69508,9.80811 -1.7795,1.77951 -6.17474,5.06949 -7.0273,5.26017 -0.21617,0.0483 -0.41647,-0.23368 -0.50696,-0.71383 -0.0849,-0.45072 -0.31636,-0.79375 -0.53547,-0.79375 -0.29385,0 -0.4601,0.66255 -0.6971,2.77813 -0.38789,3.46246 -0.95652,5.67315 -2.09219,8.13387 -4.14114,8.97286 -14.04124,16.11247 -26.89195,19.39354 -4.80523,1.22689 -8.04187,1.59759 -13.98082,1.60128 -7.07769,0.004 -10.70393,-0.34909 -15.39333,-1.50055 -6.03402,-1.48162 -10.95162,-3.54027 -15.87552,-6.64597 -2.5445,-1.60491 -3.89608,-1.85229 -2.41988,-0.4429 0.46167,0.44077 1.80112,1.38707 2.97657,2.10287 1.17544,0.7158 2.13716,1.36587 2.13716,1.44459 0,0.24996 -2.6897,1.77794 -5.30319,3.01266 -2.42843,1.14729 -6.225201,2.26363 -7.711924,2.26751 -0.391594,10e-4 -0.785574,0.12091 -0.875511,0.26643 -0.201843,0.32659 -8.243076,0.36178 -8.443828,0.037 z"
         style="fill:#767676;stroke-width:0.26458335" />
      <path
         id="path1888"
         d="m 89.059712,273.97824 c 1.141341,-0.15662 1.108482,-0.17064 -0.79375,-0.33887 -2.418149,-0.21384 -6.004584,-1.2373 -8.704895,-2.4841 -2.170457,-1.00215 -5.318022,-2.9506 -5.318022,-3.29204 0,-0.11565 0.744141,-0.74239 1.653646,-1.39274 1.957282,-1.39959 2.695776,-2.16627 2.457699,-2.55148 -0.298498,-0.48298 -0.666774,-0.32949 -3.419073,1.42508 -4.871194,3.10533 -10.65117,5.30386 -16.083196,6.11758 -3.695774,0.55362 -13.13797,0.54851 -16.226785,-0.009 -4.828109,-0.87111 -8.702606,-2.14604 -12.567708,-4.1355 -3.231859,-1.66351 -5.498582,-3.38511 -8.163051,-6.19994 -2.433261,-2.57058 -4.050752,-5.47305 -4.640802,-8.3276 -0.263715,-1.27581 -0.389353,-1.54903 -0.486662,-1.05834 -0.07214,0.3638 -0.139018,-0.64823 -0.148608,-2.24896 -0.0096,-1.60073 0.0737,-2.67741 0.185081,-2.39262 0.154861,0.39595 0.242335,0.22728 0.371728,-0.71674 0.563397,-4.11043 3.932646,-8.76004 9.445244,-13.03459 1.971017,-1.52836 2.416304,-2.42408 1.07135,-2.15509 -0.790292,0.15806 -0.858858,0.10383 -1.373296,-1.08605 -1.079489,-2.49682 -1.552886,-5.01664 -1.548057,-8.24004 0.0055,-3.67516 0.441723,-5.92112 1.663696,-8.56592 3.6157,-7.82571 11.379007,-13.30155 20.147133,-14.21076 4.47684,-0.46422 11.286254,0.34377 13.709499,1.62674 0.430964,0.22817 0.407823,0.33482 -0.295137,1.36028 -1.504151,2.19422 -3.479785,6.87467 -3.479785,8.24392 0,0.64484 0.509924,1.01411 0.988251,0.71566 0.153344,-0.0957 0.597429,-1.12646 0.986856,-2.29062 2.693009,-8.05059 8.744657,-13.70381 17.971919,-16.7887 2.516243,-0.84124 2.952321,-1.0707 3.028958,-1.59384 0.08329,-0.56854 0.01876,-0.60068 -0.926042,-0.46133 -0.558562,0.0824 -1.40884,0.23468 -1.889509,0.33844 -0.856194,0.18482 -0.870315,0.17315 -0.695378,-0.57484 0.447128,-1.91176 2.348156,-6.2479 3.582644,-8.17182 2.593102,-4.04127 7.167319,-7.98542 11.537731,-9.94848 2.118301,-0.95149 5.874406,-2.0791 7.049899,-2.11643 0.798711,-0.0254 0.805133,-0.0344 0.168839,-0.23821 -0.384654,-0.12319 1.276175,-0.21184 3.968751,-0.21184 2.69257,0 4.3534,0.0887 3.96875,0.21184 -0.64061,0.20516 -0.63569,0.21266 0.15611,0.23821 1.28134,0.0413 4.63243,0.97008 6.88745,1.90885 7.60612,3.16644 13.9025,10.77254 15.63141,18.88294 0.51688,2.42468 0.33137,10.08945 -0.30107,12.43979 -0.91098,3.38548 -4.01527,8.8801 -5.89005,10.42546 -1.5726,1.29626 -0.60133,2.17007 1.3122,1.18054 0.46005,-0.2379 1.67014,-1.15008 2.68911,-2.02708 1.01897,-0.877 2.84032,-2.23832 4.04744,-3.02517 10.51085,-6.85132 27.32173,-9.06206 41.65095,-5.47738 12.6559,3.16607 21.6358,10.31924 23.40569,18.6444 1.51195,7.11185 -2.11727,13.80825 -10.47732,19.33212 l -1.98286,1.31018 -0.20414,-0.78778 c -0.11227,-0.43328 -0.32653,-0.86342 -0.47612,-0.95587 -0.62703,-0.38753 -0.96725,0.47389 -1.12692,2.85326 -0.67158,10.00799 -7.40432,18.48372 -19.08184,24.02179 -8.92182,4.23119 -17.94268,5.7872 -29.2471,5.04485 -9.67173,-0.63513 -17.80001,-3.14809 -25.19247,-7.78858 -2.79297,-1.75323 -3.46513,-2.01701 -3.79201,-1.48811 -0.27649,0.44738 0.38115,1.03993 3.15949,2.8468 l 2.62315,1.70595 -1.03565,0.64051 c -1.54258,0.95402 -5.61309,2.89548 -7.12108,3.39645 -1.913206,0.63559 -4.95615,1.1822 -6.836292,1.22803 -1.626365,0.0396 -1.627445,0.0402 -0.439746,0.22484 0.740394,0.11511 -0.310144,0.18511 -2.778125,0.18511 -2.182812,0 -3.432969,-0.0735 -2.778125,-0.16337 z"
         style="fill:#656565;stroke-width:0.26458335" />
    </g>
  </g>
</svg>
