<?xml version="1.0" encoding="UTF-8" standalone="no"?>
<svg
   xmlns:dc="http://purl.org/dc/elements/1.1/"
   xmlns:cc="http://creativecommons.org/ns#"
   xmlns:rdf="http://www.w3.org/1999/02/22-rdf-syntax-ns#"
   xmlns:svg="http://www.w3.org/2000/svg"
   xmlns="http://www.w3.org/2000/svg"
   viewBox="0 0 683.23407 602.55316"
   height="602.55316"
   width="683.23407"
   id="svg33"
   version="1.1">
  <metadata
     id="metadata39">
    <rdf:RDF>
      <cc:Work
         rdf:about="">
        <dc:format>image/svg+xml</dc:format>
        <dc:type
           rdf:resource="http://purl.org/dc/dcmitype/StillImage" />
        <dc:title></dc:title>
      </cc:Work>
    </rdf:RDF>
  </metadata>
  <defs
     id="defs37" />
  <g
     transform="translate(-1.7110393)"
     id="g43">
    <path
       id="path57"
       d="m 177.93515,601.00813 c -1.83781,-0.61915 -4.06213,-1.84639 -4.94295,-2.72721 -2.07316,-2.07317 -3.52229,0.59243 25.22697,-46.40347 13.01617,-21.2773 34.33065,-56.14982 47.36551,-77.4945 13.03485,-21.34468 28.60009,-46.75435 34.58944,-56.46594 5.98935,-9.71159 10.88972,-17.86904 10.88972,-18.12766 0,-0.25862 -6.6401,-0.47022 -14.75579,-0.47022 -16.03229,0 -22.96383,-1.49574 -37.81938,-8.16098 -7.51808,-3.37314 -22.63487,-12.81599 -23.77328,-14.85022 -0.59349,-1.0605 -2.3311,-0.58751 -7.90821,2.15267 -8.94044,4.39267 -29.48166,11.06839 -41.17053,13.38004 -6.95059,1.37458 -14.61823,1.76592 -35.42388,1.80789 -23.90784,0.0482 -27.58736,-0.1755 -36.933816,-2.24581 C 62.577395,384.60209 39.02952,372.81235 21.828462,355.62953 13.175014,346.98526 4.618907,334.7735 3.1567735,328.98025 -0.35758686,315.05567 -0.85065955,302.72564 1.5613794,289.08497 4.2768939,273.72808 13.565066,260.65648 33.536539,244.08509 l 4.307871,-3.57446 -2.672144,-5.61703 c -4.834009,-10.1614 -6.758053,-19.68518 -6.808675,-33.70212 -0.05327,-14.75008 1.563911,-22.93821 6.74521,-34.15246 12.152012,-26.30143 35.75228,-45.44658 65.787399,-53.36845 8.72546,-2.30137 11.86885,-2.60749 26.25274,-2.55662 18.02793,0.0637 28.07099,1.56415 38.56127,5.76093 l 6.55153,2.62102 7.77138,-7.54771 c 9.32546,-9.05709 18.70734,-15.454174 31.6714,-21.595302 l 9.63465,-4.563977 0.60898,-4.442974 c 1.68357,-12.283052 12.87525,-34.401232 24.06714,-47.564025 9.1183,-10.724052 25.81325,-22.367746 40.26968,-28.0856177 17.09922,-6.7631551 53.86326,-7.7222722 74.22568,-1.9364327 12.86323,3.654997 27.34066,12.4980464 39.48452,24.1177784 13.68564,13.094979 24.01845,30.159621 28.86847,47.676297 3.03762,10.970881 3.07562,40.841273 0.0671,52.708223 -2.26163,8.92081 -8.96462,23.53478 -14.59622,31.82294 -2.00373,2.94893 -3.4243,5.3617 -3.15683,5.3617 0.26747,0 3.33852,-2.3779 6.82456,-5.28421 39.49896,-32.93041 106.90198,-45.91936 168.59456,-32.48915 20.24923,4.40816 44.0094,14.09664 58.20888,23.7353 13.73032,9.32019 27.83042,24.33902 32.83481,34.97423 7.29071,15.49404 7.37001,42.14845 0.16757,56.3196 -3.55959,7.00368 -13.55739,19.30663 -20.52995,25.26348 -7.89657,6.74622 -23.09704,16.97011 -25.23052,16.97011 -2.02081,0 -2.50327,1.26707 -3.49981,9.19148 -1.05832,8.41575 -4.23136,17.88264 -9.2422,27.57447 -17.15504,33.18087 -53.67163,58.86499 -100.9021,70.96999 -22.58595,5.7887 -33.35831,6.9247 -61.54046,6.48979 -22.58354,-0.34851 -24.6147,-0.23986 -23.27118,1.24471 2.78424,3.07655 9.29884,-8.34791 -56.74288,99.50827 -19.26049,31.45531 -40.90069,66.84255 -48.08936,78.63829 -7.18865,11.79575 -13.90038,21.95184 -14.91494,22.5691 -2.67862,1.62967 -10.5255,-1.80458 -10.5255,-4.60658 0,-1.11987 7.42801,-14.12169 16.50668,-28.89294 9.07868,-14.77125 20.26805,-33.06107 24.86529,-40.64404 4.59722,-7.58298 24.05432,-39.43746 43.23799,-70.78772 19.18367,-31.35026 34.87941,-57.39853 34.87941,-57.88504 0,-0.48651 -2.64256,-1.40268 -5.87234,-2.03595 -3.22979,-0.63326 -11.61702,-2.69619 -18.6383,-4.58428 -10.89339,-2.92935 -17.28196,-5.25198 -35.85936,-13.03703 -2.23862,-0.93811 -3.03237,-0.7784 -4.93336,0.99264 -3.71946,3.46521 -25.47347,14.17572 -34.57915,17.02493 -4.66304,1.45908 -10.40772,2.65991 -12.76596,2.66851 -5.07656,0.0185 -6.75952,0.88966 -6.51217,3.37085 0.20812,2.08767 -118.50386,197.09831 -120.83937,198.50535 -0.94146,0.56718 -2.81985,0.48901 -4.87337,-0.20283 z M 49.787236,597.89596 c -2.106383,-1.38682 -3.829787,-3.22696 -3.829787,-4.08924 0,-1.74591 117.657231,-194.835 120.683321,-198.05526 1.77831,-1.8924 2.10924,-1.92453 4.69996,-0.45626 2.51398,1.42478 2.7816,2.12429 2.73242,7.14213 -0.0541,5.52826 -0.41777,6.15616 -58.8106,101.56264 -32.315853,52.8 -59.406215,96.09393 -60.200809,96.20873 -0.794594,0.1148 -3.168122,-0.92594 -5.274505,-2.31274 z"
       style="fill:#e7e7e7;stroke-width:1.02127659" />
    <path
       id="path55"
       d="m 176.92052,600.00271 c -1.83415,-0.79707 -3.58332,-2.09682 -3.88705,-2.88832 -0.43376,-1.13035 64.89063,-109.27711 112.24317,-185.82242 3.74467,-6.05323 6.80848,-11.15745 6.80848,-11.34272 0,-0.18527 -7.00851,-0.57522 -15.57447,-0.86655 -13.89434,-0.47255 -16.59054,-0.87086 -24.9932,-3.69223 -14.52793,-4.87804 -33.78622,-15.37175 -36.08153,-19.66057 -0.98439,-1.83936 -1.39132,-1.7551 -8.28194,1.71497 -8.82535,4.44437 -27.90219,10.88321 -39.66461,13.38764 -7.17794,1.52832 -13.54322,1.84832 -36.76596,1.84832 -25.60316,0 -29.01387,-0.20803 -38.594797,-2.35401 C 57.377331,382.54308 30.680962,367.25836 13.387555,345.24449 1.5986231,330.2376 -2.464882,311.60644 1.5149099,290.80844 4.5158468,275.12584 13.99493,261.1947 31.300168,247.03388 l 7.300167,-5.97372 -3.57046,-8.25842 C 30.167076,221.55416 28.198151,209.6476 28.95824,196.0851 c 0.731069,-13.04469 2.610773,-20.37008 8.05309,-31.38369 13.588496,-27.49904 42.33339,-47.74732 74.4497,-52.44335 17.48203,-2.55621 43.82247,0.33979 56.2583,6.18532 l 4.65617,2.18866 7.51438,-7.50967 c 8.99775,-8.9921 23.7589,-18.951524 34.74779,-23.444484 7.76692,-3.175615 8.00064,-3.372171 8.00064,-6.728518 0,-1.90154 1.20936,-6.981349 2.68748,-11.288464 10.59506,-30.873296 32.75441,-54.302228 62.07139,-65.6276793 10.52694,-4.0666662 22.68776,-5.99332223 37.96841,-6.01539415 33.10239,-0.04781427 54.05266,8.36529075 75.99613,30.51814145 14.09749,14.232007 23.21474,30.060172 27.70762,48.102322 2.10218,8.441737 1.817,40.415096 -0.43543,48.818566 -2.86375,10.6842 -7.72859,21.17581 -14.54959,31.37787 -3.55806,5.32174 -6.12941,9.6759 -5.71411,9.6759 0.4153,0 3.94871,-2.69709 7.85202,-5.99354 24.36683,-20.5784 54.79942,-32.89597 93.90545,-38.00815 13.65502,-1.78507 43.7197,-1.52234 58.02614,0.50709 29.06563,4.12307 58.36613,14.53013 77.10926,27.38797 12.39153,8.50062 27.10839,24.20613 32.00758,34.15783 5.69678,11.57177 7.46626,28.79864 4.43718,43.19834 -2.45649,11.6778 -8.68271,21.67319 -21.08102,33.84291 -8.63708,8.47784 -25.48058,20.3118 -28.91018,20.3118 -1.92631,0 -2.33137,1.06088 -3.88797,10.18289 -3.36906,19.74334 -11.97596,36.35517 -27.03556,52.18024 -24.02031,25.24123 -58.77141,42.33388 -101.89947,50.12022 -10.28119,1.85616 -16.12131,2.21408 -36.25532,2.22198 -13.2,0.005 -26.29788,-0.30619 -29.10639,-0.69194 l -5.10638,-0.70136 2.80851,2.36107 c 1.54468,1.29858 2.80851,2.98586 2.80851,3.74949 0,1.92454 -119.62454,197.28911 -121.16489,197.88021 -2.10698,0.80851 -8.53724,-2.82206 -8.53724,-4.82018 0,-1.01081 26.8927,-45.78974 59.76156,-99.50876 32.86887,-53.71901 59.86887,-98.15665 60.00001,-98.75031 0.13114,-0.59366 -3.66795,-1.88971 -8.44242,-2.88011 -18.64715,-3.86814 -33.5272,-8.55625 -48.72187,-15.35032 l -7.21127,-3.22442 -4.49173,3.4286 c -11.65247,8.89454 -33.27731,17.46912 -47.13771,18.69084 -7.68204,0.67712 -7.92278,0.7763 -6.28293,2.5883 0.93784,1.03632 1.49283,2.25785 1.23329,2.71452 -5.50322,9.68337 -119.92053,196.11917 -120.68244,196.64445 -1.41172,0.97328 -1.5182,0.95865 -5.44441,-0.74758 z M 50.297874,597.32928 c -1.825532,-1.1691 -3.319149,-2.81739 -3.319149,-3.66286 0,-2.18839 119.629165,-197.52887 121.381085,-198.20115 3.05692,-1.17305 4.74658,1.33175 4.74658,7.03649 0,5.47321 -0.26438,5.93021 -58.12733,100.47694 -31.970037,52.23829 -58.625357,95.31636 -59.234048,95.72904 -1.547779,1.04935 -1.726973,1.00399 -5.447138,-1.37846 z"
       style="fill:#d7d7d7;stroke-width:1.02127659" />
    <path
       id="path53"
       d="m 176.93618,599.50029 c -1.82553,-1.11292 -3.31915,-2.62416 -3.31915,-3.35832 0,-0.73415 26.83905,-45.20473 59.64232,-98.82351 32.80328,-53.61878 59.43148,-97.83337 59.17378,-98.25465 -0.25771,-0.42128 -6.99961,-0.76596 -14.98201,-0.76596 -11.43016,0 -16.13631,-0.44255 -22.15249,-2.08315 -14.54098,-3.9653 -39.80926,-17.91359 -39.80926,-21.97503 0,-1.10108 -2.09147,-0.44541 -7.91489,2.48128 -10.31544,5.18427 -26.6659,10.69513 -40.08511,13.51053 -9.33302,1.95811 -14.10006,2.26275 -36.76596,2.34958 -29.07599,0.11139 -36.383727,-0.9107 -57.989938,-8.11075 C 34.781199,371.82311 6.6257565,345.93936 1.4616466,318.949 -3.9948594,290.43042 7.0918869,265.76388 34.821003,244.72888 l 4.693342,-3.56032 -3.394465,-6.96727 c -5.383707,-11.05025 -6.798288,-19.36704 -6.272016,-36.87522 0.416002,-13.83968 0.712989,-15.72919 3.755205,-23.89171 9.705263,-26.04004 32.240653,-47.058 60.561373,-56.48342 13.352888,-4.44398 23.684868,-5.51129 43.197268,-4.46233 13.09092,0.70374 22.58746,2.709 30.33001,6.40442 l 4.79812,2.29006 6.43593,-6.52919 c 11.0398,-11.19979 26.44065,-21.373597 39.83325,-26.313875 4.34112,-1.601357 4.7507,-2.029037 4.27113,-4.459873 -0.69204,-3.507862 4.60686,-18.599635 10.35438,-29.490276 14.43739,-27.356524 41.95598,-47.7439402 71.46655,-52.9466702 10.67333,-1.8817139 30.23917,-1.8309845 42.20367,0.1094237 38.3456,6.2189079 71.28995,37.4232835 81.47244,77.1694195 1.31451,5.131048 1.55456,10.334579 1.21733,26.387861 -0.39082,18.60397 -0.61686,20.56542 -3.24588,28.16668 -3.58884,10.37637 -9.01571,20.74564 -15.02663,28.71181 -2.59118,3.43405 -5.06235,6.81182 -5.49146,7.50615 -1.47781,2.39115 3.77729,-1.05138 11.88504,-7.78569 21.89143,-18.18307 50.99042,-30.44676 84.95553,-35.8043 16.08547,-2.53727 54.05793,-2.53094 69.18369,0.0115 32.08019,5.39231 60.64656,16.76154 79.28832,31.55624 10.28201,8.16013 21.42789,20.86016 25.3545,28.88988 6.26265,12.80678 8.08181,28.0125 5.06633,42.34763 -2.62203,12.46469 -9.78384,23.71114 -23.09705,36.27014 -8.80545,8.30662 -25.09546,19.2594 -27.6506,18.59122 -1.42168,-0.37178 -1.92149,0.32068 -2.34934,3.25487 -1.98589,13.61945 -4.96268,23.82167 -9.72907,33.34413 -19.72693,39.41108 -66.82093,67.92769 -126.63256,76.6792 -9.72167,1.42245 -16.40642,1.6123 -38.80851,1.10215 -25.03439,-0.57009 -28.07504,-0.84352 -40.54898,-3.64633 -15.61986,-3.50969 -34.63784,-9.66999 -45.86012,-14.85499 -9.04886,-4.18084 -9.19657,-4.20839 -9.82724,-1.83323 -0.55563,2.09254 -12.68147,9.21637 -23.99943,14.09946 -10.5668,4.55901 -18.7043,6.57331 -27.06973,6.70065 -6.85529,0.10435 -8.45908,0.95336 -5.22248,2.76466 1.02121,0.5715 1.46984,1.69769 1.139,2.85926 -0.80321,2.82022 -119.65827,196.77682 -120.81703,197.15831 -0.54202,0.17844 -2.47911,-0.58614 -4.30464,-1.69905 z m 131.25816,0.25059 c -1.53143,-0.94967 -3.00119,-2.29156 -3.26613,-2.982 -0.39468,-1.02851 117.13999,-194.87371 119.96445,-197.85251 1.01074,-1.06598 6.47233,0.96023 8.20025,3.04224 0.91482,1.1023 -11.67592,22.3824 -59.45426,100.48587 -33.33818,54.49807 -61.07501,99.07518 -61.63739,99.06023 -0.56239,-0.0149 -2.27551,-0.80418 -3.80692,-1.75383 z m -258.583894,-3.68166 -2.985301,-2.3887 59.548785,-97.43602 c 32.75184,-53.5898 60.23392,-98.22548 61.0713,-99.19038 1.1517,-1.3271 1.98866,-1.50489 3.43652,-0.73003 1.48151,0.79289 1.914,2.18452 1.914,6.15873 0,4.99173 -1.62134,7.78568 -58.35541,100.55981 -38.533649,63.01199 -58.914031,95.4237 -60.000001,95.42035 -0.904525,-0.003 -2.987977,-1.07998 -4.629893,-2.39376 z"
       style="fill:#c7c7c7;stroke-width:1.02127659" />
    <path
       id="path51"
       d="m 176.84991,598.72337 -3.32826,-2.80851 59.39685,-97.02127 c 32.66826,-53.3617 59.61407,-97.77062 59.87957,-98.68649 0.4283,-1.47744 -1.39852,-1.72076 -16.20021,-2.15777 -14.63261,-0.432 -17.67989,-0.83017 -24.79457,-3.23975 -9.89009,-3.34955 -20.14158,-8.32714 -28.89323,-14.02907 -5.50753,-3.5883 -6.49685,-4.66537 -6.11588,-6.65831 0.24997,-1.30765 0.27926,-2.37754 0.0651,-2.37754 -0.21418,0 -4.40152,2.01125 -9.30519,4.46945 -20.36199,10.20743 -37.97274,14.53214 -65.56466,16.10085 C 111.8778,394.02693 91.187684,391.19691 66.828453,382.03432 38.684833,371.44827 13.809141,350.68567 5.1963465,330.59283 2.5086352,324.32267 0,311.94834 0,304.96087 c 0,-21.54991 13.310428,-44.21982 35.187997,-59.9311 2.552985,-1.83341 4.641792,-3.65727 4.641792,-4.053 0,-0.39574 -1.111349,-2.73059 -2.469665,-5.18858 -1.358316,-2.45798 -3.541295,-7.91586 -4.851064,-12.12863 -2.071278,-6.66209 -2.377112,-9.72103 -2.348477,-23.48936 0.03043,-14.63186 0.248085,-16.44806 2.876172,-24 11.110982,-31.92792 39.338583,-55.71603 74.031815,-62.38846 8.87729,-1.70734 28.51129,-1.88166 39.5174,-0.35085 9.50041,1.32138 21.97254,5.39439 23.68701,7.73543 1.10944,1.51491 2.09599,0.83944 8.68085,-5.94368 11.67274,-12.02419 24.33446,-20.348853 41.03717,-26.9806 6.04082,-2.398476 6.73444,-2.919617 4.82571,-3.6257 -2.67982,-0.99133 -2.4986,-2.10394 2.63709,-16.190812 9.42847,-25.8617 27.15904,-45.609089 51.86536,-57.764931 14.82899,-7.2960627 24.25386,-9.70489906 40.65066,-10.38961601 22.4608,-0.93794518 38.39015,2.34976671 55.59776,11.47501901 26.72786,14.173865 46.91461,40.586609 53.06293,69.428618 2.01285,9.442351 1.24958,38.976672 -1.24092,48.016862 -3.26898,11.86595 -13.30847,30.5236 -20.74508,38.55319 -1.92567,2.07922 -2.19348,2.80851 -1.03135,2.80851 1.59612,0 2.51971,-0.65715 18.72728,-13.3247 20.27834,-15.84922 49.35295,-26.75411 84.76596,-31.79283 13.52926,-1.92501 46.40972,-1.59794 60.76596,0.60445 36.10511,5.53887 66.83281,18.40687 85.97375,36.00369 15.79759,14.52319 22.78765,25.25739 25.84436,39.68763 4.84167,22.85669 -1.98428,42.15629 -21.7578,61.51784 -9.62194,9.42147 -25.00323,19.87207 -28.61611,19.4428 -2.53469,-0.30115 -2.63562,-0.074 -3.9259,8.8355 -1.79056,12.36397 -3.58389,18.11533 -8.97586,28.78628 -19.17373,37.94564 -63.30098,65.39862 -121.56372,75.62869 -12.37445,2.17277 -54.82479,2.45439 -69.44681,0.46071 -19.58433,-2.67028 -42.89984,-9.3714 -59.63854,-17.14073 -10.4458,-4.84846 -11.54734,-5.16091 -10.73541,-3.04507 0.7455,1.94274 -3.0828,4.72506 -14.74115,10.71355 -13.88235,7.13087 -24.14705,10.37804 -35.03646,11.08353 -4.97196,0.32212 -9.03993,0.87508 -9.03993,1.22881 0,0.35373 0.93628,1.44481 2.08064,2.42464 1.30133,1.11423 1.77948,2.28663 1.2766,3.1301 -12.5056,20.97528 -120.45896,196.71549 -120.84263,196.72303 -0.30207,0.006 -2.04693,-1.25305 -3.87748,-2.79773 z m 131.74529,0.57012 c -2.20936,-1.39886 -3.23608,-2.74779 -2.94338,-3.86705 0.24722,-0.94537 27.21048,-45.45625 59.91837,-98.91308 40.96057,-66.94477 60.00461,-97.19423 61.1902,-97.19423 2.03557,0 6.2609,2.7768 6.2609,4.11453 0,0.88586 -118.86916,195.76577 -120.3375,197.28718 -0.38265,0.39648 -2.22251,-0.24583 -4.08859,-1.42735 z M 50.808513,596.30588 c -1.544681,-1.15131 -2.808511,-2.50259 -2.808511,-3.00284 0,-0.80055 118.866678,-195.7442 120.117498,-196.99502 0.27011,-0.27011 1.27332,-7.2e-4 2.22936,0.59865 1.13062,0.70883 1.8236,2.6597 1.9824,5.5809 0.23358,4.29665 -2.28724,8.62292 -58.21277,99.90578 -32.151302,52.47806 -58.916488,95.54767 -59.47819,95.71024 -0.561702,0.16258 -2.285106,-0.6464 -3.829787,-1.79771 z"
       style="fill:#b7b7b7;stroke-width:1.02127659" />
    <path
       id="path49"
       d="m 179.74469,600.68318 c 0,-0.46678 -1.14894,-1.46359 -2.55319,-2.21513 -1.40426,-0.75153 -2.5532,-1.79929 -2.5532,-2.32834 0,-0.52907 26.72081,-44.68544 59.37957,-98.1253 32.65875,-53.43985 59.60275,-97.55943 59.87552,-98.0435 1.12877,-2.00314 -3.0968,-2.66388 -17.13067,-2.6787 -16.14655,-0.017 -21.58642,-1.07913 -35.52703,-6.93636 -7.99116,-3.35752 -21.53486,-11.40207 -23.8083,-14.14141 -1.22088,-1.47106 -0.96064,-2.01274 2.0906,-4.35159 9.58938,-7.35048 8.58005,-7.11078 -7.09245,1.68444 -14.68892,8.24324 -39.19307,15.80734 -57.37603,17.71121 -16.48098,1.72565 -51.08069,0.63797 -62.623974,-1.96867 C 57.316878,381.36182 30.249323,365.73292 13.630346,343.79319 0.66212639,326.67306 -3.0769949,305.41548 3.4739865,286.05243 8.726275,270.52801 17.576938,259.39213 37.365209,243.41061 c 3.593875,-2.9025 3.828257,-3.36549 2.326525,-4.59574 -2.479427,-2.0312 -7.047518,-14.4642 -8.745988,-23.80401 -1.748806,-9.61662 -1.187792,-25.35983 1.238525,-34.75555 8.986991,-34.80142 42.930573,-62.48487 82.274709,-67.10098 13.65265,-1.60183 34.05569,0.059 45.50662,3.70426 10.99418,3.49986 11.61487,4.34413 7.54385,10.26116 -1.76592,2.56667 -4.54389,7.52963 -6.17325,11.02878 -3.14617,6.75657 -7.56641,20.02886 -6.16234,18.50317 0.4591,-0.49886 1.41877,-2.74533 2.13262,-4.99213 0.71386,-2.24681 2.80333,-7.39951 4.64328,-11.45044 10.52923,-23.18165 33.15853,-42.575477 61.59925,-52.791944 9.1042,-3.270407 12.23167,-4.917389 7.77015,-4.091905 -6.93437,1.283019 -7.15761,1.199089 -7.03374,-2.644434 0.17051,-5.290804 6.54978,-21.286564 12.24933,-30.714678 15.69849,-25.968276 44.6584,-45.0815716 74.44399,-49.13241245 11.12222,-1.51262218 31.68239,-0.44826899 41.72342,2.15992585 9.43569,2.4509565 24.45387,9.3545646 33.05206,15.1934796 18.44675,12.52695 32.40603,31.364865 40.25478,54.323473 3.2769,9.585333 3.31658,9.929565 3.2959,28.595745 -0.0245,22.10137 -1.15781,28.15315 -7.9623,42.51759 -5.04474,10.64953 -9.41843,17.5172 -14.699,23.08067 -1.98949,2.09608 -3.33706,4.09124 -2.99461,4.43368 1.22922,1.22922 5.04259,-0.83694 11.2814,-6.1125 23.94482,-20.24781 48.66924,-31.28475 84.98452,-37.93698 12.06081,-2.2093 48.93432,-3.14275 62.46713,-1.58135 23.58206,2.72088 44.753,8.54174 63.31303,17.40767 15.5132,7.4105 24.21574,13.5034 35.66048,24.96698 8.55902,8.5731 11.03991,11.80746 14.58256,19.01147 13.60317,27.66207 7.85343,53.18695 -17.38027,77.1565 -4.16314,3.95458 -11.58014,9.85883 -16.48223,13.12056 -8.66519,5.76562 -11.94793,6.62876 -11.94793,3.14152 0,-0.89333 -0.39478,-1.38025 -0.8773,-1.08204 -0.48251,0.29821 -1.19255,3.65725 -1.57785,7.46453 -2.06701,20.42461 -9.0731,36.88375 -22.90935,53.82012 -25.10646,30.7317 -76.35022,53.83844 -125.78444,56.71848 -32.02831,1.86597 -62.92715,-1.50918 -88.68882,-9.68767 -12.75732,-4.05004 -35.78873,-14.23005 -42.40291,-18.74232 -4.93082,-3.36387 -8.82317,-5.49733 -8.82317,-4.83616 0,0.2555 3.90563,2.91422 8.67917,5.90828 4.77354,2.99404 8.6791,6.13308 8.67902,6.97563 -1.6e-4,1.78163 -5.35928,5.29929 -16.86072,11.06714 -12.50483,6.27104 -22.16726,9.14826 -32.44811,9.66221 -4.93455,0.24668 -9.29363,0.77025 -9.68687,1.16347 -0.39322,0.39324 0.42712,1.58233 1.82298,2.64243 2.0711,1.57293 2.33159,2.26455 1.41616,3.75995 -0.61699,1.00785 -26.96994,44.11331 -58.56213,95.7899 -31.59219,51.6766 -58.1896,95.10638 -59.10533,96.51064 -0.91575,1.40425 -1.5628,2.89787 -1.43788,3.31915 0.12491,0.42127 -0.23246,0.76595 -0.79417,0.76595 -0.5617,0 -1.02127,-0.38191 -1.02127,-0.8487 z m 131.21677,-0.34944 c -0.5522,-0.47146 -2.03288,-1.65858 -3.2904,-2.63804 l -2.2864,-1.78084 58.71672,-95.99999 c 32.2942,-52.8 59.55877,-97.136 60.58793,-98.52446 1.84762,-2.49263 1.90671,-2.5012 4.68739,-0.67922 1.84134,1.20647 2.65094,2.47711 2.33883,3.67062 -0.39522,1.51135 -37.01316,61.73594 -108.12513,177.83067 -7.11295,11.61233 -12.01463,18.64575 -12.62894,18.12126 z M 51.378729,596.22291 c -1.231061,-0.59271 -2.427351,-1.59384 -2.658422,-2.22476 -0.231071,-0.63091 26.501693,-45.15137 59.406143,-98.93435 43.09696,-70.44285 60.33265,-97.78723 61.63715,-97.78723 1.48855,0 1.81087,0.89537 1.81087,5.0303 0,4.85434 -2.02726,8.34362 -57.95744,99.75503 -31.876601,52.0986 -58.417028,94.84037 -58.97873,94.9817 -0.561702,0.14133 -2.028509,-0.22798 -3.259571,-0.82069 z"
       style="fill:#a7a7a7;stroke-width:1.02127659" />
    <path
       id="path47"
       d="m 177.75219,597.69267 -2.46784,-1.99833 21.51302,-35.12379 c 30.19698,-49.30186 78.5263,-128.37522 89.01849,-145.64638 4.85235,-7.98744 9.28202,-14.52176 9.84373,-14.52071 0.5617,10e-4 1.86186,0.63898 2.88924,1.41764 1.59208,1.20664 1.68173,1.76746 0.60695,3.7973 -0.69355,1.30987 -14.61553,24.21136 -30.93774,50.89221 -16.32222,26.68085 -42.1708,68.9617 -57.44131,93.95745 -15.2705,24.99574 -28.39279,46.29643 -29.16062,47.33487 -1.35435,1.83162 -1.46988,1.82832 -3.86392,-0.11026 z m 130.98391,-0.0133 -2.24262,-1.76452 14.02724,-22.97872 c 7.71499,-12.6383 28.08295,-45.95744 45.26214,-74.04255 17.17918,-28.0851 37.54881,-61.40425 45.26584,-74.04255 7.71702,-12.6383 14.38976,-23.36598 14.82829,-23.83929 1.34759,-1.45443 5.34657,1.34599 4.81652,3.37293 -0.26276,1.00476 -13.9411,23.82925 -30.39632,50.72107 -16.45522,26.89182 -39.1845,64.06018 -50.50953,82.59635 -36.21085,59.26786 -37.77317,61.78762 -38.29549,61.76452 -0.28239,-0.0125 -1.52262,-0.81675 -2.75607,-1.78724 z m -257.46563,-3.0411 c -2.03368,-1.76252 -1.240798,-3.12798 57.33367,-98.73711 32.66773,-53.32243 59.97033,-97.1352 60.67246,-97.36169 0.89345,-0.28823 1.2766,0.97059 1.2766,4.19419 0,4.29286 -3.93069,11.03394 -57.81325,99.14893 -31.797281,51.9986 -58.171902,94.54291 -58.610262,94.54291 -0.438362,0 -1.72501,-0.80425 -2.859218,-1.78723 z M 276.76597,397.191 c -16.891,-0.56347 -18.37704,-0.78011 -27.06383,-3.94555 -14.68899,-5.3526 -32.17022,-15.12596 -32.17022,-17.98566 0,-0.77448 2.49424,-3.25074 5.54275,-5.50281 5.4257,-4.0082 7.56949,-6.18253 6.09567,-6.18253 -0.40559,0 -4.93619,2.50548 -10.06798,5.56773 -11.81611,7.05093 -19.99793,10.71558 -34.10789,15.27703 -16.0951,5.2032 -26.46799,6.73455 -50.18595,7.40893 -18.56618,0.5279 -22.40591,0.34404 -33.91963,-1.62414 C 64.153373,383.92434 36.910692,370.14776 17.762084,348.16693 1.6891695,329.7167 -3.5332881,307.61762 3.3868317,287.33737 c 5.2906847,-15.505 14.7033183,-27.9675 30.6170903,-40.53761 7.890332,-6.23249 8.82412,-7.28959 7.026641,-7.95452 -2.520275,-0.9323 -5.801325,-7.99734 -8.432493,-18.15755 -2.710403,-10.46618 -2.70414,-29.53561 0.01318,-40.16027 8.14266,-31.8375 37.301657,-58.10964 72.90233,-65.6847 8.86751,-1.88682 34.26235,-1.89823 44.61408,-0.02 8.76729,1.59071 19.40426,5.34795 19.40426,6.85406 0,0.56064 -1.99618,4.31911 -4.43595,8.35215 -4.66933,7.71858 -10.8832,22.674 -10.8832,26.19345 0,3.88785 1.66527,2.08911 3.51508,-3.79684 2.29125,-7.2905 8.53433,-20.06109 12.93156,-26.45224 11.31057,-16.43934 31.58987,-30.720354 55.55337,-39.121569 9.84511,-3.45154 13.9154,-5.953446 7.65957,-4.708148 -1.96596,0.391346 -5.11965,0.980193 -7.00819,1.308546 l -3.43373,0.597007 0.74446,-3.471368 c 0.40946,-1.909253 2.22699,-7.434048 4.03897,-12.277322 12.26559,-32.784999 35.83449,-54.092915 71.95689,-65.0540129 7.94867,-2.41196923 10.33563,-2.65695976 25.6165,-2.62919604 20.12828,0.036571 28.24878,1.78666334 44.79506,9.65401894 13.4173,6.379596 21.1449,11.909177 30.78122,22.025874 12.32998,12.944644 20.91747,27.880787 25.45755,44.278104 2.70209,9.759015 3.00805,36.634676 0.55242,48.523136 -2.93159,14.19276 -11.80715,31.62063 -21.65463,42.52061 -6.52188,7.21895 0.97273,5.49672 9.29156,-2.13515 40.60437,-37.25136 116.96122,-50.95525 182.53944,-32.76067 19.8416,5.50503 42.36539,16.5183 53.8658,26.33832 15.74126,13.44124 23.03108,22.87611 27.87177,36.07312 2.7447,7.48281 3.16964,10.01407 3.2457,19.33349 0.0633,7.75222 -0.40222,12.10324 -1.67999,15.70343 -6.68713,18.8412 -19.49799,33.76949 -41.35126,48.18591 -6.10351,4.02643 -7.64824,4.66154 -8.4099,3.45771 -0.51317,-0.81109 -0.94007,-2.04918 -0.94867,-2.7513 -0.008,-0.70213 -0.43863,-1.2766 -0.95563,-1.2766 -0.51699,0 -1.24856,3.10213 -1.62571,6.89362 -2.58686,26.00596 -11.25137,43.91435 -30.53371,63.1091 -25.31821,25.2032 -62.13311,41.9385 -105.73459,48.06477 -9.39392,1.31991 -16.70497,1.53914 -35.8043,1.07363 -26.75156,-0.65201 -32.64459,-1.33059 -51.06383,-5.87994 -21.49792,-5.30974 -42.34418,-13.95914 -58.68162,-24.34779 -4.47064,-2.8428 -8.56314,-5.16871 -9.09446,-5.16871 -2.14063,0 3.31924,4.49457 11.35935,9.35102 4.68621,2.8306 8.34949,5.67609 8.14063,6.32329 -0.59449,1.84225 -13.66012,9.43947 -23.05059,13.40314 -16.08353,6.78879 -23.64413,7.67213 -56.33289,6.58165 z"
       style="fill:#939393;stroke-width:1.02127659" />
    <path
       id="path45"
       d="m 255.8298,394.2714 c -9.8148,-2.94458 -14.77157,-4.96833 -22.95609,-9.37251 -8.26967,-4.45002 -14.32051,-8.67295 -14.32051,-9.9944 0,-0.45173 2.64255,-2.67617 5.87234,-4.94321 6.67075,-4.6823 10.09462,-8.122 9.0873,-9.12932 -0.8602,-0.8602 -4.85513,1.16391 -16.23916,8.22786 -18.18265,11.2826 -42.41939,19.1388 -65.27964,21.16006 -18.65449,1.64938 -45.55315,0.68257 -58.547228,-2.10434 C 62.24413,381.42331 39.61737,369.65027 21.464533,350.66207 14.286187,343.15339 11.426734,339.2494 8.2822222,332.66438 6.0736706,328.03939 3.9382967,322.64679 3.5369469,320.68083 c -0.4013498,-1.96595 -1.2014995,-3.8746 -1.7781103,-4.24143 -1.38772207,-0.88283 -1.38772207,-21.2726 0,-22.15543 0.5766108,-0.36683 1.3871917,-2.27547 1.8012909,-4.24143 1.2442576,-5.90718 7.0579415,-17.46718 12.1914285,-24.24158 5.296835,-6.98998 12.971183,-14.21965 22.801637,-21.48043 6.857775,-5.06518 8.181023,-7.65587 3.661035,-7.16771 -2.446748,0.26426 -2.966779,-0.30914 -5.143601,-5.67142 -4.434603,-10.92401 -5.491636,-16.85252 -5.491636,-30.80056 0,-15.03381 1.315897,-21.51762 6.672234,-32.876 11.288193,-23.93718 31.717708,-41.24666 58.770055,-49.79456 4.8347,-1.52765 12.88617,-3.09957 18.17236,-3.54786 11.47046,-0.97275 33.52178,0.31563 40.55105,2.36925 9.48638,2.77147 12.76596,4.01835 12.76596,4.8536 0,0.45757 -1.89505,3.92806 -4.2112,7.7122 -4.78577,7.81904 -11.10795,23.41673 -11.10795,27.40487 0,5.11224 3.23684,2.44989 5.63165,-4.63214 10.84124,-32.06007 35.26526,-54.650398 70.65196,-65.347591 7.83056,-2.367132 11.00295,-4.609246 8.0986,-5.72375 -0.89928,-0.345088 -3.96309,-0.06895 -6.80844,0.613642 -2.84536,0.68259 -5.4256,0.988854 -5.73387,0.680585 -0.78952,-0.789517 3.35467,-13.078503 7.39931,-21.941516 12.4121,-27.198745 37.84447,-48.360649 67.31398,-56.0109857 3.93192,-1.0207322 7.43829,-2.2601303 7.79192,-2.7542182 0.93564,-1.30718914 33.75381,-1.17233967 36.17081,0.1486254 1.0971,0.5995971 5.21174,1.8428278 9.14366,2.7627349 26.44201,6.1863486 50.9041,25.5318546 64.42603,50.9504376 8.74006,16.429609 9.89126,21.11306 10.39202,42.277988 0.50095,21.172758 -0.42368,28.596608 -4.98058,39.989298 -4.05963,10.14941 -11.6497,22.80671 -16.98641,28.32667 -4.14584,4.28819 -5.54687,7.47489 -3.28634,7.47489 2.74855,0 8.3024,-3.35574 15.28634,-9.23632 22.38716,-18.85026 49.16502,-30.44167 83.74469,-36.25078 13.40987,-2.25277 43.8646,-3.08111 58.30012,-1.58574 41.78324,4.32833 75.3918,17.90648 97.97569,39.58305 11.89112,11.41338 17.33786,19.07747 20.37148,28.66471 1.2026,3.8006 2.67123,7.7882 3.26362,8.86132 1.28819,2.33357 1.45623,22.02661 0.19575,22.94127 -0.48472,0.35173 -1.77242,3.32371 -2.86154,6.60441 -4.4358,13.3617 -18.66686,30.08514 -35.28992,41.4705 -4.87855,3.34138 -9.47569,6.21407 -10.21586,6.38375 -0.74016,0.16968 -1.63638,-0.83802 -1.99158,-2.23932 -0.3552,-1.40131 -1.36501,-2.68633 -2.24401,-2.85561 -1.30539,-0.2514 -1.72582,1.26516 -2.29484,8.27798 -1.56491,19.28676 -7.67327,35.55199 -18.99311,50.57455 -23.10426,30.66165 -65.15164,52.63959 -114.51709,59.85745 -12.72692,1.86084 -42.63511,2.10896 -60.12425,0.4988 -29.89162,-2.75204 -61.60347,-13.49561 -86.97465,-29.46594 -5.42755,-3.41646 -10.40167,-6.21175 -11.05361,-6.21175 -3.47876,0 0.67735,4.37157 10.08734,10.61026 l 10.61226,7.03579 -2.44205,1.87644 c -4.75581,3.65431 -25.01708,13.08448 -32.54919,15.14932 -6.79801,1.86359 -10.45229,2.08614 -33.19149,2.02139 -21.51009,-0.0613 -26.52183,-0.36358 -31.6801,-1.91114 z"
       style="fill:#656565;stroke-width:1.02127659" />
  </g>
</svg>
