<?xml version="1.0" encoding="UTF-8" standalone="no"?>
<svg
   xmlns:dc="http://purl.org/dc/elements/1.1/"
   xmlns:cc="http://creativecommons.org/ns#"
   xmlns:rdf="http://www.w3.org/1999/02/22-rdf-syntax-ns#"
   xmlns:svg="http://www.w3.org/2000/svg"
   xmlns="http://www.w3.org/2000/svg"
   viewBox="0 0 683 496"
   height="496"
   width="683"
   id="svg30"
   version="1.1">
  <metadata
     id="metadata36">
    <rdf:RDF>
      <cc:Work
         rdf:about="">
        <dc:format>image/svg+xml</dc:format>
        <dc:type
           rdf:resource="http://purl.org/dc/dcmitype/StillImage" />
        <dc:title></dc:title>
      </cc:Work>
    </rdf:RDF>
  </metadata>
  <defs
     id="defs34" />
  <g
     transform="translate(1.2090649,-1.2090653)"
     id="g40">
    <path
       id="path54"
       d="M 213.62728,493.47108 C 213.28227,492.57202 213,485.57323 213,477.91821 213,470.2632 212.65446,464 212.23213,464 c -0.42232,0 -5.47678,4.725 -11.23213,10.5 -5.75535,5.775 -11.23325,10.5 -12.17312,10.5 -4.17848,0 -2.48932,-2.80723 8.04727,-13.37379 C 202.99337,465.48958 208,459.91325 208,459.23435 208,458.31185 204.32881,458 193.46862,458 c -12.1748,0 -14.62742,-0.25025 -15.12354,-1.54313 -0.32569,-0.84872 -0.27578,-1.86122 0.11089,-2.25 0.38668,-0.38878 7.27032,-0.93187 15.29698,-1.20687 l 14.59393,-0.5 -11.92344,-10.41552 C 182.69223,430.08981 181.94911,429.2962 182.67567,427.4028 183.77861,424.5286 186.81378,426.313 199,437 c 6.875,6.02919 12.82578,10.97068 13.22395,10.98108 0.39818,0.0104 0.84818,-6.84358 1,-15.23108 L 213.5,417.5 h 2.5 2.5 l 0.2608,14 c 0.14344,7.7 0.4802,14.59739 0.74837,15.32754 0.3106,0.84568 4.68815,-2.60258 12.06022,-9.5 11.36545,-10.63368 14.57204,-12.5472 15.23731,-9.09276 0.21899,1.13712 -3.56604,5.51598 -10.98631,12.70996 L 224.5,451.91992 l 18.19098,0.04 c 18.31923,0.0403 20.80836,0.52852 18.27267,3.58384 -0.88641,1.06806 -3.50818,1.4578 -9.83609,1.46219 -10.9217,0.008 -25.12756,1.09455 -25.12756,1.92263 0,0.3477 5.87495,5.08934 13.05544,10.53698 7.18049,5.44763 13.25695,10.23084 13.50324,10.62935 0.87676,1.41862 -0.8031,3.90505 -2.63828,3.90505 -1.02609,0 -8.01813,-4.725 -15.53785,-10.5 -7.51973,-5.775 -14.04563,-10.5 -14.502,-10.5 -0.45637,0 -0.95369,7.0875 -1.10516,15.75 -0.26561,15.19075 -0.35076,15.76075 -2.39811,16.05287 -1.25203,0.17864 -2.38002,-0.36763 -2.75,-1.33179 z M 360.2,477.8 c -0.83033,-0.83033 -1.2,-5.98526 -1.2,-16.73369 v -15.53369 l -11.26565,11.23369 c -10.95843,10.92734 -14.14861,12.92369 -15.40793,9.64194 -0.42816,-1.11577 2.72105,-4.9331 10.53138,-12.76565 C 348.98601,447.49696 354,442.13825 354,441.73435 354,441.33046 347.27656,441 339.05902,441 323.99031,441 321.56925,440.42888 324.03635,437.4562 324.98821,436.30928 328.19233,436 339.12244,436 346.7551,436 353,435.63096 353,435.17991 c 0,-0.45106 -5.64139,-5.71229 -12.53642,-11.69163 -7.6095,-6.59892 -12.41934,-11.47947 -12.23852,-12.41842 0.71866,-3.73168 4.16157,-1.87393 16.41473,8.85717 C 351.59372,426.01717 357.65784,431 358.1156,431 c 0.45777,0 0.95653,-6.8625 1.10835,-15.25 L 359.5,400.5 h 2.5 2.5 l 0.5,15.5 0.5,15.5 11.61121,-11.25 c 11.46136,-11.10481 14.33177,-12.86513 15.59791,-9.56563 0.47977,1.25026 -2.42772,4.60984 -11.28138,13.03553 L 369.5,435.07107 l 17.69924,-0.28553 c 18.22419,-0.29401 20.79265,0.18726 19.46493,3.64724 -0.5022,1.30871 -2.79213,1.57945 -13.88279,1.64134 -7.30476,0.0408 -15.30638,0.37836 -17.78138,0.75021 l -4.5,0.67608 13.5,10.34501 c 9.90874,7.59305 13.5,10.91459 13.5,12.4861 0,4.34092 -3.55528,2.69115 -17.95738,-8.33285 L 365,444.86712 v 15.13218 c 0,17.11245 -1.16561,21.43509 -4.8,17.8007 z m -90.7,-77.78908 c -8.99612,-1.32133 -22.95919,-5.66128 -32.3053,-10.04102 -9.46642,-4.43611 -21.71533,-12.2783 -22.54181,-14.43207 -0.44321,-1.15499 -2.43146,-0.57611 -9.85407,2.86903 -19.80427,9.192 -36.10211,13.20192 -59.79882,14.71293 -26.50412,1.69001 -43.00378,0.26524 -64.353883,-5.55706 C 47.680402,378.57278 18.672911,358.03314 6.6617226,335.1758 -1.2674938,320.08648 -2.1290814,294.38214 4.7714951,278.78334 9.4205985,268.27401 19.516711,255.95581 30.510208,247.3797 c 4.873061,-3.80151 7.373264,-6.40988 7.073678,-7.3797 -0.254849,-0.825 -2.068891,-5.64806 -4.031205,-10.71792 -7.915664,-20.451 -6.710427,-45.02706 3.176903,-64.78042 10.225612,-20.42919 29.429453,-37.82776 50.728957,-45.96014 16.741999,-6.39227 20.235259,-6.99678 40.041459,-6.92921 19.13608,0.0653 28.89506,1.61641 39.90157,6.34206 l 4.90158,2.1045 8.09842,-7.89413 C 191.24245,101.59735 203.06131,93.943656 218.25,87.654748 221.60555,86.265376 222,85.721756 222,82.486599 222,77.704235 228.99631,59.3058 234.04906,50.80075 249.76139,24.352993 276.80704,5.346861 304.76856,1.1031476 c 10.17422,-1.54413943 29.95697,-1.37355683 42.34287,0.3651139 37.95557,5.3280134 72.08082,38.1098645 81.50294,78.2944265 2.45963,10.490127 1.48402,42.181172 -1.59273,51.737312 -2.87617,8.93315 -9.0241,21.22445 -14.68935,29.36781 -2.43651,3.50229 -4.26472,6.5331 -4.06269,6.73512 0.20203,0.20203 3.48652,-2.26688 7.29886,-5.48647 C 445.93408,136.47218 487.63974,123 536.66078,123 c 34.55974,0 65.85642,7.00389 92.75108,20.75678 13.73718,7.02466 24.20109,14.88469 34.57073,25.968 14.58244,15.58606 18.85046,27.95131 17.65996,51.16419 -0.50754,9.89622 -0.9837,12.2429 -3.63288,17.90407 -3.84686,8.22054 -11.2016,18.18021 -18.69757,25.31993 -9.25967,8.8196 -24.78632,19.69329 -29.00421,20.31235 -1.36062,0.19969 -2.10652,2.4326 -3.5552,10.64281 -3.62433,20.54035 -13.09591,37.6558 -30.15691,54.49448 -26.11689,25.77656 -66.28856,43.39633 -110.59578,48.5086 -13.01893,1.50216 -50.40791,0.6367 -64,-1.48144 -18.13487,-2.82607 -38.5097,-8.89049 -55.63393,-16.55904 l -7.13394,-3.19471 -4.51401,3.44562 c -5.09978,3.89276 -22.66774,12.75419 -30.21812,15.24228 -2.75,0.90622 -8.15,2.2825 -12,3.05841 -8.65906,1.7451 -34.90772,2.61716 -43,1.42859 z"
       style="fill:#a2f1ed" />
    <path
       id="path52"
       d="m 215,479.05902 c 0,-10.58574 -0.37227,-16.17106 -1.10814,-16.62586 -0.63755,-0.39402 -5.84644,4.03999 -12.26565,10.44099 C 195.48958,478.99337 189.91325,484 189.23435,484 c -2.90747,0 -0.56218,-3.20289 10.21281,-13.94731 6.29593,-6.27807 11.21937,-11.78323 10.94098,-12.23368 C 210.10974,457.36855 203.18508,457 195,457 181.40476,457 176.47898,456.18138 180.58753,454.60478 181.45436,454.27215 188.42677,454 196.08179,454 203.7368,454 210,453.61567 210,453.14594 c 0,-0.46973 -5.85,-5.9354 -13,-12.14594 -7.15,-6.21054 -13,-11.64966 -13,-12.08693 0,-2.65945 3.14667,-0.62955 14.89922,9.61139 7.24315,6.31155 13.60393,11.47554 14.13507,11.47554 0.57661,0 0.97188,-5.9431 0.98102,-14.75 0.015,-14.46845 0.65109,-18.19225 2.87289,-16.8191 0.73515,0.45435 1.1118,5.72879 1.1118,15.5691 0,9.01313 0.40126,15.12996 1.01749,15.51081 0.55961,0.34586 6.44486,-4.63234 13.07832,-11.06266 9.25186,-8.96853 12.33373,-11.41623 13.23252,-10.50961 0.89824,0.90608 -1.57972,3.79326 -10.61812,12.37168 -6.48439,6.15438 -11.77189,11.65978 -11.75,12.23422 0.0268,0.70246 6.09733,0.90803 18.53979,0.62783 16.56824,-0.37311 18.5,-0.24723 18.5,1.20556 0,1.40379 -1.58184,1.62313 -11.75,1.62928 -13.29494,0.008 -25.25,0.94255 -25.25,1.97375 0,0.38041 6.3,5.50054 14,11.37807 12.57686,9.60012 16.4058,13.68916 12.75,13.61608 -0.6875,-0.0137 -7.65049,-4.96374 -15.47331,-11 C 226.45386,465.93876 219.59136,461 219.02669,461 218.36883,461 218,466.5389 218,476.41821 c 0,8.48002 -0.27314,16.13002 -0.60699,17 C 215.71309,497.79603 215,493.51718 215,479.05902 Z m 145.66667,-2.72569 C 360.3,475.96667 360,468.54167 360,459.83333 360,451.125 359.66926,444 359.26502,444 c -0.40424,0 -6.0215,5.27274 -12.48279,11.71721 -7.83453,7.81411 -12.08104,11.38398 -12.74816,10.71686 -0.66711,-0.66711 2.82479,-4.8146 10.4828,-12.45089 C 350.83259,447.68537 356,441.96278 356,441.26631 356,440.29874 352.32373,440 340.41667,440 c -12.02154,0 -15.4884,-0.28571 -15.16796,-1.25 0.30075,-0.90507 4.38811,-1.32695 14.81218,-1.52885 7.91825,-0.15337 14.73512,-0.61716 15.14861,-1.03065 0.41349,-0.41349 -5.0895,-5.83807 -12.22885,-12.05464 C 331.66095,414.27928 327.96652,410 330.77676,410 c 0.42721,0 6.75909,5.23312 14.07084,11.62915 7.89017,6.90202 13.66039,11.26286 14.19521,10.72804 0.49561,-0.49561 1.02623,-7.64123 1.17915,-15.87915 C 360.45444,403.95447 360.74581,401.5 362,401.5 c 1.25818,0 1.5444,2.53906 1.77539,15.75 0.15147,8.6625 0.53878,15.75 0.8607,15.75 0.32192,0 6.10119,-5.175 12.84283,-11.5 6.74164,-6.325 12.54182,-11.5 12.8893,-11.5 2.38651,0 -0.89392,4.18022 -10.94134,13.94246 -6.36522,6.18455 -11.36238,11.45538 -11.1048,11.71295 0.25757,0.25757 8.61487,0.55298 18.57178,0.65645 24.18342,0.25132 24.56055,1.98842 0.60614,2.7919 -9.9,0.33207 -18.1125,0.66957 -18.25,0.75 -1.24192,0.72647 1.68709,3.42037 13.75,12.64624 7.7,5.88906 14,11.08417 14,11.54468 0,2.91147 -3.73734,0.93064 -16.17659,-8.57376 -7.72361,-5.90135 -14.78104,-10.784 -15.68317,-10.85032 -1.44762,-0.10644 -1.67251,1.78769 -1.91501,16.1294 -0.25209,14.90837 -0.67256,17.46934 -2.55856,15.58333 z M 269.5,400.01092 c -8.99612,-1.32133 -22.95919,-5.66128 -32.3053,-10.04102 -9.46642,-4.43611 -21.71533,-12.2783 -22.54181,-14.43207 -0.44321,-1.15499 -2.43146,-0.57611 -9.85407,2.86903 -19.80427,9.192 -36.10211,13.20192 -59.79882,14.71293 -26.50412,1.69001 -43.00378,0.26524 -64.353883,-5.55706 C 47.680402,378.57278 18.672911,358.03314 6.6617226,335.1758 -1.2674938,320.08648 -2.1290814,294.38214 4.7714951,278.78334 9.4205985,268.27401 19.516711,255.95581 30.510208,247.3797 c 4.873061,-3.80151 7.373264,-6.40988 7.073678,-7.3797 -0.254849,-0.825 -2.068891,-5.64806 -4.031205,-10.71792 -7.915664,-20.451 -6.710427,-45.02706 3.176903,-64.78042 10.225612,-20.42919 29.429453,-37.82776 50.728957,-45.96014 16.741999,-6.39227 20.235259,-6.99678 40.041459,-6.92921 19.13608,0.0653 28.89506,1.61641 39.90157,6.34206 l 4.90158,2.1045 8.09842,-7.89413 C 191.24245,101.59735 203.06131,93.943656 218.25,87.654748 221.60555,86.265376 222,85.721756 222,82.486599 222,77.704235 228.99631,59.3058 234.04906,50.80075 249.76139,24.352993 276.80704,5.346861 304.76856,1.1031476 c 10.17422,-1.54413943 29.95697,-1.37355683 42.34287,0.3651139 37.95557,5.3280134 72.08082,38.1098645 81.50294,78.2944265 2.45963,10.490127 1.48402,42.181172 -1.59273,51.737312 -2.87617,8.93315 -9.0241,21.22445 -14.68935,29.36781 -2.43651,3.50229 -4.26472,6.5331 -4.06269,6.73512 0.20203,0.20203 3.48652,-2.26688 7.29886,-5.48647 C 445.93408,136.47218 487.63974,123 536.66078,123 c 34.55974,0 65.85642,7.00389 92.75108,20.75678 13.73718,7.02466 24.20109,14.88469 34.57073,25.968 14.58244,15.58606 18.85046,27.95131 17.65996,51.16419 -0.50754,9.89622 -0.9837,12.2429 -3.63288,17.90407 -3.84686,8.22054 -11.2016,18.18021 -18.69757,25.31993 -9.25967,8.8196 -24.78632,19.69329 -29.00421,20.31235 -1.36062,0.19969 -2.10652,2.4326 -3.5552,10.64281 -3.62433,20.54035 -13.09591,37.6558 -30.15691,54.49448 -26.11689,25.77656 -66.28856,43.39633 -110.59578,48.5086 -13.01893,1.50216 -50.40791,0.6367 -64,-1.48144 -18.13487,-2.82607 -38.5097,-8.89049 -55.63393,-16.55904 l -7.13394,-3.19471 -4.51401,3.44562 c -5.09978,3.89276 -22.66774,12.75419 -30.21812,15.24228 -2.75,0.90622 -8.15,2.2825 -12,3.05841 -8.65906,1.7451 -34.90772,2.61716 -43,1.42859 z"
       style="fill:#d0d0d0" />
    <path
       id="path50"
       d="m 215,479.05902 c 0,-10.58574 -0.37227,-16.17106 -1.10814,-16.62586 -0.63755,-0.39402 -5.84644,4.03999 -12.26565,10.44099 C 195.48958,478.99337 189.91325,484 189.23435,484 c -2.90747,0 -0.56218,-3.20289 10.21281,-13.94731 6.29593,-6.27807 11.21937,-11.78323 10.94098,-12.23368 C 210.10974,457.36855 203.18508,457 195,457 181.40476,457 176.47898,456.18138 180.58753,454.60478 181.45436,454.27215 188.42677,454 196.08179,454 203.7368,454 210,453.61567 210,453.14594 c 0,-0.46973 -5.85,-5.9354 -13,-12.14594 -7.15,-6.21054 -13,-11.64966 -13,-12.08693 0,-2.65945 3.14667,-0.62955 14.89922,9.61139 7.24315,6.31155 13.60393,11.47554 14.13507,11.47554 0.57661,0 0.97188,-5.9431 0.98102,-14.75 0.015,-14.46845 0.65109,-18.19225 2.87289,-16.8191 0.73515,0.45435 1.1118,5.72879 1.1118,15.5691 0,9.01313 0.40126,15.12996 1.01749,15.51081 0.55961,0.34586 6.44486,-4.63234 13.07832,-11.06266 9.25186,-8.96853 12.33373,-11.41623 13.23252,-10.50961 0.89824,0.90608 -1.57972,3.79326 -10.61812,12.37168 -6.48439,6.15438 -11.77189,11.65978 -11.75,12.23422 0.0268,0.70246 6.09733,0.90803 18.53979,0.62783 16.56824,-0.37311 18.5,-0.24723 18.5,1.20556 0,1.40379 -1.58184,1.62313 -11.75,1.62928 -13.29494,0.008 -25.25,0.94255 -25.25,1.97375 0,0.38041 6.3,5.50054 14,11.37807 12.57686,9.60012 16.4058,13.68916 12.75,13.61608 -0.6875,-0.0137 -7.65049,-4.96374 -15.47331,-11 C 226.45386,465.93876 219.59136,461 219.02669,461 218.36883,461 218,466.5389 218,476.41821 c 0,8.48002 -0.27314,16.13002 -0.60699,17 C 215.71309,497.79603 215,493.51718 215,479.05902 Z m 145.66667,-2.72569 C 360.3,475.96667 360,468.54167 360,459.83333 360,451.125 359.66926,444 359.26502,444 c -0.40424,0 -6.0215,5.27274 -12.48279,11.71721 -7.83453,7.81411 -12.08104,11.38398 -12.74816,10.71686 -0.66711,-0.66711 2.82479,-4.8146 10.4828,-12.45089 C 350.83259,447.68537 356,441.96278 356,441.26631 356,440.29874 352.32373,440 340.41667,440 c -12.02154,0 -15.4884,-0.28571 -15.16796,-1.25 0.30075,-0.90507 4.38811,-1.32695 14.81218,-1.52885 7.91825,-0.15337 14.73512,-0.61716 15.14861,-1.03065 0.41349,-0.41349 -5.0895,-5.83807 -12.22885,-12.05464 C 331.66095,414.27928 327.96652,410 330.77676,410 c 0.42721,0 6.75909,5.23312 14.07084,11.62915 7.89017,6.90202 13.66039,11.26286 14.19521,10.72804 0.49561,-0.49561 1.02623,-7.64123 1.17915,-15.87915 C 360.45444,403.95447 360.74581,401.5 362,401.5 c 1.25818,0 1.5444,2.53906 1.77539,15.75 0.15147,8.6625 0.53878,15.75 0.8607,15.75 0.32192,0 6.10119,-5.175 12.84283,-11.5 6.74164,-6.325 12.54182,-11.5 12.8893,-11.5 2.38651,0 -0.89392,4.18022 -10.94134,13.94246 -6.36522,6.18455 -11.36238,11.45538 -11.1048,11.71295 0.25757,0.25757 8.61487,0.55298 18.57178,0.65645 24.18342,0.25132 24.56055,1.98842 0.60614,2.7919 -9.9,0.33207 -18.1125,0.66957 -18.25,0.75 -1.24192,0.72647 1.68709,3.42037 13.75,12.64624 7.7,5.88906 14,11.08417 14,11.54468 0,2.91147 -3.73734,0.93064 -16.17659,-8.57376 -7.72361,-5.90135 -14.78104,-10.784 -15.68317,-10.85032 -1.44762,-0.10644 -1.67251,1.78769 -1.91501,16.1294 -0.25209,14.90837 -0.67256,17.46934 -2.55856,15.58333 z M 269.5,398.96453 c -15.41015,-2.40821 -32.3115,-8.86431 -45.44155,-17.3581 -7.69489,-4.97779 -9.02003,-6.74287 -6.94203,-9.2467 0.73709,-0.88814 -2.01294,0.0738 -6.11118,2.13763 -21.40664,10.78021 -41.20014,16.07875 -65.85466,17.62868 -21.67854,1.36284 -35.43991,0.67564 -51.471099,-2.5703 C 62.54801,383.25232 40.799272,372.19137 21.865908,353.03287 13.035973,344.09793 10.534042,340.84955 7.1189754,333.88616 c -10.4808265,-21.3706 -9.2650468,-43.68462 3.4643696,-63.5839 4.505628,-7.04343 13.711742,-16.79356 22.546281,-23.87859 l 6.629626,-5.31677 -2.471832,-5.1649 c -10.683424,-22.32306 -10.523634,-49.72241 0.416126,-71.35374 15.967221,-31.57218 51.121762,-52.65049 87.677444,-52.57049 18.95973,0.0415 42.42268,4.87836 44.74892,9.22496 0.91164,1.70342 1.60796,1.24126 7.00666,-4.65047 10.80417,-11.79084 27.21947,-22.637916 43.44721,-28.709491 4.85155,-1.815196 5.32774,-2.226986 3.83633,-3.317525 -2.2256,-1.627398 -1.42884,-5.998554 3.28934,-18.045974 9.55221,-24.39062 27.40219,-44.183325 50.0856,-55.536729 C 293.60051,3.0716578 306.65027,-0.00417121 324.36047,0.00707164 355.48594,0.02683082 378.01314,9.0719221 399.05919,30 c 15.16571,15.080699 24.32748,31.072271 28.52429,49.78823 2.15334,9.602937 1.54906,40.5683 -0.9701,49.71177 -2.4501,8.89278 -11.80646,27.10735 -17.64193,34.34454 -2.81363,3.4895 -4.86739,6.59285 -4.5639,6.89634 0.70553,0.70554 6.07404,-3.03497 15.73891,-10.96609 19.60262,-16.08619 46.10416,-27.20555 78.35354,-32.87514 15.32223,-2.69371 44.60425,-3.63248 60.8997,-1.95242 63.10517,6.50616 112.92237,38.03357 121.10118,76.64033 4.14098,19.54684 -0.14546,35.94273 -13.8331,52.91244 C 655.08359,268.86189 629,287.86379 629,281.94098 c 0,-0.58246 -0.38357,-0.82195 -0.85239,-0.53221 -0.46881,0.28974 -1.12929,3.49217 -1.46774,7.11651 -1.56264,16.73395 -9.65797,35.92521 -21.19755,50.25215 -27.96347,34.718 -80.08674,57.39226 -135.48232,58.93649 -39.90998,1.11254 -70.55062,-4.25273 -101,-17.6854 -12.4821,-5.50645 -12.84179,-5.60335 -12.65415,-3.40894 0.11077,1.29538 -2.6501,3.42707 -9.81023,7.57456 -11.01639,6.38123 -23.35301,11.23372 -34.03562,13.38758 -8.81964,1.77824 -35.06818,2.62235 -43,1.38281 z"
       style="fill:#5be8e1" />
    <path
       id="path48"
       d="m 216.22343,477.37244 c -0.30876,-20.90503 -0.0153,-20.79555 -15.49156,-5.77863 L 188.5,483.46259 200.39238,471.32352 c 9.5591,-9.75739 11.73619,-12.50051 11.09631,-13.98129 -0.43783,-1.01323 -0.7071,-2.57968 -0.59836,-3.48101 0.16342,-1.35458 -7.4335,-8.56168 -25.34033,-24.04006 C 184.96071,429.31179 185.00185,429 185.65835,429 c 0.58209,0 6.71044,4.95 13.61854,11 6.90811,6.05 13.27185,11 14.14165,11 1.37367,0 1.58146,-2.02885 1.58146,-15.44098 0,-9.2153 0.40319,-15.69017 1,-16.05902 0.65033,-0.40193 1,4.83341 1,14.97237 0,12.85075 0.2604,15.69032 1.48184,16.15904 0.95999,0.36838 5.61461,-3.3227 13.21705,-10.48101 6.45436,-6.07731 11.86314,-10.92171 12.01951,-10.76533 0.15637,0.15637 -4.99244,5.50756 -11.4418,11.89153 -6.44937,6.38396 -11.36234,11.97085 -10.91772,12.41531 0.44462,0.44445 9.20826,0.7536 19.47476,0.68699 l 18.66636,-0.12109 -16,0.73567 c -8.8,0.40462 -17.2375,0.79661 -18.75,0.87109 -1.67744,0.0826 -2.75,0.7027 -2.75,1.58989 0,0.79995 6.3,6.26808 14,12.15138 C 248.32287,479.02133 251.54645,482 249.4132,482 c -0.32274,0 -7.05364,-4.95 -14.95755,-11 -7.90392,-6.05 -15.05371,-11 -15.88843,-11 -1.28228,0 -1.56442,2.52048 -1.81901,16.25 l -0.30134,16.25 z m 144.99592,-17.56342 c -0.14233,-10.18157 -0.60858,-15.93155 -1.3279,-16.37611 -0.63907,-0.39496 -6.14466,4.33788 -13,11.17536 C 340.35115,461.13152 335,466.0181 335,465.46731 c 0,-0.55078 4.95,-5.93607 11,-11.96731 9.99492,-9.96393 13.06068,-14.5 9.8,-14.5 -0.93333,0 -0.93333,-0.26667 0,-1.2 0.66,-0.66 1.2,-1.51695 1.2,-1.90434 0,-0.38738 -5.85,-5.79194 -13,-12.01013 -7.15,-6.21819 -13,-11.70576 -13,-12.19461 0,-0.85307 2.40263,1.13321 19,15.70754 4.125,3.6222 8.175,6.47116 9,6.33102 1.24509,-0.21151 1.5468,-2.92926 1.77539,-15.99215 C 360.93411,408.66719 361.45292,402 362,402 c 0.54684,0 1.06595,6.64152 1.22461,15.66777 0.17329,9.85922 0.66636,15.79769 1.32999,16.0182 0.58002,0.19274 6.33593,-4.66436 12.79089,-10.79354 6.45496,-6.12919 11.95794,-10.92233 12.22885,-10.65143 0.2709,0.27091 -4.6975,5.33308 -11.0409,11.24928 -10.7836,10.05739 -13.30717,13.39289 -10.28344,13.59205 0.6875,0.0453 9.125,0.11163 18.75,0.14744 l 17.5,0.0651 -17.5,0.60256 c -9.625,0.33141 -18.09181,0.98473 -18.81514,1.45184 -1.89649,1.22469 -0.12033,2.92317 14.92189,14.26938 11.59314,8.7446 14.44468,11.41356 12.14325,11.36576 -0.4125,-0.009 -7.21715,-4.95856 -15.12145,-11 C 372.22425,447.94299 365.14532,443 364.3976,443 c -1.96652,0 -2.37862,2.83943 -2.68501,18.5 l -0.2739,14 z M 269.5,398.96453 c -15.41015,-2.40821 -32.3115,-8.86431 -45.44155,-17.3581 -7.69489,-4.97779 -9.02003,-6.74287 -6.94203,-9.2467 0.73709,-0.88814 -2.01294,0.0738 -6.11118,2.13763 -21.40664,10.78021 -41.20014,16.07875 -65.85466,17.62868 -21.67854,1.36284 -35.43991,0.67564 -51.471099,-2.5703 C 62.54801,383.25232 40.799272,372.19137 21.865908,353.03287 13.035973,344.09793 10.534042,340.84955 7.1189754,333.88616 c -10.4808265,-21.3706 -9.2650468,-43.68462 3.4643696,-63.5839 4.505628,-7.04343 13.711742,-16.79356 22.546281,-23.87859 l 6.629626,-5.31677 -2.471832,-5.1649 c -10.683424,-22.32306 -10.523634,-49.72241 0.416126,-71.35374 15.967221,-31.57218 51.121762,-52.65049 87.677444,-52.57049 18.95973,0.0415 42.42268,4.87836 44.74892,9.22496 0.91164,1.70342 1.60796,1.24126 7.00666,-4.65047 10.80417,-11.79084 27.21947,-22.637916 43.44721,-28.709491 4.85155,-1.815196 5.32774,-2.226986 3.83633,-3.317525 -2.2256,-1.627398 -1.42884,-5.998554 3.28934,-18.045974 9.55221,-24.39062 27.40219,-44.183325 50.0856,-55.536729 C 293.60051,3.0716578 306.65027,-0.00417121 324.36047,0.00707164 355.48594,0.02683082 378.01314,9.0719221 399.05919,30 c 15.16571,15.080699 24.32748,31.072271 28.52429,49.78823 2.15334,9.602937 1.54906,40.5683 -0.9701,49.71177 -2.4501,8.89278 -11.80646,27.10735 -17.64193,34.34454 -2.81363,3.4895 -4.86739,6.59285 -4.5639,6.89634 0.70553,0.70554 6.07404,-3.03497 15.73891,-10.96609 19.60262,-16.08619 46.10416,-27.20555 78.35354,-32.87514 15.32223,-2.69371 44.60425,-3.63248 60.8997,-1.95242 63.10517,6.50616 112.92237,38.03357 121.10118,76.64033 4.14098,19.54684 -0.14546,35.94273 -13.8331,52.91244 C 655.08359,268.86189 629,287.86379 629,281.94098 c 0,-0.58246 -0.38357,-0.82195 -0.85239,-0.53221 -0.46881,0.28974 -1.12929,3.49217 -1.46774,7.11651 -1.56264,16.73395 -9.65797,35.92521 -21.19755,50.25215 -27.96347,34.718 -80.08674,57.39226 -135.48232,58.93649 -39.90998,1.11254 -70.55062,-4.25273 -101,-17.6854 -12.4821,-5.50645 -12.84179,-5.60335 -12.65415,-3.40894 0.11077,1.29538 -2.6501,3.42707 -9.81023,7.57456 -11.01639,6.38123 -23.35301,11.23372 -34.03562,13.38758 -8.81964,1.77824 -35.06818,2.62235 -43,1.38281 z"
       style="fill:#afafaf" />
    <path
       id="path46"
       d="m 216.22343,477.37244 c -0.30876,-20.90503 -0.0153,-20.79555 -15.49156,-5.77863 L 188.5,483.46259 200.39238,471.32352 c 9.5591,-9.75739 11.73619,-12.50051 11.09631,-13.98129 -0.43783,-1.01323 -0.7071,-2.57968 -0.59836,-3.48101 0.16342,-1.35458 -7.4335,-8.56168 -25.34033,-24.04006 C 184.96071,429.31179 185.00185,429 185.65835,429 c 0.58209,0 6.71044,4.95 13.61854,11 6.90811,6.05 13.27185,11 14.14165,11 1.37367,0 1.58146,-2.02885 1.58146,-15.44098 0,-9.2153 0.40319,-15.69017 1,-16.05902 0.65033,-0.40193 1,4.83341 1,14.97237 0,12.85075 0.2604,15.69032 1.48184,16.15904 0.95999,0.36838 5.61461,-3.3227 13.21705,-10.48101 6.45436,-6.07731 11.86314,-10.92171 12.01951,-10.76533 0.15637,0.15637 -4.99244,5.50756 -11.4418,11.89153 -6.44937,6.38396 -11.36234,11.97085 -10.91772,12.41531 0.44462,0.44445 9.20826,0.7536 19.47476,0.68699 l 18.66636,-0.12109 -16,0.73567 c -8.8,0.40462 -17.2375,0.79661 -18.75,0.87109 -1.67744,0.0826 -2.75,0.7027 -2.75,1.58989 0,0.79995 6.3,6.26808 14,12.15138 C 248.32287,479.02133 251.54645,482 249.4132,482 c -0.32274,0 -7.05364,-4.95 -14.95755,-11 -7.90392,-6.05 -15.05371,-11 -15.88843,-11 -1.28228,0 -1.56442,2.52048 -1.81901,16.25 l -0.30134,16.25 z m 144.99592,-17.56342 c -0.14233,-10.18157 -0.60858,-15.93155 -1.3279,-16.37611 -0.63907,-0.39496 -6.14466,4.33788 -13,11.17536 C 340.35115,461.13152 335,466.0181 335,465.46731 c 0,-0.55078 4.95,-5.93607 11,-11.96731 9.99492,-9.96393 13.06068,-14.5 9.8,-14.5 -0.93333,0 -0.93333,-0.26667 0,-1.2 0.66,-0.66 1.2,-1.51695 1.2,-1.90434 0,-0.38738 -5.85,-5.79194 -13,-12.01013 -7.15,-6.21819 -13,-11.70576 -13,-12.19461 0,-0.85307 2.40263,1.13321 19,15.70754 4.125,3.6222 8.175,6.47116 9,6.33102 1.24509,-0.21151 1.5468,-2.92926 1.77539,-15.99215 C 360.93411,408.66719 361.45292,402 362,402 c 0.54684,0 1.06595,6.64152 1.22461,15.66777 0.17329,9.85922 0.66636,15.79769 1.32999,16.0182 0.58002,0.19274 6.33593,-4.66436 12.79089,-10.79354 6.45496,-6.12919 11.95794,-10.92233 12.22885,-10.65143 0.2709,0.27091 -4.6975,5.33308 -11.0409,11.24928 -10.7836,10.05739 -13.30717,13.39289 -10.28344,13.59205 0.6875,0.0453 9.125,0.11163 18.75,0.14744 l 17.5,0.0651 -17.5,0.60256 c -9.625,0.33141 -18.09181,0.98473 -18.81514,1.45184 -1.89649,1.22469 -0.12033,2.92317 14.92189,14.26938 11.59314,8.7446 14.44468,11.41356 12.14325,11.36576 -0.4125,-0.009 -7.21715,-4.95856 -15.12145,-11 C 372.22425,447.94299 365.14532,443 364.3976,443 c -1.96652,0 -2.37862,2.83943 -2.68501,18.5 l -0.2739,14 z M 265,397.43702 c -11.42602,-2.46798 -19.58074,-5.31776 -29.66601,-10.36719 -10.96584,-5.49032 -18.33498,-10.44518 -18.33206,-12.3261 0.001,-0.68405 2.23536,-2.76594 4.96509,-4.62641 5.38173,-3.66797 8.94046,-7.11732 7.343,-7.11732 -0.54997,0 -3.88221,1.8728 -7.40498,4.16177 -14.66327,9.52767 -35.36245,17.76992 -55.24068,21.99639 -8.84703,1.88104 -13.53402,2.17227 -36.16436,2.24708 -23.62169,0.0781 -26.96047,-0.12464 -36.5,-2.21623 C 62.604829,382.30548 39.347134,370.41099 21.94546,352.33876 11.986091,341.99562 7.1602569,334.4812 3.4067629,323.47174 1.1335019,316.80399 0.68701666,313.78245 0.67724508,305 0.66701534,295.80577 1.0378859,293.48455 3.6594948,286.33452 c 1.6466627,-4.49101 4.5344111,-10.74129 6.4172192,-13.8895 4.288918,-7.17143 16.364681,-20.15684 24.350386,-26.18466 8.500744,-6.41658 8.257135,-6.0928 5.851796,-7.77757 -2.80352,-1.96366 -7.78788,-15.09205 -9.178094,-24.17434 -1.955607,-12.77601 -0.975835,-27.67806 2.496952,-37.97794 9.561255,-28.35755 33.78161,-50.71642 64.902246,-59.9141 16.82212,-4.97177 44.81119,-4.44449 62.61451,1.17958 8.7046,2.74978 9.35025,3.7364 5.82683,8.90401 C 161.92453,133.85788 154,151.99489 154,156.11906 c 0,3.67357 1.66046,1.79845 3.42611,-3.86906 9.57275,-30.72711 34.29349,-54.156604 69.31349,-65.693001 10.98176,-3.617648 12.50757,-6.419292 1.89051,-3.471314 -2.29896,0.638337 -4.23597,0.70846 -4.77168,0.172742 -0.53572,-0.535717 0.1683,-4.120198 1.7343,-8.830107 6.28378,-18.899127 14.42593,-32.261872 27.1726,-44.59516 C 266.03626,16.992609 280.2144,8.8777079 299,3.3705937 307.72166,0.81378546 309.85185,0.58752417 325,0.60896463 338.58648,0.62819473 342.95122,1.0105181 349.71863,2.7741597 368.311,7.61948 383.73175,16.036175 396.79755,28.46998 c 14.16132,13.476333 24.27521,29.9709 29.13141,47.509921 1.74555,6.304345 2.06831,10.311973 2.05368,25.499999 -0.019,19.71329 -1.09336,27.06555 -5.49191,37.58327 -3.78481,9.05014 -11.20885,21.35055 -16.36843,27.11979 -8.16191,9.12632 -2.07483,7.75131 9.8777,-2.23128 11.63807,-9.71996 20.09162,-15.19721 32.2126,-20.8713 26.65215,-12.47645 54.84088,-18.32479 88.2874,-18.31707 34.25241,0.008 64.43783,6.56858 90.73154,19.72013 16.57208,8.289 28.11687,17.18069 38.97292,30.01656 7.11604,8.4138 11.06721,16.33449 13.76765,27.5992 2.51917,10.5086 2.53856,15.58416 0.096,25.13436 -4.84523,18.94467 -17.78382,35.09604 -40.01469,49.95074 C 631.35939,282.99368 629,283.35511 629,278.87756 629,277.8449 628.58582,277 628.07959,277 c -0.50622,0 -1.20919,3.0375 -1.56216,6.75 -3.26793,34.37202 -19.80967,60.36828 -52.01743,81.74824 -22.13068,14.69066 -51.39358,25.39244 -82,29.98835 -11.80809,1.77313 -44.58322,2.02517 -61,0.4691 -28.64805,-2.71542 -63.30335,-14.56074 -86.97521,-29.72848 -4.38637,-2.81056 -8.163,-4.92234 -8.3925,-4.69283 -0.89884,0.89884 2.44305,3.64984 10.969,9.02953 C 351.99558,373.6521 356,376.556 356,377.017 c 0,0.98808 -9.00825,6.52004 -17.5,10.74673 -9.79498,4.87536 -20.32789,8.25895 -30.46817,9.78757 -11.95421,1.80208 -34.43609,1.74237 -43.03183,-0.11428 z"
       style="fill:#2be2d9" />
    <path
       id="path44"
       d="m 265,397.43702 c -11.42602,-2.46798 -19.58074,-5.31776 -29.66601,-10.36719 -10.96584,-5.49032 -18.33498,-10.44518 -18.33206,-12.3261 0.001,-0.68405 2.23536,-2.76594 4.96509,-4.62641 5.38173,-3.66797 8.94046,-7.11732 7.343,-7.11732 -0.54997,0 -3.88221,1.8728 -7.40498,4.16177 -14.66327,9.52767 -35.36245,17.76992 -55.24068,21.99639 -8.84703,1.88104 -13.53402,2.17227 -36.16436,2.24708 -23.62169,0.0781 -26.96047,-0.12464 -36.5,-2.21623 C 62.604829,382.30548 39.347134,370.41099 21.94546,352.33876 11.986091,341.99562 7.1602569,334.4812 3.4067629,323.47174 1.1335019,316.80399 0.68701666,313.78245 0.67724508,305 0.66701534,295.80577 1.0378859,293.48455 3.6594948,286.33452 c 1.6466627,-4.49101 4.5344111,-10.74129 6.4172192,-13.8895 4.288918,-7.17143 16.364681,-20.15684 24.350386,-26.18466 8.500744,-6.41658 8.257135,-6.0928 5.851796,-7.77757 -2.80352,-1.96366 -7.78788,-15.09205 -9.178094,-24.17434 -1.955607,-12.77601 -0.975835,-27.67806 2.496952,-37.97794 9.561255,-28.35755 33.78161,-50.71642 64.902246,-59.9141 16.82212,-4.97177 44.81119,-4.44449 62.61451,1.17958 8.7046,2.74978 9.35025,3.7364 5.82683,8.90401 C 161.92453,133.85788 154,151.99489 154,156.11906 c 0,3.67357 1.66046,1.79845 3.42611,-3.86906 9.57275,-30.72711 34.29349,-54.156604 69.31349,-65.693001 10.98176,-3.617648 12.50757,-6.419292 1.89051,-3.471314 -2.29896,0.638337 -4.23597,0.70846 -4.77168,0.172742 -0.53572,-0.535717 0.1683,-4.120198 1.7343,-8.830107 6.28378,-18.899127 14.42593,-32.261872 27.1726,-44.59516 C 266.03626,16.992609 280.2144,8.8777079 299,3.3705937 307.72166,0.81378546 309.85185,0.58752417 325,0.60896463 338.58648,0.62819473 342.95122,1.0105181 349.71863,2.7741597 368.311,7.61948 383.73175,16.036175 396.79755,28.46998 c 14.16132,13.476333 24.27521,29.9709 29.13141,47.509921 1.74555,6.304345 2.06831,10.311973 2.05368,25.499999 -0.019,19.71329 -1.09336,27.06555 -5.49191,37.58327 -3.78481,9.05014 -11.20885,21.35055 -16.36843,27.11979 -8.16191,9.12632 -2.07483,7.75131 9.8777,-2.23128 11.63807,-9.71996 20.09162,-15.19721 32.2126,-20.8713 26.65215,-12.47645 54.84088,-18.32479 88.2874,-18.31707 34.25241,0.008 64.43783,6.56858 90.73154,19.72013 16.57208,8.289 28.11687,17.18069 38.97292,30.01656 7.11604,8.4138 11.06721,16.33449 13.76765,27.5992 2.51917,10.5086 2.53856,15.58416 0.096,25.13436 -4.84523,18.94467 -17.78382,35.09604 -40.01469,49.95074 C 631.35939,282.99368 629,283.35511 629,278.87756 629,277.8449 628.58582,277 628.07959,277 c -0.50622,0 -1.20919,3.0375 -1.56216,6.75 -3.26793,34.37202 -19.80967,60.36828 -52.01743,81.74824 -22.13068,14.69066 -51.39358,25.39244 -82,29.98835 -11.80809,1.77313 -44.58322,2.02517 -61,0.4691 -28.64805,-2.71542 -63.30335,-14.56074 -86.97521,-29.72848 -4.38637,-2.81056 -8.163,-4.92234 -8.3925,-4.69283 -0.89884,0.89884 2.44305,3.64984 10.969,9.02953 C 351.99558,373.6521 356,376.556 356,377.017 c 0,0.98808 -9.00825,6.52004 -17.5,10.74673 -9.79498,4.87536 -20.32789,8.25895 -30.46817,9.78757 -11.95421,1.80208 -34.43609,1.74237 -43.03183,-0.11428 z"
       style="fill:#8e8e8e" />
    <path
       id="path42"
       d="m 269,397.36818 c -9.28807,-1.8095 -22.5268,-5.98698 -29.87042,-9.42563 C 230.09433,383.7118 218,376.30673 218,375.00541 c 0,-0.41782 3.1659,-3.06959 7.03533,-5.89282 6.72792,-4.90885 8.93694,-7.47365 7.59377,-8.81683 -0.33989,-0.33989 -4.33299,1.72473 -8.87354,4.58804 -17.98932,11.34421 -36.52998,18.90267 -57.0912,23.27436 -8.84703,1.88104 -13.53402,2.17227 -36.16436,2.24708 -23.62169,0.0781 -26.96047,-0.12464 -36.5,-2.21623 C 62.288773,381.23618 37.51091,368.24329 20.281979,349.53313 12.561384,341.14877 5.9992353,329.90726 3.9132957,321.49221 3.232683,318.74649 2.277731,316.23545 1.7911801,315.9121 0.63606154,315.14445 0.56513513,294.90681 1.7147725,294.11051 2.1995457,293.77473 3.4449634,290.64893 4.4823673,287.16429 8.6375814,273.20692 20.21233,258.26592 36.372223,246 c 4.709929,-3.575 8.577968,-7.0625 8.595642,-7.75 0.01858,-0.72264 -1.202856,-1.25 -2.895179,-1.25 -2.727845,0 -3.130704,-0.52809 -5.912167,-7.75 -5.790947,-15.03587 -6.657569,-36.01046 -2.096873,-50.75 9.744949,-31.49432 37.626979,-55.77817 72.255444,-62.93088 8.65435,-1.78761 28.45171,-2.05861 39.18091,-0.53634 8.87394,1.25905 21.56119,4.96311 22.1367,6.46285 0.24182,0.63018 -1.64677,4.56036 -4.19686,8.73372 -4.89505,8.01097 -11.68419,25.97031 -10.74386,28.42076 1.24594,3.24689 3.63127,0.51022 6.23215,-7.15011 6.06136,-17.85235 16.05754,-32.49939 29.63325,-43.42049 12.43625,-10.00445 23.13145,-15.595433 41.18862,-21.531617 4.95523,-1.629003 8.25,-3.25482 8.25,-4.070998 0,-2.255309 -1.40858,-2.451884 -7,-0.976895 -2.93652,0.77464 -5.69811,1.18658 -6.13685,0.915422 -1.28583,-0.794687 6.57149,-21.821719 11.13421,-29.796309 13.0412,-22.793087 37.63359,-41.624924 62.50264,-47.8619582 4.95,-1.2414351 9.225,-2.5401053 9.5,-2.8859336 1.19955,-1.50850255 35.51038,-1.5060473 34.57806,0.00247 -0.29698,0.4805326 1.727,1.1744201 4.49774,1.5419722 11.03317,1.4636018 29.28861,9.7213786 41.0401,18.5643276 17.23616,12.970136 31.06852,33.276356 36.82996,54.067176 1.72612,6.228937 2.05137,10.290187 2.03678,25.432733 -0.0114,11.80429 -0.51388,20.36328 -1.45679,24.81316 -2.62671,12.3963 -15.87722,36.94952 -22.63774,41.94778 -3.58775,2.65254 -3.73045,4.75916 -0.32237,4.75916 3.54867,0 5.73073,-1.32103 14.93426,-9.0413 23.93317,-20.07604 53.78263,-32.0906 92,-37.03047 11.63467,-1.50386 42.58773,-1.51642 53.5,-0.0217 33.39428,4.57419 64.3576,15.73384 83.11444,29.9557 10.31799,7.82334 23.92199,22.75712 27.56549,30.26001 3.61938,7.4532 6.32007,16.97053 6.32007,22.27211 0,1.98312 0.45,3.60566 1,3.60566 0.55,0 1,1.15156 1,2.55902 0,1.40746 -0.38854,2.31889 -0.86341,2.02539 -0.47488,-0.29349 -1.10503,2.04246 -1.40034,5.19099 -1.58972,16.94949 -17.48197,38.6372 -38.55514,52.61513 -8.51228,5.64624 -10.3075,6.06612 -11.15693,2.60947 -0.33789,-1.375 -1.26906,-2.5 -2.06926,-2.5 -1.09347,0 -1.72983,2.36011 -2.5615,9.5 -3.18183,27.31602 -10.47684,42.23565 -30.32959,62.02957 -12.56419,12.52697 -22.5074,19.6719 -38.56383,27.71099 -29.25862,14.64911 -58.4263,21.24371 -94,21.25271 -33.08331,0.008 -50.34566,-2.50215 -75.85888,-11.03239 -15.24083,-5.09571 -27.34229,-10.82217 -41.03758,-19.41914 -7.77117,-4.87821 -11.08276,-6.46252 -11.86763,-5.67765 -1.62202,1.62202 1.25117,4.31797 11.48101,10.77278 4.87934,3.07876 8.71108,6.07912 8.51497,6.66746 -0.57444,1.72333 -16.54273,10.47715 -25.20743,13.81871 -12.69107,4.89435 -19.39193,5.98932 -39.02446,6.37687 -9.9,0.19543 -19.125,0.13615 -20.5,-0.13173 z"
       style="fill:#656565" />
  </g>
</svg>
