<?xml version="1.0" encoding="UTF-8" standalone="no"?>
<svg
   xmlns:dc="http://purl.org/dc/elements/1.1/"
   xmlns:cc="http://creativecommons.org/ns#"
   xmlns:rdf="http://www.w3.org/1999/02/22-rdf-syntax-ns#"
   xmlns:svg="http://www.w3.org/2000/svg"
   xmlns="http://www.w3.org/2000/svg"
   viewBox="0 0 682 602"
   height="602"
   width="682"
   id="svg732"
   version="1.1">
  <metadata
     id="metadata738">
    <rdf:RDF>
      <cc:Work
         rdf:about="">
        <dc:format>image/svg+xml</dc:format>
        <dc:type
           rdf:resource="http://purl.org/dc/dcmitype/StillImage" />
        <dc:title></dc:title>
      </cc:Work>
    </rdf:RDF>
  </metadata>
  <defs
     id="defs736" />
  <g
     transform="translate(1.4900079e-7,1.2183154)"
     id="g742">
    <path
       id="path756"
       d="m 176.23467,599.50268 c -1.79594,-0.78046 -3.52047,-2.0839 -3.8323,-2.89651 -0.33923,-0.88402 23.36564,-40.64996 59.01533,-99.00076 C 264.18797,443.9676 291,399.89799 291,399.67292 c 0,-0.22506 -7.0875,-0.64686 -15.75,-0.93734 -14.14938,-0.47446 -16.63023,-0.83407 -24.41147,-3.53852 C 236.23249,390.12057 218.85957,380.7785 215,375.92535 c -1.45192,-1.8257 -1.74038,-1.77097 -9,1.70773 -9.324,4.46791 -27.90706,10.69576 -38.5,12.90272 -9.86646,2.05561 -41.1383,3.35504 -55.68982,2.31405 C 86.290672,391.02425 58.616621,381.83197 38.653212,368.54987 25.776618,359.98279 12.253035,345.81609 6.49949,334.86707 -1.7610133,319.14731 -1.997714,292.5941 5.9782369,276.39264 11.45841,265.26083 24.20326,250.97531 36.069274,242.66403 l 2.18319,-1.52916 -3.534853,-8.81744 C 29.905877,220.31492 28.689653,213.59 28.782465,199.5 c 0.09441,-14.3332 2.195598,-23.52342 8.03177,-35.12957 12.515814,-24.88966 35.11367,-42.60663 64.598965,-50.64631 6.99492,-1.90728 10.51715,-2.19675 26.0868,-2.14388 19.13007,0.065 28.80754,1.6109 39.90157,6.37413 l 4.90158,2.1045 8.09842,-7.89556 c 9.38867,-9.15348 22.07498,-17.742178 33.25156,-22.511481 l 7.84687,-3.34844 0.74554,-5.177837 c 0.99049,-6.879071 6.88614,-22.000219 11.83758,-30.360972 15.61297,-26.36331 42.73678,-45.419671 70.68544,-49.6614324 10.17422,-1.54413943 29.95697,-1.37355683 42.34287,0.3651139 37.95537,5.3279853 72.11527,38.1452475 81.49767,78.2944265 2.1304,9.116438 1.47797,40.840522 -1.02266,49.726062 -2.30962,8.20681 -9.30584,22.6091 -14.99291,30.86413 -2.5966,3.76909 -4.55706,7.01692 -4.35656,7.21742 0.20049,0.20049 3.94169,-2.6248 8.31378,-6.27843 23.71933,-19.82156 53.74241,-31.98524 90.75047,-36.76704 13.70755,-1.77115 40.50913,-1.99503 54.48819,-0.45515 29.82832,3.28576 61.94929,14.23974 82.60728,28.17094 10.08809,6.80314 26.58369,24.10403 30.88864,32.39657 6.34458,12.22144 8.27474,28.70825 5.22613,44.63997 -2.27063,11.86612 -8.02056,21.34968 -20.46105,33.74714 -8.26252,8.23395 -26.30072,20.98891 -29.67124,20.9808 -1.85464,-0.004 -2.20743,0.76025 -2.8107,6.09249 -6.31697,55.83458 -68.43405,101.43434 -147.25013,108.09537 -19.04246,1.60935 -50.54871,-0.0994 -68.05106,-3.69082 -14.70266,-3.01691 -33.14258,-8.94165 -44.73026,-14.37182 l -8.48866,-3.97792 -3.22568,3.01325 c -4.62539,4.32075 -27.91026,15.46293 -37.32268,17.85948 -4.4,1.12031 -10.31635,2.10126 -13.14745,2.17988 -4.50469,0.1251 -4.96577,0.32463 -3.69249,1.59791 0.80023,0.80023 1.17807,2.17653 0.83964,3.05846 -0.86681,2.25887 -117.50515,193.25559 -119.32039,195.38862 -1.77483,2.08554 -2.6535,2.11751 -6.94464,0.25268 z M 49.949638,596.71189 c -1.897301,-1.29683 -3.405669,-3.00003 -3.35193,-3.78488 0.10093,-1.47408 114.762342,-189.89178 119.079052,-195.67701 2.84924,-3.81853 3.25079,-3.8978 6.13468,-1.21104 4.22871,3.93964 3.10642,8.18705 -6.23066,23.58067 -54.00664,89.03815 -109.565962,178.93801 -110.726544,179.16525 -0.800228,0.15668 -3.007297,-0.77617 -4.904598,-2.07299 z M 381.64431,556.80361 c -0.33935,-1.26698 -0.62315,-13.21611 -0.63066,-26.55361 -0.008,-13.3375 -0.34682,-24.25 -0.75403,-24.25 -0.40721,0 -9.18352,8.43437 -19.50292,18.74304 -16.06094,16.04426 -19.0141,18.58536 -20.50962,17.64788 -4.03258,-2.52786 -2.59548,-4.59875 16.22511,-23.38078 C 366.66248,508.84071 375,500.17821 375,499.76014 375,499.34206 363.77236,499 350.04969,499 c -22.58009,0 -25.04197,-0.16379 -25.91521,-1.72418 -0.6121,-1.09377 -0.61741,-2.37346 -0.0145,-3.5 C 324.99075,492.14876 327.1268,492 349.61852,492 c 14.34598,0 24.40961,-0.37865 24.21481,-0.91111 C 373.65,490.58778 363.9375,481.801 352.25,471.56271 340.5625,461.32442 331,452.59542 331,452.16495 c 0,-1.75693 2.73867,-4.35861 4.23555,-4.02369 0.88184,0.19731 11.12688,8.68374 22.76675,18.85874 11.63987,10.175 21.56845,18.64744 22.06351,18.82765 0.51439,0.18725 1.01454,-10.74004 1.16715,-25.5 L 381.5,434.5 h 3.5 3.5 l 0.26827,24.46827 c 0.15971,14.56598 0.6721,24.8721 1.2661,25.4661 0.66376,0.66376 4.42403,-2.33952 11.23172,-8.97063 28.75983,-28.01382 28.40781,-27.70201 30.5183,-27.03217 5.2688,1.67225 3.95483,3.53164 -16.42539,23.24343 l -19.82522,19.175 30.61719,-0.57791 30.61719,-0.57792 0.69854,2.2009 c 1.4419,4.54302 0.23575,4.768 -29.70258,5.54027 -15.52877,0.40057 -28.82235,1.05749 -29.54128,1.45983 -0.86715,0.48528 6.06637,6.34257 20.59831,17.401 12.048,9.16822 22.48313,17.36554 23.18918,18.21627 1.68094,2.02542 -0.21214,6.49594 -2.73889,6.4679 -0.97429,-0.0108 -12.32631,-8.11082 -25.22671,-18 C 401.14433,513.09115 390.23918,505 389.81106,505 c -0.42812,0 -0.89824,12.0375 -1.04473,26.75 L 388.5,558.5 l -3.11935,0.30361 c -2.54121,0.24735 -3.2337,-0.12333 -3.73634,-2 z"
       style="fill:#a3f2ee" />
    <path
       id="path754"
       d="m 176.23467,599.50268 c -1.79594,-0.78046 -3.52047,-2.0839 -3.8323,-2.89651 -0.33923,-0.88402 23.36564,-40.64996 59.01533,-99.00076 C 264.18797,443.9676 291,399.89799 291,399.67292 c 0,-0.22506 -7.0875,-0.64686 -15.75,-0.93734 -14.14938,-0.47446 -16.63023,-0.83407 -24.41147,-3.53852 C 236.23249,390.12057 218.85957,380.7785 215,375.92535 c -1.45192,-1.8257 -1.74038,-1.77097 -9,1.70773 -9.324,4.46791 -27.90706,10.69576 -38.5,12.90272 -9.86646,2.05561 -41.1383,3.35504 -55.68982,2.31405 C 86.290672,391.02425 58.616621,381.83197 38.653212,368.54987 25.776618,359.98279 12.253035,345.81609 6.49949,334.86707 -1.7610133,319.14731 -1.997714,292.5941 5.9782369,276.39264 11.45841,265.26083 24.20326,250.97531 36.069274,242.66403 l 2.18319,-1.52916 -3.534853,-8.81744 C 29.905877,220.31492 28.689653,213.59 28.782465,199.5 c 0.09441,-14.3332 2.195598,-23.52342 8.03177,-35.12957 12.515814,-24.88966 35.11367,-42.60663 64.598965,-50.64631 6.99492,-1.90728 10.51715,-2.19675 26.0868,-2.14388 19.13007,0.065 28.80754,1.6109 39.90157,6.37413 l 4.90158,2.1045 8.09842,-7.89556 c 9.38867,-9.15348 22.07498,-17.742178 33.25156,-22.511481 l 7.84687,-3.34844 0.74554,-5.177837 c 0.99049,-6.879071 6.88614,-22.000219 11.83758,-30.360972 15.61297,-26.36331 42.73678,-45.419671 70.68544,-49.6614324 10.17422,-1.54413943 29.95697,-1.37355683 42.34287,0.3651139 37.95537,5.3279853 72.11527,38.1452475 81.49767,78.2944265 2.1304,9.116438 1.47797,40.840522 -1.02266,49.726062 -2.30962,8.20681 -9.30584,22.6091 -14.99291,30.86413 -2.5966,3.76909 -4.55706,7.01692 -4.35656,7.21742 0.20049,0.20049 3.94169,-2.6248 8.31378,-6.27843 23.71933,-19.82156 53.74241,-31.98524 90.75047,-36.76704 13.70755,-1.77115 40.50913,-1.99503 54.48819,-0.45515 29.82832,3.28576 61.94929,14.23974 82.60728,28.17094 10.08809,6.80314 26.58369,24.10403 30.88864,32.39657 6.34458,12.22144 8.27474,28.70825 5.22613,44.63997 -2.27063,11.86612 -8.02056,21.34968 -20.46105,33.74714 -8.26252,8.23395 -26.30072,20.98891 -29.67124,20.9808 -1.85464,-0.004 -2.20743,0.76025 -2.8107,6.09249 -6.31697,55.83458 -68.43405,101.43434 -147.25013,108.09537 -19.04246,1.60935 -50.54871,-0.0994 -68.05106,-3.69082 -14.70266,-3.01691 -33.14258,-8.94165 -44.73026,-14.37182 l -8.48866,-3.97792 -3.22568,3.01325 c -4.62539,4.32075 -27.91026,15.46293 -37.32268,17.85948 -4.4,1.12031 -10.31635,2.10126 -13.14745,2.17988 -4.50469,0.1251 -4.96577,0.32463 -3.69249,1.59791 0.80023,0.80023 1.17807,2.17653 0.83964,3.05846 -0.86681,2.25887 -117.50515,193.25559 -119.32039,195.38862 -1.77483,2.08554 -2.6535,2.11751 -6.94464,0.25268 z M 49.949638,596.71189 c -1.897301,-1.29683 -3.405669,-3.00003 -3.35193,-3.78488 0.10093,-1.47408 114.762342,-189.89178 119.079052,-195.67701 2.84924,-3.81853 3.25079,-3.8978 6.13468,-1.21104 4.22871,3.93964 3.10642,8.18705 -6.23066,23.58067 -54.00664,89.03815 -109.565962,178.93801 -110.726544,179.16525 -0.800228,0.15668 -3.007297,-0.77617 -4.904598,-2.07299 z M 383,531.62857 c 0,-18.37735 -0.3412,-26.72141 -1.11216,-27.19789 -0.64966,-0.40151 -9.13463,7.32721 -20.40353,18.58499 -13.77853,13.76495 -19.74759,19.09728 -20.88784,18.65972 C 339.71841,541.33845 339,540.4817 339,539.77151 c 0,-0.71019 8.55,-9.83237 19,-20.27151 10.45,-10.43914 19,-19.5396 19,-20.22325 0,-0.95156 -6.03728,-1.30556 -25.75,-1.50987 -24.99437,-0.25905 -25.75,-0.32557 -25.75,-2.26688 0,-1.9358 0.83333,-2.01605 25.95966,-2.5 l 25.95966,-0.5 -4.45966,-4.1332 C 370.50685,486.09355 360.625,477.39831 351,469.04407 c -12.25894,-10.64045 -17.5,-15.81666 -17.5,-17.28348 0,-1.15166 0.48306,-2.25494 1.07346,-2.45174 0.5904,-0.1968 11.1321,8.439 23.42599,19.19067 12.2939,10.75167 22.71541,19.18562 23.15891,18.74212 0.44351,-0.44351 0.92682,-12.26682 1.07401,-26.27401 L 382.5,435.5 h 2.5 2.5 L 388,461 c 0.37411,19.07976 0.80617,25.5 1.71607,25.5 0.66884,0 10.00943,-8.325 20.75687,-18.5 10.74745,-10.175 20.10022,-18.5 20.78393,-18.5 0.68372,0 1.37177,0.9 1.52899,2 0.2104,1.47205 -4.87115,6.88185 -19.25,20.49349 C 402.79114,482.16491 394,490.84373 394,491.27976 c 0,0.43603 13.76641,0.4794 30.59202,0.0964 25.44832,-0.5793 30.73507,-0.46494 31.4428,0.68019 2.02777,3.281 -0.88474,3.94095 -17.90726,4.05766 -25.65055,0.17587 -42.62756,1.19188 -42.62756,2.55109 0,0.64081 10.125,8.87577 22.5,18.29992 12.375,9.42416 22.92391,17.74965 23.44201,18.50109 0.935,1.35609 -0.78071,4.5339 -2.44786,4.5339 C 438.57562,540 427.32825,531.675 414,521.5 400.67175,511.325 389.37652,503 388.89948,503 c -0.47703,0 -0.98707,12.2625 -1.13341,27.25 L 387.5,557.5 l -2.25,0.31955 -2.25,0.31955 z"
       style="fill:#cfcfcf" />
    <path
       id="path752"
       d="M 177.24415,598.85765 C 175.45987,597.72792 174,596.2103 174,595.48517 c 0,-0.72514 26.56391,-44.78038 59.0309,-97.90055 32.467,-53.12016 59.26745,-97.19854 59.55656,-97.95195 0.42714,-1.11311 -2.53041,-1.46441 -15.7809,-1.87444 -14.20769,-0.43965 -17.40062,-0.858 -24.80656,-3.25018 -13.77255,-4.44867 -36,-16.62225 -36,-19.71657 0,-0.6237 0.7875,-2.01269 1.75,-3.08665 1.08923,-1.21536 -2.20901,0.03 -8.73514,3.29838 -11.46267,5.74058 -28.98821,11.86031 -41.51486,14.49654 -9.60082,2.02049 -40.16613,3.30809 -55.31478,2.3302 C 58.126356,388.34029 9.4618141,355.84915 1.4829622,317.91901 -2.1458029,300.66846 1.1415321,284.56872 11.456146,269.07529 15.63152,262.80352 28.161531,249.91212 36.314466,243.5 l 3.814467,-3 -3.074782,-5.63037 C 32.062057,225.72838 29.856346,215.41834 29.808143,201 c -0.04838,-14.47187 1.539401,-22.55456 6.569223,-33.44095 13.445882,-29.10184 42.228691,-49.95143 75.521784,-54.70618 8.31407,-1.18738 31.69069,-0.48623 39.10085,1.17276 9.3756,2.09903 18.17331,5.42968 19.14678,7.24863 0.88753,1.65836 1.66479,1.12845 7.17429,-4.89118 10.69125,-11.68116 27.00005,-22.41567 43.34949,-28.532779 4.46687,-1.671269 5.28632,-2.294931 3.97765,-3.027294 C 223.7417,84.315694 223,82.986068 223,81.868282 c 0,-3.20675 4.84281,-16.617686 9.12547,-25.270682 14.35321,-29.000241 43.64089,-50.3897643 76.17323,-55.63122057 10.79223,-1.73879203 33.77264,-0.74157962 43.87673,1.90398787 37.05041,9.7009517 66.77886,39.9640337 75.41064,76.7668197 2.15226,9.176449 1.46934,40.818703 -1.07539,49.826753 -3.30697,11.70633 -10.90074,26.0262 -19.21403,36.23268 -2.46451,3.02575 -3.73496,5.30338 -2.9582,5.30338 1.37973,0 2.36189,-0.70404 17.8333,-12.78332 20.23318,-15.79703 44.8798,-25.83805 77.82825,-31.70718 12.68582,-2.25973 46.2637,-3.1455 60.03628,-1.58373 31.05898,3.52201 60.44277,13.10161 81.54041,26.58353 7.66579,4.89863 19.3421,15.4465 25.69535,23.21207 16.75167,20.47552 19.3426,48.02796 6.55854,69.74455 -5.41348,9.196 -21.72683,25.46832 -32.942,32.85914 C 632.5996,282.78751 629,284.18511 629,281.94098 c 0,-0.58246 -0.39087,-0.81744 -0.8686,-0.52219 -0.47773,0.29526 -1.18651,3.76301 -1.57505,7.70612 -5.06289,51.38033 -58.06553,94.54413 -130.57029,106.33261 -21.35763,3.47252 -59.18259,2.81683 -80.95266,-1.40329 -13.69245,-2.65428 -32.27092,-8.2929 -43.28276,-13.13644 -5.08785,-2.23788 -10.77324,-4.74103 -12.63419,-5.56255 -3.0457,-1.34454 -3.3237,-1.33771 -2.78413,0.0684 0.95118,2.47874 -2.82216,5.19272 -16.83232,12.1067 -14.75344,7.28078 -25.87741,10.55486 -35.87992,10.56039 l -6.87991,0.004 2.25643,2.40186 c 1.24103,1.32102 2.01954,3.01917 1.73002,3.77366 -0.6009,1.56591 -118.56201,194.85619 -119.57562,195.93581 -0.36448,0.38822 -2.12257,-0.21847 -3.90685,-1.3482 z M 51.2333,595.99568 C 49.454985,594.91423 48,593.5129 48,592.88162 c 0,-0.63128 26.8875,-45.1928 59.75,-99.0256 64.38319,-105.46756 63.36112,-103.99413 64.04457,-92.32771 l 0.29457,5.02831 -57.66491,94.47169 c -31.715706,51.95943 -58.180778,95.02563 -58.811274,95.70268 -0.901444,0.96799 -1.837131,0.8109 -4.379656,-0.73531 z M 383,531.62857 c 0,-18.37735 -0.3412,-26.72141 -1.11216,-27.19789 -0.64966,-0.40151 -9.13463,7.32721 -20.40353,18.58499 -13.77853,13.76495 -19.74759,19.09728 -20.88784,18.65972 C 339.71841,541.33845 339,540.4817 339,539.77151 c 0,-0.71019 8.55,-9.83237 19,-20.27151 10.45,-10.43914 19,-19.5396 19,-20.22325 0,-0.95156 -6.03728,-1.30556 -25.75,-1.50987 -24.99437,-0.25905 -25.75,-0.32557 -25.75,-2.26688 0,-1.9358 0.83333,-2.01605 25.95966,-2.5 l 25.95966,-0.5 -4.45966,-4.1332 C 370.50685,486.09355 360.625,477.39831 351,469.04407 c -12.25894,-10.64045 -17.5,-15.81666 -17.5,-17.28348 0,-1.15166 0.48306,-2.25494 1.07346,-2.45174 0.5904,-0.1968 11.1321,8.439 23.42599,19.19067 12.2939,10.75167 22.71541,19.18562 23.15891,18.74212 0.44351,-0.44351 0.92682,-12.26682 1.07401,-26.27401 L 382.5,435.5 h 2.5 2.5 L 388,461 c 0.37411,19.07976 0.80617,25.5 1.71607,25.5 0.66884,0 10.00943,-8.325 20.75687,-18.5 10.74745,-10.175 20.10022,-18.5 20.78393,-18.5 0.68372,0 1.37177,0.9 1.52899,2 0.2104,1.47205 -4.87115,6.88185 -19.25,20.49349 C 402.79114,482.16491 394,490.84373 394,491.27976 c 0,0.43603 13.76641,0.4794 30.59202,0.0964 25.44832,-0.5793 30.73507,-0.46494 31.4428,0.68019 2.02777,3.281 -0.88474,3.94095 -17.90726,4.05766 -25.65055,0.17587 -42.62756,1.19188 -42.62756,2.55109 0,0.64081 10.125,8.87577 22.5,18.29992 12.375,9.42416 22.92391,17.74965 23.44201,18.50109 0.935,1.35609 -0.78071,4.5339 -2.44786,4.5339 C 438.57562,540 427.32825,531.675 414,521.5 400.67175,511.325 389.37652,503 388.89948,503 c -0.47703,0 -0.98707,12.2625 -1.13341,27.25 L 387.5,557.5 l -2.25,0.31955 -2.25,0.31955 z"
       style="fill:#5ee8e2" />
    <path
       id="path750"
       d="M 177.24415,598.85765 C 175.45987,597.72792 174,596.2103 174,595.48517 c 0,-0.72514 26.56391,-44.78038 59.0309,-97.90055 32.467,-53.12016 59.26745,-97.19854 59.55656,-97.95195 0.42714,-1.11311 -2.53041,-1.46441 -15.7809,-1.87444 -14.20769,-0.43965 -17.40062,-0.858 -24.80656,-3.25018 -13.77255,-4.44867 -36,-16.62225 -36,-19.71657 0,-0.6237 0.7875,-2.01269 1.75,-3.08665 1.08923,-1.21536 -2.20901,0.03 -8.73514,3.29838 -11.46267,5.74058 -28.98821,11.86031 -41.51486,14.49654 -9.60082,2.02049 -40.16613,3.30809 -55.31478,2.3302 C 58.126356,388.34029 9.4618141,355.84915 1.4829622,317.91901 -2.1458029,300.66846 1.1415321,284.56872 11.456146,269.07529 15.63152,262.80352 28.161531,249.91212 36.314466,243.5 l 3.814467,-3 -3.074782,-5.63037 C 32.062057,225.72838 29.856346,215.41834 29.808143,201 c -0.04838,-14.47187 1.539401,-22.55456 6.569223,-33.44095 13.445882,-29.10184 42.228691,-49.95143 75.521784,-54.70618 8.31407,-1.18738 31.69069,-0.48623 39.10085,1.17276 9.3756,2.09903 18.17331,5.42968 19.14678,7.24863 0.88753,1.65836 1.66479,1.12845 7.17429,-4.89118 10.69125,-11.68116 27.00005,-22.41567 43.34949,-28.532779 4.46687,-1.671269 5.28632,-2.294931 3.97765,-3.027294 C 223.7417,84.315694 223,82.986068 223,81.868282 c 0,-3.20675 4.84281,-16.617686 9.12547,-25.270682 14.35321,-29.000241 43.64089,-50.3897643 76.17323,-55.63122057 10.79223,-1.73879203 33.77264,-0.74157962 43.87673,1.90398787 37.05041,9.7009517 66.77886,39.9640337 75.41064,76.7668197 2.15226,9.176449 1.46934,40.818703 -1.07539,49.826753 -3.30697,11.70633 -10.90074,26.0262 -19.21403,36.23268 -2.46451,3.02575 -3.73496,5.30338 -2.9582,5.30338 1.37973,0 2.36189,-0.70404 17.8333,-12.78332 20.23318,-15.79703 44.8798,-25.83805 77.82825,-31.70718 12.68582,-2.25973 46.2637,-3.1455 60.03628,-1.58373 31.05898,3.52201 60.44277,13.10161 81.54041,26.58353 7.66579,4.89863 19.3421,15.4465 25.69535,23.21207 16.75167,20.47552 19.3426,48.02796 6.55854,69.74455 -5.41348,9.196 -21.72683,25.46832 -32.942,32.85914 C 632.5996,282.78751 629,284.18511 629,281.94098 c 0,-0.58246 -0.39087,-0.81744 -0.8686,-0.52219 -0.47773,0.29526 -1.18651,3.76301 -1.57505,7.70612 -5.06289,51.38033 -58.06553,94.54413 -130.57029,106.33261 -21.35763,3.47252 -59.18259,2.81683 -80.95266,-1.40329 -13.69245,-2.65428 -32.27092,-8.2929 -43.28276,-13.13644 -5.08785,-2.23788 -10.77324,-4.74103 -12.63419,-5.56255 -3.0457,-1.34454 -3.3237,-1.33771 -2.78413,0.0684 0.95118,2.47874 -2.82216,5.19272 -16.83232,12.1067 -14.75344,7.28078 -25.87741,10.55486 -35.87992,10.56039 l -6.87991,0.004 2.25643,2.40186 c 1.24103,1.32102 2.01954,3.01917 1.73002,3.77366 -0.6009,1.56591 -118.56201,194.85619 -119.57562,195.93581 -0.36448,0.38822 -2.12257,-0.21847 -3.90685,-1.3482 z M 51.2333,595.99568 C 49.454985,594.91423 48,593.5129 48,592.88162 c 0,-0.63128 26.8875,-45.1928 59.75,-99.0256 64.38319,-105.46756 63.36112,-103.99413 64.04457,-92.32771 l 0.29457,5.02831 -57.66491,94.47169 c -31.715706,51.95943 -58.180778,95.02563 -58.811274,95.70268 -0.901444,0.96799 -1.837131,0.8109 -4.379656,-0.73531 z m 332.75139,-65.16235 c -0.009,-14.90747 -0.42803,-26.98417 -0.96651,-27.83333 -1.04349,-1.64556 -1.99726,-0.80328 -28.14124,24.8516 -9.15799,8.98667 -13.87063,12.96762 -14.37842,12.146 -0.4918,-0.79574 6.1384,-8.12245 19.00148,-20.9976 11.54675,-11.55759 19.47118,-20.23762 19.06941,-20.8877 C 378.09334,497.342 369.88021,497 351.85765,497 c -20.37475,0 -25.93397,-0.27136 -25.60813,-1.25 0.3154,-0.9473 6.63171,-1.31463 26.08333,-1.51688 C 371.94753,494.02917 378,493.6738 378,492.7261 c 0,-0.68207 -9.9,-9.90714 -22,-20.50014 -19.04343,-16.67166 -24.41826,-22.28844 -21.25,-22.20658 0.4125,0.0107 10.82007,8.80397 23.12793,19.54069 12.30786,10.73672 22.88286,19.35321 23.5,19.14775 0.78211,-0.26037 1.20284,-8.3016 1.38867,-26.54069 C 383.02476,436.8293 383.09607,436 385.0166,436 c 1.92509,0 1.98385,0.74227 1.99871,25.25 0.008,13.8875 0.42139,25.89163 0.9177,26.67585 1.09906,1.73661 2.16576,0.84222 24.86716,-20.85017 15.25245,-14.57453 19.86968,-18.18971 19.04064,-14.90836 -0.18744,0.74192 -9.00331,9.63061 -19.59081,19.75264 -10.5875,10.12203 -19.25,19.026 -19.25,19.7866 0,1.16254 4.93969,1.27115 31,0.68159 27.17431,-0.61476 31,-0.51655 31,0.79577 0,1.27947 -4.2319,1.59668 -29.11377,2.18229 -27.53526,0.64805 -33.79038,1.36182 -32.35055,3.69153 0.32544,0.52656 10.66936,8.64787 22.9865,18.04734 12.31714,9.39947 22.90221,17.70136 23.5224,18.44863 1.32767,1.59976 0.29377,3.7901 -1.46962,3.11343 -0.67251,-0.25807 -11.87328,-8.61375 -24.8906,-18.56818 C 400.66704,510.14453 389.34502,502 388.52432,502 c -1.27976,0 -1.53005,3.86739 -1.75825,27.1671 -0.20227,20.65235 -0.56582,27.26692 -1.51607,27.58334 -0.97864,0.32587 -1.25332,-5.30048 -1.26531,-25.91711 z"
       style="fill:#aeaeae" />
    <path
       id="path748"
       d="m 176.95428,597.16406 -2.26729,-1.83594 58.61266,-95.91406 c 32.23697,-52.75273 59.26216,-96.80181 60.05599,-97.88684 1.30719,-1.78669 1.69191,-1.83973 4.07881,-0.5623 1.72742,0.92448 2.43083,1.94378 2.04152,2.95831 C 298.28495,407.02695 180.6645,599 179.95389,599 c -0.40278,0 -1.7526,-0.82617 -2.99961,-1.83594 z M 50.75,594.62228 C 49.7875,593.88376 49,593.05171 49,592.77329 49,591.12987 168.25259,397.5 169.26474,397.5 c 0.76239,0 1.3256,1.72266 1.47124,4.5 0.22744,4.3373 -1.85504,7.91679 -57.59628,99 C 81.331961,552.975 54.675771,595.60463 53.903723,595.73252 53.131676,595.8604 51.7125,595.36079 50.75,594.62228 Z m 333.23469,-63.78895 c -0.009,-14.90747 -0.42803,-26.98417 -0.96651,-27.83333 -1.04349,-1.64556 -1.99726,-0.80328 -28.14124,24.8516 -9.15799,8.98667 -13.87063,12.96762 -14.37842,12.146 -0.4918,-0.79574 6.1384,-8.12245 19.00148,-20.9976 11.54675,-11.55759 19.47118,-20.23762 19.06941,-20.8877 C 378.09334,497.342 369.88021,497 351.85765,497 c -20.37475,0 -25.93397,-0.27136 -25.60813,-1.25 0.3154,-0.9473 6.63171,-1.31463 26.08333,-1.51688 C 371.94753,494.02917 378,493.6738 378,492.7261 c 0,-0.68207 -9.9,-9.90714 -22,-20.50014 -19.04343,-16.67166 -24.41826,-22.28844 -21.25,-22.20658 0.4125,0.0107 10.82007,8.80397 23.12793,19.54069 12.30786,10.73672 22.88286,19.35321 23.5,19.14775 0.78211,-0.26037 1.20284,-8.3016 1.38867,-26.54069 C 383.02476,436.8293 383.09607,436 385.0166,436 c 1.92509,0 1.98385,0.74227 1.99871,25.25 0.008,13.8875 0.42139,25.89163 0.9177,26.67585 1.09906,1.73661 2.16576,0.84222 24.86716,-20.85017 15.25245,-14.57453 19.86968,-18.18971 19.04064,-14.90836 -0.18744,0.74192 -9.00331,9.63061 -19.59081,19.75264 -10.5875,10.12203 -19.25,19.026 -19.25,19.7866 0,1.16254 4.93969,1.27115 31,0.68159 27.17431,-0.61476 31,-0.51655 31,0.79577 0,1.27947 -4.2319,1.59668 -29.11377,2.18229 -27.53526,0.64805 -33.79038,1.36182 -32.35055,3.69153 0.32544,0.52656 10.66936,8.64787 22.9865,18.04734 12.31714,9.39947 22.90221,17.70136 23.5224,18.44863 1.32767,1.59976 0.29377,3.7901 -1.46962,3.11343 -0.67251,-0.25807 -11.87328,-8.61375 -24.8906,-18.56818 C 400.66704,510.14453 389.34502,502 388.52432,502 c -1.27976,0 -1.53005,3.86739 -1.75825,27.1671 -0.20227,20.65235 -0.56582,27.26692 -1.51607,27.58334 -0.97864,0.32587 -1.25332,-5.30048 -1.26531,-25.91711 z M 276,396.91621 c -16.54101,-0.55179 -17.9932,-0.76356 -26.5,-3.86427 -14.96162,-5.45349 -32.5,-15.3871 -32.5,-18.40776 0,-0.70472 2.97005,-3.4179 6.6001,-6.0293 3.63006,-2.6114 6.34231,-5.0058 6.02722,-5.32089 -0.31509,-0.31509 -4.89506,2.00638 -10.17773,5.15883 -25.21691,15.04826 -45.31286,20.97888 -77.23133,22.79214 -24.32973,1.38215 -37.59538,0.36031 -56.255442,-4.3333 C 60.211328,380.43431 40.90727,370.50061 25.338074,355.71468 8.067063,339.31255 0.60940085,324.01804 0.60940085,305 c 0,-10.73128 1.71685185,-17.64316 7.00177325,-28.18849 5.6591939,-11.29214 12.8356019,-19.44664 27.7144149,-31.4917 6.51457,-5.27383 6.734185,-5.58964 4.819626,-6.93065 -1.103281,-0.77277 -3.347771,-4.88896 -4.987757,-9.1471 -7.214575,-18.73226 -6.66459,-42.5406 1.404177,-60.78551 12.253676,-27.70774 40.0875,-48.77744 71.872025,-54.40582 7.46057,-1.32111 28.83461,-1.329 38.06634,-0.014 7.16984,1.02126 22.09892,5.50533 22.95821,6.89568 0.26345,0.42629 -0.85855,2.88418 -2.49334,5.46198 C 161.05672,135.71053 154,151.88956 154,156.11906 c 0,3.03117 1.77991,2.15947 2.52591,-1.23705 0.37666,-1.71489 2.00581,-6.32739 3.62035,-10.25 11.22577,-27.27359 35.02867,-48.056915 66.58788,-58.140694 10.96802,-3.504497 12.56169,-6.367122 1.89597,-3.405631 -2.3434,0.650679 -4.23122,0.713204 -4.78591,0.15851 C 222.7219,82.121896 227.99377,65.962532 232.24305,57.5 239.6195,42.809661 253.35545,27.164857 266.88117,18.048329 275.52231,12.224075 287.55246,6.7265111 299,3.3705937 307.69448,0.82175332 309.89906,0.58517631 325,0.58048681 337.46644,0.57661544 343.13126,1.0006393 348.17294,2.3150308 381.45963,10.99303 405.02918,29.67743 419.04782,58.5 c 7.77754,15.990757 8.99659,21.830646 8.97607,43 -0.0115,11.81535 -0.51097,20.29521 -1.4538,24.68004 -2.63173,12.23934 -11.64982,29.87285 -20.38341,39.85666 -8.04433,9.19588 -1.62614,7.36065 10.81332,-3.09198 22.85917,-19.20811 52.17395,-31.30479 88.54999,-36.53997 15.99976,-2.30265 46.79502,-2.29104 61.95001,0.0234 40.30716,6.15555 70.32353,19.39896 91.46975,40.35703 10.60438,10.51002 15.75657,18.25006 19.54535,29.36262 2.42291,7.10645 2.84638,9.91836 2.83913,18.85223 -0.007,8.80469 -0.41954,11.58848 -2.55419,17.24155 -6.49483,17.19986 -19.25154,31.95159 -38.7939,44.86088 -7.97738,5.2697 -10.31301,5.73083 -10.82569,2.13735 -0.64949,-4.5524 -1.99789,-2.02775 -2.67593,5.01022 -3.31177,34.37602 -20.37717,60.46933 -53.74526,82.17751 -22.548,14.66899 -53.16485,25.29688 -85.08162,29.53403 -10.03537,1.33225 -36.72748,1.33284 -53.28242,0.001 -29.30443,-2.35721 -65.04373,-13.935 -87.14026,-28.22917 C 337.74892,361.58413 336,360.69232 336,361.99441 c 0,0.58563 4.5,3.98497 10,7.55409 5.5,3.56912 10,6.90535 10,7.41385 0,1.19771 -17.87258,11.27071 -25,14.09002 -16.07522,6.35868 -21.81674,6.97081 -55,5.86384 z"
       style="fill:#16dfd6" />
    <path
       id="path746"
       d="m 176.95428,597.16406 -2.26729,-1.83594 58.61266,-95.91406 c 32.23697,-52.75273 59.26216,-96.80181 60.05599,-97.88684 1.30719,-1.78669 1.69191,-1.83973 4.07881,-0.5623 1.72742,0.92448 2.43083,1.94378 2.04152,2.95831 C 298.28495,407.02695 180.6645,599 179.95389,599 c -0.40278,0 -1.7526,-0.82617 -2.99961,-1.83594 z M 50.75,594.62228 C 49.7875,593.88376 49,593.05171 49,592.77329 49,591.12987 168.25259,397.5 169.26474,397.5 c 0.76239,0 1.3256,1.72266 1.47124,4.5 0.22744,4.3373 -1.85504,7.91679 -57.59628,99 C 81.331961,552.975 54.675771,595.60463 53.903723,595.73252 53.131676,595.8604 51.7125,595.36079 50.75,594.62228 Z M 276,396.91621 c -16.54101,-0.55179 -17.9932,-0.76356 -26.5,-3.86427 -14.96162,-5.45349 -32.5,-15.3871 -32.5,-18.40776 0,-0.70472 2.97005,-3.4179 6.6001,-6.0293 3.63006,-2.6114 6.34231,-5.0058 6.02722,-5.32089 -0.31509,-0.31509 -4.89506,2.00638 -10.17773,5.15883 -25.21691,15.04826 -45.31286,20.97888 -77.23133,22.79214 -24.32973,1.38215 -37.59538,0.36031 -56.255442,-4.3333 C 60.211328,380.43431 40.90727,370.50061 25.338074,355.71468 8.067063,339.31255 0.60940085,324.01804 0.60940085,305 c 0,-10.73128 1.71685185,-17.64316 7.00177325,-28.18849 5.6591939,-11.29214 12.8356019,-19.44664 27.7144149,-31.4917 6.51457,-5.27383 6.734185,-5.58964 4.819626,-6.93065 -1.103281,-0.77277 -3.347771,-4.88896 -4.987757,-9.1471 -7.214575,-18.73226 -6.66459,-42.5406 1.404177,-60.78551 12.253676,-27.70774 40.0875,-48.77744 71.872025,-54.40582 7.46057,-1.32111 28.83461,-1.329 38.06634,-0.014 7.16984,1.02126 22.09892,5.50533 22.95821,6.89568 0.26345,0.42629 -0.85855,2.88418 -2.49334,5.46198 C 161.05672,135.71053 154,151.88956 154,156.11906 c 0,3.03117 1.77991,2.15947 2.52591,-1.23705 0.37666,-1.71489 2.00581,-6.32739 3.62035,-10.25 11.22577,-27.27359 35.02867,-48.056915 66.58788,-58.140694 10.96802,-3.504497 12.56169,-6.367122 1.89597,-3.405631 -2.3434,0.650679 -4.23122,0.713204 -4.78591,0.15851 C 222.7219,82.121896 227.99377,65.962532 232.24305,57.5 239.6195,42.809661 253.35545,27.164857 266.88117,18.048329 275.52231,12.224075 287.55246,6.7265111 299,3.3705937 307.69448,0.82175332 309.89906,0.58517631 325,0.58048681 337.46644,0.57661544 343.13126,1.0006393 348.17294,2.3150308 381.45963,10.99303 405.02918,29.67743 419.04782,58.5 c 7.77754,15.990757 8.99659,21.830646 8.97607,43 -0.0115,11.81535 -0.51097,20.29521 -1.4538,24.68004 -2.63173,12.23934 -11.64982,29.87285 -20.38341,39.85666 -8.04433,9.19588 -1.62614,7.36065 10.81332,-3.09198 22.85917,-19.20811 52.17395,-31.30479 88.54999,-36.53997 15.99976,-2.30265 46.79502,-2.29104 61.95001,0.0234 40.30716,6.15555 70.32353,19.39896 91.46975,40.35703 10.60438,10.51002 15.75657,18.25006 19.54535,29.36262 2.42291,7.10645 2.84638,9.91836 2.83913,18.85223 -0.007,8.80469 -0.41954,11.58848 -2.55419,17.24155 -6.49483,17.19986 -19.25154,31.95159 -38.7939,44.86088 -7.97738,5.2697 -10.31301,5.73083 -10.82569,2.13735 -0.64949,-4.5524 -1.99789,-2.02775 -2.67593,5.01022 -3.31177,34.37602 -20.37717,60.46933 -53.74526,82.17751 -22.548,14.66899 -53.16485,25.29688 -85.08162,29.53403 -10.03537,1.33225 -36.72748,1.33284 -53.28242,0.001 -29.30443,-2.35721 -65.04373,-13.935 -87.14026,-28.22917 C 337.74892,361.58413 336,360.69232 336,361.99441 c 0,0.58563 4.5,3.98497 10,7.55409 5.5,3.56912 10,6.90535 10,7.41385 0,1.19771 -17.87258,11.27071 -25,14.09002 -16.07522,6.35868 -21.81674,6.97081 -55,5.86384 z"
       style="fill:#939393" />
    <path
       id="path744"
       d="m 281,396.00955 c -22.34004,-0.59109 -22.56398,-0.61893 -31.5,-3.91579 -10.44979,-3.85534 -16.55442,-6.83547 -25.25,-12.3264 -6.0394,-3.81366 -7.61022,-6.02503 -5,-7.03892 2.96735,-1.15261 13.75,-10.02434 13.75,-11.3132 0,-2.08987 -1.00879,-1.79031 -7.55883,2.24457 -19.16877,11.8081 -28.03826,15.91239 -45.04298,20.84329 -16.40574,4.75721 -25.12882,5.77682 -50.39819,5.89085 -20.77582,0.0938 -24.80476,-0.1584 -34.755402,-2.17518 C 66.997375,382.49365 43.674804,371.51648 26.688591,355.9517 15.066396,345.30206 6.6497189,332.53813 3.8809647,321.36381 c -0.6628306,-2.6751 -1.6506839,-5.15769 -2.1952296,-5.51688 -1.30830822,-0.86296 -1.29186796,-20.84526 0.017848,-21.69386 0.5543622,-0.35919 1.3005805,-2.24648 1.6582628,-4.19399 0.9190881,-5.00424 6.8246571,-16.94997 11.4594891,-23.18015 4.65089,-6.25177 15.184085,-16.38303 23.995138,-23.07951 6.447024,-4.8998 7.532827,-7.44305 2.941736,-6.89036 -2.357049,0.28374 -2.812649,-0.33044 -5.56344,-7.5 -4.075076,-10.62113 -5.606136,-21.10788 -4.904013,-33.58927 0.697225,-12.39431 2.510621,-19.46171 7.740119,-30.1658 C 51.242751,140.55791 76.37237,121.74635 106,115.42219 c 7.63989,-1.63078 31.5244,-1.86621 41,-0.40415 8.4331,1.30121 20.05326,4.95717 20.64332,6.49484 0.25406,0.66207 -1.3354,4.08002 -3.53212,7.59544 -7.03183,11.25307 -12.96911,28.62539 -10.33879,30.25102 1.43874,0.88919 2.71669,-1.09603 4.73742,-7.35934 2.26388,-7.01698 8.40587,-19.54888 12.60364,-25.71606 4.95841,-7.28468 16.48061,-18.32957 25.29912,-24.2511 9.55984,-6.419329 18.83464,-10.791878 31.83741,-15.009557 6.31494,-2.048365 9.75,-3.666518 9.75,-4.592935 0,-1.723065 -3.87951,-1.869163 -9.34377,-0.351876 -2.11408,0.587026 -4.06085,0.850243 -4.32616,0.584928 -0.73746,-0.737458 5.52868,-18.397044 8.92871,-25.1634 9.41887,-18.744373 25.13855,-34.693774 43.82083,-44.461198 C 284.96515,8.9161014 301.30978,3 304.81417,3 c 1.11054,0 2.18741,-0.5047297 2.39304,-1.1216216 0.5239,-1.5717225 35.06168,-1.5717225 35.58558,0 C 342.99842,2.4952703 344.23094,3 345.53171,3 c 3.7421,0 18.30462,4.9037974 25.96829,8.744582 10.47176,5.248112 17.16353,9.95488 25.6523,18.042983 12.4329,11.846078 20.9752,25.59564 27.01931,43.489925 3.06076,9.061737 3.11448,9.55373 3.08144,28.22251 -0.0381,21.52876 -1.28541,28.3032 -7.70007,41.8208 -4.65159,9.80229 -12.79243,21.93902 -16.84126,25.10771 -2.3854,1.86685 -2.90125,2.78196 -2.04876,3.63445 1.94002,1.94002 6.79473,0.0764 12.45624,-4.78154 25.81729,-22.15318 53.34207,-34.10795 91.8808,-39.90638 15.65696,-2.3557 46.24009,-2.36238 62.31726,-0.0136 20.99973,3.06792 44.38931,10.01391 60.18274,17.87243 15.79959,7.86159 34.9237,23.87833 42.88636,35.91802 3.66773,5.54568 8.61364,17.48182 8.61364,20.78761 0,1.04161 0.50041,2.06064 1.11202,2.26451 1.37403,0.45801 1.61617,20.69123 0.25904,21.64532 -0.50905,0.35787 -1.6912,3.12567 -2.62699,6.15067 C 674.9101,241.16094 669.06139,249.93211 659,260.11004 650.35668,268.85347 634.26516,281 631.32532,281 c -0.65586,0 -1.33487,-1.2375 -1.5089,-2.75 -0.18579,-1.6147 -0.92564,-2.75 -1.79211,-2.75 -1.13595,0 -1.76267,2.53252 -2.72217,11 -1.60285,14.14513 -6.10905,28.10325 -12.6701,39.24618 -7.03878,11.95429 -24.43681,29.52893 -38.20548,38.59331 -23.77788,15.65379 -55.06634,26.7398 -86.40033,30.61305 -10.80341,1.33543 -38.99724,1.3312 -54.52623,-0.008 -30.57362,-2.63698 -62.55026,-13.43466 -88.82795,-29.99488 -6.86772,-4.32804 -10.14441,-5.87712 -10.87858,-5.14295 -1.46774,1.46774 2.82529,5.25437 13.05236,11.51272 8.31269,5.08687 8.3372,5.11412 6.17371,6.86601 -3.64327,2.95014 -16.08812,9.48574 -24.11159,12.66256 -7.27283,2.87962 -21.40495,6.36909 -24.11579,5.95462 C 304.08147,396.69378 293.375,396.33698 281,396.00955 Z"
       style="fill:#656565" />
  </g>
</svg>
