<?xml version="1.0" encoding="UTF-8" standalone="no"?>
<svg
   xmlns:dc="http://purl.org/dc/elements/1.1/"
   xmlns:cc="http://creativecommons.org/ns#"
   xmlns:rdf="http://www.w3.org/1999/02/22-rdf-syntax-ns#"
   xmlns:svg="http://www.w3.org/2000/svg"
   xmlns="http://www.w3.org/2000/svg"
   viewBox="0 0 864 730.21277"
   height="730.21277"
   width="864"
   id="svg1213"
   version="1.1">
  <metadata
     id="metadata1219">
    <rdf:RDF>
      <cc:Work
         rdf:about="">
        <dc:format>image/svg+xml</dc:format>
        <dc:type
           rdf:resource="http://purl.org/dc/dcmitype/StillImage" />
        <dc:title></dc:title>
      </cc:Work>
    </rdf:RDF>
  </metadata>
  <defs
     id="defs1217" />
  <g
     id="g1223">
    <path
       id="path1237"
       d="m 488.95106,727.90982 c -1.55385,-1.27528 -4.08929,-5.46542 -5.71318,-9.44173 -1.60576,-3.93192 -8.07221,-17.71915 -14.36988,-30.6383 l -11.45031,-23.48936 -15.12338,-7.45346 -15.12336,-7.45346 -6.44135,3.77518 c -22.29395,13.06612 -51.00582,22.31777 -82.17641,26.47921 -14.80781,1.97692 -46.60847,2.2501 -61.78723,0.53077 -34.7332,-3.9343 -69.95108,-15.85832 -93.43699,-31.63576 -4.23984,-2.84826 -8.05857,-5.17865 -8.48606,-5.17865 -0.4275,0 -4.61124,1.61697 -9.29721,3.59326 C 127.30933,663.12358 83.525689,658.60926 50.031817,635.08743 39.960114,628.01435 29.522316,617.9053 22.301188,608.23022 15.009623,598.46076 5.9591402,580.59961 3.772707,571.66422 0.00205619,556.25455 -1.0023856,535.26224 1.1214969,516.25532 6.7574687,465.81823 54.016149,421.08569 105.94233,417.03752 l 8.41042,-0.65568 4.04105,-8.27602 c 11.09427,-22.72098 34.58844,-39.97828 62.18715,-45.67871 3.47197,-0.71712 6.30698,-1.55659 6.30002,-1.86549 -0.007,-0.30888 -1.73036,-1.65735 -3.82978,-2.99658 -8.55376,-5.45645 -39.11976,-27.04481 -43.0279,-30.39003 -2.30643,-1.97422 -4.1935,-4.24016 -4.1935,-5.03542 0,-0.79525 1.95319,-2.87042 4.34042,-4.61145 15.06938,-10.99028 108.35037,-62.68638 111.87945,-62.00332 1.52517,0.2952 1.73757,1.89493 1.73757,13.08659 0,7.01266 -0.37359,17.98718 -0.83019,24.38782 l -0.8302,11.63753 8.42355,-7.82565 c 20.24537,-18.80833 45.27318,-31.70056 71.74759,-36.95832 l 8.90012,-1.76754 6.33712,-9.29794 c 7.75618,-11.38002 30.34839,-34.38197 42.94426,-43.72311 24.03917,-17.82754 51.08666,-29.36101 81.35031,-34.68905 12.80916,-2.2551 46.00558,-1.69463 60.54369,1.02219 37.32592,6.97531 70.0146,24.34138 97.22324,51.65048 45.95812,46.12782 64.69591,108.08518 51.42826,170.04989 -5.11213,23.87547 -17.65479,51.36683 -32.14758,70.46198 -2.72937,3.59613 -5.60182,7.40085 -6.38319,8.45493 -1.29321,1.74456 -0.78121,2.57827 5.7059,9.29138 13.74547,14.22433 23.0967,29.80197 27.89047,46.46101 l 2.43093,8.44785 17.99513,-17.89466 c 9.89732,-9.84207 18.52445,-17.89467 19.1714,-17.89467 0.64695,0 1.62473,0.83795 2.17283,1.86212 2.7333,5.1072 11.54935,47.57257 25.87186,124.62028 1.2015,6.46347 0.0222,10.00677 -3.63607,10.92495 -1.63768,0.41102 -14.75809,-3.44448 -39.87158,-11.71652 -20.58688,-6.78102 -38.03045,-12.32912 -38.76348,-12.32912 -0.73304,0 -2.34471,1.36867 -3.58148,3.0415 -7.46816,10.10122 -23.32671,24.22503 -36.43331,32.44792 -21.31856,13.37495 -53.12759,23.70361 -78.32122,25.43157 -5.22972,0.35869 -10.44048,0.99481 -11.57949,1.4136 -2.47754,0.91093 -8.37032,10.54466 -18.71847,30.60158 -8.11805,15.7345 -11.05192,20.01853 -15.17415,22.15717 -3.61031,1.87305 -5.49337,1.66299 -8.70242,-0.97076 z M 745.68615,435.76031 c -0.80446,-0.96932 -0.84944,-17.04835 -0.16068,-57.44681 0.84081,-49.31642 1.72296,-65.86045 3.68066,-69.02809 1.00233,-1.62181 5.01133,-0.77017 10.62366,2.25682 3.08936,1.66624 7.91489,4.03399 10.7234,5.26166 19.54781,8.5449 89.81887,45.70646 92.13774,48.72535 2.36803,3.08291 1.56976,8.35369 -1.70844,11.28047 -4.44153,3.9654 -21.4464,13.79782 -43.45058,25.12363 -10.67234,5.4932 -28.55553,14.99002 -39.74043,21.10406 -26.93427,14.72317 -29.57632,15.77018 -32.10533,12.72291 z M 732.05704,229.52669 c -4.25417,-2.5852 -59.08322,-53.64243 -75.12087,-69.95314 -5.85984,-5.9596 -10.46808,-11.49957 -10.46808,-12.58459 0,-3.48702 13.41661,-9.29742 62.62274,-27.12036 16.18719,-5.86316 34.11059,-12.78308 39.82978,-15.37761 11.28358,-5.118844 19.84104,-6.740317 22.76511,-4.31355 3.06173,2.54102 0.93611,15.10623 -7.74374,45.77552 -4.38562,15.49608 -9.20538,34.37896 -10.71059,41.96193 -5.84079,29.42504 -8.12038,37.06343 -12.5725,42.12766 -2.07979,2.36574 -4.05481,2.2473 -8.60185,-0.51586 z M 270.66449,186.45186 c -1.62101,-4.26357 -7.4566,-78.92234 -8.75772,-112.043622 -0.69376,-17.660458 -0.31982,-21.301855 2.18754,-21.301855 3.82718,0 38.25353,19.247401 82.62909,46.197036 39.11515,23.754941 37.86325,22.170841 25.28922,31.999811 -13.5192,10.5678 -24.85809,17.63656 -45.71475,28.49894 -9.44162,4.9173 -16.77185,9.13386 -31.63833,18.19929 -1.11172,0.67793 -5.52358,3.41556 -9.80414,6.08365 -8.8417,5.51105 -12.74777,6.16251 -14.19091,2.36675 z m 285.93125,-61.40089 c -10.95319,-1.28632 -33.24255,-3.78718 -49.53191,-5.55746 -32.78443,-3.56293 -39.20313,-4.64113 -40.00059,-6.71927 -1.0978,-2.86083 15.32075,-31.060715 43.00629,-73.866028 25.43009,-39.31808921 26.48137,-40.6011689 30.96967,-37.7981809 3.75567,2.3454586 9.07742,11.8168649 13.54341,24.1039329 9.54612,26.263842 15.97663,41.645477 26.81784,64.147739 8.87919,18.429837 11.41401,24.651187 11.76815,28.883277 0.35037,4.1869 0.0442,5.84376 -1.36796,7.40425 -2.3707,2.6196 -8.72361,2.51164 -35.2049,-0.59826 z"
       style="fill:#d0d0d0;stroke-width:1.02127659" />
    <path
       id="path1235"
       d="m 490.59317,728.73022 c -1.16414,-0.81539 -4.32064,-6.44518 -7.01443,-12.51063 -2.6938,-6.06546 -9.62378,-20.44937 -15.39995,-31.96427 l -10.50213,-20.93617 -15.40693,-7.52978 -15.40691,-7.52977 -3.90687,2.58544 c -11.99708,7.93929 -34.8113,17.28806 -54.04868,22.14798 -65.13285,16.45445 -137.36942,6.47111 -185.86314,-25.68692 -4.08319,-2.70771 -7.74087,-4.92312 -8.1282,-4.92312 -0.38733,0 -4.50544,1.63266 -9.15136,3.62812 -4.64593,1.99546 -12.93718,4.83781 -18.42501,6.31632 -9.08253,2.44699 -11.67322,2.6882 -28.87147,2.6882 -17.10219,0 -19.813544,-0.24918 -28.59575,-2.62801 C 49.836481,641.54315 19.625083,613.80285 5.7291969,575.12686 -1.4651106,555.10317 -1.7173548,519.66022 5.1885504,499.16035 14.636355,471.11497 34.593921,447.04139 60.850911,432.01829 c 13.084915,-7.48661 29.05171,-12.25723 49.721819,-14.85607 4.86104,-0.61118 4.87662,-0.62568 7.9458,-7.3946 10.20936,-22.51627 37.91135,-42.87802 63.56998,-46.72578 5.764,-0.86436 7.98929,-2.19357 5.82536,-3.4796 -3.38666,-2.0127 -36.73477,-25.27812 -43.65855,-30.45853 -4.07234,-3.04696 -7.40426,-6.12116 -7.40426,-6.83154 0,-2.40885 26.31159,-18.42965 65.87234,-40.10885 34.87048,-19.10894 48.42511,-25.99631 49.65993,-25.23315 1.21079,0.74831 0.62734,24.22532 -1.02134,41.09645 -0.40168,4.11039 -0.43782,7.65421 -0.0803,7.87516 0.35749,0.22095 2.21643,-1.23126 4.13097,-3.22713 4.91835,-5.12728 17.69623,-15.63239 24.92778,-20.49393 14.35656,-9.65147 34.23588,-17.86142 51.57446,-21.29972 4.77447,-0.94678 9.30365,-2.22234 10.06484,-2.83454 0.7612,-0.61222 3.25186,-3.88907 5.53482,-7.28191 17.1916,-25.5495 46.38983,-50.10518 76.54159,-64.37136 40.25123,-19.04471 88.69045,-21.83855 132.72048,-7.65496 13.09373,4.21795 36.1657,15.93211 47.72975,24.2335 37.07522,26.61481 65.55395,68.83775 75.25476,111.57367 6.84232,30.14315 5.02968,67.00401 -4.73832,96.35547 -6.08409,18.28181 -20.16144,44.35004 -30.69757,56.84525 -2.19165,2.59917 -3.98481,5.09371 -3.98481,5.54344 0,0.44972 3.62623,4.64855 8.0583,9.33072 13.15064,13.89274 23.29757,31.22057 27.17178,46.401 0.93178,3.65106 2.12715,7.08392 2.65636,7.62858 0.61243,0.63029 7.41645,-5.45604 18.71675,-16.74251 11.41244,-11.39846 18.27665,-17.53244 19.21619,-17.17191 2.07426,0.79597 6.65708,20.49274 14.55135,62.54116 3.69093,19.65957 8.11222,42.71564 9.82509,51.2357 3.71183,18.46321 3.33936,20.46236 -3.68519,19.77975 -1.1234,-0.10918 -18.15058,-5.44721 -37.83819,-11.86229 -19.68764,-6.41509 -36.52486,-11.6638 -37.41608,-11.6638 -0.89122,0 -4.2917,3.26512 -7.55662,7.25582 -19.9521,24.38742 -54.19129,43.63904 -90.41905,50.83981 -8.77764,1.74467 -28.08604,4.20224 -33.01579,4.20224 -1.58152,0 -11.49664,16.7073 -20.39999,34.37465 -4.69507,9.31663 -8.01751,14.5635 -10.83218,17.10639 -4.49706,4.06282 -5.67942,4.35711 -8.78003,2.18535 z M 746.98713,434.93974 c -1.04933,-1.69787 -0.52186,-90.1606 0.62953,-105.57804 1.30284,-17.4454 1.88512,-19.46498 5.53454,-19.19613 1.55382,0.11448 5.87513,2.04908 9.60292,4.29912 3.72778,2.25005 8.71555,4.77311 11.08393,5.60681 7.70983,2.71398 59.83983,29.42273 82.75943,42.40172 6.31849,3.57805 6.91817,4.20968 7.20785,7.59176 0.31145,3.63606 0.1722,3.78282 -9.70212,10.22506 -5.50995,3.59483 -24.95427,14.35085 -43.20959,23.90226 -18.25532,9.5514 -36.17873,19.08324 -39.82979,21.18187 -8.54377,4.91095 -20.52378,10.71094 -22.12368,10.71094 -0.68483,0 -1.56368,-0.51542 -1.95302,-1.14537 z M 732.59337,228.82746 c -3.46554,-2.11311 -77.6128,-71.99627 -82.3014,-77.56836 -1.54143,-1.83189 -2.80261,-3.71754 -2.80261,-4.19034 0,-2.61511 19.27579,-10.75026 61.78724,-26.07669 15.16595,-5.46771 32.85957,-12.2494 39.31914,-15.07042 12.86713,-5.61931 20.16639,-7.078011 22.33609,-4.46368 2.32481,2.80123 -0.29284,16.87886 -8.38521,45.09522 -4.18845,14.60426 -9.07595,33.90639 -10.86111,42.89362 -4.6223,23.27071 -6.96069,32.06591 -9.84285,37.02128 -2.81504,4.83995 -4.48324,5.26548 -9.24929,2.35937 z m 34.38535,-122.61469 c 0,-0.56171 -0.4867,-1.02128 -1.08155,-1.02128 -0.59485,0 -0.79751,0.45957 -0.45036,1.02128 0.34715,0.5617 0.83385,1.02127 1.08155,1.02127 0.2477,0 0.45036,-0.45957 0.45036,-1.02127 z m -495.19826,79.40425 c -2.72334,-7.36368 -10.36898,-124.553719 -8.49525,-130.212764 0.23247,-0.702128 0.86697,-1.276596 1.40999,-1.276596 0.90276,0 16.4808,8.259265 37.09203,19.66569 8.8114,4.876299 73.72245,44.18106 75.82979,45.91624 0.70213,0.57813 1.2766,1.96384 1.2766,3.07936 0,1.64858 -0.47363,1.90935 -2.5303,1.39316 -2.10368,-0.52799 -2.63986,-0.19848 -3.18022,1.95446 -1.41554,5.63998 -18.32755,17.31584 -47.19702,32.58433 -14.27303,7.54871 -29.4063,16.3737 -44.569,25.99045 -5.9825,3.79433 -8.48143,4.02919 -9.63662,0.90567 z M 535.14894,121.5026 c -54.41882,-6.1306 -62.11384,-7.10021 -64.97177,-8.18678 -2.28039,-0.86702 -2.24704,-0.9832 3.41836,-11.9042 13.78555,-26.573985 61.07016,-99.9510621 65.12787,-101.06656668 1.55168,-0.42657094 9.28025,10.76947068 11.77867,17.06324968 1.21621,3.063732 4.6489,12.464038 7.62821,20.88957 6.72873,19.028941 9.52638,25.551278 21.68398,50.553191 10.9555,22.529826 12.52617,26.442556 12.52617,31.204396 0,4.91603 -2.223,6.60579 -8.49849,6.45987 -2.90881,-0.0676 -24.82066,-2.32337 -48.693,-5.01273 z m -61.94545,-12.78069 c -0.33262,-0.86678 -0.8238,-1.35693 -1.09149,-1.08922 -0.26771,0.26771 -0.18381,0.97689 0.18643,1.57596 1.00703,1.62941 1.59562,1.31286 0.90506,-0.48674 z M 539.23404,5.106383 c 0,-0.5617021 -0.45957,-1.0212766 -1.02127,-1.0212766 -0.56171,0 -1.02128,0.4595745 -1.02128,1.0212766 0,0.5617021 0.45957,1.0212766 1.02128,1.0212766 0.5617,0 1.02127,-0.4595745 1.02127,-1.0212766 z"
       style="fill:#d6ab8f;stroke-width:1.02127659" />
    <path
       id="path1233"
       d="m 490.59317,728.73022 c -1.16414,-0.81539 -4.32064,-6.44518 -7.01443,-12.51063 -2.6938,-6.06546 -9.62378,-20.44937 -15.39995,-31.96427 l -10.50213,-20.93617 -15.40693,-7.52978 -15.40691,-7.52977 -3.90687,2.58544 c -11.99708,7.93929 -34.8113,17.28806 -54.04868,22.14798 -65.13285,16.45445 -137.36942,6.47111 -185.86314,-25.68692 -4.08319,-2.70771 -7.74087,-4.92312 -8.1282,-4.92312 -0.38733,0 -4.50544,1.63266 -9.15136,3.62812 -4.64593,1.99546 -12.93718,4.83781 -18.42501,6.31632 -9.08253,2.44699 -11.67322,2.6882 -28.87147,2.6882 -17.10219,0 -19.813544,-0.24918 -28.59575,-2.62801 C 49.836481,641.54315 19.625083,613.80285 5.7291969,575.12686 -1.4651106,555.10317 -1.7173548,519.66022 5.1885504,499.16035 14.636355,471.11497 34.593921,447.04139 60.850911,432.01829 c 13.084915,-7.48661 29.05171,-12.25723 49.721819,-14.85607 4.86104,-0.61118 4.87662,-0.62568 7.9458,-7.3946 10.20936,-22.51627 37.91135,-42.87802 63.56998,-46.72578 5.764,-0.86436 7.98929,-2.19357 5.82536,-3.4796 -3.38666,-2.0127 -36.73477,-25.27812 -43.65855,-30.45853 -4.07234,-3.04696 -7.40426,-6.12116 -7.40426,-6.83154 0,-2.40885 26.31159,-18.42965 65.87234,-40.10885 34.87048,-19.10894 48.42511,-25.99631 49.65993,-25.23315 1.21079,0.74831 0.62734,24.22532 -1.02134,41.09645 -0.40168,4.11039 -0.43782,7.65421 -0.0803,7.87516 0.35749,0.22095 2.21643,-1.23126 4.13097,-3.22713 4.91835,-5.12728 17.69623,-15.63239 24.92778,-20.49393 14.35656,-9.65147 34.23588,-17.86142 51.57446,-21.29972 4.77447,-0.94678 9.30365,-2.22234 10.06484,-2.83454 0.7612,-0.61222 3.25186,-3.88907 5.53482,-7.28191 17.1916,-25.5495 46.38983,-50.10518 76.54159,-64.37136 40.25123,-19.04471 88.69045,-21.83855 132.72048,-7.65496 13.09373,4.21795 36.1657,15.93211 47.72975,24.2335 37.07522,26.61481 65.55395,68.83775 75.25476,111.57367 6.84232,30.14315 5.02968,67.00401 -4.73832,96.35547 -6.08409,18.28181 -20.16144,44.35004 -30.69757,56.84525 -2.19165,2.59917 -3.98481,5.09371 -3.98481,5.54344 0,0.44972 3.62623,4.64855 8.0583,9.33072 13.15064,13.89274 23.29757,31.22057 27.17178,46.401 0.93178,3.65106 2.12715,7.08392 2.65636,7.62858 0.61243,0.63029 7.41645,-5.45604 18.71675,-16.74251 11.41244,-11.39846 18.27665,-17.53244 19.21619,-17.17191 2.07426,0.79597 6.65708,20.49274 14.55135,62.54116 3.69093,19.65957 8.11222,42.71564 9.82509,51.2357 3.71183,18.46321 3.33936,20.46236 -3.68519,19.77975 -1.1234,-0.10918 -18.15058,-5.44721 -37.83819,-11.86229 -19.68764,-6.41509 -36.52486,-11.6638 -37.41608,-11.6638 -0.89122,0 -4.2917,3.26512 -7.55662,7.25582 -19.9521,24.38742 -54.19129,43.63904 -90.41905,50.83981 -8.77764,1.74467 -28.08604,4.20224 -33.01579,4.20224 -1.58152,0 -11.49664,16.7073 -20.39999,34.37465 -4.69507,9.31663 -8.01751,14.5635 -10.83218,17.10639 -4.49706,4.06282 -5.67942,4.35711 -8.78003,2.18535 z m 7.9474,-11.53873 c 2.57211,-2.66808 6.50483,-7.60851 8.73937,-10.97872 6.55609,-9.88809 16.87218,-28.90534 16.41842,-30.26661 -0.23,-0.69 -2.61308,2.80491 -5.29574,7.76646 -11.829,21.8776 -22.2478,36.19722 -25.44425,34.97062 -0.95375,-0.36598 -7.39869,-12.28476 -14.59373,-26.98849 -7.08711,-14.48317 -13.10391,-25.75746 -13.37066,-25.05398 -0.26674,0.70349 0.74955,3.46094 2.25844,6.12766 1.50888,2.66673 6.59673,13.08905 11.30632,23.16072 8.38136,17.92385 12.9336,26.11341 14.51542,26.11341 0.43442,0 2.89431,-2.18298 5.46641,-4.85107 z m 235.37707,-88.65144 c 1.45812,-2.22536 1.61426,-4.37854 1.06214,-14.64675 -0.356,-6.62082 -1.82725,-18.4298 -3.26944,-26.24218 -4.84987,-26.27177 -15.99916,-75.46726 -17.44816,-76.98879 -1.25187,-1.31453 -3.59512,0.64826 -18.27462,15.30755 -9.26124,9.24848 -16.83862,17.272 -16.83862,17.83006 0,0.55804 4.71063,-3.57642 10.46808,-9.18771 19.07804,-18.59372 23.1748,-22.33104 23.79686,-21.70899 1.30347,1.30348 15.93056,69.5843 18.33349,85.58274 1.81039,12.05342 2.01989,27.67868 0.3929,29.30567 -1.39182,1.39182 -1.84382,1.26215 -39.63758,-11.37163 -15.83483,-5.29332 -28.61626,-9.10116 -28.40317,-8.46188 0.31094,0.93284 64.69148,23.07089 67.3663,23.16475 0.40833,0.0143 1.51164,-1.14795 2.45182,-2.58284 z M 643.26915,462.9892 c 18.78835,-24.09537 32.32225,-56.09758 35.78038,-84.60622 1.41747,-11.68562 1.441,-36.28413 0.0454,-47.51615 -4.74263,-38.17052 -20.73314,-71.4118 -48.60405,-101.03874 -25.15738,-26.74246 -59.00041,-45.7893 -94.68043,-53.2861 -8.8961,-1.86917 -14.05149,-2.1943 -36.40622,-2.29593 -21.84682,-0.0994 -27.44113,0.18614 -34.72341,1.77182 -34.95345,7.61098 -67.72251,25.49187 -92.95017,50.71953 -12.14122,12.14122 -25.67017,29.85101 -23.99563,31.41101 0.43995,0.40986 1.01225,0.14919 1.27179,-0.57926 1.1257,-3.15958 13.43208,-18.58132 21.5567,-27.01377 23.75878,-24.65899 54.24884,-42.47238 89.01093,-52.00341 8.20143,-2.24865 10.34471,-2.37764 38.80851,-2.3355 28.15599,0.0417 30.72918,0.2003 39.31915,2.42379 36.56006,9.4635 63.92377,24.67216 87.99679,48.90831 25.92352,26.09917 42.8091,56.75969 49.45383,89.79731 1.68906,8.39801 2.32747,16.05953 2.70325,32.44135 0.433,18.877 0.22219,23.03764 -1.75932,34.7234 -1.23821,7.30213 -3.40973,16.95319 -4.82562,21.44681 -5.98629,18.99879 -17.72212,41.14882 -29.63938,55.94098 -3.5187,4.36754 -6.39764,8.15903 -6.39764,8.42553 0,1.92926 2.81557,-0.64089 8.03511,-7.33476 z M 197.56596,359.6611 c -0.53362,-0.46723 -9.02017,-6.14844 -18.85902,-12.6249 -23.24263,-15.29956 -30.36617,-22.26828 -28.29096,-27.67617 0.67861,-1.76844 90.38432,-52.80286 95.45636,-54.30603 2.79368,-0.82794 2.75969,-1.78745 0.7585,21.41409 -0.82362,9.54893 -1.44318,19.65957 -1.37681,22.46808 l 0.12069,5.10638 0.86687,-5.10638 c 1.3682,-8.05946 3.82402,-44.80394 3.08504,-46.15906 -0.47027,-0.86239 -3.07224,0.004 -8.82653,2.94038 -8.69116,4.43445 -61.55578,34.04093 -73.52138,41.17516 -3.93191,2.34432 -9.8415,5.77869 -13.13242,7.63193 -5.84029,3.28889 -5.96945,3.45599 -5.39722,6.98222 0.78494,4.83704 4.89202,9.73411 14.01717,16.71337 8.43337,6.45014 33.2954,22.29047 34.98579,22.29047 0.67336,0 0.71652,-0.32189 0.11392,-0.84954 z m 549.3355,75.14741 c -0.54309,-0.75104 -0.64009,-23.7699 -0.23561,-55.91489 0.65319,-51.91048 1.48709,-66.31822 3.98427,-68.8377 0.54381,-0.54867 2.90069,-0.13716 5.81311,1.01497 l 4.89847,1.93778 -4.59574,0.51694 c -4.42991,0.49829 -4.60212,0.64593 -4.77227,4.09141 -0.17165,3.47581 -0.15737,3.4899 0.5172,0.51064 0.48652,-2.14867 1.39072,-3.16295 3.02717,-3.3957 2.89649,-0.41195 13.18233,4.33397 22.60802,10.43141 7.90278,5.11229 13.34328,8.0947 13.34328,7.31462 0,-0.28085 -1.49362,-1.27127 -3.31915,-2.20093 -4.48308,-2.28302 -13.23103,-8.70559 -12.64957,-9.28707 0.8431,-0.8431 57.74757,28.27225 81.07684,41.48323 6.31849,3.57805 6.91817,4.20968 7.20785,7.59176 0.31145,3.63606 0.1722,3.78282 -9.70212,10.22506 -5.50995,3.59483 -24.95427,14.35085 -43.20959,23.90226 -18.25532,9.5514 -36.17873,19.08324 -39.82979,21.18187 -8.4015,4.82918 -20.51484,10.71094 -22.0589,10.71094 -0.64921,0 -1.59577,-0.57447 -2.10347,-1.2766 z m 24.06762,-12.67607 c 16.80771,-8.7742 66.75487,-35.74944 82.15284,-44.36875 4.40855,-2.46777 8.43624,-5.27293 8.95043,-6.23371 1.00159,-1.87148 -0.19777,-2.77591 -17.89676,-13.49579 -7.60815,-4.60809 -40.44439,-20.31858 -41.09911,-19.66386 -0.16641,0.16641 7.61373,4.08604 17.2892,8.7103 20.00257,9.55993 40.05985,21.40475 40.05985,23.65732 0,1.79862 -12.47207,9.03805 -55.3713,32.14034 -47.54051,25.60174 -52.2276,27.88884 -53.40203,26.05788 -0.83904,-1.30806 -0.98491,-1.27075 -0.99827,0.25532 -0.008,0.98946 0.73986,1.78724 1.67685,1.78724 0.93086,0 9.31809,-3.98084 18.6383,-8.84629 z m -20.58701,-60.78709 c -0.1635,-11.97399 -0.29747,-2.46875 -0.29772,21.12274 -2.5e-4,23.59149 0.13351,33.38838 0.29726,21.77088 0.16374,-11.61751 0.16395,-30.91964 4.6e-4,-42.89362 z m 51.23495,-23.68355 c -1.04266,-0.93294 -7.06383,-3.7054 -7.06383,-3.25256 0,0.63484 5.2949,3.53747 6.5532,3.59242 0.51488,0.0225 0.74467,-0.13044 0.51063,-0.33986 z m -50.23475,-12.64052 c -0.22034,-2.10638 -0.40061,-0.38298 -0.40061,3.82979 0,4.21276 0.18027,5.93617 0.40061,3.82978 0.22033,-2.10638 0.22033,-5.55319 0,-7.65957 z m -18.7889,-96.19382 c -3.46554,-2.11311 -77.6128,-71.99627 -82.3014,-77.56836 -1.54143,-1.83189 -2.80261,-3.71754 -2.80261,-4.19034 0,-2.61511 19.27579,-10.75026 61.78724,-26.07669 15.16595,-5.46771 32.85957,-12.2494 39.31914,-15.07042 12.86713,-5.61931 20.16639,-7.078011 22.33609,-4.46368 2.32481,2.80123 -0.29284,16.87886 -8.38521,45.09522 -4.18845,14.60426 -9.07595,33.90639 -10.86111,42.89362 -4.6223,23.27071 -6.96069,32.06591 -9.84285,37.02128 -2.81504,4.83995 -4.48324,5.26548 -9.24929,2.35937 z m 1.94217,-7.97639 c 2.90633,-3.29688 8.04957,-14.6929 12.03795,-26.67281 3.15889,-9.48838 16.59552,-66.91396 19.96189,-85.31324 l 0.72929,-3.98604 -3.16877,0.63375 c -5.44995,1.08999 -84.88513,30.80584 -99.00215,37.03564 -2.95588,1.30442 -5.66804,3.13708 -6.02703,4.07258 -1.10518,2.88006 4.31239,12.18126 11.61402,19.93962 3.81495,4.05359 15.20862,14.7567 25.31926,23.78468 10.11064,9.02797 22.14081,19.98718 26.7337,24.35378 4.5929,4.3666 8.77273,7.93927 9.28852,7.93927 0.51579,0 1.64679,-0.80426 2.51332,-1.78723 z M 720.72293,210.6383 c -5.22012,-4.91489 -18.56023,-17.11653 -29.64469,-27.11473 -19.48859,-17.57877 -25.31756,-23.89031 -28.88926,-31.28096 -2.95985,-6.12459 -5.28941,-4.86882 44.53442,-24.00666 36.64505,-14.07572 56.95926,-21.18263 57.59724,-20.15036 1.29124,2.08927 -15.37948,74.14176 -20.36037,87.99952 -5.11855,14.24079 -9.7829,23.48936 -11.84642,23.48936 -1.04488,0 -6.17079,-4.02128 -11.39092,-8.93617 z M 271.78046,185.61702 c -2.72334,-7.36368 -10.36898,-124.553719 -8.49525,-130.212764 0.23247,-0.702128 0.86697,-1.276596 1.40999,-1.276596 0.90276,0 16.4808,8.259265 37.09203,19.66569 8.8114,4.876299 73.72245,44.18106 75.82979,45.91624 1.57497,1.29683 1.68842,4.88616 0.15443,4.88616 -0.61719,0 -2.34059,-1.28763 -3.82979,-2.86139 -5.85834,-6.19102 -101.6628,-62.500317 -106.33786,-62.500317 -1.86144,0 -2.07115,0.648338 -2.0646,6.382979 0.0122,10.665522 6.68695,109.061928 7.75925,114.382978 0.39276,1.94902 1.19667,2.80851 2.62686,2.80851 2.27486,0 34.22571,-18.03805 71.30873,-40.25777 13.2,-7.90929 24.45958,-14.52051 25.02128,-14.6916 0.5617,-0.17108 -1.35771,1.897 -4.26535,4.59575 -6.60886,6.13404 -21.25214,15.29083 -42.00389,26.26601 -14.27303,7.54871 -29.4063,16.3737 -44.569,25.99045 -5.9825,3.79433 -8.48143,4.02919 -9.63662,0.90567 z m 3.52472,-5.75722 c -0.9014,-1.45853 -2.18884,-18.37478 -8.30592,-109.136395 -0.58065,-8.615431 -0.4767,-9.446809 1.18129,-9.446809 3.26166,0 96.28039,54.414694 102.41872,59.913554 l 2.67733,2.39841 -3.06383,2.54097 c -5.86839,4.8669 -90.84451,54.63643 -93.28584,54.63643 -0.58393,0 -1.31372,-0.40778 -1.62175,-0.90616 z m 259.84376,-58.3572 c -54.41882,-6.1306 -62.11384,-7.10021 -64.97177,-8.18678 -2.28039,-0.86702 -2.24704,-0.9832 3.41836,-11.9042 13.78555,-26.573985 61.07016,-99.9510621 65.12787,-101.06656668 1.55168,-0.42657094 9.28025,10.76947068 11.77867,17.06324968 1.21621,3.063732 4.6489,12.464038 7.62821,20.88957 6.72873,19.028941 9.52638,25.551278 21.68398,50.553191 10.9555,22.529826 12.52617,26.442556 12.52617,31.204396 0,4.91603 -2.223,6.60579 -8.49849,6.45987 -2.90881,-0.0676 -24.82066,-2.32337 -48.693,-5.01273 z m 53.51203,0.44528 C 589.34878,120.15547 583.32295,104.4156 568.56152,69.446809 554.12263,35.242066 541.37203,6.831482 539.70655,5.1528458 538.41776,3.8538708 538.04096,3.9179741 536.70498,5.6634841 533.17419,10.276641 520.31401,29.924721 502.97857,57.19149 476.544,98.770194 471.55352,107.08358 472.12875,108.5826 c 1.20204,3.13247 22.81506,6.72924 59.44572,9.89277 13.48085,1.16424 29.33617,2.73613 35.23404,3.4931 15.43231,1.98065 21.08655,1.97533 21.85246,-0.0206 z m -8.57586,-0.0136 c -0.84256,-0.21011 -17.61702,-1.99564 -37.2766,-3.96785 -54.17687,-5.4349 -67.05389,-7.52638 -67.72275,-10.99949 -0.45812,-2.37889 53.53787,-88.241879 60.7396,-96.58648 l 3.2296,-3.7421321 4.27918,9.1914891 c 14.69732,31.569199 44.43214,104.014713 43.38659,105.706463 -0.61271,0.99138 -3.54964,1.16754 -6.63562,0.398 z"
       style="fill:#afaeae;stroke-width:1.02127659" />
    <path
       id="path1231"
       d="m 491.50252,729.37903 c -0.6949,-0.44135 -4.41935,-7.67262 -8.27657,-16.06947 -3.85722,-8.39685 -10.96562,-23.14777 -15.79646,-32.77982 l -8.78331,-17.51281 -5.4082,-2.36887 c -2.9745,-1.30287 -10.04888,-4.7667 -15.72083,-7.69741 l -10.31264,-5.32856 -6.02778,3.66596 c -44.39002,26.99697 -112.37611,35.92812 -172.40195,22.64799 -22.94486,-5.07633 -47.95136,-15.39771 -65.34235,-26.96991 l -8.49547,-5.653 -6.77469,3.0396 c -18.27149,8.19786 -32.66329,10.80563 -55.16473,9.99572 C 94.187913,653.67143 83.623026,651.07528 66.893617,643.01917 15.33134,618.18912 -10.957526,560.17215 4.2232571,504.71175 17.147244,457.49616 58.782471,422.77717 108.05123,418.13116 l 7.45548,-0.70305 3.51919,-7.41598 c 10.99003,-23.15927 32.05136,-39.04552 60.71878,-45.79924 5.33617,-1.25714 9.70213,-2.809 9.70213,-3.44859 0,-0.63958 -4.02128,-3.9686 -8.93617,-7.39784 -4.9149,-3.42923 -8.93617,-6.42726 -8.93617,-6.66227 0,-0.66456 3.4018,0.70356 5.10638,2.05365 5.4838,4.34337 24.42314,14.31055 20.93617,11.01805 -0.5617,-0.53038 -9.07123,-6.26323 -18.91008,-12.73969 -23.24263,-15.29956 -30.36617,-22.26828 -28.29096,-27.67617 0.67861,-1.76844 90.38432,-52.80286 95.45636,-54.30603 2.79368,-0.82794 2.75969,-1.78745 0.7585,21.41409 -0.82362,9.54893 -1.44318,19.65957 -1.37681,22.46808 l 0.12069,5.10638 0.86687,-5.10638 c 0.47679,-2.80851 1.51247,-13.8383 2.30153,-24.51064 0.78906,-10.67234 1.76499,-20.20464 2.16875,-21.18288 1.30585,-3.16392 -2.17957,-3.16267 -6.82591,0.002 -2.41813,1.64724 -6.69447,4.14893 -9.50298,5.55929 -6.72406,3.37665 -26.27264,14.08053 -27.57447,15.09847 -0.5617,0.43922 -4.92766,2.85181 -9.70213,5.36133 -4.77447,2.50952 -14.19574,7.91771 -20.93617,12.0182 -6.74042,4.10048 -15.70212,9.38218 -19.91489,11.7371 -9.01603,5.03995 -9.86118,7.14966 -5.70513,14.24143 2.77573,4.73641 10.44154,12.04384 15.24684,14.53401 1.59688,0.82753 2.6683,1.73973 2.38093,2.02709 -1.09569,1.09569 -30.3184,-19.68571 -30.28727,-21.53845 0.0352,-2.09956 22.7769,-15.87477 60.74761,-36.79648 44.57995,-24.56336 52.50873,-28.51922 53.25639,-26.57085 0.69226,1.80399 -0.29412,27.33247 -1.55063,40.13164 -0.40352,4.11039 -0.35805,7.70558 0.10101,7.98931 0.45909,0.28374 5.05825,-3.45998 10.22036,-8.31937 20.29523,-19.10508 46.64961,-32.78636 71.76006,-37.25262 3.93192,-0.69934 8.12597,-1.88198 9.32013,-2.62807 1.19416,-0.74609 4.69038,-4.94499 7.76937,-9.33088 9.50747,-13.54298 27.29922,-31.22156 43.93178,-43.65235 2.10638,-1.57427 3.82978,-2.63318 3.82978,-2.35315 0,0.28003 -2.64255,2.47864 -5.87234,4.8858 -15.98555,11.91402 -46.98726,46.68168 -44.06238,49.41488 0.83599,0.78121 1.30658,0.71507 1.65281,-0.23229 1.17026,-3.20214 13.47552,-18.61378 21.56886,-27.01377 23.75878,-24.65899 54.24884,-42.47238 89.01093,-52.0034 8.20143,-2.24866 10.34471,-2.37765 38.80851,-2.33551 28.15599,0.0417 30.72918,0.2003 39.31915,2.42379 36.56005,9.4635 63.92377,24.67216 87.99679,48.90831 25.92352,26.09917 42.8091,56.75969 49.45383,89.79732 1.68906,8.398 2.32747,16.05952 2.70325,32.44134 0.433,18.877 0.22219,23.03764 -1.75932,34.7234 -1.23821,7.30213 -3.40973,16.95319 -4.82562,21.44681 -5.98629,18.99879 -17.72212,41.14882 -29.63938,55.94098 -3.5187,4.36754 -6.39764,8.19099 -6.39764,8.49656 0,0.30558 1.02986,0.40872 2.28856,0.22924 3.24094,-0.46216 16.3832,-20.25398 25.30836,-38.11359 5.16412,-10.33364 8.48762,-18.82842 11.98691,-30.6383 l 4.8417,-16.34042 v -30.12766 -30.12766 l -4.45596,-16.7927 c -2.45079,-9.23599 -6.0535,-20.26577 -8.00605,-24.51064 -4.88381,-10.61746 -5.81851,-13.10075 -4.40532,-11.704 1.61478,1.596 8.89658,18.7651 12.30265,29.00734 9.74848,29.31416 10.46416,68.5007 1.82789,100.08511 -6.06269,22.17237 -20.82947,51.26262 -33.34002,65.67913 -2.34498,2.70225 -4.26361,5.41277 -4.26361,6.02338 0,0.61061 3.80168,5.06351 8.44817,9.89533 13.82314,14.37449 22.87545,29.87382 27.46694,47.02876 1.21068,4.52346 2.70674,8.22446 3.32455,8.22446 0.61781,0 8.92592,-7.81277 18.46247,-17.3617 9.53654,-9.54894 17.87695,-17.3617 18.53425,-17.3617 1.70271,0 6.76198,21.78163 13.63982,58.7234 3.24191,17.41277 7.65645,40.50293 9.81008,51.31148 3.67791,18.45861 3.81077,19.75682 2.18788,21.37972 -1.6229,1.62289 -3.97766,0.99336 -38.77971,-10.36751 -20.37855,-6.65242 -38.20621,-12.2881 -39.61702,-12.52374 -2.14318,-0.35795 -3.46078,0.67548 -8.00997,6.28247 -24.37486,30.04254 -65.44725,50.39335 -110.44619,54.72457 -6.45957,0.62174 -12.72487,1.33124 -13.92288,1.57668 -1.44687,0.29641 -4.15119,3.70726 -8.0546,10.15894 -3.23202,5.34199 -6.04793,9.71271 -6.25758,9.71271 -0.20964,0 1.68464,-4.11329 4.20953,-9.14066 2.52489,-5.02737 4.18027,-9.39434 3.6786,-9.70437 -0.50166,-0.31005 -3.06229,3.41298 -5.69027,8.27341 -11.72945,21.69347 -22.1595,36.00911 -25.34485,34.78677 -0.95375,-0.36598 -7.39869,-12.28476 -14.59373,-26.98849 -7.08711,-14.48317 -13.10123,-25.76547 -13.36472,-25.07178 -0.26348,0.69371 1.3597,4.60009 3.60707,8.68085 2.24739,4.08078 5.28636,10.61826 6.75329,14.52775 3.95933,10.55229 16.10439,33.23268 17.79547,33.23268 2.20818,0 8.89205,-7.62323 15.67003,-17.87234 3.3432,-5.05532 6.30281,-9.41816 6.57692,-9.69519 1.1811,-1.19375 -11.00833,23.84111 -12.90537,26.50523 -2.19749,3.08611 -7.86534,8.2224 -9.04374,8.1956 -0.37818,-0.008 -1.25615,-0.37674 -1.95103,-0.8181 z m 242.82741,-98.77935 c 0.99022,-1.19315 1.14835,-4.93562 0.65807,-15.57447 -0.75629,-16.411 -2.57093,-27.06648 -11.42899,-67.11031 -3.60335,-16.28937 -6.85473,-31.56154 -7.22528,-33.93817 -0.37055,-2.37663 -1.21841,-4.7732 -1.88414,-5.32571 -1.55441,-1.29004 -35.30065,31.47488 -35.30065,34.27411 0,1.29773 3.27828,-1.30563 10.46808,-8.3129 19.07804,-18.59372 23.1748,-22.33104 23.79686,-21.70899 1.30347,1.30348 15.93056,69.5843 18.33349,85.58274 1.81039,12.05342 2.01989,27.67868 0.3929,29.30567 -1.39182,1.39182 -1.84382,1.26215 -39.63758,-11.37163 -15.83483,-5.29332 -28.61388,-9.09401 -28.39787,-8.446 0.28379,0.85138 63.16135,23.01148 68.28077,24.06438 0.3525,0.0725 1.22744,-0.57493 1.94434,-1.43872 z m 12.9013,-196.30181 c -0.85593,-1.4136 1.32357,-111.00119 2.31042,-116.17021 0.53619,-2.80851 1.00228,-5.68085 1.03577,-6.38298 0.0757,-1.58594 1.16905,-1.60674 4.84546,-0.0922 l 2.87499,1.1844 -3.06383,0.60731 c -2.65644,0.52656 -3.0873,1.082 -3.24035,4.17731 -0.17173,3.47309 -0.15774,3.48683 0.51548,0.50617 1.0568,-4.67891 4.48597,-4.46459 14.98208,0.93632 4.93629,2.54004 9.31841,4.40605 9.73805,4.1467 1.11037,-0.68625 13.68348,5.23038 33.85441,15.93116 24.53391,13.01535 25.90013,14.6295 3.47838,4.10961 -6.12701,-2.87469 -11.28586,-5.08088 -11.4641,-4.90263 -0.17824,0.17824 7.59222,4.10755 17.26769,8.73181 20.00257,9.55993 40.05985,21.40475 40.05985,23.65732 0,1.79862 -12.47207,9.03805 -55.3713,32.14034 -47.54051,25.60174 -52.2276,27.88884 -53.40203,26.05788 -0.83904,-1.30806 -0.98491,-1.27075 -0.99827,0.25532 -0.009,1.01181 0.74246,1.78724 1.73167,1.78724 3.09813,0 103.54942,-53.85492 108.28718,-58.05598 1.32995,-1.17929 2.55011,-1.60923 2.91077,-1.02565 0.62793,1.01598 -0.20387,2.39295 -1.45589,2.4101 -0.37447,0.005 -4.61739,2.60776 -9.42873,5.78362 -4.81134,3.17586 -20.89644,12.0731 -35.74468,19.77164 -14.84824,7.69854 -33.63223,17.68052 -41.7422,22.1822 -21.44416,11.90319 -26.77836,14.23912 -27.98082,12.25321 z m 3.15084,-72.95252 c -0.1635,-11.97399 -0.29747,-2.46875 -0.29772,21.12274 -2.5e-4,23.59149 0.13351,33.38838 0.29726,21.77088 0.16374,-11.61751 0.16395,-30.91964 4.6e-4,-42.89362 z m 51.23495,-23.68355 c -1.04266,-0.93294 -7.06383,-3.7054 -7.06383,-3.25256 0,0.63484 5.2949,3.53747 6.5532,3.59242 0.51488,0.0225 0.74467,-0.13044 0.51063,-0.33986 z m -50.23475,-12.64052 c -0.22034,-2.10638 -0.40061,-0.38298 -0.40061,3.82979 0,4.21276 0.18027,5.93617 0.40061,3.82978 0.22033,-2.10638 0.22033,-5.55319 0,-7.65957 z m 38.68187,6.57824 c -1.06471,-0.66909 -4.21302,-2.71016 -6.99624,-4.53569 -4.94713,-3.24486 -7.25439,-4.27188 -5.31471,-2.36569 1.31069,1.28805 12.95897,8.25344 13.67609,8.17797 0.3139,-0.033 -0.30042,-0.6075 -1.36514,-1.27659 z m 64.05863,32.66924 c -11.31026,-7.18275 -11.72359,-7.98432 -1.35681,-2.63125 4.77447,2.46538 9.13413,4.48423 9.68813,4.48633 0.55402,0.002 1.16219,0.80808 1.35149,1.79106 0.49738,2.58271 -0.4165,2.23858 -9.68281,-3.64614 z m -13.86745,-8.42737 c -3.81798,-2.07129 -3.58558,-2.93398 0.25532,-0.94777 1.6851,0.8714 3.06383,1.80235 3.06383,2.06878 0,0.65719 -0.10974,0.62013 -3.31915,-1.12101 z M 657.70213,264.51064 c -0.60123,-1.1234 -0.86336,-2.04255 -0.58251,-2.04255 0.28085,0 1.00256,0.91915 1.60378,2.04255 0.60123,1.1234 0.86336,2.04255 0.58251,2.04255 -0.28085,0 -1.00256,-0.91915 -1.60378,-2.04255 z M 639.84387,238.9092 c -20.70097,-24.85142 -50.32924,-45.70925 -79.55882,-56.00813 -19.29717,-6.79926 -53.76763,-11.37166 -74.15739,-9.83675 -18.70378,1.40799 -44.36089,7.81206 -61.18721,15.27244 -11.26777,4.99586 -13.73307,5.41259 -4.42981,0.7488 29.35998,-14.71836 65.07292,-21.06946 98.0828,-17.44281 37.86066,4.15959 71.8787,19.22362 100.92377,44.69155 8.0843,7.08864 20.77085,20.80479 25.53718,27.60968 3.00328,4.28778 0.70603,2.06801 -5.21052,-5.03478 z m 92.76365,-11.09441 c -3.16555,-1.93022 -44.91015,-41.46464 -50.8989,-48.20403 l -3.05733,-3.44055 4.07861,3.63684 c 2.24323,2.00026 8.21478,7.02308 13.2701,11.1618 5.05532,4.13872 15.00158,13.23048 22.10281,20.2039 8.64085,8.48534 13.51655,12.56239 14.74119,12.32655 2.62347,-0.50524 9.4349,-13.70115 13.88701,-26.90355 2.08358,-6.17873 3.81511,-10.21692 3.84782,-8.97377 0.13066,4.96596 -6.13842,31.56468 -8.64892,36.69594 -2.95531,6.04043 -4.31471,6.55036 -9.32239,3.49687 z M 720.72293,210.6383 c -5.22012,-4.91489 -18.56023,-17.11653 -29.64469,-27.11473 -19.48859,-17.57877 -25.31756,-23.89031 -28.88926,-31.28096 -2.95985,-6.12459 -5.28941,-4.86882 44.53442,-24.00666 36.64505,-14.07572 56.95926,-21.18263 57.59724,-20.15036 1.29124,2.08927 -15.37948,74.14176 -20.36037,87.99952 -5.11855,14.24079 -9.7829,23.48936 -11.84642,23.48936 -1.04488,0 -6.17079,-4.02128 -11.39092,-8.93617 z m -321.98328,-8.31411 c 0.72864,-1.17895 4.66461,-3.55677 4.66461,-2.818 0,0.23601 -1.20553,1.219 -2.67894,2.18442 -1.47341,0.96541 -2.36697,1.25053 -1.98567,0.63358 z m 8.74971,-5.67599 c 0,-0.28085 1.37873,-1.2236 3.06383,-2.09501 1.68511,-0.8714 3.06383,-1.35458 3.06383,-1.07373 0,0.28085 -1.37872,1.2236 -3.06383,2.09501 -1.6851,0.8714 -3.06383,1.35458 -3.06383,1.07373 z M 272.68085,185.25244 c 0,-0.97879 0.57097,-1.42208 1.41467,-1.09832 0.77807,0.29858 2.27169,-0.0365 3.31915,-0.74459 4.53307,-3.06439 22.08924,-11.80626 19.77682,-9.84762 -1.40426,1.18942 -3.8308,2.85626 -5.39231,3.70409 -1.56151,0.84784 -5.65404,3.36088 -9.0945,5.58457 -6.63631,4.28924 -10.02383,5.10095 -10.02383,2.40187 z m 2.62433,-5.39264 c -0.9014,-1.45853 -2.18884,-18.37478 -8.30592,-109.136395 -0.58065,-8.615431 -0.4767,-9.446809 1.18129,-9.446809 3.26166,0 96.28039,54.414694 102.41872,59.913554 l 2.67733,2.39841 -3.06383,2.54097 c -5.86839,4.8669 -90.84451,54.63643 -93.28584,54.63643 -0.58393,0 -1.31372,-0.40778 -1.62175,-0.90616 z m -4.0301,-8.49347 c -1.78962,-12.45269 -5.82616,-69.34749 -6.21654,-87.621649 l -0.44722,-20.93617 1.48026,19.914894 c 3.09876,41.689245 6.45812,92.386465 6.14273,92.701855 -0.18077,0.18077 -0.61242,-1.64575 -0.95923,-4.05893 z m 389.39288,-10.91562 c -7.03731,-6.89201 -12.20266,-12.74025 -11.94233,-13.5212 0.75381,-2.26144 19.73456,-10.15143 57.03856,-23.70997 19.36317,-7.03776 39.33434,-14.70154 44.38036,-17.03062 10.45445,-4.82545 19.43683,-6.451408 20.48923,-3.70889 1.2732,3.31791 -1.69893,18.44079 -7.79857,39.68079 -6.18554,21.53913 -8.01629,26.75403 -8.08075,23.01803 -0.0461,-2.67002 10.03861,-48.09093 11.76203,-52.97561 1.75946,-4.98684 1.90419,-8.03303 0.38166,-8.03303 -0.60601,0 -7.15495,2.25234 -14.55319,5.00518 -24.9252,9.27455 -43.9885,16.27363 -62.98326,23.1243 -28.71545,10.35656 -29.55802,10.70309 -30.55531,12.56652 -0.6236,1.1652 -0.29979,3.52692 0.98298,7.16948 1.64811,4.67996 3.7089,7.64056 13.06731,18.77282 0.82634,0.98298 1.21217,1.78724 0.85739,1.78724 -0.35479,0 -6.22554,-5.46526 -13.04611,-12.14504 z m -338.96583,-1.66529 c 0,-0.2314 4.48085,-3.03075 9.95744,-6.22078 5.4766,-3.19003 14.92737,-8.76706 21.00172,-12.39339 12.05067,-7.19415 15.43633,-8.08532 6.07519,-1.59909 -11.14045,7.71909 -37.03435,21.85191 -37.03435,20.21326 z m 255.82978,-33.71924 c -0.5617,-0.21428 -11.55924,-1.56277 -24.43899,-2.99666 -12.87975,-1.4339 -23.67975,-2.88978 -24,-3.23528 -0.74375,-0.80237 12.00972,0.2149 34.43624,2.74681 19.95527,2.2529 25.3456,2.44855 26.2696,0.95348 0.3535,-0.57197 -1.89565,-7.3507 -4.99811,-15.06383 -7.20542,-17.913609 -7.83923,-19.640912 -7.20701,-19.640912 1.2181,0 12.89669,25.517702 13.40167,29.282652 0.88077,6.56663 -0.76943,8.52004 -7.11634,8.42395 -2.92918,-0.0443 -5.78535,-0.25594 -6.34706,-0.47021 z M 364.33278,114.45786 c -10.44166,-6.88707 -15.81952,-10.78556 -12.50299,-9.06359 7.29977,3.79012 26.04255,15.43241 26.04255,16.17665 0,1.66352 -1.14585,1.06155 -13.53956,-7.11306 z m 215.75233,7.47639 c -0.84256,-0.21011 -17.61702,-1.99564 -37.2766,-3.96785 -54.17687,-5.4349 -67.05389,-7.52638 -67.72275,-10.99949 -0.45812,-2.37889 53.53787,-88.241879 60.7396,-96.58648 l 3.2296,-3.7421321 4.27918,9.1914891 c 14.69732,31.569199 44.43214,104.014713 43.38659,105.706463 -0.61271,0.99138 -3.54964,1.16754 -6.63562,0.398 z m -106.13159,-8.45167 c -1.92131,-0.34734 -3.69908,-1.25421 -3.95061,-2.01528 -0.31426,-0.95086 0.1396,-1.20211 1.45073,-0.80312 1.04943,0.31937 5.11185,1.08202 9.02758,1.69478 3.91573,0.61276 7.32424,1.31884 7.57447,1.56907 0.64458,0.64458 -9.91819,0.31093 -14.10217,-0.44545 z M 317.58566,85.966812 c -1.98321,-0.941321 -7.95768,-4.27986 -13.2766,-7.418976 -21.57804,-12.734912 -36.32143,-20.723679 -38.01119,-20.596513 -0.98298,0.07397 -1.78723,-0.526299 -1.78723,-1.333943 0,-0.807644 0.15866,-1.468444 0.35259,-1.468444 0.28177,0 28.48268,15.033488 38.65501,20.60641 4.15378,2.275661 18.18389,11.297261 18.18389,11.692561 0,0.487418 0.12754,0.533308 -4.11647,-1.481095 z M 486.12583,81.19149 c 4.04029,-7.349813 14.21425,-22.978724 14.95849,-22.978724 0.6031,0 -1.50792,3.590595 -10.20752,17.361703 -7.34633,11.628929 -9.37292,14.024955 -4.75097,5.617021 z m 63.64081,-55.289811 c -3.9683,-8.989529 -7.56303,-17.4609004 -7.98829,-18.8252672 -0.76913,-2.4675857 -0.76172,-2.4704017 1.40632,-0.5340171 1.19874,1.0706576 3.28401,4.2876793 4.63394,7.1489363 3.28448,6.961686 9.93936,26.226241 9.50741,27.522089 -0.18936,0.568073 -3.59108,-6.322211 -7.55938,-15.311741 z m -27.318,-1.690405 c 0.38352,-1.007205 0.95457,-1.574013 1.26901,-1.259574 0.31445,0.314437 6.6e-4,1.138513 -0.6973,1.831279 -1.00864,1.001124 -1.12594,0.883816 -0.57171,-0.571705 z M 538.02128,1.3449049 c 0.73723,-0.2950168 1.61809,-0.2587346 1.95745,0.080627 0.33936,0.3393617 -0.26384,0.5807391 -1.34043,0.5363942 -1.18973,-0.049005 -1.43173,-0.2910029 -0.61702,-0.6170212 z"
       style="fill:#fd9855;stroke-width:1.02127659" />
    <path
       id="path1229"
       d="m 491.50252,729.37903 c -0.6949,-0.44135 -4.41935,-7.67262 -8.27657,-16.06947 -3.85722,-8.39685 -10.96562,-23.14777 -15.79646,-32.77982 l -8.78331,-17.51281 -5.4082,-2.36887 c -2.9745,-1.30287 -10.04888,-4.7667 -15.72083,-7.69741 l -10.31264,-5.32856 -6.02778,3.66596 c -44.39002,26.99697 -112.37611,35.92812 -172.40195,22.64799 -22.94486,-5.07633 -47.95136,-15.39771 -65.34235,-26.96991 l -8.49547,-5.653 -6.77469,3.0396 c -18.27149,8.19786 -32.66329,10.80563 -55.16473,9.99572 C 94.187913,653.67143 83.623026,651.07528 66.893617,643.01917 15.33134,618.18912 -10.957526,560.17215 4.2232571,504.71175 17.147244,457.49616 58.782471,422.77717 108.05123,418.13116 l 7.45548,-0.70305 3.51919,-7.41598 c 10.99003,-23.15927 32.05136,-39.04552 60.71878,-45.79924 5.33617,-1.25714 9.70213,-2.809 9.70213,-3.44859 0,-0.63958 -4.02128,-3.9686 -8.93617,-7.39784 -4.9149,-3.42923 -8.93617,-6.42726 -8.93617,-6.66227 0,-0.66456 3.4018,0.70356 5.10638,2.05365 3.45069,2.73308 17.5362,10.72892 19.66669,11.16409 1.25992,0.25734 7.34608,0.741 13.5248,1.0748 l 11.23404,0.6069 2.40041,-6.92947 c 3.72324,-10.74822 9.7542,-22.73272 16.56029,-32.90793 l 6.21497,-9.29147 1.41411,-19.64163 c 1.58059,-21.95402 2.11799,-27.11665 3.085,-29.63665 1.19258,-3.10781 -2.29774,-3.0832 -6.8952,0.0486 -2.41813,1.64725 -6.69447,4.14894 -9.50298,5.5593 -6.72406,3.37665 -26.27264,14.08053 -27.57447,15.09846 -0.5617,0.43922 -4.92766,2.85182 -9.70213,5.36134 -4.77447,2.50952 -14.19574,7.91771 -20.93617,12.0182 -6.74042,4.10047 -15.70212,9.38218 -19.91489,11.7371 -9.01603,5.03995 -9.86118,7.14966 -5.70513,14.24143 2.77573,4.73641 10.44154,12.04384 15.24684,14.53401 1.59688,0.82753 2.6683,1.73972 2.38093,2.02709 -1.09569,1.09569 -30.3184,-19.68571 -30.28727,-21.53845 0.0352,-2.09956 22.7769,-15.87477 60.74761,-36.79648 44.57995,-24.56336 52.50873,-28.51922 53.25639,-26.57085 0.69226,1.80399 -0.29412,27.33247 -1.55063,40.13164 -0.40352,4.11039 -0.35805,7.70558 0.10101,7.98931 0.45909,0.28374 5.05825,-3.45998 10.22036,-8.31937 20.29523,-19.10508 46.64961,-32.78636 71.76006,-37.25262 3.93192,-0.69935 8.12597,-1.88198 9.32013,-2.62807 1.19416,-0.74609 4.69038,-4.94499 7.76937,-9.33088 9.50747,-13.54298 27.29922,-31.22156 43.93178,-43.65236 2.10638,-1.57426 3.82978,-2.63317 3.82978,-2.35314 0,0.28002 -2.64255,2.47864 -5.87234,4.8858 -9.4413,7.03659 -28.45886,26.20639 -36.59416,36.88711 -4.13455,5.42819 -7.64546,10.3967 -7.80203,11.04113 -0.20244,0.8333 4.28728,1.26227 15.54513,1.48525 23.39961,0.46347 41.87715,4.78592 61.83974,14.46619 38.35485,18.59907 66.94271,53.71159 76.85355,94.39401 4.67744,19.20011 5.30953,40.17198 1.76858,58.67885 -0.84717,4.4278 -1.3795,8.21135 -1.18293,8.40791 0.19655,0.19655 11.10515,0.50534 24.24134,0.68616 25.09966,0.34553 31.97966,1.1933 50.3921,6.20941 10.26154,2.79555 23.49392,7.88076 32.89878,12.64302 4.83524,2.44838 21.13096,12.88506 26.41787,16.91948 2.33182,1.7794 4.47103,-0.38078 12.74449,-12.8694 12.13543,-18.31819 20.47755,-35.92389 26.28022,-55.46335 l 4.85264,-16.34042 v -30.12766 -30.12766 l -4.45596,-16.7927 c -2.45079,-9.23599 -6.0535,-20.26577 -8.00605,-24.51064 -4.88381,-10.61747 -5.81851,-13.10075 -4.40532,-11.704 1.61478,1.596 8.89658,18.7651 12.30265,29.00734 9.74848,29.31416 10.46416,68.5007 1.82789,100.0851 -6.06269,22.17238 -20.82947,51.26263 -33.34002,65.67914 -2.34498,2.70225 -4.26361,5.41277 -4.26361,6.02338 0,0.61061 3.80168,5.06351 8.44817,9.89533 13.82314,14.37449 22.87545,29.87382 27.46694,47.02876 1.21068,4.52345 2.70674,8.22446 3.32455,8.22446 0.61781,0 8.92592,-7.81277 18.46247,-17.3617 9.53654,-9.54894 17.87695,-17.36171 18.53425,-17.36171 1.70271,0 6.76198,21.78164 13.63982,58.72341 3.24191,17.41276 7.65645,40.50293 9.81008,51.31148 3.67791,18.45861 3.81077,19.75682 2.18788,21.37972 -1.6229,1.62289 -3.97766,0.99335 -38.77971,-10.36751 -20.37855,-6.65242 -38.20621,-12.2881 -39.61702,-12.52374 -2.14318,-0.35795 -3.46078,0.67548 -8.00997,6.28247 -24.37486,30.04254 -65.44725,50.39334 -110.44619,54.72457 -6.45957,0.62174 -12.72487,1.33124 -13.92288,1.57668 -1.44687,0.29641 -4.15119,3.70726 -8.0546,10.15894 -3.23202,5.34199 -6.04793,9.71271 -6.25758,9.71271 -0.20964,0 1.66898,-4.08212 4.17473,-9.07136 2.50575,-4.98925 4.27207,-9.35521 3.92514,-9.70213 -0.34692,-0.34692 -3.19672,-0.63454 -6.33289,-0.63914 -12.0942,-0.0178 -34.65376,-3.60413 -47.52682,-7.55546 -2.78229,-0.85401 -5.30874,-1.30273 -5.61433,-0.99714 -0.30559,0.30559 1.3629,4.0957 3.70775,8.42248 2.34485,4.32677 5.46152,11.05006 6.92592,14.94062 3.97449,10.55914 16.10667,33.19789 17.79089,33.19789 2.20818,0 8.89205,-7.62323 15.67003,-17.87234 3.3432,-5.05532 6.30281,-9.41816 6.57692,-9.69519 1.1811,-1.19375 -11.00833,23.84111 -12.90537,26.50523 -2.19749,3.08611 -7.86534,8.2224 -9.04374,8.1956 -0.37818,-0.008 -1.25615,-0.37674 -1.95103,-0.8181 z m 242.82741,-98.77935 c 0.99022,-1.19315 1.14835,-4.93562 0.65807,-15.57447 -0.75629,-16.411 -2.57093,-27.06648 -11.42899,-67.11031 -3.60335,-16.28937 -6.85473,-31.56154 -7.22528,-33.93817 -0.37055,-2.37663 -1.21841,-4.7732 -1.88414,-5.32571 -0.86451,-0.71747 -6.08164,3.7665 -18.25554,15.69006 l -17.04511,16.69462 v 12.309 c 0,17.71565 -2.60965,28.89394 -10.53435,45.12339 -2.33133,4.77447 -4.24674,9.11978 -4.25648,9.65625 -0.0129,0.70681 63.15114,22.91117 68.02748,23.91406 0.3525,0.0725 1.22744,-0.57493 1.94434,-1.43872 z m 12.9013,-196.30181 c -0.85593,-1.4136 1.32357,-111.00119 2.31042,-116.17021 0.53619,-2.80851 1.00228,-5.68085 1.03577,-6.38298 0.0757,-1.58594 1.16905,-1.60674 4.84546,-0.0922 l 2.87499,1.1844 -3.06383,0.61235 c -2.69438,0.53851 -3.15849,1.16538 -3.84888,5.19859 -1.07954,6.30655 -2.20695,97.1787 -1.30962,105.5579 0.56662,5.29095 1.09054,6.77302 2.39433,6.77302 2.5531,0 99.4693,-51.64185 107.60268,-57.33615 3.16432,-2.21538 4.2656,-2.40171 3.67213,-0.6213 -0.23405,0.70213 -0.84681,1.28079 -1.3617,1.28592 -0.51489,0.005 -4.87271,2.60776 -9.68405,5.78362 -4.81134,3.17586 -20.89644,12.0731 -35.74468,19.77164 -14.84824,7.69854 -33.63223,17.68052 -41.7422,22.1822 -21.44416,11.90319 -26.77836,14.23912 -27.98082,12.25321 z m 106.89154,-70.02911 c -11.31026,-7.18275 -11.72359,-7.98432 -1.35681,-2.63125 4.77447,2.46538 9.13413,4.48423 9.68813,4.48633 0.55402,0.002 1.16219,0.80808 1.35149,1.79106 0.49738,2.58271 -0.4165,2.23858 -9.68281,-3.64614 z m -13.86745,-8.42737 c -3.81798,-2.07129 -3.58558,-2.93398 0.25532,-0.94777 1.6851,0.8714 3.06383,1.80235 3.06383,2.06878 0,0.65719 -0.10974,0.62013 -3.31915,-1.12101 z m -28.85106,-14.0697 c -10.11064,-4.68178 -20.90455,-10.016 -23.98646,-11.85381 -5.62745,-3.35578 -10.95288,-7.19447 -9.9809,-7.19447 2.13496,0 49.60771,24.22388 52.29927,26.6867 1.7341,1.58674 0.30042,0.98935 -18.33191,-7.63842 z M 657.70213,264.51064 c -0.60123,-1.1234 -0.86336,-2.04255 -0.58251,-2.04255 0.28085,0 1.00256,0.91915 1.60378,2.04255 0.60123,1.1234 0.86336,2.04255 0.58251,2.04255 -0.28085,0 -1.00256,-0.91915 -1.60378,-2.04255 z M 639.84387,238.9092 c -20.70097,-24.85142 -50.32924,-45.70925 -79.55882,-56.00813 -19.29717,-6.79926 -53.76763,-11.37166 -74.15739,-9.83675 -18.70378,1.40799 -44.36089,7.81206 -61.18721,15.27244 -11.26777,4.99586 -13.73307,5.41259 -4.42981,0.7488 29.35998,-14.71836 65.07292,-21.06946 98.0828,-17.44281 37.86066,4.15959 71.8787,19.22362 100.92377,44.69155 8.0843,7.08864 20.77085,20.80479 25.53718,27.60968 3.00328,4.28778 0.70603,2.06801 -5.21052,-5.03478 z m 92.76365,-11.09441 c -3.16555,-1.93022 -44.91015,-41.46464 -50.8989,-48.20403 l -3.05733,-3.44055 4.07861,3.63684 c 2.24323,2.00026 8.21478,7.02308 13.2701,11.1618 5.05532,4.13872 15.00158,13.23048 22.10281,20.2039 8.64085,8.48534 13.51655,12.56239 14.74119,12.32655 2.62347,-0.50524 9.4349,-13.70115 13.88701,-26.90355 2.08358,-6.17873 3.81511,-10.21692 3.84782,-8.97377 0.13066,4.96596 -6.13842,31.56468 -8.64892,36.69594 -2.95531,6.04043 -4.31471,6.55036 -9.32239,3.49687 z m -333.86787,-25.4906 c 0.72864,-1.17895 4.66461,-3.55677 4.66461,-2.818 0,0.23601 -1.20553,1.219 -2.67894,2.18442 -1.47341,0.96541 -2.36697,1.25053 -1.98567,0.63358 z m 8.74971,-5.67599 c 0,-0.28085 1.37873,-1.2236 3.06383,-2.09501 1.68511,-0.8714 3.06383,-1.35458 3.06383,-1.07373 0,0.28085 -1.37872,1.2236 -3.06383,2.09501 -1.6851,0.8714 -3.06383,1.35458 -3.06383,1.07373 z M 272.68085,185.25244 c 0,-0.97879 0.57097,-1.42208 1.41467,-1.09832 0.77807,0.29858 2.27169,-0.0365 3.31915,-0.74459 4.53307,-3.06439 22.08924,-11.80626 19.77682,-9.84762 -1.40426,1.18942 -3.8308,2.85626 -5.39231,3.70409 -1.56151,0.84784 -5.65404,3.36088 -9.0945,5.58457 -6.63631,4.28924 -10.02383,5.10095 -10.02383,2.40187 z m -1.40577,-13.88611 c -1.78962,-12.45269 -5.82616,-69.34749 -6.21654,-87.621649 l -0.44722,-20.93617 1.48026,19.914894 c 3.09876,41.689245 6.45812,92.386465 6.14273,92.701855 -0.18077,0.18077 -0.61242,-1.64575 -0.95923,-4.05893 z m 389.39288,-10.91562 c -7.03731,-6.89201 -12.20266,-12.74025 -11.94233,-13.5212 0.75381,-2.26144 19.73456,-10.15143 57.03856,-23.70997 19.36317,-7.03776 39.33434,-14.70154 44.38036,-17.03062 10.45445,-4.82545 19.43683,-6.451408 20.48923,-3.70889 1.2732,3.31791 -1.69893,18.44079 -7.79857,39.68079 -6.18554,21.53913 -8.01629,26.75403 -8.08075,23.01803 -0.0461,-2.67002 10.03861,-48.09093 11.76203,-52.97561 1.75946,-4.98684 1.90419,-8.03303 0.38166,-8.03303 -0.60601,0 -7.15495,2.25234 -14.55319,5.00518 -24.9252,9.27455 -43.9885,16.27363 -62.98326,23.1243 -28.71545,10.35656 -29.55802,10.70309 -30.55531,12.56652 -0.6236,1.1652 -0.29979,3.52692 0.98298,7.16948 1.64811,4.67996 3.7089,7.64056 13.06731,18.77282 0.82634,0.98298 1.21217,1.78724 0.85739,1.78724 -0.35479,0 -6.22554,-5.46526 -13.04611,-12.14504 z m -338.96583,-1.66529 c 0,-0.2314 4.48085,-3.03075 9.95744,-6.22078 5.4766,-3.19003 14.92737,-8.76706 21.00172,-12.39339 12.05067,-7.19415 15.43633,-8.08532 6.07519,-1.59909 -11.14045,7.71909 -37.03435,21.85191 -37.03435,20.21326 z m 255.82978,-33.71924 c -0.5617,-0.21428 -11.55924,-1.56277 -24.43899,-2.99666 -12.87975,-1.4339 -23.67975,-2.88978 -24,-3.23528 -0.74375,-0.80237 12.00972,0.2149 34.43624,2.74681 19.95527,2.2529 25.3456,2.44855 26.2696,0.95348 0.3535,-0.57197 -1.89565,-7.3507 -4.99811,-15.06383 -7.20542,-17.913609 -7.83923,-19.640912 -7.20701,-19.640912 1.2181,0 12.89669,25.517702 13.40167,29.282652 0.88077,6.56663 -0.76943,8.52004 -7.11634,8.42395 -2.92918,-0.0443 -5.78535,-0.25594 -6.34706,-0.47021 z M 364.33278,114.45786 c -10.44166,-6.88707 -15.81952,-10.78556 -12.50299,-9.06359 7.29977,3.79012 26.04255,15.43241 26.04255,16.17665 0,1.66352 -1.14585,1.06155 -13.53956,-7.11306 z m 109.62074,-0.97528 c -1.92131,-0.34734 -3.69908,-1.25421 -3.95061,-2.01528 -0.31426,-0.95086 0.1396,-1.20211 1.45073,-0.80312 1.04943,0.31937 5.11185,1.08202 9.02758,1.69478 3.91573,0.61276 7.32424,1.31884 7.57447,1.56907 0.64458,0.64458 -9.91819,0.31093 -14.10217,-0.44545 z M 317.58566,85.966812 c -1.98321,-0.941321 -7.95768,-4.27986 -13.2766,-7.418976 -21.57804,-12.734912 -36.32143,-20.723679 -38.01119,-20.596513 -0.98298,0.07397 -1.78723,-0.526299 -1.78723,-1.333943 0,-0.807644 0.15866,-1.468444 0.35259,-1.468444 0.28177,0 28.48268,15.033488 38.65501,20.60641 4.15378,2.275661 18.18389,11.297261 18.18389,11.692561 0,0.487418 0.12754,0.533308 -4.11647,-1.481095 z M 486.12583,81.19149 c 4.04029,-7.349813 14.21425,-22.978724 14.95849,-22.978724 0.6031,0 -1.50792,3.590595 -10.20752,17.361703 -7.34633,11.628929 -9.37292,14.024955 -4.75097,5.617021 z m 63.64081,-55.289811 c -3.9683,-8.989529 -7.56303,-17.4609004 -7.98829,-18.8252672 -0.76913,-2.4675857 -0.76172,-2.4704017 1.40632,-0.5340171 1.19874,1.0706576 3.28401,4.2876793 4.63394,7.1489363 3.28448,6.961686 9.93936,26.226241 9.50741,27.522089 -0.18936,0.568073 -3.59108,-6.322211 -7.55938,-15.311741 z m -27.318,-1.690405 c 0.38352,-1.007205 0.95457,-1.574013 1.26901,-1.259574 0.31445,0.314437 6.6e-4,1.138513 -0.6973,1.831279 -1.00864,1.001124 -1.12594,0.883816 -0.57171,-0.571705 z M 538.02128,1.3449049 c 0.73723,-0.2950168 1.61809,-0.2587346 1.95745,0.080627 0.33936,0.3393617 -0.26384,0.5807391 -1.34043,0.5363942 -1.18973,-0.049005 -1.43173,-0.2910029 -0.61702,-0.6170212 z"
       style="fill:#939190;stroke-width:1.02127659" />
    <path
       id="path1227"
       d="m 274.21277,677.62743 c -34.16823,-4.33206 -66.84611,-15.51726 -89.36018,-30.58679 -4.66642,-3.12341 -9.1994,-5.67893 -10.07328,-5.67893 -0.87389,0 -5.2844,1.57928 -9.80112,3.50951 C 128.82427,660.32166 87.090573,656.62983 53.988628,635.05289 19.74772,612.73354 -1.3780571,572.18358 0.3443248,532.08511 1.6179282,502.43457 14.524396,473.50872 35.951813,452.28194 c 17.96873,-17.80046 41.74482,-29.37402 66.906837,-32.56842 4.93412,-0.6264 9.9652,-1.33394 11.18015,-1.5723 1.59024,-0.312 3.3582,-2.79434 6.31153,-8.86178 11.19158,-22.99249 32.14672,-38.28582 61.22083,-44.67973 4.65562,-1.02386 9.04931,-2.34668 9.76373,-2.93959 0.82559,-0.68519 6.5005,-0.94029 15.57245,-0.70006 l 14.27349,0.37799 2.36319,-6.79668 c 3.56952,-10.26624 9.55411,-22.2571 15.37051,-30.79669 9.03605,-13.26667 9.74601,-14.21827 10.63785,-14.25853 0.47934,-0.0217 5.18605,-4.1226 10.45936,-9.11325 20.72181,-19.61106 44.82904,-32.37575 71.39326,-37.80247 5.27929,-1.07849 10.19627,-2.33601 10.92664,-2.79448 2.29208,-1.43883 8.02635,-1.88565 22.2641,-1.73486 64.17216,0.67964 121.44556,46.20438 136.65075,108.61917 4.67743,19.20011 5.30952,40.17198 1.76857,58.67885 -0.84717,4.4278 -1.3795,8.21135 -1.18293,8.40791 0.19655,0.19655 11.10515,0.50534 24.24134,0.68616 25.09966,0.34553 31.97966,1.1933 50.3921,6.20941 16.91749,4.60882 31.89638,11.27265 46.51315,20.69283 8.9257,5.7524 25.53594,22.07121 34.47149,33.86665 6.22058,8.21155 12.89804,21.63917 16.0562,32.28729 1.49938,5.05532 3.23377,10.11064 3.85422,11.23405 1.75377,3.17543 2.24268,23.28789 0.76688,31.54606 -2.95283,16.523 -10.19299,32.66891 -19.06707,42.5205 -20.10272,22.3171 -33.62929,33.06033 -53.95406,42.852 -22.56838,10.87256 -45.96542,16.20461 -83.60759,19.05365 -7.7542,0.5869 -23.05757,-0.82784 -35.16221,-3.25062 -9.67005,-1.93548 -24.69048,-6.47871 -26.76211,-8.09474 -2.34868,-1.83215 -31.09793,-15.86089 -32.50388,-15.86089 -0.68136,0 -2.98322,1.10117 -5.11522,2.44705 -18.71806,11.81619 -48.61404,22.16142 -77.27452,26.74016 -14.28925,2.28282 -55.56922,2.83983 -70.46808,0.95085 z"
       style="fill:#a76c44;stroke-width:1.02127659" />
    <path
       id="path1225"
       d="m 274.21277,677.62743 c -34.16823,-4.33206 -66.84611,-15.51726 -89.36018,-30.58679 -4.66642,-3.12341 -9.1994,-5.67893 -10.07328,-5.67893 -0.87389,0 -5.2844,1.57928 -9.80112,3.50951 C 128.82427,660.32166 87.090573,656.62983 53.988628,635.05289 19.74772,612.73354 -1.3780571,572.18358 0.3443248,532.08511 1.6179282,502.43457 14.524396,473.50872 35.951813,452.28194 c 17.96873,-17.80046 41.74482,-29.37402 66.906837,-32.56842 4.93412,-0.6264 9.9652,-1.33394 11.18015,-1.5723 1.59024,-0.312 3.3582,-2.79434 6.31153,-8.86178 11.19158,-22.99249 32.14672,-38.28582 61.22083,-44.67973 4.65562,-1.02386 9.07796,-2.37045 9.82739,-2.99242 0.94785,-0.78665 2.87882,-0.8369 6.34373,-0.16508 8.94685,1.73471 23.55148,2.23112 24.61808,0.83676 0.52913,-0.69173 2.24095,-4.93429 3.80404,-9.4279 3.51616,-10.10839 8.22467,-19.55694 14.65296,-29.40411 2.71112,-4.15301 5.53035,-9.002 6.26498,-10.77554 0.73462,-1.77354 1.787,-3.22461 2.33862,-3.22461 0.55162,0 5.31747,-4.08326 10.59078,-9.07391 20.75839,-19.64567 44.82284,-32.37449 71.51419,-37.82718 5.34579,-1.09207 10.26278,-2.38142 10.92663,-2.86521 2.26431,-1.65015 37.1725,0.37178 48.12786,2.78763 29.50421,6.50617 52.94448,19.58097 73.8237,41.17828 26.91958,27.8454 40.37488,63.37563 38.74521,102.31103 -0.32915,7.86383 -1.29537,17.4618 -2.14715,21.32882 -0.8518,3.86703 -1.27808,7.46886 -0.9473,8.00407 0.36812,0.59562 6.00405,0.70184 14.52859,0.27384 50.88147,-2.55473 102.59812,15.82522 131.71864,46.81239 14.59811,15.53389 22.07214,27.93629 27.19603,45.12917 1.50392,5.04631 3.12442,9.91488 3.6011,10.81902 0.4767,0.90415 0.89679,5.49989 0.93354,10.21277 0.14415,18.47838 -3.49969,34.71098 -11.26046,50.16321 -2.1801,4.34072 -3.96381,8.38157 -3.96381,8.97966 0,1.2709 -6.04516,7.95901 -18.92413,20.93689 -24.44223,24.62993 -60.73715,40.05421 -104.65034,44.47332 -13.58746,1.36735 -12.4531,1.36645 -27.84463,0.0222 -13.47037,-1.17647 -30.20707,-4.06992 -38.95598,-6.73473 -2.75735,-0.83986 -6.52173,-1.52701 -8.36525,-1.52701 -1.84354,0 -3.60784,-0.41412 -3.92065,-0.92028 -0.72096,-1.16652 -31.47738,-16.44139 -33.1053,-16.44139 -0.66576,0 -2.95486,1.10117 -5.08686,2.44705 -18.71806,11.81619 -48.61404,22.16142 -77.27452,26.74016 -14.28925,2.28282 -55.56922,2.83983 -70.46808,0.95085 z"
       style="fill:#646464;stroke-width:1.02127659" />
  </g>
</svg>
