<?xml version="1.0" encoding="UTF-8" standalone="no"?>
<svg
   xmlns:dc="http://purl.org/dc/elements/1.1/"
   xmlns:cc="http://creativecommons.org/ns#"
   xmlns:rdf="http://www.w3.org/1999/02/22-rdf-syntax-ns#"
   xmlns:svg="http://www.w3.org/2000/svg"
   xmlns="http://www.w3.org/2000/svg"
   viewBox="0 0 983.03998 983.03998"
   height="983.03998"
   width="983.03998"
   id="svg259"
   version="1.1">
  <metadata
     id="metadata265">
    <rdf:RDF>
      <cc:Work
         rdf:about="">
        <dc:format>image/svg+xml</dc:format>
        <dc:type
           rdf:resource="http://purl.org/dc/dcmitype/StillImage" />
        <dc:title></dc:title>
      </cc:Work>
    </rdf:RDF>
  </metadata>
  <defs
     id="defs263" />
  <path
     id="path293"
     d="m 253.07841,531.75291 c -1.04435,-0.51695 -2.92184,-1.87233 -4.17219,-3.01197 -2.7129,-2.47269 -14.18845,-10.4136 -39.16436,-27.10116 -27.22795,-18.19225 -37.71966,-25.56561 -50.43579,-35.44522 -5.18392,-4.02757 -5.57425,-4.43025 -4.83097,-4.98373 1.59087,-1.18465 15.87582,-10.17891 23.17478,-14.59159 15.76728,-9.53232 33.85223,-19.56486 74.64584,-41.40943 17.77936,-9.52066 18.42592,-9.82563 19.1968,-9.05475 0.71619,0.71618 0.75495,1.16998 0.37917,4.43824 -0.23022,2.00226 -0.42314,6.11086 -0.42871,9.13021 -0.0179,9.71059 -0.83536,19.81652 -3.94319,48.74882 -0.94705,8.81651 -1.94279,19.38973 -2.21276,23.49605 -0.26997,4.10632 -0.79088,8.75063 -1.15759,10.32069 -0.43448,1.86021 -0.87657,7.97992 -1.26906,17.56714 -0.33127,8.09187 -0.81262,15.56997 -1.06966,16.61801 -0.63522,2.58999 -2.02554,5.21553 -3.05302,5.76541 -1.35124,0.72317 -3.60693,0.52917 -5.65929,-0.48672 z m 0.69506,-6.63524 c 0.26439,-0.78503 1.08474,-3.17821 1.823,-5.31818 3.98104,-11.53964 7.12042,-32.90753 8.5908,-58.4725 0.13893,-2.41548 0.34039,-5.47875 0.44769,-6.80727 0.1073,-1.32851 0.30337,-4.29297 0.43571,-6.58768 0.5536,-9.59916 0.71103,-12.08242 1.33645,-21.08057 0.36096,-5.19328 0.75482,-10.33167 0.87525,-11.41864 0.12041,-1.08696 0.41532,-3.92156 0.65534,-6.29909 0.24002,-2.37754 0.56199,-5.3914 0.7155,-6.69748 0.1535,-1.30607 0.1807,-2.37467 0.0605,-2.37467 -0.32649,0 -25.19301,13.60551 -42.94178,23.49525 -18.7072,10.42377 -36.14473,20.38745 -49.84677,28.48208 l -10.1011,5.96735 0.11819,1.87994 c 0.16067,2.55575 2.18805,6.54382 5.14829,10.12724 4.83681,5.85506 16.38217,14.01469 38.65137,27.31671 14.54488,8.68806 23.20546,14.38358 28.32701,18.62889 3.44797,2.85806 14.37304,10.58595 14.96557,10.58595 0.14207,0 0.47463,-0.6423 0.73903,-1.42733 z"
     style="opacity:1;fill:#ffffff;fill-opacity:1;fill-rule:evenodd;stroke:#000000;stroke-width:0.08783571;stroke-linejoin:round;stroke-miterlimit:4;stroke-dasharray:none;stroke-dashoffset:0;stroke-opacity:0.16190479" />
  <path
     id="path297"
     d="m 500.69763,677.19181 c -30.66695,-2.08512 -62.66915,-14.03153 -89.01698,-33.23002 -35.74741,-26.04753 -62.37576,-65.07611 -72.77123,-106.65917 -5.4421,-21.76903 -6.54491,-40.78144 -3.78576,-65.26635 4.63499,-41.13125 23.17905,-78.38792 54.08635,-108.6643 30.53318,-29.9099 68.08431,-48.12121 108.71412,-52.72349 11.76365,-1.33251 31.55276,-0.92146 46.25217,0.96073 66.49005,8.51373 126.79146,59.61354 149.04794,126.30421 6.05775,18.15185 8.74495,34.44473 8.7871,53.27771 0.0695,31.02882 -5.44361,56.11137 -17.95462,81.6872 -9.02649,18.45259 -19.81905,33.6661 -34.69271,48.90391 -29.58936,30.31378 -66.13908,49.03936 -106.94443,54.79101 -5.74276,0.80947 -32.976,1.21322 -41.72195,0.61856 z m 34.6951,-3.12241 c 26.31367,-2.09479 50.45808,-9.7097 73.96564,-23.32803 3.62156,-2.09803 13.11337,-8.5225 16.50513,-11.17138 1.32852,-1.03755 3.20601,-2.50497 4.1722,-3.26095 9.3341,-7.30328 22.26081,-20.46878 30.37583,-30.93696 6.53378,-8.42843 11.28415,-15.67197 17.2774,-26.34525 1.36057,-2.42301 3.6093,-6.91075 5.17154,-10.32069 2.8608,-6.24439 3.60967,-7.94167 3.60967,-8.18125 0,-0.13749 0.28603,-0.87275 0.63564,-1.6339 2.62787,-5.72136 7.53012,-22.42174 8.85031,-30.1501 0.10315,-0.60387 0.37982,-1.98728 0.61482,-3.07425 1.63473,-7.56144 2.34848,-15.8528 2.38178,-27.66825 0.0593,-21.04341 -0.95511,-31.39133 -4.52055,-46.11374 -4.6818,-19.3321 -10.69995,-33.88199 -21.21765,-51.29725 -3.85122,-6.37686 -4.84699,-7.84624 -9.54902,-14.09064 -5.41146,-7.18654 -5.45846,-7.24799 -5.95178,-7.78298 -0.24691,-0.26776 -1.72674,-1.94762 -3.28851,-3.73302 -3.11335,-3.55916 -13.4437,-13.96651 -16.92345,-17.04958 -3.45613,-3.06216 -12.4527,-10.16671 -15.59083,-12.31202 -1.57007,-1.07334 -3.744,-2.56495 -4.83097,-3.31469 -14.58468,-10.05989 -37.04278,-20.07872 -54.12481,-24.14575 -6.89597,-1.64185 -14.4212,-3.04883 -18.77882,-3.51105 -1.32852,-0.14092 -3.89771,-0.41958 -5.70932,-0.61925 -1.81161,-0.19966 -5.51214,-0.40085 -8.22341,-0.44708 -2.71126,-0.0462 -5.37927,-0.17816 -5.92891,-0.29319 -1.51977,-0.31806 -19.90336,-0.30277 -23.39745,0.0195 -9.04839,0.83445 -17.16422,2.12815 -25.03317,3.99039 -1.69084,0.40015 -3.27188,0.77274 -3.51343,0.82798 -13.09683,2.9953 -33.88286,11.85273 -46.82197,19.95198 -0.63107,0.39502 -2.1133,1.30715 -3.29384,2.02695 -10.32127,6.2931 -23.14985,16.65138 -33.50335,27.05187 -2.88259,2.89568 -11.78381,12.9152 -13.00011,14.63338 -0.4831,0.68244 -1.08062,1.46593 -1.32783,1.7411 -1.72506,1.92019 -12.5063,17.46574 -12.5063,18.03294 0,0.13037 -0.71022,1.34731 -1.57828,2.7043 -2.54058,3.97157 -9.09166,17.44856 -11.78984,24.25426 -6.02107,15.18714 -10.10413,32.73843 -11.00299,47.29712 -0.13422,2.17393 -0.34229,5.03957 -0.46238,6.36809 -0.30697,3.39592 -0.30024,24.22635 0.009,27.66824 1.80324,20.07448 6.2632,37.72066 13.98596,55.3365 9.34673,21.32015 22.16624,39.94759 39.14391,56.87822 27.27688,27.2013 59.81915,44.38129 95.59805,50.46891 2.0229,0.34419 5.25904,0.76364 7.19142,0.93211 1.93239,0.16847 3.8645,0.37038 4.29358,0.44869 0.42908,0.0783 4.57932,0.27635 9.22275,0.44012 4.64343,0.16376 8.54141,0.39176 8.66219,0.50666 0.2853,0.27144 13.15332,-0.23686 20.20221,-0.79802 z"
     style="opacity:1;fill:#ffffff;fill-opacity:1;fill-rule:evenodd;stroke:#000000;stroke-width:0.08783571;stroke-linejoin:round;stroke-miterlimit:4;stroke-dasharray:none;stroke-dashoffset:0;stroke-opacity:0.16190479" />
  <path
     id="path299"
     d="m 290.41381,327.26775 c -0.83182,-0.71593 -1.06042,-2.79881 -3.33791,-30.41312 -1.34471,-16.3045 -2.73755,-33.69597 -3.09519,-38.64771 -2.21985,-30.73499 -3.53935,-64.99842 -2.50313,-64.99842 0.55807,0 17.27047,8.75718 25.74847,13.49201 12.09761,6.75633 22.59057,12.94026 50.51897,29.77293 14.49289,8.73498 29.46912,17.71842 33.28052,19.96321 6.83671,4.02661 6.92101,4.09485 6.27569,5.07974 -0.60009,0.91586 -0.57751,1.04915 0.27337,1.61412 0.88867,0.59005 0.78228,0.7091 -2.54268,2.84522 -1.90859,1.22617 -3.86542,2.6705 -4.34851,3.20961 -1.31773,1.47052 -7.05949,6.16955 -10.54029,8.6261 -7.57982,5.34943 -16.86161,10.67299 -36.6714,21.03284 -13.74622,7.18882 -24.0012,13.05791 -29.97229,17.15365 -2.59574,1.78049 -5.16493,3.34976 -5.70932,3.48727 -0.54439,0.13752 -3.06492,1.74377 -5.60117,3.56946 -6.90419,4.96987 -9.72372,5.97869 -11.77513,4.21309 z m 16.9948,-10.80131 c 3.23314,-1.84921 5.93423,-3.3622 6.00241,-3.3622 0.0682,0 1.67195,-0.9167 3.5639,-2.0371 1.89196,-1.12041 4.92215,-2.86655 6.73376,-3.88032 1.81162,-1.01376 4.03496,-2.271 4.94076,-2.79385 2.47158,-1.42667 4.53427,-2.60262 6.36809,-3.63046 0.90581,-0.50769 2.8327,-1.60852 4.28199,-2.44629 1.44929,-0.83777 2.93152,-1.69403 3.29384,-1.90281 8.07764,-4.65441 25.26569,-14.75071 27.53761,-16.17565 0.77356,-0.48518 3.88366,-2.38391 6.91133,-4.21939 3.02766,-1.83549 6.17657,-3.77771 6.99758,-4.31605 0.82099,-0.53835 2.15147,-1.37407 2.95661,-1.85716 0.80514,-0.4831 2.07833,-1.27362 2.82932,-1.75672 0.75099,-0.48309 2.48076,-1.57006 3.84393,-2.41548 1.36316,-0.84542 2.48409,-1.6671 2.49094,-1.82594 0.0178,-0.4123 -14.47017,-9.99388 -19.53098,-12.91678 -1.20775,-0.69754 -3.62415,-2.21128 -5.36978,-3.36387 -1.74564,-1.15259 -3.30802,-2.09562 -3.47197,-2.09562 -0.16395,0 -0.90964,-0.45706 -1.65709,-1.01567 -1.15739,-0.86501 -16.6353,-10.24322 -21.34161,-12.93109 -3.23193,-1.84582 -6.98765,-4.02949 -11.85782,-6.89442 -2.7778,-1.63407 -6.33515,-3.66514 -7.90521,-4.51348 -1.57006,-0.84834 -3.15111,-1.76754 -3.51343,-2.04266 -0.36232,-0.27513 -1.25166,-0.81651 -1.9763,-1.20308 -0.72465,-0.38656 -8.96224,-4.97928 -18.30577,-10.20604 -9.34353,-5.22676 -17.21256,-9.5032 -17.48672,-9.5032 -0.35592,0 -0.42602,1.28746 -0.24512,4.50158 0.13935,2.47587 0.45013,8.553 0.69062,13.50474 0.2405,4.95174 0.5337,10.48539 0.65158,12.297 0.11787,1.81161 0.31331,4.87488 0.4343,6.80727 0.24326,3.88521 1.40341,21.71752 1.77149,27.22906 0.12906,1.93239 0.3209,4.40277 0.42633,5.48974 0.10543,1.08696 0.30059,3.75497 0.43368,5.92891 0.13309,2.17393 0.33351,5.03957 0.44538,6.36808 0.23511,2.792 0.53601,6.98756 0.88193,12.297 0.13377,2.05316 0.33205,4.62236 0.44062,5.70932 0.10858,1.08697 0.31005,3.95261 0.44772,6.36809 0.13767,2.41548 0.3322,5.28112 0.43228,6.36809 0.10008,1.08697 0.29254,3.45853 0.42769,5.27014 0.4668,6.2574 0.76551,8.56587 1.17389,9.07182 0.42046,0.52093 1.4769,-0.0267 15.25222,-7.90551 z"
     style="opacity:1;fill:#ffffff;fill-opacity:1;fill-rule:evenodd;stroke:#000000;stroke-width:0.08783571;stroke-linejoin:round;stroke-miterlimit:4;stroke-dasharray:none;stroke-dashoffset:0;stroke-opacity:0.16190479" />
  <path
     id="path301"
     d="m 598.19526,266.29402 c -3.02056,-0.77752 -12.3846,-1.88863 -32.93839,-3.90836 -30.2389,-2.97144 -46.34602,-4.66549 -56.65403,-5.95854 -11.29461,-1.41681 -22.96471,-3.07641 -23.21703,-3.30168 -0.48284,-0.43108 10.27378,-19.82098 18.37736,-33.12705 4.30477,-7.06843 7.79367,-12.53844 27.31153,-42.8199 3.73655,-5.79716 9.31605,-14.6378 12.39889,-19.64588 3.49509,-5.67777 6.56152,-10.10753 8.14562,-11.76713 1.39726,-1.46385 2.8906,-3.31172 3.31855,-4.10637 1.04538,-1.94115 3.04318,-2.05922 3.68511,-0.21778 0.23525,0.67486 1.59877,2.37288 3.03004,3.77338 3.76431,3.68338 6.60273,9.73869 11.47405,24.47805 5.38185,16.28416 11.19599,31.01693 13.52913,34.28225 0.51516,0.721 1.25217,2.5955 1.6378,4.16556 0.77642,3.16118 4.58974,11.24142 11.16565,23.65946 10.06978,19.01592 12.97192,27.72444 10.77919,32.34529 -0.3948,0.83198 -1.3205,1.75767 -2.15247,2.15247 -1.81089,0.85933 -6.54504,0.85752 -9.891,-0.004 z m 10.15957,-3.13893 c 0.48162,-0.48162 -3.6364,-11.4227 -10.30962,-27.39141 -1.55422,-3.71917 -4.11458,-9.84614 -5.68969,-13.61549 -1.57512,-3.76935 -3.2771,-7.76052 -3.7822,-8.86927 -0.50509,-1.10875 -0.91835,-2.115 -0.91835,-2.23612 0,-0.12111 -1.10821,-2.75056 -2.46269,-5.84321 -1.35449,-3.09265 -3.31952,-7.5993 -4.36674,-10.01478 -4.91479,-11.33631 -11.30878,-25.88674 -12.93038,-29.42496 -0.44282,-0.9662 -2.10186,-4.66519 -3.68677,-8.21999 -1.5849,-3.5548 -3.65502,-8.12173 -4.60027,-10.14873 -0.94525,-2.027 -1.85296,-4.10869 -2.01714,-4.62598 -0.557,-1.75495 -0.0684,-2.39163 -10.56961,13.77195 -2.35396,3.62322 -4.97632,7.67464 -5.82746,9.00316 -0.85115,1.32851 -2.50461,3.86486 -3.67436,5.63632 -1.16976,1.77146 -2.12682,3.3289 -2.12682,3.46097 0,0.13208 -0.69171,1.20295 -1.53713,2.37971 -0.84542,1.17676 -1.53712,2.23976 -1.53712,2.36221 0,0.12245 -1.05874,1.85126 -2.35276,3.8418 -2.97904,4.58254 -12.58376,19.82235 -13.45767,21.35329 -0.36232,0.63472 -1.05403,1.74699 -1.53712,2.47171 -0.4831,0.72471 -1.11276,1.71207 -1.39925,2.19413 -1.8639,3.13631 -4.54926,7.41448 -8.1974,13.05961 -1.36442,2.11131 -2.48076,3.93747 -2.48076,4.05813 0,0.12067 -0.88934,1.51841 -1.97631,3.10608 -1.08696,1.58768 -1.9763,2.96692 -1.9763,3.06498 0,0.0981 -1.84073,3.00061 -4.09052,6.45012 -3.6554,5.60469 -4.62204,7.2132 -6.11377,10.17351 -0.56499,1.1212 -0.11597,1.33531 4.17946,1.99286 1.98174,0.30338 6.98335,1.21439 11.11469,2.0245 13.08567,2.56593 21.24767,3.49633 46.07444,5.25212 8.45418,0.59789 17.44637,1.30007 19.98262,1.56039 7.20623,0.73965 23.63997,2.78172 28.10743,3.49267 3.12858,0.49788 9.54365,0.29564 10.15957,-0.32028 z"
     style="opacity:1;fill:#ffffff;fill-opacity:1;fill-rule:evenodd;stroke:#000000;stroke-width:0.08783571;stroke-linejoin:round;stroke-miterlimit:4;stroke-dasharray:none;stroke-dashoffset:0;stroke-opacity:0.16190479" />
  <path
     id="path305"
     d="m 755.71304,371.19277 c -0.16946,-0.2742 -1.37618,-0.80903 -2.68159,-1.18853 -1.9924,-0.5792 -3.14892,-1.41237 -7.20311,-5.18915 -49.45868,-46.07446 -64.6271,-60.47059 -74.57641,-70.77939 -7.7866,-8.06795 -7.66744,-7.33544 -1.64512,-10.11285 1.90761,-0.87977 4.79814,-2.40155 6.42339,-3.38174 1.62526,-0.98019 4.58971,-2.33212 6.58768,-3.0043 1.99797,-0.67218 6.20186,-2.25449 9.34199,-3.51625 7.89446,-3.17213 15.00761,-5.7613 33.37757,-12.14933 27.56613,-9.58594 36.89926,-13.19536 44.7962,-17.32414 8.01925,-4.19271 10.19571,-4.6892 16.90838,-3.85715 0.36232,0.0449 1.22385,-0.0737 1.9145,-0.2635 1.23196,-0.33861 1.24982,-0.31817 0.94291,1.07919 -0.17206,0.78338 -0.36433,4.21935 -0.42727,7.63548 -0.12996,7.05455 -0.72238,9.86211 -4.92472,23.33912 -5.95143,19.08631 -7.25032,23.5714 -8.20414,28.32913 -0.55712,2.77897 -1.2224,5.44698 -1.47839,5.92891 -1.23553,2.32595 -5.07694,19.11107 -6.89896,30.14515 -2.82443,17.10457 -4.704,24.14669 -7.82293,29.30998 -0.78541,1.30022 -1.68584,2.83186 -2.00096,3.40363 -0.31511,0.57178 -0.84213,1.03959 -1.17114,1.03959 -0.32901,0 -0.67731,0.23731 -0.77398,0.52735 -0.12888,0.38662 -0.258,0.39431 -0.4839,0.0288 z m -0.88874,-12.58943 c 6.65875,-9.99054 12.67284,-28.41463 18.36436,-56.25897 1.86233,-9.11098 2.38458,-11.60275 5.75293,-27.44866 3.39818,-15.98628 4.23235,-19.44842 6.55196,-27.19344 0.60904,-2.03356 1.01147,-3.79327 0.89428,-3.91046 -0.19209,-0.19209 -7.21019,2.20908 -14.71706,5.0353 -6.16037,2.31928 -14.72866,5.45054 -25.25277,9.22856 -3.62322,1.30069 -6.98293,2.5474 -7.46603,2.77046 -0.4831,0.22306 -2.36058,0.91475 -4.1722,1.53708 -1.81161,0.62234 -3.6891,1.30995 -4.17219,1.52803 -0.4831,0.21807 -5.52267,2.09782 -11.19905,4.17721 -5.67639,2.07939 -10.71596,3.96098 -11.19906,4.1813 -0.48309,0.22033 -2.26177,0.88506 -3.9526,1.47719 -1.69084,0.59213 -5.44582,2.00273 -8.34439,3.13467 -5.31894,2.07712 -6.95349,2.71109 -14.93207,5.79145 l -4.39179,1.69558 0.0966,2.48239 c 0.24312,6.24796 5.84051,14.98176 15.57162,24.29691 7.3257,7.01256 15.85182,14.50292 22.99574,20.20221 0.90832,0.72464 2.19572,1.81161 2.86087,2.41548 1.84079,1.67117 3.17076,2.8034 5.97715,5.08844 1.4104,1.14838 3.54525,2.99306 4.74409,4.09929 1.19885,1.10623 3.37278,3.0913 4.83097,4.41128 3.29284,2.98075 6.6328,6.4059 9.84558,10.0967 1.35717,1.5591 3.14927,3.43658 3.98244,4.17219 0.83317,0.73561 1.80567,1.67145 2.16111,2.07964 0.59793,0.68668 0.73982,0.63744 1.89808,-0.65877 0.68851,-0.77051 2.16065,-2.76449 3.27143,-4.43106 z"
     style="opacity:1;fill:#ffffff;fill-opacity:1;fill-rule:evenodd;stroke:#000000;stroke-width:0.08783571;stroke-linejoin:round;stroke-miterlimit:4;stroke-dasharray:none;stroke-dashoffset:0;stroke-opacity:0.16190479" />
  <path
     id="path307"
     d="m 764.56561,571.06943 c -0.0777,-2.38678 0.0256,-22.42277 0.22947,-44.52443 0.20392,-22.10166 0.3382,-42.85285 0.2984,-46.11375 -0.0743,-6.08651 0.50566,-13.89782 1.32058,-17.78673 0.25308,-1.20774 0.71946,-4.81804 1.0364,-8.02289 0.31694,-3.20485 0.70268,-5.95343 0.85721,-6.10795 0.15452,-0.15452 2.80251,0.92006 5.88442,2.38796 3.08192,1.46789 6.14883,2.80554 6.81537,2.97255 0.66654,0.16701 1.33974,0.51053 1.49601,0.76336 0.18734,0.30313 -0.0759,0.34738 -0.77271,0.12993 -0.58126,-0.18138 -2.63787,-0.46915 -4.57026,-0.63949 -2.34338,-0.20656 -4.0498,-0.62239 -5.12406,-1.24864 -2.00146,-1.16677 -2.12238,-0.94451 -2.12238,3.90106 0,1.92851 -0.18374,3.84969 -0.40831,4.2693 -0.22457,0.41961 -0.7194,2.85803 -1.09962,5.41873 -0.59136,3.98257 -0.70374,11.50464 -0.77722,52.01942 -0.0806,44.45358 0.0858,52.55709 1.09999,53.5713 0.10198,0.10197 2.43606,-0.97615 5.18686,-2.39583 2.7508,-1.41967 8.95406,-4.61397 13.78503,-7.09843 4.83096,-2.48447 8.9812,-4.65949 9.22274,-4.83339 0.24155,-0.17389 3.74632,-2.02639 7.78839,-4.11666 4.04206,-2.09027 8.03681,-4.1867 8.87721,-4.65873 2.69579,-1.51413 21.82036,-11.8177 30.32651,-16.33873 2.65703,-1.41222 5.1274,-2.75508 5.48973,-2.98413 0.36232,-0.22906 1.74573,-0.98537 3.07425,-1.6807 4.65657,-2.43719 11.25235,-5.9732 17.12796,-9.18232 3.2609,-1.78102 6.22535,-3.39507 6.58768,-3.58677 0.36232,-0.1917 0.83673,-0.73729 1.05424,-1.21242 0.21752,-0.47513 1.57865,-1.5193 3.02474,-2.32037 l 2.62926,-1.45651 -5.44132,-2.91384 c -2.99273,-1.60262 -6.98511,-4.06735 -8.87195,-5.47719 -5.7475,-4.2945 -12.18362,-7.82595 -25.68404,-14.09269 -3.30958,-1.53626 -7.75838,-3.60492 -9.88622,-4.59702 -2.12785,-0.9921 -3.97337,-1.80382 -4.10116,-1.80382 -0.1278,0 -1.5133,-0.59289 -3.0789,-1.31753 -1.56559,-0.72465 -2.9395,-1.31754 -3.05311,-1.31754 -0.26203,0 -15.24167,-7.49907 -17.29928,-8.66032 -3.22761,-1.82156 -6.93575,-4.31048 -10.3207,-6.9273 -1.93239,-1.49387 -4.35737,-3.27102 -5.38886,-3.94922 -1.03149,-0.6782 -1.79426,-1.31427 -1.69504,-1.41349 0.44798,-0.44798 49.72006,24.68181 70.98437,36.2035 20.17717,10.93265 26.82792,14.75678 26.61758,15.30491 -0.11964,0.31176 0.0184,0.67242 0.30678,0.80145 0.35264,0.1578 0.25102,0.41873 -0.31034,0.79694 -0.45905,0.30928 -3.22588,2.18093 -6.1485,4.15922 -16.32512,11.05028 -20.86281,13.6299 -48.13376,27.3634 -21.92073,11.03916 -30.92304,15.78643 -37.76935,19.91724 -2.05316,1.2388 -4.72117,2.66139 -5.92891,3.16131 -1.20775,0.49992 -4.28576,2.22576 -6.84003,3.83519 -6.54446,4.12363 -9.98069,5.64612 -13.35437,5.91692 l -2.7995,0.22472 z"
     style="opacity:1;fill:#ffffff;fill-opacity:1;fill-rule:evenodd;stroke:#000000;stroke-width:0.08783571;stroke-linejoin:round;stroke-miterlimit:4;stroke-dasharray:none;stroke-dashoffset:0;stroke-opacity:0.16190479" />
  <path
     id="path313"
     d="m 755.20158,776.47202 c -0.72465,-0.1903 -5.51233,-1.85473 -10.6393,-3.69873 -5.12697,-1.84401 -20.64095,-6.90151 -34.47552,-11.2389 -37.19485,-11.66125 -54.04305,-17.60034 -67.02985,-23.62842 l -3.66758,-1.70237 17.02249,-17.76216 c 18.03504,-18.81871 77.13414,-78.14921 77.84443,-78.14921 0.47288,0 3.26047,9.72565 5.54717,19.35363 2.27284,9.56958 5.04984,23.64164 9.45435,47.90859 2.17694,11.99398 4.84815,26.12455 5.93601,31.40127 1.08787,5.27671 1.97946,10.28572 1.98131,11.13114 0.002,0.84542 0.91343,5.09447 2.02573,9.44234 2.50966,9.81008 2.79183,14.04785 1.05131,15.78885 -1.2392,1.23954 -3.10304,1.6654 -5.05055,1.15397 z m -2.67384,-5.24187 c 0.12796,-0.20704 0.46042,-3.17376 0.7388,-6.5927 1.15765,-14.21798 -1.49228,-32.75133 -9.92975,-69.4479 -2.86772,-12.47236 -4.16148,-18.15613 -4.5985,-20.20221 -0.18057,-0.84542 -0.87117,-3.90869 -1.53465,-6.80727 -0.66349,-2.89858 -1.94888,-9.02512 -2.85643,-13.61454 l -1.65009,-8.34439 -24.32657,24.37441 c -26.67833,26.73079 -45.91963,46.31532 -61.73958,62.84089 l -1.92865,2.01467 5.62246,2.09708 c 10.19836,3.80382 26.07244,9.28806 38.78043,13.39803 6.88412,2.22643 15.8763,5.13465 19.98262,6.46271 4.10632,1.32805 15.37125,5.04465 25.03318,8.2591 9.66192,3.21446 17.7037,5.86564 17.8706,5.89152 0.16691,0.0259 0.40816,-0.12235 0.53613,-0.3294 z"
     style="opacity:1;fill:#ffffff;fill-opacity:1;fill-rule:evenodd;stroke:#000000;stroke-width:0.08783571;stroke-linejoin:round;stroke-miterlimit:4;stroke-dasharray:none;stroke-dashoffset:0;stroke-opacity:0.16190479" />
  <path
     id="path317"
     d="m 511.36351,869.52835 c -3.14215,-0.44036 -5.46002,-3.38271 -7.38826,-9.37878 -1.2208,-3.79623 -9.6047,-21.61035 -17.48826,-37.15907 -23.80873,-46.95794 -26.26203,-52.07511 -31.47764,-65.65719 -1.39135,-3.62323 -2.66247,-7.03235 -2.82472,-7.57583 l -0.29501,-0.98815 19.24366,0.004 c 17.41757,0.004 36.45276,0.61142 54.37793,1.73615 3.62322,0.22734 16.76564,1.05175 29.20537,1.83202 12.43973,0.78027 22.67159,1.45305 22.73746,1.49506 0.22922,0.14622 -2.55862,7.65756 -4.9969,13.46327 -4.90392,11.67657 -11.29983,23.55614 -27.02791,50.20088 -11.30533,19.15221 -15.57427,26.97535 -18.69285,34.25593 -3.38057,7.89223 -8.45442,15.10506 -12.11058,17.21602 -1.04032,0.60065 -1.89835,0.74679 -3.26229,0.55564 z m 2.90793,-9.20077 c 7.22658,-6.03507 15.65276,-19.41645 30.56295,-48.53614 9.37806,-18.31541 11.83296,-22.9519 15.81221,-29.86414 2.22489,-3.86477 4.66646,-8.00429 5.42571,-9.19893 1.65597,-2.6056 1.67089,-2.89498 0.30098,-5.83741 -3.0421,-6.53409 -10.0629,-10.75817 -21.14233,-12.72032 -4.61838,-0.81791 -17.59944,-0.94469 -53.97567,-0.52718 -13.50485,0.155 -15.97134,0.0767 -20.31348,-0.6447 -5.72166,-0.95062 -5.62877,-0.98468 -7.45448,2.73303 -1.06507,2.16882 -1.21505,2.97565 -1.19574,6.43248 0.0183,3.27069 0.28143,4.74818 1.52526,8.56398 1.92455,5.90408 7.06818,16.04939 14.47302,28.54661 9.51616,16.06052 13.57296,23.88506 15.32067,29.54969 0.50558,1.63866 4.50847,10.08871 8.8953,18.77788 7.03371,13.93195 8.05964,15.7341 8.68345,15.25343 0.38906,-0.29978 1.77603,-1.43751 3.08215,-2.52828 z"
     style="opacity:1;fill:#ffffff;fill-opacity:1;fill-rule:evenodd;stroke:#000000;stroke-width:0.08783571;stroke-linejoin:round;stroke-miterlimit:4;stroke-dasharray:none;stroke-dashoffset:0;stroke-opacity:0.16190479" />
  <path
     id="path319"
     d="m 232.59742,743.34727 c -0.73848,-0.53999 -0.66917,-0.94098 1.23183,-7.1272 5.33852,-17.37245 15.5444,-46.88414 25.65626,-74.1885 2.14691,-5.79716 6.65514,-17.99428 10.0183,-27.10472 5.22735,-14.16034 6.22669,-16.53028 6.88555,-16.32912 0.45505,0.13894 0.87578,-0.0384 1.02721,-0.43306 0.36263,-0.945 1.71224,-0.0571 2.92643,1.92535 0.5178,0.84542 3.23407,3.90869 6.03614,6.80727 8.70709,9.00695 13.82272,15.85056 29.7101,39.74565 13.59084,20.44104 16.65913,24.66347 24.8304,34.17035 8.07608,9.39613 12.42171,15.91955 13.8074,20.72697 0.38293,1.32851 0.96684,3.05451 1.29757,3.83555 0.53971,1.27455 0.5185,1.49957 -0.2069,2.19589 -0.44453,0.4267 -1.04963,1.23919 -1.34466,1.80553 -0.29504,0.56634 -1.65584,1.55449 -3.02402,2.19589 -2.39192,1.12134 -2.74937,1.16267 -9.29485,1.07474 -7.96183,-0.10697 -12.53957,0.35057 -49.18799,4.91632 -26.86068,3.34636 -44.4423,5.24549 -52.92101,5.7164 -2.65703,0.14757 -5.24368,0.35169 -5.74811,0.45359 -0.50443,0.10191 -1.26927,-0.0722 -1.69965,-0.3869 z m 17.32927,-4.90269 c 6.40103,-0.60721 12.52757,-1.19638 13.61454,-1.30926 1.08696,-0.11289 4.05142,-0.41123 6.58768,-0.66299 12.38563,-1.22946 31.52561,-3.43921 44.13744,-5.09577 11.89731,-1.56271 31.90574,-4.48507 32.11063,-4.68995 0.41752,-0.41753 -0.97528,-7.58802 -2.08724,-10.74568 -4.45313,-12.64553 -13.21926,-25.69898 -38.53851,-57.38677 -12.16021,-15.21886 -19.56396,-24.93802 -24.57648,-32.26237 l -3.11939,-4.5581 -0.48256,1.26427 c -3.20837,8.40566 -10.63064,28.7927 -16.20954,44.52334 -1.49914,4.22709 -3.09218,8.67378 -3.54009,9.88152 -0.4479,1.20774 -1.53717,4.27101 -2.4206,6.80726 -0.88343,2.53626 -2.69158,7.67465 -4.01812,11.41865 -1.32654,3.74399 -2.96578,8.38831 -3.64276,10.32069 -2.14065,6.11034 -6.14765,17.29453 -9.05784,25.28195 -1.54598,4.24315 -2.81087,7.94378 -2.81087,8.22362 0,0.3126 0.46572,0.42875 1.20774,0.30121 0.66426,-0.11418 6.44495,-0.70441 12.84597,-1.31162 z"
     style="opacity:1;fill:#ffffff;fill-opacity:1;fill-rule:evenodd;stroke:#000000;stroke-width:0.08783571;stroke-linejoin:round;stroke-miterlimit:4;stroke-dasharray:none;stroke-dashoffset:0;stroke-opacity:0.16190479" />
  <path
     id="path343"
     d="m 290.82602,327.60905 c -0.54514,-0.34559 -1.24523,-2.9423 -1.61057,-5.9738 -0.82941,-6.88209 -4.76614,-55.53108 -6.14765,-75.97101 -1.3299,-19.67614 -2.22608,-52.35413 -1.4358,-52.35413 0.88486,0 26.36199,13.6282 35.7302,19.11276 4.48868,2.62787 8.16624,4.54411 8.17235,4.25833 0.006,-0.28579 0.25094,-0.15979 0.54408,0.28 0.29314,0.4398 16.20255,10.18775 35.35426,21.66213 19.1517,11.47437 35.02397,21.07125 35.2717,21.3264 0.24773,0.25514 0.64583,1.29714 0.88466,2.31554 0.35299,1.50523 0.043,2.08275 -1.65694,3.08693 -1.15014,0.6794 -4.6495,3.41421 -7.77636,6.07734 -6.6237,5.64137 -16.07625,11.89784 -27.81123,18.40773 -4.58843,2.5454 -8.58244,4.96439 -8.87557,5.37555 -0.29314,0.41114 -0.53797,0.50916 -0.54408,0.21783 -0.006,-0.29134 -1.39852,0.22908 -3.09425,1.15651 -1.69572,0.92742 -6.34763,3.41321 -10.33757,5.52396 -10.67471,5.64715 -24.30235,13.82735 -24.30235,14.58789 0,0.36406 -0.24484,0.59481 -0.54408,0.51278 -0.84138,-0.23066 -5.17693,2.19365 -9.97485,5.57764 -7.24091,5.10703 -9.76968,6.13588 -11.84595,4.81962 z m 34.69742,-21.49651 c 26.47256,-15.10108 43.88775,-25.37501 60.82614,-35.88381 9.37743,-5.81788 9.64018,-6.04843 8.3426,-7.32029 -3.58985,-3.51869 -60.78666,-38.51402 -61.77787,-37.79822 -0.18532,0.13383 -0.53667,-0.0576 -0.78077,-0.42537 -0.44546,-0.67115 -13.01426,-8.03622 -26.5598,-15.56353 -3.98993,-2.21722 -10.51893,-5.84357 -14.50886,-8.05855 -3.98994,-2.21498 -7.36543,-3.71637 -7.50108,-3.33641 -0.62737,1.75722 7.31516,121.186 8.32769,125.22023 l 0.40653,1.61976 3.73609,-1.88153 c 2.05485,-1.03485 15.32505,-8.49237 29.48933,-16.57228 z"
     style="opacity:1;fill:#808080;fill-opacity:1;fill-rule:evenodd;stroke:#000000;stroke-width:0.14508869;stroke-linejoin:round;stroke-miterlimit:4;stroke-dasharray:none;stroke-dashoffset:0;stroke-opacity:0.16190479" />
  <path
     id="path345"
     d="m 597.11005,266.16534 c -3.24252,-0.54373 -21.85015,-2.63523 -41.35028,-4.64778 -54.21942,-5.59583 -69.91334,-7.6303 -69.91334,-9.06314 0,-1.43985 15.71354,-29.59885 19.74643,-35.38603 0.76463,-1.09724 1.12316,-1.99997 0.79675,-2.00608 -0.32641,-0.006 -0.2513,-0.25095 0.16691,-0.54408 1.22233,-0.85675 4.11095,-5.24729 3.46031,-5.25947 -0.32642,-0.006 -0.22585,-0.25095 0.22348,-0.54408 0.92073,-0.60067 6.24299,-8.73416 25.27069,-38.61876 14.11687,-22.17173 19.59284,-29.70479 21.61025,-29.72835 0.69824,-0.008 1.26953,0.24952 1.26953,0.57261 0,0.3231 1.48873,2.33154 3.30829,4.46321 4.49721,5.26862 5.88207,8.22642 11.85963,25.32989 2.83641,8.11575 5.38966,15.1282 5.67389,15.58323 0.28424,0.45504 0.60446,1.38979 0.7116,2.07724 0.10714,0.68744 1.69979,4.60484 3.53923,8.70532 1.83944,4.10048 4.26367,9.77144 5.38717,12.60214 1.1235,2.83069 5.86056,12.75966 10.52679,22.06437 9.585,19.11297 11.22532,23.29938 11.22532,28.64918 0,6.16985 -3.1127,7.49451 -13.51265,5.75058 z m 10.72654,-4.60084 c -0.57278,-4.05926 -22.23386,-55.88395 -39.2922,-94.00763 -4.46322,-9.97485 -8.78039,-19.68672 -9.59372,-21.58194 -0.81333,-1.89522 -1.77641,-3.44586 -2.14019,-3.44586 -0.6596,0 -13.74861,19.69828 -13.82993,20.81332 -0.0236,0.32299 -0.42967,0.91371 -0.90247,1.31271 -0.47281,0.39899 -4.46871,6.43831 -8.87978,13.4207 -9.11659,14.43087 -36.43977,57.89692 -41.39937,65.85863 -1.97157,3.16498 -3.02513,5.54279 -2.62709,5.92918 0.65934,0.64003 20.32774,4.33821 30.77044,5.78566 2.99245,0.41478 16.21366,1.60262 29.38045,2.63965 13.1668,1.03703 29.48928,2.6374 36.27218,3.55638 6.78289,0.91898 14.61768,1.6257 17.41064,1.57048 4.93016,-0.0974 5.07091,-0.15138 4.83104,-1.85128 z"
     style="opacity:1;fill:#808080;fill-opacity:1;fill-rule:evenodd;stroke:#000000;stroke-width:0.14508869;stroke-linejoin:round;stroke-miterlimit:4;stroke-dasharray:none;stroke-dashoffset:0;stroke-opacity:0.16190479" />
  <path
     id="path347"
     d="m 752.44689,369.65053 c -1.59597,-0.74874 -3.79951,-2.22381 -4.89674,-3.27792 -1.09723,-1.05411 -1.99497,-1.80076 -1.99497,-1.65921 0,0.14154 -2.69321,-2.38705 -5.98491,-5.61909 -3.2917,-3.23205 -15.77839,-15.02859 -27.74821,-26.21454 -11.96982,-11.18595 -22.74159,-21.37567 -23.93728,-22.64384 -1.19568,-1.26817 -2.50148,-2.34048 -2.90177,-2.38292 -0.85975,-0.0911 -19.37245,-19.49035 -19.75861,-20.70477 -0.73981,-2.32658 21.76429,-11.85586 58.6885,-24.85143 28.39599,-9.99404 35.37449,-12.67205 45.40971,-17.42605 8.92762,-4.22929 9.53207,-4.40682 15.00406,-4.40682 h 5.70168 l -0.47492,8.31537 c -0.39029,6.83352 -1.05677,10.29172 -3.73993,19.40561 -3.73644,12.69157 -8.80927,30.40435 -11.59055,40.4707 -1.04729,3.79044 -3.20505,13.58393 -4.79504,21.7633 -5.4495,28.03393 -6.31656,31.17205 -10.40006,37.64073 -2.13302,3.37892 -2.55319,3.48049 -6.58096,1.59088 z m 0.87166,-8.94435 c 3.67824,-5.14127 7.50553,-13.4597 10.76339,-23.39364 3.89997,-11.89188 5.76899,-19.55909 12.02561,-49.33206 4.22323,-20.09681 7.36927,-33.68715 9.78213,-42.25708 0.26189,-0.93022 0.13964,-1.63225 -0.28427,-1.63225 -0.91668,0 -50.20844,18.0464 -79.22417,29.00508 -11.77032,4.44542 -23.27767,8.78031 -25.57188,9.6331 -3.51129,1.30518 -4.1713,1.82997 -4.1713,3.31667 0,2.47858 1.5496,7.37531 2.33397,7.37531 0.35938,0 0.47752,0.28462 0.26252,0.6325 -0.77261,1.2501 6.80261,10.75841 14.54129,18.25204 4.33951,4.20208 14.25578,12.98608 22.03616,19.51998 7.78038,6.5339 18.55322,16.39134 23.93963,21.90541 5.38642,5.51407 10.14621,10.0329 10.57732,10.04183 0.4311,0.009 1.77642,-1.37116 2.9896,-3.06689 z"
     style="opacity:1;fill:#808080;fill-opacity:1;fill-rule:evenodd;stroke:#000000;stroke-width:0.14508869;stroke-linejoin:round;stroke-miterlimit:4;stroke-dasharray:none;stroke-dashoffset:0;stroke-opacity:0.16190479" />
  <path
     id="path349"
     d="m 251.32545,530.45994 c -1.79462,-1.29673 -5.96978,-4.31638 -9.27813,-6.71035 -3.30834,-2.39396 -17.36223,-12.02422 -31.23085,-21.40058 C 173.062,476.82381 155.196,464.0196 154.53305,462.0118 c -0.55158,-1.67053 32.47849,-21.47343 67.6147,-40.53782 7.18189,-3.89679 15.50635,-8.41508 18.49881,-10.04065 18.32733,-9.95583 29.47362,-15.68823 30.1059,-15.4831 1.92898,0.62583 0.87356,22.81172 -2.87012,60.33312 -4.08714,40.96369 -4.71998,47.99118 -5.39677,59.92945 -0.3531,6.22861 -1.00212,11.99763 -1.44227,12.82005 -2.37613,4.43983 -5.01252,4.82699 -9.71785,1.42709 z m 2.5746,-5.44082 c 0.2006,-0.69824 1.22795,-4.19674 2.283,-7.77445 4.21418,-14.29041 6.19572,-29.96474 8.74163,-69.14781 1.72242,-26.5093 2.83481,-40.18237 3.72309,-45.76308 l 0.38887,-2.44309 -6.39652,3.46891 c -3.51809,1.9079 -6.63637,3.82342 -6.9295,4.2567 -0.29314,0.43328 -0.53798,0.51633 -0.54409,0.18454 -0.006,-0.33179 -1.07207,0.0363 -2.3688,0.81804 -2.39617,1.44449 -3.55753,2.08899 -20.84367,11.56727 -5.37936,2.94959 -10.02627,5.74913 -10.32646,6.22118 -0.30019,0.47206 -0.5508,0.63001 -0.55691,0.35101 -0.006,-0.279 -2.27685,0.77664 -5.04608,2.34586 -2.76924,1.56923 -6.27857,3.5482 -7.79852,4.39771 -10.4985,5.86771 -26.77875,15.50021 -27.147,16.062 -0.24411,0.3724 -0.57056,0.57798 -0.72544,0.45683 -0.4106,-0.32114 -13.59134,7.30975 -14.12917,8.17998 -0.74593,1.20695 1.20979,7.00086 3.02385,8.95826 0.92751,1.0008 1.4747,1.81963 1.21599,1.81963 -0.25872,0 0.65461,1.17237 2.02961,2.60527 3.04369,3.17185 12.31357,10.15977 13.14438,9.90863 0.33,-0.0997 0.59999,0.10171 0.59999,0.44768 0,0.34598 1.3058,1.49318 2.90177,2.54935 1.59598,1.05616 2.90178,1.72913 2.90178,1.49547 0,-0.23366 0.47139,0.0466 1.04753,0.6227 0.57614,0.57614 5.71772,3.90711 11.42573,7.40216 19.12266,11.7089 25.57416,15.89703 31.77879,20.62987 7.40706,5.65004 16.02242,11.6489 16.72976,11.6489 0.28141,0 0.67579,-0.57128 0.87639,-1.26952 z"
     style="opacity:1;fill:#808080;fill-opacity:1;fill-rule:evenodd;stroke:#000000;stroke-width:0.14508869;stroke-linejoin:round;stroke-miterlimit:4;stroke-dasharray:none;stroke-dashoffset:0;stroke-opacity:0.16190479" />
  <path
     id="path351"
     d="M 501.08075,677.46431 C 443.83281,672.36561 393.58309,640.96697 361.66726,590.35152 342.27607,559.59896 332.5132,524.54047 333.7266,490.01647 c 0.8689,-24.7223 4.8549,-44.15365 13.31868,-64.92718 2.86767,-7.03843 9.78044,-21.21595 11.31892,-23.21419 0.3072,-0.399 2.91502,-4.31639 5.79516,-8.70532 2.88015,-4.38894 5.40469,-8.14311 5.6101,-8.3426 0.20541,-0.1995 2.81243,-3.30077 5.79338,-6.89172 11.56555,-13.93219 27.78348,-28.3971 43.18008,-38.51268 33.93351,-22.29434 70.72988,-31.93421 111.71829,-29.26783 36.94926,2.40363 71.05893,15.59176 100.11119,38.7069 35.15972,27.97449 59.97664,67.96263 68.46741,110.32328 4.40253,21.96439 3.98657,50.84439 -1.071,74.35795 -4.14105,19.25251 -14.03979,42.56515 -25.24617,59.45756 -3.03344,4.57259 -5.51535,8.40589 -5.51535,8.51845 0,0.25696 -1.12689,1.60881 -9.41366,11.29297 -24.33794,28.442 -56.86705,49.30467 -91.9516,58.97351 -15.49939,4.27144 -23.08483,5.25686 -43.3607,5.63303 -9.97485,0.18505 -19.60511,0.20562 -21.40058,0.0457 z m 36.99761,-3.97556 c 22.88615,-2.10665 46.42252,-9.31625 66.95895,-20.51067 3.43753,-1.8738 6.67179,-3.80533 7.18725,-4.29228 0.51546,-0.48696 1.8284,-1.34511 2.91765,-1.907 9.38035,-4.83887 35.7459,-29.16719 45.30931,-41.80832 10.49902,-13.87784 20.96141,-32.13238 26.59342,-46.3996 3.16997,-8.03028 7.20362,-22.03673 9.285,-32.24124 2.17648,-10.67076 2.77717,-43.83182 1.03593,-57.1891 -1.38343,-10.6125 -5.77549,-28.29211 -9.51345,-38.29498 -2.49728,-6.68282 -10.79441,-24.1549 -11.86272,-24.98052 -0.25814,-0.1995 -0.87118,-1.27676 -1.36232,-2.3939 -3.32616,-7.56567 -17.01557,-25.17632 -28.75595,-36.99292 -29.39125,-29.58204 -65.96816,-47.61458 -105.61674,-52.06939 -4.18943,-0.47072 -15.45194,-0.87541 -25.0278,-0.89931 -14.78154,-0.0369 -18.83473,0.19897 -26.8414,1.56198 -35.97117,6.12356 -67.31821,21.89481 -94.46911,47.52909 -7.48679,7.06859 -19.78823,20.77304 -19.78823,22.04512 0,0.4988 -0.27647,0.90691 -0.61436,0.90691 -0.59505,0 -9.74411,12.97472 -11.79353,16.72495 -19.37768,35.45925 -25.36151,59.75245 -24.36422,98.91407 0.44101,17.31782 1.45291,24.6261 5.51954,39.86418 11.7035,43.85415 43.04927,84.76048 83.67465,109.19564 32.57777,19.59473 68.89533,27.16162 111.52813,23.23729 z"
     style="opacity:1;fill:#808080;fill-opacity:1;fill-rule:evenodd;stroke:#000000;stroke-width:0.14508869;stroke-linejoin:round;stroke-miterlimit:4;stroke-dasharray:none;stroke-dashoffset:0;stroke-opacity:0.16190479" />
  <path
     id="path353"
     d="m 764.62052,522.95663 c 0.34604,-42.9432 0.64606,-54.45879 1.59527,-61.23245 1.99712,-14.25153 1.71874,-13.24273 3.52905,-12.78837 2.1001,0.52709 13.01805,5.57258 12.69427,5.86637 -0.46117,0.41846 -9.38158,-1.04135 -10.71101,-1.75284 -1.19388,-0.63895 -1.35908,-0.2507 -1.77279,4.16648 -0.25093,2.67909 -0.75981,6.66655 -1.13085,8.86102 -0.89516,5.29433 -0.97173,103.0382 -0.0818,104.44543 0.58119,0.91904 1.16729,0.83387 4.1602,-0.60454 16.75348,-8.05189 102.38644,-54.23613 104.575,-56.40023 0.93805,-0.92756 2.32546,-1.88324 3.08313,-2.12371 2.1021,-0.66718 1.70607,-1.24427 -2.43173,-3.54356 -2.09432,-1.16376 -6.90911,-4.14762 -10.69955,-6.63079 -7.67418,-5.02747 -21.12899,-11.92479 -36.99762,-18.96602 -15.78165,-7.00264 -27.24479,-13.13674 -35.04394,-18.75254 -3.85064,-2.77266 -7.00805,-5.28094 -7.01647,-5.57396 -0.015,-0.52145 29.3486,13.86187 38.02993,18.6284 2.41626,1.32667 9.77962,5.18764 16.36302,8.57995 6.5834,3.3923 12.94916,6.71582 14.14615,7.3856 1.19698,0.66977 7.64805,4.22829 14.33572,7.90782 12.00298,6.60399 15.04473,8.57891 15.04473,9.76808 0,0.5992 -12.96224,9.33124 -22.85146,15.39393 -2.79296,1.71225 -17.48319,9.45836 -32.64496,17.21357 -15.16176,7.75522 -28.08223,14.5569 -28.71213,15.11486 -0.62991,0.55795 -1.38375,1.01447 -1.67519,1.01447 -0.29145,0 -4.67281,2.32952 -9.73637,5.1767 -17.08658,9.60763 -19.4717,10.77604 -22.97895,11.25676 l -3.49782,0.47943 z"
     style="opacity:1;fill:#808080;fill-opacity:1;fill-rule:evenodd;stroke:#000000;stroke-width:0.14508869;stroke-linejoin:round;stroke-miterlimit:4;stroke-dasharray:none;stroke-dashoffset:0;stroke-opacity:0.16190479" />
  <path
     id="path355"
     d="m 741.20252,771.84778 c -7.38139,-2.54203 -25.74681,-8.57073 -40.81207,-13.39711 -40.01704,-12.82007 -61.08358,-20.79549 -60.303,-22.82965 0.19588,-0.51045 4.39702,-4.95772 9.33587,-9.88281 4.93885,-4.9251 8.94657,-9.13278 8.90604,-9.35041 -0.0933,-0.50117 75.83246,-76.23262 76.12996,-75.93512 0.6341,0.63411 4.16435,13.75391 6.36175,23.64284 2.37659,10.69526 4.33892,20.90226 12.76669,66.40545 1.99527,10.77283 4.43221,23.17792 5.41544,27.56685 2.68862,12.00156 2.9149,14.51096 1.50283,16.66605 -1.77077,2.70253 -4.07667,2.35777 -19.30351,-2.88609 z m 11.83794,-5.13449 c 0.74749,-5.40609 0.12469,-18.94866 -1.32081,-28.72046 -1.55538,-10.51465 -4.81818,-26.63777 -10.17769,-50.29302 -2.53118,-11.17183 -5.49175,-24.71949 -6.57904,-30.10591 -1.08731,-5.38641 -2.18435,-10.03784 -2.43788,-10.33649 -0.42689,-0.50287 -30.39311,29.36996 -71.05887,70.8374 l -16.98549,17.32035 10.81922,3.87479 c 5.95057,2.13114 27.30493,9.29927 47.45412,15.92918 20.14919,6.6299 39.24649,12.98306 42.43844,14.11812 3.19195,1.13506 6.13,1.97489 6.52899,1.8663 0.39899,-0.1086 0.99254,-2.12922 1.31901,-4.49026 z"
     style="opacity:1;fill:#808080;fill-opacity:1;fill-rule:evenodd;stroke:#000000;stroke-width:0.14508869;stroke-linejoin:round;stroke-miterlimit:4;stroke-dasharray:none;stroke-dashoffset:0;stroke-opacity:0.16190479" />
  <path
     id="path357"
     d="m 232.26472,742.99286 c -0.44304,-1.15455 8.2272,-28.0622 17.11696,-53.12158 7.15605,-20.17224 22.83299,-62.72042 24.8001,-67.30897 2.58166,-6.0221 3.02033,-5.88115 11.74863,3.77517 9.86334,10.91204 14.00615,16.33685 25.05453,32.80762 4.91432,7.32622 9.4015,13.69873 9.97151,14.16114 0.57001,0.4624 1.00094,1.1153 0.95762,1.45088 -0.13489,1.04501 11.94553,17.62989 18.93887,26.00067 7.91592,9.47505 12.11932,15.85281 14.30546,21.70548 l 1.60425,4.29483 -2.34809,2.42261 c -3.06473,3.162 -5.81722,3.84905 -15.47042,3.86157 -4.38893,0.006 -11.89727,0.47571 -16.6852,1.04448 -4.78792,0.56878 -19.47815,2.34573 -32.64495,3.94879 -22.478,2.7367 -38.22832,4.43591 -51.32417,5.53707 -4.55469,0.38298 -5.69787,0.27298 -6.0251,-0.57976 z m 27.65005,-5.60262 c 35.83906,-3.59519 84.03868,-9.71582 85.98519,-10.91883 0.58015,-0.35855 0.39648,-2.14156 -0.64473,-6.259 -3.60223,-14.24487 -10.15608,-24.34328 -42.36657,-65.27994 -8.20524,-10.42813 -17.11542,-22.11109 -19.80038,-25.96212 -2.68497,-3.85104 -4.97014,-6.90257 -5.07815,-6.78117 -0.34282,0.38529 -14.42565,39.22959 -23.09308,63.69702 -4.59358,12.9673 -10.66298,30.03732 -13.48756,37.93339 -2.82458,7.89606 -5.13559,14.66989 -5.13559,15.05295 0,0.92732 -1.06754,0.99432 23.62087,-1.4823 z"
     style="opacity:1;fill:#808080;fill-opacity:1;fill-rule:evenodd;stroke:#000000;stroke-width:0.14508869;stroke-linejoin:round;stroke-miterlimit:4;stroke-dasharray:none;stroke-dashoffset:0;stroke-opacity:0.16190479" />
  <path
     id="path359"
     d="m 507.65162,867.29189 c -1.09511,-1.17232 -2.7207,-4.13245 -3.61241,-6.57806 -2.53586,-6.95482 -12.36826,-27.48304 -28.61472,-59.74219 -12.34555,-24.51347 -24.23403,-50.91134 -23.33797,-51.821 0.55244,-0.56082 47.85772,-0.10286 60.4453,0.58517 41.80217,2.28489 63.56464,3.76884 64.25471,4.38143 0.34231,0.30388 0.193,1.80675 -0.33179,3.33971 -0.52479,1.53296 -1.00328,2.95042 -1.06331,3.14992 -1.9835,6.59181 -13.88722,29.49224 -26.67897,51.32512 -2.62989,4.48868 -4.54779,8.16624 -4.262,8.17235 0.28579,0.006 0.13617,0.255 -0.33248,0.55308 -1.40037,0.89071 -11.00805,17.95316 -16.02187,28.45355 -2.57196,5.38642 -4.71573,9.95671 -4.76395,10.15621 -0.149,0.61662 -2.88593,3.83246 -6.01484,7.06734 -3.76171,3.8891 -6.65898,4.17607 -9.6657,0.95737 z m 7.69124,-8.19855 c 4.73652,-4.47961 9.97547,-11.78136 16.01075,-22.31491 5.05807,-8.82799 20.46894,-38.15787 20.7086,-39.4125 0.0893,-0.46728 0.3467,-1.01283 0.57209,-1.21233 0.22538,-0.1995 2.00047,-3.30077 3.94465,-6.89171 1.94418,-3.59095 5.10527,-9.14059 7.02462,-12.33254 1.91937,-3.19195 3.49038,-6.50117 3.49114,-7.35381 0.003,-3.01739 -4.46414,-8.37827 -9.06665,-10.88137 -8.94743,-4.86609 -9.29164,-4.90192 -47.87927,-4.98392 -19.15171,-0.0407 -37.00761,-0.33726 -39.67979,-0.65904 l -4.8585,-0.58505 -1.48641,2.43811 c -1.95617,3.20862 -2.01149,10.49407 -0.12141,15.98771 1.94037,5.63977 8.2727,18.05177 15.50226,30.38598 6.32632,10.7932 12.96655,23.5433 13.95487,26.79515 1.43812,4.73179 16.55434,34.82128 17.49335,34.82128 0.20386,0 2.17922,-1.71047 4.3897,-3.80105 z"
     style="opacity:1;fill:#808080;fill-opacity:1;fill-rule:evenodd;stroke:#000000;stroke-width:0.14508869;stroke-linejoin:round;stroke-miterlimit:4;stroke-dasharray:none;stroke-dashoffset:0;stroke-opacity:0.16190479" />
  <path
     id="path361"
     d="m 489.61874,671.8056 c -27.22528,-4.57559 -47.86235,-12.64767 -69.94457,-27.35841 -37.69577,-25.1122 -65.2892,-63.54474 -76.81333,-106.98672 -7.34154,-27.67508 -5.98112,-70.96025 3.07845,-97.94823 20.1121,-59.91289 68.71489,-105.05867 130.62147,-121.33064 11.73614,-3.08482 15.92197,-3.41522 41.35027,-3.264 25.27406,0.15032 29.76271,0.5574 42.07572,3.81591 39.57975,10.47439 70.05885,29.70215 96.02953,60.5803 26.29358,31.26205 39.75183,65.49345 41.35573,105.18929 1.71759,42.50977 -7.15505,74.16944 -30.7115,109.58586 -10.13424,15.23654 -34.95408,40.46361 -49.55498,50.36808 -16.976,11.51559 -40.2517,21.13685 -62.43734,25.80916 -15.31203,3.22471 -50.1203,4.04845 -65.04945,1.5394 z"
     style="opacity:1;fill:#ff9955;fill-opacity:1;fill-rule:evenodd;stroke:#000000;stroke-width:0.29017738;stroke-linejoin:round;stroke-miterlimit:4;stroke-dasharray:none;stroke-dashoffset:0;stroke-opacity:0.16190479" />
  <path
     id="path363"
     d="m 507.36177,854.66928 c -2.01416,-3.60372 -7.22254,-14.26132 -11.5742,-23.68354 -4.35165,-9.42223 -11.30472,-23.00741 -15.45128,-30.1893 -11.91251,-20.63263 -16.36434,-30.80256 -16.46738,-37.61866 -0.0514,-3.39789 0.42321,-7.01388 1.05463,-8.03553 0.91288,-1.47708 9.50296,-1.65261 41.93935,-0.85699 39.1019,0.95911 41.09625,1.14605 48.15371,4.51368 4.08009,1.9469 8.2631,5.19611 9.38273,7.28817 1.78201,3.32971 1.70771,4.31598 -0.62979,8.36053 -1.45758,2.52202 -8.85542,16.33768 -16.43964,30.70146 -16.98175,32.16177 -24.82359,44.99962 -31.30561,51.25039 l -5.00041,4.822 z"
     style="opacity:1;fill:#ff9955;fill-opacity:1;fill-rule:evenodd;stroke:#000000;stroke-width:0.29017738;stroke-linejoin:round;stroke-miterlimit:4;stroke-dasharray:none;stroke-dashoffset:0;stroke-opacity:0.16190479" />
  <path
     id="path365"
     d="m 237.88987,737.64908 c 0,-0.78603 7.90654,-23.46178 17.57008,-50.39056 9.66354,-26.92878 18.6023,-52.06268 19.86391,-55.85312 1.26161,-3.79045 2.65888,-6.88363 3.10506,-6.87376 0.44617,0.01 2.18751,2.1318 3.86963,4.71539 1.68213,2.58358 12.22608,16.49205 23.431,30.90771 11.20492,14.41566 23.68929,31.29098 27.74304,37.5007 7.03981,10.78391 13.27809,25.95788 11.43107,27.80491 -1.18764,1.18764 -23.03325,4.19032 -62.0363,8.52689 -17.95472,1.9963 -35.41977,3.95844 -38.81122,4.36032 -3.57559,0.42369 -6.16627,0.13023 -6.16627,-0.69848 z"
     style="opacity:1;fill:#ff9955;fill-opacity:1;fill-rule:evenodd;stroke:#000000;stroke-width:0.29017738;stroke-linejoin:round;stroke-miterlimit:4;stroke-dasharray:none;stroke-dashoffset:0;stroke-opacity:0.16190479" />
  <path
     id="path367"
     d="m 242.03942,517.58667 c -5.07521,-3.7487 -16.40954,-11.34497 -25.18741,-16.88061 -38.60105,-24.34319 -45.43308,-29.58384 -48.63047,-37.303 -0.99864,-2.41094 -1.5646,-4.61909 -1.25769,-4.907 1.06816,-1.00207 71.75268,-41.14424 86.52098,-49.1358 13.16684,-7.12497 14.79012,-7.68609 14.17613,-4.90025 -0.38136,1.73035 -1.71958,17.83632 -2.97383,35.79104 -1.25425,17.95473 -2.92198,38.52105 -3.70605,45.70294 -1.6516,15.12812 -6.83361,38.4485 -8.54361,38.4485 -0.64372,0 -5.32284,-3.06712 -10.39805,-6.81582 z"
     style="opacity:1;fill:#ff9955;fill-opacity:1;fill-rule:evenodd;stroke:#000000;stroke-width:0.29017738;stroke-linejoin:round;stroke-miterlimit:4;stroke-dasharray:none;stroke-dashoffset:0;stroke-opacity:0.16190479" />
  <path
     id="path369"
     d="m 292.34369,319.46472 c -0.69769,-3.09803 -8.04176,-109.90855 -8.03069,-116.79639 0.003,-1.79547 0.51996,-3.26449 1.14906,-3.26449 2.98481,0 95.67793,54.47454 106.66559,62.68597 2.36451,1.76708 0.24156,3.38932 -21.7633,16.63029 -24.35919,14.65763 -75.48967,44.00912 -76.66417,44.00912 -0.34173,0 -0.95215,-1.46902 -1.35649,-3.2645 z"
     style="opacity:1;fill:#ff9955;fill-opacity:1;fill-rule:evenodd;stroke:#000000;stroke-width:0.29017738;stroke-linejoin:round;stroke-miterlimit:4;stroke-dasharray:none;stroke-dashoffset:0;stroke-opacity:0.16190479" />
  <path
     id="path371"
     d="m 590.45538,261.65726 c -5.18692,-0.6702 -23.473,-2.49558 -40.63573,-4.05641 -39.84192,-3.62334 -59.92069,-7.06478 -58.76655,-10.07241 0.45657,-1.18981 5.81137,-10.05621 11.89955,-19.70312 41.76405,-66.17641 53.20767,-83.60424 54.2125,-82.56184 3.21436,3.33455 49.24998,111.77482 49.24998,116.01193 0,2.16561 -1.81787,2.2091 -15.95975,0.38185 z"
     style="opacity:1;fill:#ff9955;fill-opacity:1;fill-rule:evenodd;stroke:#000000;stroke-width:0.29017738;stroke-linejoin:round;stroke-miterlimit:4;stroke-dasharray:none;stroke-dashoffset:0;stroke-opacity:0.16190479" />
  <path
     id="path373"
     d="m 742.03199,354.50997 c -3.96735,-4.08132 -16.02751,-15.09279 -26.80034,-24.46993 -10.77284,-9.37715 -22.59913,-20.28459 -26.28066,-24.23876 -7.14496,-7.6741 -12.21326,-16.70298 -11.05577,-19.6952 0.68681,-1.77545 105.09623,-41.24807 106.11079,-40.11583 0.67147,0.74935 -10.93937,53.89824 -16.60581,76.01353 -4.27585,16.68799 -13.53138,38.63389 -16.66289,39.50956 -0.82057,0.22946 -4.73796,-2.92206 -8.70532,-7.00337 z"
     style="opacity:1;fill:#ff9955;fill-opacity:1;fill-rule:evenodd;stroke:#000000;stroke-width:0.29017738;stroke-linejoin:round;stroke-miterlimit:4;stroke-dasharray:none;stroke-dashoffset:0;stroke-opacity:0.16190479" />
  <path
     id="path375"
     d="m 697.44992,752.52442 c -27.73468,-9.33224 -50.25969,-17.44914 -50.0556,-18.03755 0.53653,-1.54679 84.14343,-85.44539 84.64675,-84.94207 0.64642,0.64642 15.08326,67.10288 17.25577,79.43274 4.33498,24.60273 4.48007,40.69668 0.36573,40.56971 -0.98229,-0.0303 -24.47798,-7.69058 -52.21265,-17.02283 z"
     style="opacity:1;fill:#ff9955;fill-opacity:1;fill-rule:evenodd;stroke:#000000;stroke-width:0.29017738;stroke-linejoin:round;stroke-miterlimit:4;stroke-dasharray:none;stroke-dashoffset:0;stroke-opacity:0.16190479" />
  <path
     id="path381"
     d="m 791.8215,460.35799 c 0,0 0.19465,-0.46056 0.19465,-0.46056 -3.35042,-1.41601 -5.18711,-2.53443 -8.11698,-4.35357 -0.9712,-0.60301 -1.99848,-1.22846 -3.12511,-1.77433 -1.0637,-0.51539 -2.2613,-0.98448 -3.75296,-1.36929 -0.0234,-0.006 -0.0469,-0.012 -0.0703,-0.018 0,0 -0.0216,0.006 -0.0216,0.006 -0.2387,0.0648 -0.49709,0.14075 -0.73579,0.20554 -0.13732,0.0827 -0.26018,0.14723 -0.33167,0.14723 0.0715,0 0.19435,0.0645 0.33167,0.14723 0.2387,0.0648 0.49709,0.14075 0.73579,0.20554 l -0.0919,-0.0122 c 1.43309,0.40432 2.57183,0.88566 3.5776,1.40582 1.06926,0.553 2.05091,1.18523 3.0058,1.80829 2.85284,1.86147 4.83695,3.09906 8.20615,4.52302 0,0 0.19465,-0.46056 0.19465,-0.46056 z"
     style="fill:#999999;fill-rule:nonzero;stroke:none;stroke-width:1px;stroke-linecap:butt;stroke-linejoin:miter;stroke-opacity:1" />
  <path
     id="path387"
     d="m 769.03671,570.35589 c -1.13024,-1.74633 -0.91322,-99.29518 0.23624,-106.18678 0.21628,-1.29673 0.61263,-4.28097 0.88077,-6.63163 0.26814,-2.35067 0.57698,-4.3634 0.68631,-4.47273 0.10934,-0.10934 0.53107,-0.021 0.93718,0.19638 0.40612,0.21735 2.63178,0.71887 4.94593,1.11449 4.57133,0.78151 4.55537,0.7754 8.22317,3.14809 1.37692,0.89073 3.43611,2.03952 4.57596,2.55287 1.13985,0.51335 3.13342,1.70229 4.43015,2.64209 9.14728,6.62944 16.72245,10.74503 35.93361,19.52274 20.8093,9.50791 27.20333,12.81907 39.33115,20.36771 4.38893,2.73177 8.91842,5.52161 10.06553,6.19964 1.84877,1.09276 2.70719,2.15145 1.74446,2.15145 -0.18765,0 -1.64768,0.89476 -3.24452,1.98837 -3.41212,2.3368 -11.55875,6.94683 -31.23558,17.67565 -27.77926,15.14667 -66.50534,35.68999 -73.14187,38.80013 -3.16891,1.48507 -3.9082,1.64272 -4.36849,0.93153 z"
     style="opacity:1;fill:#ff9955;fill-opacity:1;fill-rule:evenodd;stroke:#000000;stroke-width:0.07254434;stroke-linejoin:round;stroke-miterlimit:4;stroke-dasharray:none;stroke-dashoffset:0;stroke-opacity:0.16190479" />
</svg>
