<?xml version="1.0" encoding="UTF-8" standalone="no"?>
<svg
   xmlns:dc="http://purl.org/dc/elements/1.1/"
   xmlns:cc="http://creativecommons.org/ns#"
   xmlns:rdf="http://www.w3.org/1999/02/22-rdf-syntax-ns#"
   xmlns:svg="http://www.w3.org/2000/svg"
   xmlns="http://www.w3.org/2000/svg"
   viewBox="0 0 869.10638 730.21277"
   height="730.21277"
   width="869.10638"
   id="svg1312"
   version="1.1">
  <metadata
     id="metadata1318">
    <rdf:RDF>
      <cc:Work
         rdf:about="">
        <dc:format>image/svg+xml</dc:format>
        <dc:type
           rdf:resource="http://purl.org/dc/dcmitype/StillImage" />
        <dc:title></dc:title>
      </cc:Work>
    </rdf:RDF>
  </metadata>
  <defs
     id="defs1316" />
  <g
     transform="translate(1.7719568e-6,-1.2185413e-6)"
     id="g1322">
    <path
       id="path1336"
       d="m 488.96668,727.90982 c -1.56563,-1.29219 -4.28681,-5.8584 -6.23531,-10.46301 -1.90152,-4.49361 -8.38089,-18.28085 -14.3986,-30.6383 l -10.94127,-22.46808 -14.86002,-7.30085 -14.86002,-7.30085 -6.147,3.60265 c -22.58936,13.23927 -51.582,22.60006 -83.48191,26.95364 -12.45249,1.69946 -50.69883,1.73751 -63.31915,0.063 -35.55116,-4.71708 -65.99814,-15.08209 -90.02583,-30.64735 l -9.55666,-6.19083 -11.23003,4.48269 C 137.00951,658.74075 107.12207,659.70046 80.518984,650.6803 49.833708,640.27603 24.276879,617.80944 10.165522,588.83377 2.9752819,574.06963 0.01033882,559.00644 -0.0098521,537.13849 -0.03213985,512.99955 2.9969421,498.32752 11.399592,481.87432 30.528476,444.41811 65.133906,421.04239 108.76596,416.10404 l 6.12766,-0.69354 4.32201,-8.92273 c 9.85702,-20.34973 32.0325,-37.08472 57.22921,-43.18874 5.17127,-1.25277 9.40797,-2.53285 9.4149,-2.84463 0.007,-0.31178 -5.84697,-4.54266 -13.00868,-9.40197 -21.19231,-14.37923 -35.18843,-24.67655 -36.76239,-27.04707 -1.35235,-2.03674 -1.24198,-2.43614 1.33243,-4.82203 5.0864,-4.71391 39.05478,-24.56648 79.08954,-46.22329 35.54695,-19.22913 37.19007,-19.86514 38.44132,-14.87975 0.7017,2.79578 -1.38247,41.24471 -2.37607,43.83399 -1.05249,2.74274 1.0263,1.31076 9.03713,-6.22525 19.02053,-17.89315 47.42546,-32.22278 72.3439,-36.49581 l 7.0522,-1.20932 5.62955,-8.22599 c 21.8063,-31.8637 57.8693,-59.18777 95.02845,-72.00079 21.03458,-7.25303 31.11541,-8.74333 58.75841,-8.68653 22.03012,0.0452 25.05632,0.27376 36.86967,2.78373 56.90157,12.08981 104.40155,49.66461 130.68698,103.37972 18.84765,38.51578 23.19853,81.26412 12.61244,123.91994 -5.89742,23.76322 -20.13658,52.18222 -35.77697,71.40491 l -2.70523,3.32485 8.06849,8.41983 c 13.00972,13.57622 21.75982,28.35674 26.95502,45.53195 l 2.26713,7.49507 17.55611,-17.45252 c 11.61887,-11.55031 18.28635,-17.45254 19.71537,-17.45254 1.74023,0 2.47825,1.09734 3.80313,5.65478 2.87731,9.89761 6.37882,26.52801 13.75387,65.32395 3.95081,20.78298 8.21108,42.98565 9.46727,49.33927 2.07012,10.47036 2.14032,11.80914 0.74973,14.29787 -0.95469,1.70861 -2.56795,2.86646 -4.27074,3.06515 -1.51349,0.17661 -19.69891,-5.22164 -40.69042,-12.07875 l -37.95393,-12.39807 -3.08341,3.90853 c -6.47067,8.20222 -22.19879,22.59733 -31.4503,28.7848 -24.1628,16.16023 -52.53514,25.88922 -84.20353,28.87372 l -12.26761,1.15614 -7.30994,12.88737 c -4.02047,7.08805 -9.47451,17.25333 -12.12008,22.5895 -5.51398,11.12177 -8.68236,15.29709 -12.98095,17.10638 -4.25751,1.79201 -5.96873,1.60008 -9.15095,-1.02635 z M 745.87863,380.68085 c 0.64658,-58.67106 1.44424,-70.40989 4.93336,-72.60215 1.33825,-0.84085 4.41777,0.27984 14.29788,5.20324 6.92574,3.4512 16.0834,7.84823 20.35035,9.77119 8.85482,3.99051 44.26278,22.46648 66.46456,34.68135 15.58272,8.57323 18.37079,11.11244 16.13409,14.69397 -2.35438,3.76997 -22.02831,15.48843 -54.61206,32.52884 -17.97447,9.40015 -36.12766,19.04 -40.34043,21.42188 -14.09641,7.97009 -20.29282,10.72722 -24.10844,10.72722 h -3.74115 z M 734.80083,231.4326 c -3.40687,-1.48466 -7.40961,-5.05832 -42.88594,-38.28873 -33.64917,-31.51893 -45.62845,-43.804 -45.24369,-46.39858 0.53066,-3.57838 15.66138,-10.33274 53.4139,-23.844 29.23774,-10.46389 40.15737,-14.63201 50.91709,-19.43549 8.91509,-3.979992 10.7834,-4.459357 16.34042,-4.192565 l 6.27441,0.301234 0.32169,3.908981 c 0.5606,6.81203 -1.72159,17.68314 -9.13162,43.49824 -3.96317,13.80688 -9.44219,35.7928 -12.17561,48.85761 -5.04981,24.13638 -7.23869,31.02322 -11.0817,34.86624 -2.48523,2.48523 -2.66901,2.50503 -6.74895,0.72706 z M 271.2416,187.65958 c -2.20118,-3.40298 -7.89201,-72.37388 -9.3758,-113.631363 -0.87411,-24.305056 -1.14423,-23.867852 10.98509,-17.779943 14.9125,7.48483 41.2581,22.614251 74.89379,43.009062 39.14884,23.737684 37.9143,22.172964 25.28922,32.052744 -13.52524,10.58419 -24.41918,17.43365 -44.18284,27.7795 -9.15546,4.79268 -17.04483,9.30671 -35.03828,20.04768 -1.79278,1.07017 -6.44304,3.94251 -10.33393,6.38298 -8.02629,5.0343 -10.12713,5.40157 -12.23725,2.13934 z m 310.37542,-59.51662 c -0.5617,-0.20716 -12.05106,-1.55801 -25.53192,-3.00191 -83.96519,-8.99325 -87.93692,-9.53951 -88.97208,-12.23708 -1.38266,-3.60316 20.43137,-40.076448 58.36375,-97.584821 6.40092,-9.7042817 9.23024,-13.1136348 11.79709,-14.2156322 2.49248,-1.07005992 3.48096,-1.1369183 3.77483,-0.25531911 0.21897,0.65689551 0.93429,1.19524391 1.5896,1.19632971 1.11616,0.00185 6.3987,7.1857284 8.6348,11.7427066 0.55126,1.123404 3.6361,9.395745 6.8552,18.382979 7.82393,21.843143 11.98596,31.610711 24.8049,58.212766 8.8825,18.433111 10.90275,23.493681 11.24939,28.178931 0.38849,5.25063 0.19673,5.88848 -2.37946,7.91489 -2.50748,1.9724 -7.2516,2.74839 -10.1861,1.66616 z"
       style="fill:#e5e5e5;stroke-width:1.02127659" />
    <path
       id="path1334"
       d="m 489.7996,727.9149 c -1.4133,-1.26383 -4.374,-6.43404 -6.57932,-11.48936 -7.74611,-17.75653 -24.35823,-51.08162 -26.28953,-52.73867 -1.07362,-0.92115 -4.47969,-2.74681 -7.56905,-4.05704 -3.08936,-1.31021 -8.78279,-4.11825 -12.65207,-6.24006 -3.86928,-2.12181 -7.70942,-3.85785 -8.53365,-3.85785 -0.82422,0 -5.01164,1.9631 -9.30537,4.36243 -46.60676,26.0439 -110.65797,34.11511 -169.21478,21.32307 -22.97977,-5.02005 -49.09424,-15.74886 -66.55135,-27.3418 l -8.38489,-5.56824 -4.89171,2.4494 c -22.771,11.40196 -54.47752,14.48575 -80.502436,7.8297 C 56.859971,644.28321 27.907834,621.28589 12.404469,591.48647 3.6877397,574.73181 0.0261207,558.40774 0.00848331,536.22322 -0.01259645,509.70887 5.5922388,490.13452 18.861415,470.38117 39.084082,440.27641 68.339767,422.33462 105.26179,417.39395 l 9.63183,-1.28887 3.57446,-7.16287 C 130.00373,385.82595 152.44175,369.09473 180,363.06007 c 4.35319,-0.95326 7.90663,-2.03173 7.89654,-2.39663 -0.0102,-0.36489 -2.42286,-2.2187 -5.3617,-4.11958 -11.0687,-7.15937 -40.19655,-27.74697 -43.37853,-30.65999 -1.8443,-1.68843 -3.07139,-3.65828 -2.76928,-4.44556 1.13428,-2.95588 28.68915,-19.40842 73.48531,-43.87684 31.91238,-17.43107 40.69387,-21.69584 42.91685,-20.8428 1.67802,0.64391 1.77029,1.86388 1.15149,15.22471 -0.36998,7.98859 -0.97582,18.88765 -1.34631,24.22013 l -0.67361,9.69543 9.10345,-8.52644 c 19.41813,-18.18735 44.37477,-31.34604 69.01395,-36.38844 4.12157,-0.84349 8.43505,-1.75026 9.58553,-2.01507 1.19043,-0.274 4.58937,-4.15834 7.88808,-9.01456 6.99936,-10.3042 23.58024,-28.03176 35.53684,-37.99446 37.10856,-30.92027 82.242,-45.67283 129.48231,-42.32325 56.52402,4.00781 104.99716,31.73376 139.29043,79.67214 8.43182,11.7868 21.02074,36.83249 25.1762,50.08814 11.34923,36.20324 10.9294,78.87878 -1.11344,113.18087 -6.67463,19.0116 -19.98114,43.24785 -30.78397,56.06939 -2.05614,2.44039 -3.73844,4.75395 -3.73844,5.14127 0,0.38732 2.58389,3.21619 5.74198,6.28636 12.93819,12.578 25.44048,33.15895 29.51129,48.58071 1.02266,3.87419 1.99468,7.21899 2.16006,7.43291 0.16539,0.21392 8.43974,-7.50225 18.38746,-17.14702 10.64721,-10.32299 18.74873,-17.41 19.69616,-17.22971 2.26599,0.43117 6.07343,15.60212 12.88713,51.3495 3.10488,16.28936 7.69714,40.06808 10.20504,52.84159 2.5079,12.77351 4.55982,24.51564 4.55982,26.09361 0,3.65318 -1.68094,5.32012 -5.36481,5.32012 -1.60256,0 -19.76479,-5.53738 -40.3605,-12.3053 l -37.44677,-12.3053 -3.50421,4.39041 c -7.04223,8.82318 -21.85064,22.33298 -31.5778,28.80861 -23.81107,15.85167 -51.6442,25.47433 -81.91613,28.32061 -9.00487,0.84667 -13.26296,1.67941 -14.45289,2.82648 -2.30895,2.22581 -12.82453,20.76942 -19.34389,34.11184 -3.7421,7.65851 -6.70015,12.2148 -9.76314,15.03817 -5.02475,4.63165 -7.34705,5.00234 -10.9809,1.75278 z M 343.91205,674.09713 c 29.83312,-4.41537 58.22783,-14.32886 79.47343,-27.74667 3.45513,-2.18211 6.81823,-3.96748 7.47356,-3.96748 0.65533,0 1.63843,1.17549 2.18467,2.61221 0.7581,1.99393 3.7132,3.90912 12.48536,8.0917 37.38003,17.82283 79.64863,22.41222 121.19914,13.15943 31.55288,-7.02645 56.99856,-20.41936 77.24821,-40.6583 15.50896,-15.50077 23.9662,-29.79744 29.22796,-49.40885 2.98084,-11.11005 2.97236,-32.17218 -0.0175,-43.3201 -4.92766,-18.37354 -12.71187,-32.21756 -26.07517,-46.37402 -24.38283,-25.83006 -57.07659,-41.52529 -97.68992,-46.89782 -15.2686,-2.0198 -42.58139,-1.49407 -56.14528,1.08072 -15.91513,3.02112 -15.22679,2.97381 -15.94729,1.09622 -1.02866,-2.68064 0.44586,-3.4241 10.59714,-5.34313 6.48638,-1.2262 9.58283,-2.27494 9.91307,-3.35744 1.88274,-6.17145 3.60664,-21.76931 3.60319,-32.60163 -0.007,-22.05699 -4.58542,-42.0261 -13.92337,-60.72817 -19.64821,-39.35146 -54.51695,-65.97385 -98.73117,-75.38153 -13.8253,-2.94168 -39.64962,-3.17612 -53.26175,-0.48352 -34.05162,6.7357 -63.36738,23.89576 -83.56556,48.91531 -8.89704,11.0208 -11.52523,15.09265 -17.4974,27.10875 -4.01922,8.08677 -9.27414,21.64981 -8.54872,22.06446 0.16392,0.0937 3.74484,1.24136 7.95761,2.55037 9.57769,2.97604 13.27659,4.84055 13.27659,6.69236 0,2.40796 -1.60873,2.65218 -6.27423,0.95248 -33.67286,-12.26745 -67.78492,-8.51193 -94.45204,10.39858 -12.66114,8.97842 -23.55281,23.75059 -27.60941,37.44613 -0.87392,2.95048 -2.09794,5.68291 -2.72004,6.07205 -1.52031,0.95101 -3.75279,-1.02495 -3.75279,-3.32156 0,-2.00843 -0.21652,-2.0059 -14.135945,0.16456 -22.110125,3.44765 -46.71988,16.62465 -63.024289,33.74561 -8.73338,9.17076 -15.004449,18.39416 -20.827088,30.6322 -20.8272346,43.77473 -11.7601023,96.45307 22.450796,130.43491 14.733489,14.63485 33.356962,25.36864 52.785195,30.42318 13.879091,3.61085 34.833831,4.42756 48.954731,1.90801 9.83461,-1.75476 28.29268,-7.63307 30.31351,-9.6539 0.67687,-0.67687 -1.80187,-3.95585 -7.39288,-9.77956 -4.62614,-4.8187 -8.22709,-9.31414 -8.00211,-9.98986 0.99738,-2.99564 4.05657,-1.24138 11.96569,6.86158 26.88253,27.54144 69.47447,44.48693 123.08261,48.96926 10.94748,0.91535 42.26604,-0.42246 55.40141,-2.36654 z M 1.7290118,535.42369 c -0.258938,-0.99367 -0.4878254,-0.42794 -0.5086387,1.25716 -0.020814,1.68511 0.191045,2.49811 0.4707963,1.80667 0.2797512,-0.69143 0.2967803,-2.07016 0.037842,-3.06383 z M 747.47958,436.02647 c -1.14701,-0.70889 -1.33775,-9.20591 -1.0922,-48.65545 0.35641,-57.25883 1.58072,-77.35556 4.78756,-78.58614 1.52297,-0.58443 7.47,1.80731 13.76123,5.53441 2.52766,1.49746 8.20585,4.21232 12.61822,6.03301 8.76418,3.61642 59.80415,30.00309 77.75805,40.19941 12.25999,6.96265 14.13226,8.63639 12.53024,11.20163 -2.08379,3.33669 -23.05567,15.8679 -51.09345,30.52958 -15.85889,8.29302 -36.21612,19.06866 -45.2383,23.94585 -17.35626,9.38244 -21.78302,11.18725 -24.03135,9.7977 z M 732.52047,229.02128 c -5.10335,-3.47267 -61.47924,-56.16564 -75.07319,-70.16882 -5.47634,-5.64119 -9.9572,-10.79783 -9.95745,-11.45919 -10e-4,-3.58806 13.94298,-9.686 60.36458,-26.39771 16.50986,-5.94352 35.20788,-13.10216 41.55115,-15.90809 10.14502,-4.48761 12.23477,-5.06497 17.36171,-4.7967 l 5.82847,0.30498 -0.17972,8.68085 c -0.15443,7.45952 -1.32432,12.70404 -8.31528,37.27659 -4.47456,15.72766 -9.84206,37.09119 -11.92778,47.4745 -4.59787,22.88958 -6.8968,30.60794 -10.33289,34.69151 -3.21228,3.81759 -4.11052,3.84669 -9.3196,0.30208 z M 271.76933,187.09869 c -2.04068,-3.81304 -7.85503,-76.10316 -8.95067,-111.284228 -0.59195,-19.0075 -0.48162,-21.700622 0.91094,-22.234994 1.43226,-0.549615 15.31482,6.438561 35.8512,18.04671 3.84178,2.17156 7.15848,3.948291 7.37045,3.948291 0.21196,0 3.9623,2.247181 8.33409,4.993735 4.37178,2.746555 20.35721,12.46322 35.52317,21.592586 15.16596,9.12938 27.91211,17.10773 28.32479,17.72968 1.7347,2.61437 0.3866,4.75521 -6.62266,10.51708 -12.28399,10.09791 -23.66476,17.1246 -55.40426,34.20755 -6.74042,3.62786 -15.01276,8.32215 -18.38298,10.43176 -24.31427,15.21972 -25.07632,15.56045 -26.95407,12.05183 z m 303.02135,-60.5398 c -3.19278,-0.46838 -21.11619,-2.48498 -39.82978,-4.48131 -58.94324,-6.28797 -67.21622,-7.51223 -67.21622,-9.94688 0,-3.60598 18.36129,-34.630047 43.336,-73.222488 26.87416,-41.5275685 26.40771,-41.0008394 31.73536,-35.8370895 4.82983,4.6812626 7.80656,10.7226735 14.60992,29.6515305 7.83663,21.803711 12.42788,32.575627 25.00104,58.657066 8.49504,17.621881 10.40102,22.444101 10.74375,27.182201 0.37069,5.12475 0.15389,5.94396 -1.966,7.42879 -2.55722,1.79115 -7.02371,1.94575 -16.41407,0.56818 z"
       style="fill:#d0d0d0;stroke-width:1.02127659" />
    <path
       id="path1332"
       d="m 490.43189,728.17015 c -1.04665,-1.12345 -5.45292,-9.74047 -9.79172,-19.14894 -4.3388,-9.40847 -11.19823,-23.54036 -15.24317,-31.40418 l -7.35445,-14.29788 -15.17333,-7.60949 -15.17333,-7.60948 -4.74156,2.82524 c -20.53448,12.23538 -46.95139,21.47893 -75.20965,26.31661 -15.67176,2.68294 -51.40692,3.7239 -68.08489,1.98332 -36.14751,-3.7725 -70.13223,-14.92435 -94.80873,-31.11081 -4.77446,-3.1318 -9.43351,-5.70258 -10.35342,-5.71287 -0.91992,-0.0103 -4.59651,1.33856 -8.17022,2.99742 -25.61092,11.8882 -57.71175,13.20349 -86.487707,3.54373 C 45.405534,637.38364 15.880411,607.06735 5.1162399,572.21701 -1.7843694,549.87544 -1.5677923,520.20005 5.6528542,498.69012 17.126002,464.51221 44.377222,436.76621 78.638298,424.37953 c 8.519283,-3.08003 25.527592,-6.6774 31.570732,-6.6774 4.66458,0 4.95701,-0.31093 10.2633,-10.91255 10.62082,-21.21975 32.32767,-36.64915 60.72572,-43.1643 3.88872,-0.89217 7.20122,-2.07283 7.36112,-2.62369 0.15989,-0.55088 -7.14463,-6.05691 -16.23226,-12.23563 -23.21092,-15.78122 -35.47585,-24.95496 -35.47585,-26.5347 0,-2.32245 23.44008,-16.57007 63.53571,-38.61897 37.43647,-20.58662 50.74799,-27.45377 51.87141,-26.75946 1.35552,0.83777 1.28937,15.68641 -0.15068,33.82666 -0.64301,8.09985 -0.88892,15.00717 -0.54649,15.34961 0.34244,0.34243 4.11039,-2.63459 8.37322,-6.61561 23.27592,-21.73714 43.30102,-31.68997 79.33326,-39.43002 2.04439,-0.43916 4.4095,-3.00511 9.15166,-9.92886 12.50631,-18.2597 36.39388,-40.62536 57.09802,-53.46023 45.57913,-28.25532 101.38089,-34.57333 152.94969,-17.31733 58.27206,19.49905 105.79527,71.29403 121.13666,132.02541 6.01269,23.80218 6.37774,55.33997 0.94689,81.80381 -4.8322,23.54674 -21.50637,58.31592 -35.94637,74.95585 -2.34499,2.70224 -4.26362,5.16989 -4.26362,5.48367 0,0.31377 3.84147,4.60721 8.5366,9.54099 4.69512,4.93377 10.75215,12.30318 13.46007,16.37647 5.53883,8.33159 11.7734,22.15193 13.79479,30.57931 0.74101,3.08936 1.70093,6.03156 2.13317,6.53822 0.43222,0.50666 8.8939,-6.96142 18.80371,-16.59575 9.90982,-9.63431 18.64607,-17.51694 19.4139,-17.51694 0.76784,0 1.8573,1.7234 2.42105,3.82979 3.37488,12.60991 6.94475,29.55889 13.28282,63.06383 3.93148,20.78297 8.08295,42.31867 9.22549,47.8571 2.67283,12.95646 2.70142,17.60937 0.11672,18.99266 -2.34102,1.25288 -3.99093,0.78149 -46.56577,-13.30395 -16.85972,-5.57785 -31.62645,-10.14156 -32.81495,-10.14156 -1.30298,0 -3.30709,1.52053 -5.04784,3.82979 -23.35923,30.98837 -69.85898,54.03016 -115.23092,57.09981 -5.10044,0.34507 -10.03026,1.01463 -10.95516,1.4879 -2.28395,1.16869 -12.93404,19.1226 -20.25901,34.15259 -4.46845,9.16873 -7.18817,13.40842 -10.646,16.59574 -5.21447,4.80654 -6.83231,5.18466 -9.5772,2.23836 z M 327.31915,677.05701 c 22.03693,-1.8873 40.88689,-5.8463 60.74231,-12.75752 10.68487,-3.71917 29.23977,-12.54586 35.76833,-17.01524 5.46034,-3.73811 6.94846,-4.07798 7.68563,-1.75532 0.40299,1.26969 4.50182,3.95926 11.03101,7.2383 50.90394,25.56462 117.19928,25.30514 166.90549,-0.65325 58.07168,-30.32712 82.03683,-87.33223 58.02492,-138.02189 -7.31361,-15.43917 -17.32709,-28.26281 -30.42641,-38.96518 -40.66562,-33.22454 -97.8489,-45.55507 -154.75256,-33.36959 -2.59916,0.55659 -3.31915,0.37447 -3.31915,-0.83954 0,-1.95974 0.92437,-2.29654 10.57654,-3.85359 5.62059,-0.9067 8.17186,-1.79615 8.86456,-3.09048 0.53495,-0.99955 1.7223,-6.55059 2.63855,-12.33563 1.9983,-12.61669 1.45225,-38.13845 -1.05656,-49.38276 -6.13776,-27.50911 -18.67687,-50.4126 -38.31761,-69.98962 -20.609,-20.54212 -45.27135,-33.4788 -75.16806,-39.42952 -13.36295,-2.65981 -41.36345,-2.43432 -54.60125,0.43969 -28.38289,6.16211 -50.95953,18.37804 -71.05741,38.44825 -7.72045,7.70982 -13.61317,14.79438 -18.55718,22.31052 -7.08967,10.7781 -16.14076,30.06833 -16.78471,35.77258 -0.31322,2.7747 -0.0188,2.96987 8.77546,5.81688 9.1802,2.97196 14.48182,6.12842 10.26822,6.11346 -1.10334,-0.004 -5.30405,-1.12647 -9.3349,-2.49457 -4.03085,-1.3681 -10.2351,-3.04672 -13.78724,-3.73026 -9.28871,-1.78746 -30.35667,-1.48223 -40.06653,0.58046 -30.37713,6.45314 -54.88033,26.66441 -62.93859,51.91444 -2.08529,6.53415 -4.5337,8.78115 -4.57901,4.20232 -0.0171,-1.72545 -0.67567,-1.91634 -5.61702,-1.62811 -29.081393,1.69639 -59.662575,17.75393 -79.535788,41.76258 -13.730991,16.58829 -21.8842422,35.37292 -25.8374043,59.52792 -5.4515444,33.31056 9.2390233,74.40665 35.3190783,98.80327 17.512702,16.38227 36.4645,25.92114 60.500009,30.45102 12.123715,2.28491 36.218405,1.5759 47.392135,-1.39457 8.82271,-2.34548 24.19093,-8.099 24.96089,-9.34482 0.28572,-0.46232 -3.15258,-4.51265 -7.64067,-9.00075 -4.48811,-4.4881 -8.16019,-8.90525 -8.16019,-9.81589 0,-2.76077 1.51801,-1.89859 5.9854,3.39946 8.35519,9.90877 24.78377,22.04782 40.48269,29.91263 35.41048,17.73986 81.79329,25.9275 125.61702,22.17432 z M 747.0553,435.05003 c -1.00435,-1.62508 0.42343,-99.5479 1.62168,-111.22172 1.25266,-12.20367 1.81807,-14.3815 3.73376,-14.3815 0.85305,0 5.97345,2.24075 11.37865,4.97946 5.40519,2.7387 21.0872,10.54119 34.84891,17.33888 25.60218,12.64637 62.03251,32.06941 67.64202,36.06373 l 3.13193,2.23013 -2.96144,2.41071 c -6.72109,5.47115 -24.89798,16.08114 -49.42954,28.85239 -14.3234,7.45683 -34.31489,18.05368 -44.42553,23.54853 -18.53808,10.07495 -24.20829,12.33486 -25.54044,10.17939 z M 733.12374,228.50541 c -4.2713,-2.62723 -60.97925,-55.54225 -75.19223,-70.16296 -5.21,-5.35946 -9.34227,-10.42191 -9.18281,-11.24987 0.63531,-3.29895 15.78404,-9.74864 62.05981,-26.42245 15.44681,-5.5657 32.91064,-12.29326 38.80851,-14.95013 8.20852,-3.69776 12.04073,-4.86509 16.34042,-4.97746 l 5.61703,-0.14679 -0.0696,8.68085 c -0.0612,7.64494 -1.00632,11.95525 -7.91984,36.1201 -4.31768,15.0916 -9.94727,37.61075 -12.5102,50.04255 -4.53173,21.98168 -6.93749,29.78936 -10.33603,33.54471 -2.13238,2.35626 -3.10583,2.29508 -7.61514,-0.47855 z M 768,106.78368 c 0,-0.2477 -0.45958,-0.7344 -1.02128,-1.08155 -0.5617,-0.34715 -1.02128,-0.14449 -1.02128,0.45036 0,0.59485 0.45958,1.08155 1.02128,1.08155 0.5617,0 1.02128,-0.20266 1.02128,-0.45036 z m -495.72876,80.2734 c -1.84721,-2.98883 -7.65323,-77.51403 -8.46646,-108.674101 -0.54163,-20.753641 -0.42012,-24.255319 0.8417,-24.255319 4.0625,0 112.06413,62.96485 114.48585,66.74515 1.21054,1.88964 0.21645,3.23146 -2.19252,2.95945 -1.67851,-0.18952 -2.50733,0.51611 -3.3097,2.81776 -2.04601,5.86918 -17.236,15.84114 -55.92495,36.7137 -7.53451,4.06485 -16.03664,8.88873 -18.89362,10.71977 -21.52835,13.79745 -24.98641,15.48784 -26.5403,12.97359 z m 255.21812,-66.50662 c -59.48748,-6.75977 -58.7234,-6.64069 -58.7234,-9.15254 0,-2.7849 2.64241,-4.6926 3.47924,-2.51186 0.35966,0.93729 0.9384,1.4197 1.28607,1.07202 0.34768,-0.34767 0.10383,-1.2687 -0.54189,-2.04674 -1.55999,-1.87967 0.077,-5.70159 9.19507,-21.468204 8.37346,-14.479041 7.62823,-13.288914 29.73306,-47.482881 16.87644,-26.106175 25.62243,-38.4496167 27.24359,-38.4496167 1.52527,0 8.50023,9.1373008 10.52448,13.7872337 1.10038,2.52766 4.89988,12.638298 8.44335,22.468086 7.65688,21.240594 10.46053,27.766129 23.45075,54.582024 11.27555,23.276288 12.99638,28.689108 10.38686,32.671728 -1.53389,2.34104 -2.3357,2.60347 -7.56455,2.47595 -3.21684,-0.0785 -28.82752,-2.75379 -56.91263,-5.9452 z M 539.74468,5.106383 c 0.34715,-0.5617021 0.1716,-1.0212766 -0.3901,-1.0212766 -0.5617,0 -1.3053,0.4595745 -1.65245,1.0212766 -0.34716,0.5617021 -0.17161,1.0212766 0.39009,1.0212766 0.5617,0 1.30531,-0.4595745 1.65246,-1.0212766 z"
       style="fill:#d5ac91;stroke-width:1.02127659" />
    <path
       id="path1330"
       d="m 490.43189,728.17015 c -1.04665,-1.12345 -5.45292,-9.74047 -9.79172,-19.14894 -4.3388,-9.40847 -11.19823,-23.54036 -15.24317,-31.40418 l -7.35445,-14.29788 -15.17333,-7.60949 -15.17333,-7.60948 -4.74156,2.82524 c -20.53448,12.23538 -46.95139,21.47893 -75.20965,26.31661 -15.67176,2.68294 -51.40692,3.7239 -68.08489,1.98332 -36.14751,-3.7725 -70.13223,-14.92435 -94.80873,-31.11081 -4.77446,-3.1318 -9.43351,-5.70258 -10.35342,-5.71287 -0.91992,-0.0103 -4.59651,1.33856 -8.17022,2.99742 -25.61092,11.8882 -57.71175,13.20349 -86.487707,3.54373 C 45.405534,637.38364 15.880411,607.06735 5.1162399,572.21701 -1.7843694,549.87544 -1.5677923,520.20005 5.6528542,498.69012 17.126002,464.51221 44.377222,436.76621 78.638298,424.37953 c 8.519283,-3.08003 25.527592,-6.6774 31.570732,-6.6774 4.66458,0 4.95701,-0.31093 10.2633,-10.91255 10.62082,-21.21975 32.32767,-36.64915 60.72572,-43.1643 3.88872,-0.89217 7.20122,-2.07283 7.36112,-2.62369 0.15989,-0.55088 -7.14463,-6.05691 -16.23226,-12.23563 -23.21092,-15.78122 -35.47585,-24.95496 -35.47585,-26.5347 0,-2.32245 23.44008,-16.57007 63.53571,-38.61897 37.43647,-20.58662 50.74799,-27.45377 51.87141,-26.75946 1.35552,0.83777 1.28937,15.68641 -0.15068,33.82666 -0.64301,8.09985 -0.88892,15.00717 -0.54649,15.34961 0.34244,0.34243 4.11039,-2.63459 8.37322,-6.61561 23.27592,-21.73714 43.30102,-31.68997 79.33326,-39.43002 2.04439,-0.43916 4.4095,-3.00511 9.15166,-9.92886 12.50631,-18.2597 36.39388,-40.62536 57.09802,-53.46023 45.57913,-28.25532 101.38089,-34.57333 152.94969,-17.31733 58.27206,19.49905 105.79527,71.29403 121.13666,132.02541 6.01269,23.80218 6.37774,55.33997 0.94689,81.80381 -4.8322,23.54674 -21.50637,58.31592 -35.94637,74.95585 -2.34499,2.70224 -4.26362,5.16989 -4.26362,5.48367 0,0.31377 3.84147,4.60721 8.5366,9.54099 4.69512,4.93377 10.75215,12.30318 13.46007,16.37647 5.53883,8.33159 11.7734,22.15193 13.79479,30.57931 0.74101,3.08936 1.70093,6.03156 2.13317,6.53822 0.43222,0.50666 8.8939,-6.96142 18.80371,-16.59575 9.90982,-9.63431 18.64607,-17.51694 19.4139,-17.51694 0.76784,0 1.8573,1.7234 2.42105,3.82979 3.37488,12.60991 6.94475,29.55889 13.28282,63.06383 3.93148,20.78297 8.08295,42.31867 9.22549,47.8571 2.67283,12.95646 2.70142,17.60937 0.11672,18.99266 -2.34102,1.25288 -3.99093,0.78149 -46.56577,-13.30395 -16.85972,-5.57785 -31.62645,-10.14156 -32.81495,-10.14156 -1.30298,0 -3.30709,1.52053 -5.04784,3.82979 -23.35923,30.98837 -69.85898,54.03016 -115.23092,57.09981 -5.10044,0.34507 -10.03026,1.01463 -10.95516,1.4879 -2.28395,1.16869 -12.93404,19.1226 -20.25901,34.15259 -4.46845,9.16873 -7.18817,13.40842 -10.646,16.59574 -5.21447,4.80654 -6.83231,5.18466 -9.5772,2.23836 z m 9.20482,-11.38114 c 7.04226,-7.50095 26.48581,-39.85798 24.9024,-41.44138 -0.80535,-0.80536 -0.50855,-1.25686 -6.19137,9.41833 -9.84643,18.49653 -21.25439,34.21277 -24.83406,34.21277 -0.80343,0 -6.14048,-9.81341 -12.63588,-23.23405 -11.55831,-23.88147 -15.04379,-30.34465 -15.90168,-29.48675 -0.27117,0.27116 1.62763,4.54639 4.21954,9.50052 2.59192,4.95414 7.70981,15.43204 11.37311,23.28422 7.83339,16.79072 11.33056,22.99989 12.95415,22.99989 0.64982,0 3.40103,-2.36409 6.11379,-5.25355 z m -172.31756,-39.732 c 22.03693,-1.8873 40.88689,-5.8463 60.74231,-12.75752 10.68487,-3.71917 29.23977,-12.54586 35.76833,-17.01524 5.46034,-3.73811 6.94846,-4.07798 7.68563,-1.75532 0.40299,1.26969 4.50182,3.95926 11.03101,7.2383 50.90394,25.56462 117.19928,25.30514 166.90549,-0.65325 58.07168,-30.32712 82.03683,-87.33223 58.02492,-138.02189 -7.31361,-15.43917 -17.32709,-28.26281 -30.42641,-38.96518 -40.66562,-33.22454 -97.8489,-45.55507 -154.75256,-33.36959 -2.59916,0.55659 -3.31915,0.37447 -3.31915,-0.83954 0,-1.96117 0.92155,-2.29608 10.62527,-3.86146 4.70215,-0.75853 8.15527,-1.84018 8.46684,-2.65214 0.2894,-0.75414 0.95601,-1.10551 1.48138,-0.78083 0.55857,0.34522 0.6802,-0.50533 0.2929,-2.04841 -0.36426,-1.45133 -0.23249,-2.63877 0.29283,-2.63877 0.52531,0 0.74317,-1.444 0.48415,-3.2089 -0.30249,-2.06092 -0.0913,-2.97423 0.59036,-2.55296 0.70135,0.43345 0.86836,-0.78278 0.4924,-3.58574 -0.32364,-2.41297 -0.17168,-3.99588 0.35248,-3.67156 0.53286,0.32971 0.92139,-6.23788 0.92139,-15.57492 0,-9.3358 -0.3886,-15.90529 -0.92139,-15.57658 -0.52406,0.32331 -0.67606,-1.26075 -0.35248,-3.67323 0.37596,-2.80295 0.20895,-4.01919 -0.4924,-3.58574 -0.68164,0.42128 -0.89285,-0.49204 -0.59036,-2.55295 0.25902,-1.7649 0.0411,-3.20891 -0.48415,-3.20891 -0.52532,0 -0.65709,-1.18744 -0.29283,-2.63876 0.47896,-1.90831 0.32371,-2.42952 -0.5608,-1.88286 -0.85877,0.53076 -1.05154,0.1 -0.64718,-1.44634 0.31674,-1.21123 0.10576,-2.20225 -0.46888,-2.20225 -0.57463,0 -0.80425,-0.91978 -0.51027,-2.04396 0.33664,-1.28727 0.13213,-1.79528 -0.5524,-1.37222 -0.69638,0.43039 -0.87999,-0.11952 -0.511,-1.53051 0.31674,-1.21123 0.11017,-2.20225 -0.45903,-2.20225 -0.56921,0 -0.76124,-0.71323 -0.42672,-1.58496 0.34875,-0.90885 0.17754,-1.31879 -0.40138,-0.961 -0.9211,0.56926 -1.10551,0.0703 -1.41809,-3.83701 -0.0562,-0.70213 -0.70303,-1.91032 -1.43746,-2.68488 -0.73443,-0.77456 -1.08438,-2.06225 -0.77765,-2.86156 0.35349,-0.92117 0.12448,-1.18553 -0.62546,-0.72205 -0.79014,0.48834 -0.96651,0.16673 -0.53099,-0.96824 0.35867,-0.93469 0.17987,-1.69945 -0.39736,-1.69945 -0.57722,0 -0.78972,-0.42032 -0.47223,-0.93404 0.31751,-0.51373 0.14931,-1.0882 -0.37376,-1.2766 -0.52308,-0.18841 -1.10041,-0.99361 -1.28296,-1.78936 -0.18256,-0.79574 -0.92172,-2.17446 -1.6426,-3.06383 -0.72088,-0.88936 -4.13746,-5.98297 -7.5924,-11.31914 -7.611,-11.75523 -24.42216,-28.90747 -35.71007,-36.43459 -4.31594,-2.87801 -7.53296,-5.54695 -7.14893,-5.93099 0.38404,-0.38404 0.23868,-0.5689 -0.32302,-0.41081 -1.74314,0.49062 -5.67833,-1.23435 -5.06817,-2.22161 0.31818,-0.51483 -0.0992,-0.676 -0.92748,-0.35815 -0.8283,0.31785 -2.37451,-0.29061 -3.43603,-1.35212 -1.06151,-1.06152 -2.53974,-1.7268 -3.28495,-1.47839 -0.88845,0.29615 -1.07586,1e-4 -0.54433,-0.85993 0.51136,-0.8274 0.40358,-1.06002 -0.29196,-0.63015 -1.20087,0.74219 -6.36198,-1.25251 -6.36198,-2.45882 0,-0.40914 -0.57447,-0.72254 -1.27659,-0.69646 -3.20293,0.11895 -4.92439,-0.35078 -4.39929,-1.2004 0.31477,-0.50932 -0.41933,-0.66671 -1.63134,-0.34977 -1.41209,0.36928 -1.96236,0.18585 -1.53192,-0.51063 0.43045,-0.69648 -0.11982,-0.87991 -1.53191,-0.51064 -1.41209,0.36927 -1.96236,0.18584 -1.53192,-0.51064 0.43045,-0.69648 -0.11982,-0.8799 -1.53191,-0.51064 -1.54747,0.40467 -1.97857,0.21207 -1.44775,-0.64681 0.55147,-0.8923 10e-4,-1.03363 -2.03518,-0.52257 -1.76634,0.44332 -2.55903,0.32503 -2.15904,-0.32217 0.38709,-0.62633 -0.40432,-0.82458 -2.04201,-0.51151 -1.82344,0.34857 -2.44721,0.14409 -1.96087,-0.64279 0.50216,-0.81252 -0.25541,-0.96026 -2.56021,-0.49929 -2.25166,0.45033 -3.05731,0.30502 -2.58107,-0.46553 0.47801,-0.77346 -0.47036,-0.93153 -3.06382,-0.51066 -2.35071,0.38147 -3.52364,0.23335 -3.13477,-0.39586 0.39038,-0.63166 -1.54368,-0.85481 -5.20293,-0.60031 -3.20335,0.22278 -5.29369,0.029 -4.6452,-0.43061 0.64849,-0.45961 -4.01827,-0.83566 -10.37056,-0.83566 -6.3523,0 -11.01906,0.33764 -10.37057,0.75032 0.64849,0.41267 -1.34858,0.76456 -4.43795,0.78195 -11.83061,0.0667 -34.54285,6.5053 -49.53191,14.04174 -20.28312,10.19827 -41.21708,28.66644 -53.54098,47.2345 -3.54169,5.33617 -6.88523,9.98329 -7.43008,10.32694 -0.54484,0.34366 -0.90379,0.93784 -0.79765,1.32041 0.33517,1.20806 -2.26972,6.73562 -3.17421,6.73562 -0.47592,0 -0.57185,0.76476 -0.21318,1.69945 0.43552,1.13497 0.25915,1.45658 -0.53099,0.96824 -0.74993,-0.46348 -0.97895,-0.19912 -0.62546,0.72205 0.30673,0.79931 -0.0802,2.09111 -0.85972,2.87068 -0.77956,0.77957 -1.24505,1.93442 -1.03441,2.56634 0.21064,0.63191 -0.24894,1.78085 -1.02128,2.55319 -0.77234,0.77234 -1.21413,1.97461 -0.98176,2.67173 0.23237,0.69711 -0.0324,1.26747 -0.58829,1.26747 -0.55592,0 -0.75161,0.99102 -0.43487,2.20225 0.42336,1.61893 0.22857,1.98759 -0.73539,1.39183 -0.99847,-0.61709 -1.07258,-0.38387 -0.31064,0.97765 0.57607,1.02938 4.81685,3.01529 9.99467,4.68039 9.08069,2.92018 14.37117,6.07485 10.16266,6.05991 -1.10334,-0.004 -5.30405,-1.12647 -9.3349,-2.49457 -4.03085,-1.3681 -10.2351,-3.04672 -13.78724,-3.73026 -9.28871,-1.78746 -30.35667,-1.48223 -40.06653,0.58046 -30.37713,6.45314 -54.88033,26.66441 -62.93859,51.91444 -2.08529,6.53415 -4.5337,8.78115 -4.57901,4.20232 -0.0171,-1.72545 -0.67567,-1.91634 -5.61702,-1.62811 -29.081393,1.69639 -59.662575,17.75393 -79.535788,41.76258 -13.730991,16.58829 -21.8842422,35.37292 -25.8374043,59.52792 -5.4515444,33.31056 9.2390233,74.40665 35.3190783,98.80327 17.512702,16.38227 36.4645,25.92114 60.500009,30.45102 12.123715,2.28491 36.218405,1.5759 47.392135,-1.39457 8.82271,-2.34548 24.19093,-8.099 24.96089,-9.34482 0.28572,-0.46232 -3.15258,-4.51265 -7.64067,-9.00075 -4.48811,-4.4881 -8.16019,-8.90525 -8.16019,-9.81589 0,-2.76077 1.51801,-1.89859 5.9854,3.39946 8.35519,9.90877 24.78377,22.04782 40.48269,29.91263 35.41048,17.73986 81.79329,25.9275 125.61702,22.17432 z M 735.8066,625.1585 c 1.13105,-6.69457 -1.32403,-27.09793 -6.09942,-50.69041 -6.94606,-34.3165 -13.51649,-62.94123 -14.72465,-64.14939 -1.07984,-1.07983 -3.74093,1.29015 -27.39239,24.39579 -4.64266,4.53552 -8.44121,8.89626 -8.44121,9.69051 0,0.79427 7.47316,-6.01874 16.60702,-15.14001 9.13386,-9.12127 17.10463,-16.58414 17.71282,-16.58414 1.18659,0 4.72643,14.78941 12.75161,53.27614 5.81926,27.90771 8.0324,42.32168 8.05878,52.48611 0.0325,12.53447 2.37361,12.54836 -36.04674,-0.21394 -18.36144,-6.09922 -33.23799,-10.65012 -33.05899,-10.11311 0.17901,0.53701 15.19232,5.91434 33.36293,11.94964 24.2829,8.06547 33.50932,10.72074 34.81812,10.02029 0.98435,-0.52681 2.08092,-2.73032 2.45212,-4.92748 z M 643.40085,463.68146 c 11.10708,-13.93189 23.53337,-36.77657 29.13059,-53.55413 10.19266,-30.55232 11.30027,-68.49748 2.97258,-101.83627 -14.66416,-58.70589 -64.36863,-109.91537 -124.16087,-127.92033 -17.54825,-5.28422 -24.97672,-6.15127 -52.96017,-6.18147 -24.62123,-0.0265 -26.65568,0.1181 -37.2766,2.65074 -27.06138,6.45297 -53.50047,19.55241 -75.23489,37.27568 -14.28147,11.64577 -40.42266,41.80124 -38.18043,44.04347 0.3946,0.3946 1.16979,-0.0908 1.72265,-1.07873 3.46461,-6.19092 15.1496,-20.21814 24.86268,-29.84638 22.62838,-22.43068 49.74737,-38.11077 82.50397,-47.70343 l 11.47496,-3.3604 30.6383,0.0322 c 28.76756,0.0301 31.19952,0.17807 39.82978,2.42248 41.70384,10.84561 73.0177,30.30271 99.1986,61.63777 28.13519,33.67406 41.22693,69.8574 41.22693,113.94413 0,40.57207 -11.7856,75.21257 -36.43277,107.08396 -3.55346,4.59499 -6.46084,8.65457 -6.46084,9.02127 0,1.604 2.2313,-0.46649 7.14553,-6.63053 z M 197.56596,359.61612 c -0.53362,-0.49198 -7.85108,-5.36726 -16.26102,-10.83396 -8.40995,-5.4667 -17.89829,-11.98799 -21.08519,-14.49178 -5.87986,-4.61947 -10.88965,-12.10062 -9.87459,-14.7458 0.30643,-0.79857 6.70202,-4.95431 14.21238,-9.235 66.36816,-37.82777 82.25193,-46.47883 83.33991,-45.39086 0.32232,0.32234 -0.23077,11.41179 -1.22912,24.64323 -0.99834,13.23145 -1.56288,24.30946 -1.25453,24.61781 0.7967,0.7967 1.56742,-5.94988 2.75738,-24.13721 0.56965,-8.70638 1.31429,-18.23692 1.65477,-21.17898 1.06182,-9.17525 0.81077,-9.09425 -36.37914,11.7373 -47.7523,26.74797 -65.3617,37.33132 -65.3617,39.28275 0,5.25995 5.68069,12.17694 16.34042,19.89659 8.0045,5.79676 31.82509,20.73043 33.06698,20.73043 0.65479,0 0.68216,-0.33329 0.0734,-0.89452 z m 549.48934,75.43391 c -1.00435,-1.62508 0.42343,-99.5479 1.62168,-111.22172 1.61643,-15.74758 1.72878,-15.90967 8.72998,-12.59427 l 3.77414,1.78724 -3.98492,0.51064 c -2.56133,0.32821 -4.02358,1.0579 -4.09315,2.04255 -0.0793,1.12156 0.0129,1.15746 0.34368,0.13402 1.04615,-3.23609 14.09242,1.82142 27.82988,10.78851 1.40426,0.91663 0.80615,0.15981 -1.32914,-1.68181 -2.13528,-1.84161 -3.65409,-3.57663 -3.37514,-3.85558 1.01612,-1.01612 81.62915,41.13459 89.8785,46.99542 l 2.96144,2.10398 -2.96144,2.41071 c -6.72109,5.47115 -24.89798,16.08114 -49.42954,28.85239 -14.3234,7.45683 -34.31489,18.05368 -44.42553,23.54853 -18.53808,10.07495 -24.20829,12.33486 -25.54044,10.17939 z m 6.39151,-5.17439 c -1.59601,-0.92958 -1.81199,-3.24825 -2.01862,-21.67107 l -0.23138,-20.6301 -0.31395,19.40426 c -0.3444,21.28554 -0.0501,24.0152 2.5834,23.96894 1.66405,-0.0292 1.66291,-0.0921 -0.0194,-1.07203 z m 26.80851,-12.71355 c 0,-0.28085 -2.75745,0.88132 -6.12766,2.58259 -3.37022,1.70128 -6.12766,3.32302 -6.12766,3.60387 0,0.28085 2.75744,-0.88132 6.12766,-2.58259 3.37021,-1.70127 6.12766,-3.32302 6.12766,-3.60387 z m 4.65586,-2.0695 c 1.86926,-1.49756 1.83667,-1.51883 -0.57076,-0.37229 -3.12616,1.48883 -3.70554,1.96055 -2.40796,1.96055 0.54796,0 1.88839,-0.71471 2.97872,-1.58826 z m 30.8335,-16.49642 c 3.51064,-1.94586 6.38298,-3.7677 6.38298,-4.04856 0,-0.28085 -2.87234,1.08142 -6.38298,3.02728 -3.51064,1.94586 -11.32341,6.16221 -17.3617,9.36968 -6.0383,3.20748 -10.97873,6.06156 -10.97873,6.34241 0,0.48758 14.7605,-7.16381 28.34043,-14.69081 z m 17.61702,-10.05288 c 0,-0.28085 -1.37872,0.20233 -3.06383,1.07373 -1.68511,0.87141 -3.06383,1.81416 -3.06383,2.09501 0,0.28085 1.37872,-0.20233 3.06383,-1.07373 1.68511,-0.8714 3.06383,-1.81415 3.06383,-2.09501 z m 13.27659,-7.13799 c 0,-0.28086 -1.83829,0.42719 -4.0851,1.57343 -2.24681,1.14624 -4.08511,2.31385 -4.08511,2.5947 0,0.28085 1.8383,-0.42719 4.08511,-1.57343 2.24681,-1.14624 4.0851,-2.31385 4.0851,-2.5947 z m 15.32632,-9.15762 2.22739,-2.37093 -2.39388,-1.27579 c -2.15793,-1.15005 -2.25939,-1.11273 -1.02935,0.3786 1.8735,2.27148 1.07911,3.17657 -6.51581,7.42389 -3.62636,2.02798 -6.59339,3.90442 -6.59339,4.16987 0,1.02025 12.1903,-6.07458 14.30504,-8.32564 z M 751.40145,340.39805 c -0.17817,-6.63169 -0.32453,-1.48741 -0.32524,11.43174 -7.2e-4,12.91915 0.14505,18.34508 0.32394,12.05762 0.17888,-6.28746 0.17947,-16.85767 10e-4,-23.48936 z m 99.83259,21.56837 c -3.17553,-2.64905 -34.86377,-18.84854 -36.72999,-18.7769 -0.58148,0.0224 5.3768,3.19538 13.24063,7.05125 7.86383,3.85588 16.82553,8.62663 19.91489,10.60167 6.67684,4.26853 7.74758,4.60523 3.57447,1.12398 z m -55.65957,-27.47211 c 0,-0.26643 -1.37873,-1.19737 -3.06383,-2.06878 -3.8409,-1.98621 -4.0733,-1.12351 -0.25532,0.94778 3.20941,1.74113 3.31915,1.77819 3.31915,1.121 z m -43.19259,-13.03559 c -0.24428,-1.27038 -0.45343,-0.47148 -0.46476,1.77532 -0.0113,2.24681 0.18854,3.28622 0.44415,2.30978 0.25562,-0.97643 0.26489,-2.81473 0.0206,-4.0851 z m -19.25814,-92.95331 c -4.2713,-2.62723 -60.97925,-55.54225 -75.19223,-70.16296 -5.21,-5.35946 -9.34227,-10.42191 -9.18281,-11.24987 0.63531,-3.29895 15.78404,-9.74864 62.05981,-26.42245 15.44681,-5.5657 32.91064,-12.29326 38.80851,-14.95013 8.20852,-3.69776 12.04073,-4.86509 16.34042,-4.97746 l 5.61703,-0.14679 -0.0696,8.68085 c -0.0612,7.64494 -1.00632,11.95525 -7.91984,36.1201 -4.31768,15.0916 -9.94727,37.61075 -12.5102,50.04255 -4.53173,21.98168 -6.93749,29.78936 -10.33603,33.54471 -2.13238,2.35626 -3.10583,2.29508 -7.61514,-0.47855 z m 2.31259,-8.02685 c 5.00995,-5.00995 13.2558,-27.78317 18.63191,-51.45728 7.26304,-31.98327 12.74518,-57.23651 13.08065,-60.25532 0.30302,-2.72679 0.0536,-3.0457 -2.26758,-2.89901 -3.09847,0.19581 -29.71305,9.75656 -68.03412,24.43988 -38.29473,14.67322 -37.10251,14.11789 -37.10251,17.28206 0,7.45447 7.96772,16.85612 34.7234,40.97249 12.6383,11.3916 26.19575,23.701 30.12766,27.35423 3.93192,3.65324 7.49362,6.66035 7.9149,6.68247 0.42127,0.0222 1.73783,-0.93166 2.92569,-2.11952 z m -6.33422,-2.55936 C 728.30872,216.9546 716.4,205.97995 702.6383,193.53108 c -28.18669,-25.49773 -35.71166,-33.22055 -39.3332,-40.36731 -2.22231,-4.38553 -2.33754,-5.13436 -0.99646,-6.47545 2.44391,-2.44391 98.29799,-39.45428 102.18361,-39.45428 2.639,0 -13.17788,70.24726 -20.23566,89.87234 -7.20893,20.04542 -11.23629,25.5765 -15.15448,20.81282 z M 272.27124,187.05708 c -1.84721,-2.98883 -7.65323,-77.51403 -8.46646,-108.674101 -0.54163,-20.753641 -0.42012,-24.255319 0.8417,-24.255319 4.52762,0 113.46155,63.88397 114.77632,67.31023 0.30748,0.80127 0.0853,1.9306 -0.49372,2.50962 -0.72283,0.72284 -2.09358,0.0708 -4.3739,-2.08054 -7.27019,-6.85905 -101.93688,-62.632927 -106.30874,-62.632927 -0.96655,0 -2.02458,0.696381 -2.35119,1.547514 -0.98631,2.570287 6.51548,115.954543 7.92159,119.729083 0.47081,1.26383 1.61308,2.29787 2.5384,2.29787 2.41728,0 70.40844,-38.83515 90.18796,-51.51351 9.6624,-6.19344 8.02396,-3.07439 -2.52647,4.80956 -8.37917,6.26146 -19.2389,12.65354 -46.31157,27.25916 -7.53451,4.06485 -16.03664,8.88873 -18.89362,10.71977 -21.52835,13.79745 -24.98641,15.48784 -26.5403,12.97359 z m 3.03186,-7.20066 c -0.30917,-0.50024 -1.93712,-20.14705 -3.61765,-43.65957 -4.44588,-62.202696 -5.04377,-73.26461 -4.01843,-74.348326 1.18926,-1.256977 4.66984,0.447109 26.46064,12.955098 44.21641,25.380358 78.6383,46.536628 78.6383,48.332418 0,0.7213 -1.26383,2.31051 -2.80851,3.53157 -6.76681,5.34912 -90.44744,54.09835 -92.86267,54.09835 -0.67626,0 -1.48251,-0.4093 -1.79168,-0.90954 z m 252.18626,-59.30596 c -59.48748,-6.75977 -58.7234,-6.64069 -58.7234,-9.15254 0,-1.02917 0.63992,-2.40231 1.42203,-3.05141 0.78213,-0.6491 2.00353,-2.65857 2.71425,-4.46548 1.31528,-3.34395 14.21639,-26.315551 19.17716,-34.146669 26.71135,-42.166779 45.11381,-69.2237227 47.0817,-69.2237227 1.52527,0 8.50023,9.1373008 10.52448,13.7872337 1.10038,2.52766 4.89988,12.638298 8.44335,22.468086 7.65688,21.240594 10.46053,27.766129 23.45075,54.582024 11.27555,23.276288 12.99638,28.689108 10.38686,32.671728 -1.53389,2.34104 -2.3357,2.60347 -7.56455,2.47595 -3.21684,-0.0785 -28.82752,-2.75379 -56.91263,-5.9452 z m 61.46565,1.36768 c 0.34959,-0.91099 -0.20098,-4.01311 -1.22349,-6.89362 C 581.71743,98.082003 543.81091,9.953962 540.71837,5.7246646 539.97673,4.7104123 538.85728,4.1974128 538.23069,4.5846656 536.71454,5.5216948 518.26949,33.612666 495.641,69.446809 472.62988,105.88688 471.31719,108.15123 472.51106,109.3451 c 2.85168,2.85168 26.8366,6.17276 81.02085,11.21857 13.2,1.22923 24.19149,2.40952 24.42554,2.62288 0.23403,0.21335 2.66123,0.38792 5.39375,0.38792 3.63994,0 5.13815,-0.44283 5.60381,-1.65633 z m -8.86991,0.023 c -0.84255,-0.20631 -17.61702,-2.00248 -37.27659,-3.99149 -52.21394,-5.28265 -67.91489,-7.78323 -67.91489,-10.81632 0,-1.51213 5.04035,-9.779465 27.82829,-45.64469 24.1017,-37.932929 34.73322,-53.8290755 36.00149,-53.8290755 1.55734,0 7.30988,12.2097265 22.37435,47.4893615 18.54562,43.432164 26.54859,63.835474 25.80195,65.781204 -0.57991,1.51119 -3.19025,1.89846 -6.8146,1.01101 z"
       style="fill:#b0afae;stroke-width:1.02127659" />
    <path
       id="path1328"
       d="m 490.84164,727.49762 c -1.3847,-1.49333 -3.30059,-4.82524 -4.25754,-7.40425 -2.68046,-7.22391 -25.82074,-54.38561 -27.70795,-56.47096 -0.91967,-1.01623 -1.46331,-2.05653 -1.20806,-2.31177 0.25525,-0.25525 4.62116,0.87276 9.70206,2.50668 16.43193,5.28422 41.26808,9.18961 58.50999,9.20047 l 5.53974,0.003 -2.04428,2.29787 c -4.10945,4.61924 -12.68676,19.23952 -19.10139,32.55887 -4.4225,9.18292 -7.97279,15.07518 -10.84219,17.99433 -2.34654,2.38723 -4.67287,4.34042 -5.16961,4.34042 -0.49674,0 -2.03609,-1.22181 -3.42077,-2.71514 z m 8.25892,-8.81835 c 2.22286,-2.41151 6.42896,-7.92256 9.34691,-12.24678 5.66503,-8.3952 16.4887,-28.20644 16.4887,-30.18028 0,-2.87051 -1.84678,-0.55894 -6.12766,7.66986 -9.36889,18.00905 -21.66944,35.05666 -25.29483,35.05666 -0.80343,0 -6.14048,-9.81341 -12.63588,-23.23405 -11.63228,-24.03431 -15.04281,-30.34564 -15.92272,-29.46571 -0.28274,0.28273 1.41782,4.03404 3.779,8.33624 2.36118,4.30219 5.3981,10.75799 6.7487,14.34621 2.47765,6.5825 12.62871,27.41961 15.47127,31.7579 2.16395,3.3026 3.53929,2.95819 8.14651,-2.04005 z m -72.20694,-72.10191 c 0,-1.14796 2.65646,-2.21877 3.47461,-1.4006 1.22939,1.22937 0.5586,2.31261 -1.43206,2.31261 -1.12341,0 -2.04255,-0.41041 -2.04255,-0.91201 z M 172.59574,640.1077 c 0,-0.6897 -3.5617,-4.92949 -7.91489,-9.42175 l -7.91489,-8.16775 9.19149,8.61343 c 5.05532,4.73738 9.62808,8.97717 10.1617,9.42175 0.53529,0.44598 -0.037,0.80833 -1.2766,0.80833 -1.23574,0 -2.24681,-0.5643 -2.24681,-1.25401 z m 528.0681,-16.14354 c -20.46468,-6.72071 -38.0434,-12.21948 -39.06383,-12.21948 -1.91109,0 -2.57361,-2.49937 -0.93153,-3.51422 3.36083,-2.07711 12.15471,-22.359 14.86017,-34.27301 1.78372,-7.85492 2.49945,-28.16788 1.14308,-32.44144 -0.58472,-1.84225 -0.21867,-2.47241 1.90522,-3.27992 1.44594,-0.54974 10.45114,-8.67193 20.01154,-18.04929 10.40721,-10.20795 17.74751,-16.67171 18.292,-16.10765 1.46085,1.5134 6.79611,24.6706 11.27594,48.94213 3.35305,18.16669 12.38866,65.03554 14.88983,77.23536 0.56573,2.75946 -1.61392,6.03301 -3.97028,5.96284 -0.662,-0.0197 -17.94746,-5.53461 -38.41214,-12.25532 z m 34.74103,6.00332 c 1.56023,-2.9153 0.40457,-23.01898 -2.21352,-38.50647 -1.07877,-6.38155 -5.17751,-26.21128 -9.10829,-44.06606 -3.93079,-17.85477 -7.14689,-33.3414 -7.14689,-34.41474 0,-1.07333 -0.66189,-2.84361 -1.47088,-3.93395 -1.38976,-1.8731 -2.43167,-1.02316 -18.89361,15.41258 -10.68264,10.66563 -17.42275,18.1678 -17.42275,19.39264 0,1.38466 5.09593,-3.09126 16.60702,-14.58649 9.13386,-9.12127 17.10463,-16.58414 17.71282,-16.58414 1.18659,0 4.72643,14.78941 12.75161,53.27614 5.81926,27.90771 8.0324,42.32168 8.05878,52.48611 0.0325,12.53444 2.37342,12.5483 -36.04519,-0.21342 -18.3606,-6.09894 -33.38291,-10.60822 -33.38291,-10.0206 0,0.58761 9.53617,4.16892 21.19149,7.95848 11.65532,3.78955 26.70638,8.88566 33.44681,11.32468 6.74042,2.43902 12.81362,4.48935 13.49599,4.55628 0.68236,0.0669 1.77114,-0.86953 2.41952,-2.08104 z M 0.65612569,550.31828 c -0.82843845,-7.92608 -0.72245302,-23.45387 0.20112938,-29.46721 0.39836103,-2.59369 0.72669873,4.19106 0.75370243,15.57446 0.026316,11.09362 -0.030127,20.17022 -0.1254292,20.17022 -0.095302,0 -0.4685335,-2.82486 -0.82940261,-6.27747 z M 630.12766,468.77309 c -32.24304,-23.94738 -81.30998,-36.53337 -123.51208,-31.68168 -4.74015,0.54496 -8.83521,0.77407 -9.10013,0.50916 -0.26491,-0.26492 0.23467,-1.28874 1.11017,-2.27516 4.45435,-5.01866 6.37904,-40.08044 3.21404,-58.54969 -4.88552,-28.50942 -18.09078,-53.50793 -39.64445,-75.04988 -20.65067,-20.63943 -43.8949,-33.31011 -72.33955,-39.43308 -8.49068,-1.82769 -13.90452,-2.26178 -28.85774,-2.31381 l -18.40633,-0.064 5.30161,-7.69634 c 7.34521,-10.66303 19.13467,-23.92604 28.97769,-32.59958 8.83763,-7.78761 23.36856,-18.86992 26.93238,-20.54051 1.57995,-0.74063 1.47773,-0.52554 -0.38347,0.80692 -13.09922,9.3779 -20.63508,15.70231 -30.70531,25.76919 -13.43415,13.42969 -26.96418,30.61965 -25.35824,32.21776 0.68511,0.68178 1.36475,0.42134 2.04446,-0.78341 3.5417,-6.27747 15.17312,-20.23708 24.87568,-29.85489 22.62838,-22.43068 49.74737,-38.11077 82.50397,-47.70343 l 11.47496,-3.36042 30.6383,0.0322 c 28.76756,0.0301 31.19952,0.17807 39.82978,2.42248 41.70384,10.84561 73.0177,30.30271 99.1986,61.63777 28.13519,33.67406 41.22693,69.8574 41.22693,113.94413 0,40.64103 -11.78029,75.20934 -36.53854,107.2194 -3.61163,4.66949 -6.30903,8.74754 -5.99425,9.06234 1.88293,1.88291 7.06681,-4.23163 16.89407,-19.92706 9.51635,-15.19888 16.15432,-29.78387 21.06636,-46.28714 4.14619,-13.93019 4.78646,-17.44378 5.74181,-31.50834 0.59139,-8.70638 0.85495,-22.49362 0.58571,-30.6383 -0.43113,-13.04162 -0.99221,-16.78584 -4.70247,-31.3808 -4.38218,-17.23806 -5.69102,-21.05234 -11.74789,-34.23622 -1.99991,-4.35319 -3.42463,-7.91489 -3.16606,-7.91489 1.72851,0 13.2893,27.58926 16.68998,39.82978 7.23199,26.03113 7.12037,64.34017 -0.2699,92.63619 -5.35282,20.49499 -20.60252,50.80601 -32.80208,65.19898 -2.40286,2.83488 -4.52792,6.18121 -4.72236,7.43631 -0.32532,2.09992 -1.12759,1.70707 -10.05565,-4.92392 z m 117.80667,-35.2658 c -0.37423,-0.97525 -0.37076,-23.88783 0.008,-50.91683 0.65551,-46.81258 1.84715,-69.49778 3.75602,-71.50386 0.50771,-0.53355 2.27306,-0.32841 4.24512,0.4933 l 3.37597,1.4067 -3.05136,0.53584 c -1.7054,0.29949 -3.10024,1.20811 -3.16217,2.0599 -0.0644,0.88587 0.0686,0.98949 0.31773,0.24745 0.80894,-2.40978 6.31836,-1.27185 14.27281,2.94796 4.37987,2.32351 9.21245,4.3809 10.73907,4.57198 3.84288,0.48105 64.1175,31.13749 64.1175,32.61121 0,0.17992 -6.14776,-2.62917 -13.66168,-6.24244 -7.51392,-3.61325 -14.06286,-6.54898 -14.55319,-6.52383 -0.49034,0.0251 5.08295,2.93522 12.38508,6.46683 7.30213,3.5316 16.41742,8.35528 20.25622,10.7193 3.83878,2.36401 6.68738,3.82535 6.33018,3.24742 -0.35718,-0.57794 -2.69375,-2.24885 -5.19237,-3.71315 -8.24058,-4.8293 -4.72836,-3.74571 5.41448,1.67046 5.4766,2.92446 11.22611,5.98312 12.77669,6.79705 2.56579,1.34682 3.00286,3.3621 0.72917,3.3621 -0.50973,0 -6.11239,3.39897 -12.45036,7.55328 -6.33797,4.15431 -23.47252,13.7279 -38.07677,21.27464 -14.60426,7.54676 -34.59575,18.13606 -44.42554,23.53179 -19.77875,10.85689 -23.09704,12.14884 -24.15077,9.4029 z m 5.51248,-3.63165 c -1.59601,-0.92958 -1.81199,-3.24825 -2.01862,-21.67107 l -0.23138,-20.6301 -0.31395,19.40426 c -0.3444,21.28554 -0.0501,24.0152 2.5834,23.96894 1.66405,-0.0292 1.66291,-0.0921 -0.0194,-1.07203 z m 26.80851,-12.71355 c 0,-0.28085 -2.75745,0.88132 -6.12766,2.58259 -3.37022,1.70128 -6.12766,3.32302 -6.12766,3.60387 0,0.28085 2.75744,-0.88132 6.12766,-2.58259 3.37021,-1.70127 6.12766,-3.32302 6.12766,-3.60387 z m 4.65586,-2.0695 c 1.86926,-1.49756 1.83667,-1.51883 -0.57076,-0.37229 -3.12616,1.48883 -3.70554,1.96055 -2.40796,1.96055 0.54796,0 1.88839,-0.71471 2.97872,-1.58826 z m 30.8335,-16.49642 c 3.51064,-1.94586 6.38298,-3.7677 6.38298,-4.04856 0,-0.28085 -2.87234,1.08142 -6.38298,3.02728 -3.51064,1.94586 -11.32341,6.16221 -17.3617,9.36968 -6.0383,3.20748 -10.97873,6.06156 -10.97873,6.34241 0,0.48758 14.7605,-7.16381 28.34043,-14.69081 z m 17.61702,-10.05288 c 0,-0.28085 -1.37872,0.20233 -3.06383,1.07373 -1.68511,0.87141 -3.06383,1.81416 -3.06383,2.09501 0,0.28085 1.37872,-0.20233 3.06383,-1.07373 1.68511,-0.8714 3.06383,-1.81415 3.06383,-2.09501 z m 13.27659,-7.13799 c 0,-0.28086 -1.83829,0.42719 -4.0851,1.57343 -2.24681,1.14624 -4.08511,2.31385 -4.08511,2.5947 0,0.28085 1.8383,-0.42719 4.08511,-1.57343 2.24681,-1.14624 4.0851,-2.31385 4.0851,-2.5947 z m 15.32632,-9.15762 2.22739,-2.37093 -2.39388,-1.27579 c -2.15793,-1.15005 -2.25939,-1.11273 -1.02935,0.3786 1.8735,2.27148 1.07911,3.17657 -6.51581,7.42389 -3.62636,2.02798 -6.59339,3.90442 -6.59339,4.16987 0,1.02025 12.1903,-6.07458 14.30504,-8.32564 z M 751.40145,340.39805 c -0.17817,-6.63169 -0.32453,-1.48741 -0.32524,11.43174 -7.2e-4,12.91915 0.14505,18.34508 0.32394,12.05762 0.17888,-6.28746 0.17947,-16.85767 10e-4,-23.48936 z m 44.17302,-5.90374 c 0,-0.26643 -1.37873,-1.19737 -3.06383,-2.06878 -3.8409,-1.98621 -4.0733,-1.12351 -0.25532,0.94778 3.20941,1.74113 3.31915,1.77819 3.31915,1.121 z m -12.25532,-7.0577 c 0,-0.21625 -1.26383,-1.16267 -2.80851,-2.10317 l -2.80852,-1.70998 2.41101,2.10316 c 2.35275,2.05234 3.20602,2.50744 3.20602,1.70999 z m -30.93727,-5.97789 c -0.24428,-1.27038 -0.45343,-0.47148 -0.46476,1.77532 -0.0113,2.24681 0.18854,3.28622 0.44415,2.30978 0.25562,-0.97643 0.26489,-2.81473 0.0206,-4.0851 z m -637.51586,98.98327 c -0.42203,-1.03843 -0.25219,-2.35794 0.38561,-2.99574 1.72302,-1.72303 2.65932,-0.0716 1.44234,2.54397 -0.98518,2.11742 -1.13587,2.15467 -1.82795,0.45177 z m 95.51696,-56.86754 c -4.21277,-0.38007 -10.53192,-0.46909 -14.04256,-0.19782 -5.84347,0.45151 -6.38297,0.32257 -6.38297,-1.52565 0,-1.39141 -2.87685,-4.00913 -9.25669,-8.4229 -5.09117,-3.52224 -9.04398,-6.61678 -8.784,-6.87675 0.25997,-0.25997 5.86486,2.77451 12.45531,6.74332 6.59046,3.96879 12.47347,7.21599 13.07338,7.21599 1.72377,0 0.20723,-1.10199 -16.14051,-11.72848 -8.40995,-5.4667 -17.89829,-11.98799 -21.08519,-14.49178 -5.87986,-4.61947 -10.88965,-12.10062 -9.87459,-14.7458 0.30643,-0.79857 6.70202,-4.95431 14.21238,-9.235 66.36816,-37.82777 82.25193,-46.47883 83.33991,-45.39086 0.32232,0.32234 -0.23077,11.41179 -1.22912,24.64323 -0.99834,13.23145 -1.57403,24.29831 -1.27931,24.59303 0.84964,0.84964 1.61992,-5.92417 2.85806,-25.1337 0.63358,-9.82979 1.53204,-19.94043 1.99659,-22.46809 0.46455,-2.52766 0.45186,-4.99833 -0.0282,-5.49038 -0.49477,-0.50713 -4.11265,0.97769 -8.35266,3.42802 -7.38539,4.26808 -30.83694,17.23593 -43.73515,24.18395 -3.65106,1.96676 -14.22128,8.06853 -23.48936,13.55949 -9.26809,5.49095 -19.03405,11.21775 -21.70213,12.72621 -3.93252,2.22333 -4.84739,3.26629 -4.83166,5.5081 0.0282,4.02213 5.30306,11.79266 11.03333,16.25355 9.47726,7.37783 10.89764,8.56049 9.3728,7.80422 -6.97132,-3.45755 -30.12766,-20.47163 -30.12766,-22.13625 0,-1.54758 11.51811,-9.13854 30.70262,-20.23443 25.86166,-14.95782 80.92972,-44.79397 82.67543,-44.79397 0.44956,0 0.42426,8.84681 -0.0562,19.65958 -0.48048,10.81276 -0.91041,22.96782 -0.9554,27.01124 -0.0667,5.99366 -0.48111,7.78585 -2.24346,9.70213 -2.76311,3.00444 -12.66449,18.34243 -15.6251,24.20444 -4.36166,8.63614 -9.31401,22.71311 -8.68632,24.69078 0.69876,2.2016 0.37041,2.22405 -13.81157,0.94458 z m 447.78779,-99.13176 c -0.37024,-0.59907 -0.45414,-1.30825 -0.18644,-1.57596 0.2677,-0.26771 0.75887,0.22245 1.09149,1.08922 0.69057,1.79961 0.10193,2.11615 -0.90505,0.48674 z m -20.32881,-28.27248 c -22.98277,-25.87665 -50.8506,-44.78388 -80.09274,-54.33977 -5.1302,-1.67647 -16.10243,-4.25132 -24.38274,-5.7219 -12.58541,-2.23516 -18.32316,-2.69102 -34.97675,-2.77892 -18.04071,-0.0952 -21.17518,0.15899 -33.19824,2.69238 -17.76798,3.7439 -35.36955,9.73986 -48.46245,16.50869 -5.92437,3.06281 -9.85245,4.84722 -8.72904,3.96537 3.12092,-2.4499 22.59911,-12.02076 30.65649,-15.06347 20.13803,-7.60475 44.47666,-11.40557 67.38606,-10.5233 47.04164,1.81163 85.95996,18.38593 119.56564,50.91988 9.5845,9.27885 21.96263,23.27721 20.58299,23.27721 -0.22683,0 -3.98399,-4.02127 -8.34922,-8.93617 z m 94.71076,-9.15629 C 730.24279,225.44988 716.57063,212.91064 702.17015,199.14894 687.76966,185.38724 672.789,171.37021 668.87977,168 c -8.10861,-6.99059 -19.34786,-19.13563 -19.34786,-20.90714 0,-2.49163 17.4908,-9.70325 65.81653,-27.13673 13.45016,-4.85214 29.07569,-10.91859 34.7234,-13.481 9.90353,-4.4933 20.02827,-6.73923 21.27045,-4.71833 1.47616,2.40156 -1.69413,19.23561 -7.2912,38.71585 -3.3966,11.82167 -6.62593,22.62167 -7.1763,24 l -1.00064,2.50607 -0.0648,-2.39278 c -0.0871,-3.21964 7.44967,-38.14529 10.78811,-49.99239 1.47106,-5.22037 2.37735,-9.78888 2.01398,-10.15225 -0.36337,-0.36337 -3.29217,0.30972 -6.50844,1.49577 -3.21626,1.18604 -26.98818,9.83822 -52.82648,19.22705 -25.83829,9.38884 -47.87992,17.92218 -48.98137,18.96298 -1.97031,1.86183 -1.97202,1.98248 -0.10597,7.47231 2.79962,8.23631 13.61493,20.10556 33.81147,37.1063 9.52514,8.01793 21.9874,19.22777 27.69392,24.91075 7.06538,7.03624 10.87986,10.13917 11.95639,9.72606 3.51899,-1.35036 9.18474,-12.61098 14.48528,-28.78933 4.21493,-12.8648 4.35777,-10.21867 0.46761,8.66232 -3.11913,15.13884 -7.27465,25.80121 -10.27018,26.3516 -0.86963,0.15979 -3.47108,-0.98915 -5.78102,-2.55319 z m -3.45061,-9.09472 C 728.30872,216.9546 716.4,205.97995 702.6383,193.53108 c -28.18669,-25.49773 -35.71166,-33.22055 -39.3332,-40.36731 -2.22231,-4.38553 -2.33754,-5.13436 -0.99646,-6.47545 2.44391,-2.44391 98.29799,-39.45428 102.18361,-39.45428 2.639,0 -13.17788,70.24726 -20.23566,89.87234 -7.20893,20.04542 -11.23629,25.5765 -15.15448,20.81282 z M 273.3617,186.21276 c -1.23512,-1.23512 -0.70985,-2.25769 1.10638,-2.15386 0.98298,0.0562 6.98552,-2.77835 13.33896,-6.29898 11.9847,-6.64107 16.80437,-8.18104 6.54757,-2.09206 -3.21419,1.9081 -8.33156,5.21449 -11.37193,7.34752 -5.29668,3.71598 -8.15309,4.66526 -9.62098,3.19738 z m 1.9414,-6.35634 c -0.30917,-0.50024 -1.93712,-20.14705 -3.61765,-43.65957 -4.44588,-62.202696 -5.04377,-73.26461 -4.01843,-74.348326 1.18926,-1.256977 4.66984,0.447109 26.46064,12.955098 44.21641,25.380358 78.6383,46.536628 78.6383,48.332418 0,0.7213 -1.26383,2.31051 -2.80851,3.53157 -6.76681,5.34912 -90.44744,54.09835 -92.86267,54.09835 -0.67626,0 -1.48251,-0.4093 -1.79168,-0.90954 z m -3.99225,-9.34649 c -3.84135,-37.4151 -8.20652,-109.765713 -6.52882,-108.212057 0.30327,0.280851 1.303,12.459574 2.2216,27.06383 0.91862,14.604257 2.59764,39.803277 3.73118,55.997827 1.13353,16.19455 1.8812,29.98179 1.66149,30.6383 -0.21971,0.65651 -0.70816,-1.81304 -1.08545,-5.4879 z m 49.90871,-11.54752 c 1.10797,-0.75792 6.61023,-4.04744 12.22725,-7.31007 5.61702,-3.26262 13.65957,-7.98172 17.87234,-10.4869 4.21276,-2.50517 9.26808,-5.45709 11.23404,-6.55981 l 3.57447,-2.00495 -3.57447,3.22414 c -4.14998,3.74324 -21.79881,14.44564 -33.63706,20.39778 -8.27058,4.15837 -11.39754,5.2715 -7.69657,2.73981 z M 556.0851,122.55915 c -12.91914,-1.53058 -24.40851,-3.05887 -25.53191,-3.39622 -3.20618,-0.96279 13.55303,0.2462 33.61287,2.42477 22.30619,2.42254 24.99101,2.46528 25.77955,0.41039 0.3327,-0.86701 -2.26721,-8.69854 -5.77757,-17.4034 -3.51038,-8.704876 -6.15737,-16.052167 -5.88222,-16.327319 0.7915,-0.791504 11.73882,22.041219 13.02225,27.160379 0.81518,3.25147 0.84455,5.44387 0.0993,7.40425 -0.97905,2.57512 -1.46487,2.77466 -6.44584,2.64752 -2.96288,-0.0756 -15.95724,-1.3898 -28.87639,-2.92037 z M 364.4268,114.2726 c -11.14692,-7.32738 -18.95223,-13.09322 -12.08638,-8.92829 1.40426,0.85185 7.45243,4.40114 13.4404,7.88733 10.33662,6.01797 14.69682,9.32155 12.30295,9.32155 -0.58297,0 -6.72861,-3.72627 -13.65697,-8.28059 z m 215.6583,7.66855 c -0.84255,-0.20631 -17.61702,-2.00248 -37.27659,-3.99149 -52.21394,-5.28265 -67.91489,-7.78323 -67.91489,-10.81632 0,-1.51213 5.04035,-9.779465 27.82829,-45.64469 24.1017,-37.932929 34.73322,-53.8290755 36.00149,-53.8290755 1.55734,0 7.30988,12.2097265 22.37435,47.4893615 18.54562,43.432164 26.54859,63.835474 25.80195,65.781204 -0.57991,1.51119 -3.19025,1.89846 -6.8146,1.01101 z m -106.13158,-8.45857 c -1.92131,-0.34734 -3.68301,-1.20598 -3.91489,-1.90811 -0.51459,-1.55815 -0.80524,-1.5779 10.47201,0.71193 l 9.19149,1.86633 -6.12766,-0.0193 c -3.37022,-0.0106 -7.69964,-0.3035 -9.62095,-0.65084 z M 317.61702,85.943149 c -3.08936,-1.543381 -9.06383,-4.900727 -13.2766,-7.460769 -16.82751,-10.225856 -36.35361,-20.766871 -38.04255,-20.536974 -1.01049,0.137549 -1.78723,-0.417269 -1.78723,-1.276595 0,-0.835931 0.18141,-1.519875 0.40314,-1.519875 0.54641,0 26.43495,13.760229 38.23361,20.321855 9.40525,5.230577 20.59729,12.302172 20.59729,13.014227 0,0.52326 0.0457,0.542236 -6.12766,-2.541869 z m 169.60917,-6.028255 c 3.82487,-6.824966 14.26063,-22.723404 14.91569,-22.723404 0.54934,0 0.73723,-0.320038 -9.14341,15.574468 -8.41361,13.534584 -11.47757,17.329277 -5.77228,7.148936 z M 552.13277,30.200206 C 542.1426,8.0240545 540.39444,2.4054922 545.31276,8.2808553 c 3.0936,3.6955757 14.17884,33.0785997 12.94497,34.3124807 -0.2055,0.205499 -2.96174,-5.37141 -6.12496,-12.39313 z M 539.04255,1.3449049 c 0.73723,-0.2950168 1.61809,-0.2587346 1.95745,0.080627 0.33936,0.3393617 -0.26384,0.5807391 -1.34042,0.5363942 -1.18974,-0.049005 -1.43173,-0.2910029 -0.61703,-0.6170212 z"
       style="fill:#fc9855;stroke-width:1.02127659" />
    <path
       id="path1326"
       d="m 490.84164,727.49762 c -1.3847,-1.49333 -3.30059,-4.82524 -4.25754,-7.40425 -2.68046,-7.22391 -25.82074,-54.38561 -27.70795,-56.47096 -0.91967,-1.01623 -1.46331,-2.05653 -1.20806,-2.31177 0.25525,-0.25525 4.62116,0.87276 9.70206,2.50668 16.43193,5.28422 41.26808,9.18961 58.50999,9.20047 l 5.53974,0.003 -2.04428,2.29787 c -4.10945,4.61924 -12.68676,19.23952 -19.10139,32.55887 -4.4225,9.18292 -7.97279,15.07518 -10.84219,17.99433 -2.34654,2.38723 -4.67287,4.34042 -5.16961,4.34042 -0.49674,0 -2.03609,-1.22181 -3.42077,-2.71514 z m 8.25892,-8.81835 c 2.22286,-2.41151 6.42896,-7.92256 9.34691,-12.24678 5.66503,-8.3952 16.4887,-28.20644 16.4887,-30.18028 0,-0.78964 -2.38116,-1.18838 -7.09663,-1.18838 -10.35701,0 -28.97762,-2.66075 -41.88916,-5.98566 -6.19824,-1.59614 -11.26953,-2.66494 -11.26953,-2.37512 0,0.28983 1.87791,3.94861 4.17314,8.13064 2.29524,4.18203 5.27819,10.53951 6.62879,14.12773 2.47765,6.5825 12.62871,27.41961 15.47127,31.7579 2.16395,3.3026 3.53929,2.95819 8.14651,-2.04005 z m -72.20694,-72.10191 c 0,-1.14796 2.65646,-2.21877 3.47461,-1.4006 1.22939,1.22937 0.5586,2.31261 -1.43206,2.31261 -1.12341,0 -2.04255,-0.41041 -2.04255,-0.91201 z M 172.59574,640.1077 c 0,-0.6897 -3.5617,-4.92949 -7.91489,-9.42175 l -7.91489,-8.16775 9.19149,8.61343 c 5.05532,4.73738 9.62808,8.97717 10.1617,9.42175 0.53529,0.44598 -0.037,0.80833 -1.2766,0.80833 -1.23574,0 -2.24681,-0.5643 -2.24681,-1.25401 z m 528.0681,-16.14354 c -20.46468,-6.72071 -38.0434,-12.21948 -39.06383,-12.21948 -1.91109,0 -2.57361,-2.49937 -0.93153,-3.51422 3.36083,-2.07711 12.15471,-22.359 14.86017,-34.27301 1.78372,-7.85492 2.49945,-28.16788 1.14308,-32.44144 -0.58472,-1.84225 -0.21867,-2.47241 1.90522,-3.27992 1.44594,-0.54974 10.45114,-8.67193 20.01154,-18.04929 10.40721,-10.20795 17.74751,-16.67171 18.292,-16.10765 1.46085,1.5134 6.79611,24.6706 11.27594,48.94213 3.35305,18.16669 12.38866,65.03554 14.88983,77.23536 0.56573,2.75946 -1.61392,6.03301 -3.97028,5.96284 -0.662,-0.0197 -17.94746,-5.53461 -38.41214,-12.25532 z m 34.74103,6.00332 c 1.56023,-2.9153 0.40457,-23.01898 -2.21352,-38.50647 -1.07877,-6.38155 -5.17751,-26.21128 -9.10829,-44.06606 -3.93079,-17.85477 -7.14689,-33.3414 -7.14689,-34.41474 0,-1.07333 -0.65609,-2.84361 -1.45799,-3.93395 -1.37609,-1.87109 -2.41212,-1.03376 -18.44619,14.90823 l -16.98822,16.89066 -0.31569,14.76892 c -0.38179,17.8612 -2.38543,26.36408 -9.78863,41.54031 -2.79861,5.73703 -5.08839,10.81169 -5.08839,11.27703 0,0.46532 9.53617,3.94659 21.19149,7.73615 11.65532,3.78955 26.70638,8.88566 33.44681,11.32468 6.74042,2.43902 12.81362,4.48935 13.49599,4.55628 0.68236,0.0669 1.77114,-0.86953 2.41952,-2.08104 z M 0.65612569,550.31828 c -0.82843845,-7.92608 -0.72245302,-23.45387 0.20112938,-29.46721 0.39836103,-2.59369 0.72669873,4.19106 0.75370243,15.57446 0.026316,11.09362 -0.030127,20.17022 -0.1254292,20.17022 -0.095302,0 -0.4685335,-2.82486 -0.82940261,-6.27747 z M 630.12766,468.77309 c -32.24304,-23.94738 -81.30998,-36.53337 -123.51208,-31.68168 -4.74015,0.54496 -8.83521,0.77407 -9.10013,0.50916 -0.26491,-0.26492 0.23467,-1.28874 1.11017,-2.27516 4.45435,-5.01866 6.37904,-40.08044 3.21404,-58.54969 -4.88552,-28.50942 -18.09078,-53.50793 -39.64445,-75.04988 -20.65067,-20.63943 -43.8949,-33.31011 -72.33955,-39.43308 -8.49068,-1.82769 -13.90452,-2.26178 -28.85774,-2.31381 l -18.40633,-0.064 5.30161,-7.69634 c 7.34521,-10.66303 19.13467,-23.92604 28.97769,-32.59958 8.83763,-7.78761 23.36856,-18.86992 26.93238,-20.54051 1.57995,-0.74063 1.47773,-0.52554 -0.38347,0.80692 -19.6652,14.07857 -38.60131,32.04612 -49.81348,47.26558 -3.51652,4.77336 -6.50376,9.06588 -6.6383,9.53897 -0.13453,0.47307 6.87879,0.99337 15.58517,1.1562 17.68512,0.33076 30.48189,2.44645 45.76259,7.56595 39.83501,13.34596 73.79028,46.12429 88.63483,85.56261 9.15808,24.3308 11.01395,53.37976 5.25873,82.31216 -0.14502,0.72905 0.61473,1.16093 1.79066,1.01791 8.01826,-0.97521 39.32612,-0.16687 49.02127,1.26569 28.82756,4.25956 55.59714,14.54478 75.97192,29.1894 4.71221,3.38696 9.15796,5.93158 9.87943,5.65473 1.68019,-0.64475 7.85198,-9.01564 14.63759,-19.85315 9.51635,-15.19888 16.15432,-29.78387 21.06636,-46.28714 4.14619,-13.93019 4.78646,-17.44378 5.74181,-31.50834 0.59139,-8.70638 0.85495,-22.49362 0.58571,-30.6383 -0.43113,-13.04162 -0.99221,-16.78584 -4.70247,-31.38079 -4.38218,-17.23807 -5.69102,-21.05235 -11.74789,-34.23623 -1.99991,-4.35319 -3.42463,-7.91489 -3.16606,-7.91489 1.72851,0 13.2893,27.58926 16.68998,39.82978 7.23199,26.03113 7.12037,64.34017 -0.2699,92.6362 -5.35282,20.49498 -20.60252,50.806 -32.80208,65.19897 -2.40286,2.83488 -4.52792,6.18121 -4.72236,7.43631 -0.32532,2.09992 -1.12759,1.70707 -10.05565,-4.92392 z m 117.80667,-35.2658 c -0.37423,-0.97525 -0.37076,-23.88783 0.008,-50.91683 0.65551,-46.81258 1.84715,-69.49778 3.75602,-71.50386 0.50771,-0.53355 2.27306,-0.32841 4.24512,0.4933 l 3.37597,1.4067 -3.02255,0.53086 c -2.42046,0.4251 -3.20816,1.24232 -3.95432,4.10244 -1.28656,4.93159 -1.92631,110.37705 -0.68156,112.33755 0.81657,1.2861 3.39359,0.31479 16.06021,-6.05332 30.15169,-15.15867 91.05752,-48.54397 94.12115,-51.59216 l 2.43783,-2.42553 -4.28041,-2.1837 c -2.35422,-1.20104 -6.25693,-3.65527 -8.67267,-5.45386 -2.41575,-1.79859 -5.26319,-3.86377 -6.32763,-4.58931 -1.59981,-1.09041 8.16283,3.82219 21.3094,10.72301 2.56579,1.34682 3.00286,3.3621 0.72917,3.3621 -0.50973,0 -6.11239,3.39897 -12.45036,7.55328 -6.33797,4.15431 -23.47252,13.7279 -38.07677,21.27464 -14.60426,7.54676 -34.59575,18.13606 -44.42554,23.53179 -19.77875,10.85689 -23.09705,12.14884 -24.15077,9.4029 z m -633.06831,-13.0653 c -0.42203,-1.03843 -0.25219,-2.35794 0.38561,-2.99574 1.72302,-1.72303 2.65932,-0.0716 1.44234,2.54397 -0.98518,2.11742 -1.13587,2.15467 -1.82795,0.45177 z m 95.51696,-56.86754 c -4.21277,-0.38007 -10.53192,-0.46909 -14.04256,-0.19782 -5.84347,0.45151 -6.38297,0.32257 -6.38297,-1.52565 0,-1.39141 -2.87685,-4.00913 -9.25669,-8.4229 -5.09117,-3.52224 -9.04398,-6.61678 -8.784,-6.87675 0.25997,-0.25997 5.86486,2.77451 12.45531,6.74332 11.42998,6.88318 12.27569,7.21599 18.33632,7.21599 3.49453,0 9.09868,0.28691 12.45366,0.63757 l 6.09998,0.63758 2.85148,-8.04183 c 4.58284,-12.92467 11.98349,-26.89543 19.31311,-36.45879 2.92658,-3.81847 3.02463,-4.34666 4.36075,-23.48936 0.75176,-10.77067 1.7871,-22.34049 2.30074,-25.7107 0.51365,-3.37021 0.55604,-6.53025 0.0943,-7.0223 -0.46889,-0.49957 -4.14274,1.01423 -8.31952,3.42802 -7.38539,4.26808 -30.83694,17.23593 -43.73515,24.18395 -3.65106,1.96676 -14.22128,8.06853 -23.48936,13.55949 -9.26809,5.49095 -19.03404,11.21775 -21.70213,12.72621 -3.93252,2.22333 -4.84739,3.26629 -4.83166,5.5081 0.0282,4.02213 5.30306,11.79266 11.03333,16.25355 9.47726,7.37783 10.89764,8.56049 9.3728,7.80422 -6.97132,-3.45755 -30.12766,-20.47163 -30.12766,-22.13625 0,-1.54758 11.51811,-9.13854 30.70262,-20.23443 25.86163,-14.95782 80.92969,-44.79397 82.6754,-44.79397 0.44956,0 0.42426,8.84681 -0.0562,19.65958 -0.48048,10.81276 -0.91041,22.96782 -0.9554,27.01124 -0.0667,5.99366 -0.48111,7.78585 -2.24346,9.70213 -2.76311,3.00444 -12.66449,18.34243 -15.6251,24.20444 -4.36166,8.63614 -9.31401,22.71311 -8.68632,24.69078 0.69876,2.2016 0.37041,2.22405 -13.81157,0.94458 z M 833.87234,352.1448 c -4.49362,-2.29824 -13.3281,-6.38871 -19.63219,-9.08992 -13.34924,-5.71997 -29.09002,-14.07084 -33.4742,-17.7589 -3.01882,-2.53948 -3.02468,-2.56348 -0.39906,-1.63361 8.29095,2.93626 66.32719,33.59116 61.93098,32.71211 -0.14043,-0.0281 -3.93192,-1.93143 -8.42553,-4.22968 z M 658.17077,264.44269 c -0.37024,-0.59907 -0.45414,-1.30825 -0.18644,-1.57596 0.2677,-0.26771 0.75887,0.22245 1.09149,1.08922 0.69057,1.79961 0.10193,2.11615 -0.90505,0.48674 z m -20.32881,-28.27248 c -22.98277,-25.87665 -50.8506,-44.78388 -80.09274,-54.33977 -5.1302,-1.67647 -16.10243,-4.25132 -24.38274,-5.7219 -12.58541,-2.23516 -18.32316,-2.69102 -34.97675,-2.77892 -18.04071,-0.0952 -21.17518,0.15899 -33.19824,2.69238 -17.76798,3.7439 -35.36955,9.73986 -48.46245,16.50869 -5.92437,3.06281 -9.85245,4.84722 -8.72904,3.96537 3.12092,-2.4499 22.59911,-12.02076 30.65649,-15.06347 20.13803,-7.60475 44.47666,-11.40557 67.38606,-10.5233 47.04164,1.81163 85.95996,18.38593 119.56564,50.91988 9.5845,9.27885 21.96263,23.27721 20.58299,23.27721 -0.22683,0 -3.98399,-4.02127 -8.34922,-8.93617 z m 94.71076,-9.15629 C 730.24279,225.44988 716.57063,212.91064 702.17015,199.14894 687.76966,185.38724 672.789,171.37021 668.87977,168 c -8.10861,-6.99059 -19.34786,-19.13563 -19.34786,-20.90714 0,-2.49163 17.4908,-9.70325 65.81653,-27.13673 13.45016,-4.85214 29.07569,-10.91859 34.7234,-13.481 9.90353,-4.4933 20.02827,-6.73923 21.27045,-4.71833 1.47616,2.40156 -1.69413,19.23561 -7.2912,38.71585 -3.3966,11.82167 -6.62593,22.62167 -7.1763,24 l -1.00064,2.50607 -0.0648,-2.39278 c -0.0871,-3.21964 7.44967,-38.14529 10.78811,-49.99239 1.47106,-5.22037 2.37735,-9.78888 2.01398,-10.15225 -0.36337,-0.36337 -3.29217,0.30972 -6.50844,1.49577 -3.21626,1.18604 -26.98818,9.83822 -52.82648,19.22705 -25.83829,9.38884 -47.87992,17.92218 -48.98137,18.96298 -1.97031,1.86183 -1.97202,1.98248 -0.10597,7.47231 2.79962,8.23631 13.61493,20.10556 33.81147,37.1063 9.52514,8.01793 21.9874,19.22777 27.69392,24.91075 7.06538,7.03624 10.87986,10.13917 11.95639,9.72606 3.51899,-1.35036 9.18474,-12.61098 14.48528,-28.78933 4.21493,-12.8648 4.35777,-10.21867 0.46761,8.66232 -3.11913,15.13884 -7.27465,25.80121 -10.27018,26.3516 -0.86963,0.15979 -3.47108,-0.98915 -5.78102,-2.55319 z M 273.3617,186.21276 c -1.23512,-1.23512 -0.70985,-2.25769 1.10638,-2.15386 0.98298,0.0562 6.98552,-2.77835 13.33896,-6.29898 11.9847,-6.64107 16.80437,-8.18104 6.54757,-2.09206 -3.21419,1.9081 -8.33156,5.21449 -11.37193,7.34752 -5.29668,3.71598 -8.15309,4.66526 -9.62098,3.19738 z m -2.05085,-15.70283 c -3.84135,-37.4151 -8.20652,-109.765713 -6.52882,-108.212057 0.30327,0.280851 1.303,12.459574 2.2216,27.06383 0.91862,14.604257 2.59764,39.803277 3.73118,55.997827 1.13353,16.19455 1.8812,29.98179 1.66149,30.6383 -0.21971,0.65651 -0.70816,-1.81304 -1.08545,-5.4879 z m 49.90871,-11.54752 c 1.10797,-0.75792 6.61023,-4.04744 12.22725,-7.31007 5.61702,-3.26262 13.65957,-7.98172 17.87234,-10.4869 4.21276,-2.50517 9.26808,-5.45709 11.23404,-6.55981 l 3.57447,-2.00495 -3.57447,3.22414 c -4.14998,3.74324 -21.79881,14.44564 -33.63706,20.39778 -8.27058,4.15837 -11.39754,5.2715 -7.69657,2.73981 z M 556.0851,122.55915 c -12.91914,-1.53058 -24.40851,-3.05887 -25.53191,-3.39622 -3.20618,-0.96279 13.55303,0.2462 33.61287,2.42477 22.30619,2.42254 24.99101,2.46528 25.77955,0.41039 0.3327,-0.86701 -2.26721,-8.69854 -5.77757,-17.4034 -3.51038,-8.704876 -6.15737,-16.052167 -5.88222,-16.327319 0.7915,-0.791504 11.73882,22.041219 13.02225,27.160379 0.81518,3.25147 0.84455,5.44387 0.0993,7.40425 -0.97905,2.57512 -1.46487,2.77466 -6.44584,2.64752 -2.96288,-0.0756 -15.95724,-1.3898 -28.87639,-2.92037 z M 364.4268,114.2726 c -11.14692,-7.32738 -18.95223,-13.09322 -12.08638,-8.92829 1.40426,0.85185 7.45243,4.40114 13.4404,7.88733 10.33662,6.01797 14.69682,9.32155 12.30295,9.32155 -0.58297,0 -6.72861,-3.72627 -13.65697,-8.28059 z m 109.52672,-0.79002 c -1.92131,-0.34734 -3.68301,-1.20598 -3.91489,-1.90811 -0.51459,-1.55815 -0.80524,-1.5779 10.47201,0.71193 l 9.19149,1.86633 -6.12766,-0.0193 c -3.37022,-0.0106 -7.69964,-0.3035 -9.62095,-0.65084 z M 317.61702,85.943149 c -3.08936,-1.543381 -9.06383,-4.900727 -13.2766,-7.460769 -16.82751,-10.225856 -36.35361,-20.766871 -38.04255,-20.536974 -1.01049,0.137549 -1.78723,-0.417269 -1.78723,-1.276595 0,-0.835931 0.18141,-1.519875 0.40314,-1.519875 0.54641,0 26.43495,13.760229 38.23361,20.321855 9.40525,5.230577 20.59729,12.302172 20.59729,13.014227 0,0.52326 0.0457,0.542236 -6.12766,-2.541869 z m 169.60917,-6.028255 c 3.82487,-6.824966 14.26063,-22.723404 14.91569,-22.723404 0.54934,0 0.73723,-0.320038 -9.14341,15.574468 -8.41361,13.534584 -11.47757,17.329277 -5.77228,7.148936 z M 552.13277,30.200206 C 542.1426,8.0240545 540.39444,2.4054922 545.31276,8.2808553 c 3.0936,3.6955757 14.17884,33.0785997 12.94497,34.3124807 -0.2055,0.205499 -2.96174,-5.37141 -6.12496,-12.39313 z M 539.04255,1.3449049 c 0.73723,-0.2950168 1.61809,-0.2587346 1.95745,0.080627 0.33936,0.3393617 -0.26384,0.5807391 -1.34042,0.5363942 -1.18974,-0.049005 -1.43173,-0.2910029 -0.61703,-0.6170212 z"
       style="fill:#949190;stroke-width:1.02127659" />
    <path
       id="path1324"
       d="m 498.05977,673.48742 c -11.08065,-1.50973 -31.29849,-6.25958 -32.81722,-7.70986 -1.61746,-1.54457 1.8752,-1.08275 12.30424,1.62694 10.93784,2.8419 30.10209,5.60847 39.01616,5.63242 3.20101,0.008 6.50939,0.46113 7.35194,1.00564 2.2405,1.44792 -13.65928,1.10654 -25.85512,-0.55514 z m 165.77001,-66.48514 c 0,-0.61147 2.07465,-5.49138 4.61032,-10.84424 6.24877,-13.19127 8.68745,-23.12585 9.39819,-38.2857 0.34077,-7.26854 1.01445,-12.51063 1.6078,-12.51063 1.72346,0 0.0908,24.09524 -2.23407,32.97066 -2.69305,10.28112 -13.38224,33.18146 -13.38224,28.66991 z M 1.2203731,552 c 0.020814,-1.6851 0.2497007,-2.25083 0.5086387,-1.25716 0.2589379,0.99367 0.2419088,2.3724 -0.037842,3.06383 C 1.4114181,554.49811 1.1995598,553.68511 1.2203731,552 Z M 0.35684879,536.17022 c 0,-4.77447 0.17592079,-6.72766 0.39093509,-4.34043 0.2150143,2.38723 0.2150143,6.29362 0,8.68085 -0.2150143,2.38724 -0.39093509,0.43404 -0.39093509,-4.34042 z M 1.2203731,521.36171 c 0.020814,-1.68511 0.2497007,-2.25084 0.5086387,-1.25717 0.2589379,0.99368 0.2419088,2.3724 -0.037842,3.06383 -0.2797513,0.69144 -0.4916096,-0.12156 -0.4707967,-1.80666 z M 626.04255,465.14795 c -18.83319,-13.45033 -46.20616,-23.76154 -73.30453,-27.61331 -11.07251,-1.57385 -43.43979,-2.17741 -48.5111,-0.90459 -1.46522,0.36774 -3.07915,0.41207 -3.58653,0.0985 -0.52433,-0.32405 -0.0614,-4.88395 1.07247,-10.56423 2.61339,-13.09196 2.78127,-36.67786 0.35654,-50.08781 -10.10523,-55.88679 -52.60846,-100.17919 -108.63403,-113.20696 -8.349,-1.94141 -15.10067,-2.69674 -28.28089,-3.16388 -12.55631,-0.44503 -16.62528,-0.88053 -14.80851,-1.58498 3.68587,-1.42918 26.42222,-0.13904 38.35834,2.17658 49.37534,9.57889 90.7743,44.25861 108.2463,90.67744 9.15808,24.33081 11.01395,53.37977 5.25873,82.31217 -0.14502,0.72905 0.61473,1.16093 1.79066,1.01791 1.1234,-0.13663 10.0851,-0.28124 19.91489,-0.32134 31.60058,-0.12892 56.39072,5.13358 82.27818,17.46622 9.53389,4.5419 28.19055,16.13536 29.57782,18.38 1.45253,2.35024 -2.63973,0.38087 -9.72834,-4.6817 z m 124.91221,-82.67986 c 0.006,-3.37022 0.19639,-4.62581 0.42369,-2.79022 0.22729,1.83559 0.2226,4.59304 -0.0104,6.12766 -0.23304,1.53462 -0.419,0.0328 -0.41327,-3.33744 z m 104.30426,-17.41805 c -1.90368,-1.52516 -1.89116,-1.54402 0.31545,-0.4747 1.26382,0.61245 2.29787,1.32716 2.29787,1.58825 0,0.7815 -0.52965,0.55582 -2.61332,-1.11355 z m -648.62411,-2.38402 c -12.30801,-1.04795 -10.00599,-2.49303 2.85074,-1.78954 l 11.86864,0.64943 2.80535,-7.91189 c 4.6105,-13.00295 17.36576,-36.33702 21.13733,-38.66798 1.35052,-0.83466 -0.37359,2.33274 -6.02587,11.07025 -5.43602,8.40323 -10.41686,18.91027 -13.95294,29.43354 l -2.55848,7.614 -4.40112,0.11283 c -2.42061,0.0621 -7.69625,-0.16773 -11.72365,-0.51064 z m 597.10977,-24.11283 c -1.40426,-0.80274 -2.09362,-1.45953 -1.53192,-1.45953 0.56171,0 2.17022,0.65679 3.57447,1.45953 1.40426,0.80275 2.09362,1.45954 1.53192,1.45954 -0.56171,0 -2.17022,-0.65679 -3.57447,-1.45954 z"
       style="fill:#b97d54;stroke-width:1.02127659" />
  </g>
</svg>
