<?xml version="1.0" encoding="UTF-8" standalone="no"?>
<svg
   xmlns:dc="http://purl.org/dc/elements/1.1/"
   xmlns:cc="http://creativecommons.org/ns#"
   xmlns:rdf="http://www.w3.org/1999/02/22-rdf-syntax-ns#"
   xmlns:svg="http://www.w3.org/2000/svg"
   xmlns="http://www.w3.org/2000/svg"
   viewBox="0 0 683 603"
   height="603"
   width="683"
   id="svg64"
   version="1.1">
  <metadata
     id="metadata70">
    <rdf:RDF>
      <cc:Work
         rdf:about="">
        <dc:format>image/svg+xml</dc:format>
        <dc:type
           rdf:resource="http://purl.org/dc/dcmitype/StillImage" />
        <dc:title></dc:title>
      </cc:Work>
    </rdf:RDF>
  </metadata>
  <defs
     id="defs68" />
  <g
     transform="translate(-1.4356436e-6,-2.4332053)"
     id="g74">
    <path
       id="path88"
       d="m 176.39966,600.57206 c -4.20128,-1.82892 -4.62728,-3.58024 -1.98892,-8.17644 1.22992,-2.14259 27.80814,-45.73806 59.06272,-96.87881 31.25457,-51.14075 56.8715,-93.66575 56.92652,-94.5 0.0842,-1.27755 -2.50267,-1.60511 -16.39998,-2.07662 -15.83575,-0.53727 -16.89694,-0.70632 -26.36009,-4.19935 -11.17819,-4.12609 -24.96307,-11.63807 -30.38134,-16.55611 l -3.65247,-3.31527 -7.55305,3.52973 c -17.26285,8.06737 -34.53936,12.97734 -51.80334,14.72245 -16.49362,1.66725 -49.51398,0.58147 -61.426824,-2.01983 C 64.659292,384.95196 40.940279,373.34179 24.115976,357.4706 10.402339,344.53384 3.7638831,333.62391 1.3804177,320.10595 -4.0216201,289.46798 6.5664484,265.44447 34.9521,243.93438 l 3.3857,-2.56561 -3.581942,-8.43439 c -4.786606,-11.271 -6.062404,-18.12465 -6.03762,-32.43438 0.02409,-13.90878 1.703056,-22.21418 6.659128,-32.94095 13.805237,-29.87962 43.267645,-51.09733 77.258124,-55.63836 16.98151,-2.26868 41.75828,0.45509 54.71951,6.01546 l 4.85499,2.08279 8.20661,-7.75947 c 4.51363,-4.26771 11.44457,-9.92766 15.40209,-12.57766 C 202.77282,95.025237 218.64297,87 220.89735,87 221.50381,87 222,85.460855 222,83.579678 222,79.544392 226.96793,65.002408 231.25113,56.5 245.57649,28.063363 274.18114,6.2431102 303.27031,1.5621979 c 11.88065,-1.91178554 31.94638,-1.96842073 44.82329,-0.1265129 17.81883,2.548797 35.22729,11.449538 50.37352,25.755395 13.98385,13.207975 22.43156,26.481892 28.69361,45.08641 2.68191,7.967956 3.17229,11.067442 3.60485,22.785027 1.0492,28.421523 -3.62664,45.519893 -18.26948,66.806833 -2.00838,2.91967 -3.49297,5.46711 -3.2991,5.66099 0.19388,0.19387 3.26637,-2.12936 6.82775,-5.16275 14.89399,-12.68585 31.73478,-21.92765 52.50222,-28.81188 58.05408,-19.24445 130.58718,-11.60353 176.47303,18.59036 10.16805,6.6908 26.76685,23.95649 31.25638,32.51217 8.10373,15.44323 8.94773,42.18205 1.77842,56.34176 -3.94853,7.79853 -10.51189,16.24078 -18.72261,24.08235 C 651.20155,272.82832 633.93024,285 631.04953,285 c -1.24494,0 -1.97615,2.20886 -3.30065,9.97075 -3.6044,21.12248 -12.01563,36.45602 -29.6724,54.09228 -25.0593,25.03018 -56.98978,40.27606 -100.57648,48.02237 -9.89113,1.75787 -15.97027,2.13382 -34.59177,2.13923 -12.42548,0.004 -25.02548,-0.29102 -28,-0.65475 l -5.40823,-0.66131 2.3658,2.04978 c 1.57543,1.36498 2.21889,2.8001 1.92607,4.29571 C 433.55002,405.48933 425.2449,419.775 415.33606,436 362.11691,523.14246 342.7665,554.82411 329.21657,577 320.98306,590.475 313.5339,601.64207 312.66286,601.8157 309.84621,602.37718 304,598.94936 304,596.73638 c 0,-1.11966 3.89878,-8.38088 8.66395,-16.13606 10.27471,-16.72179 54.22244,-88.6548 87.0127,-142.42115 12.85381,-21.07645 23.47244,-38.78193 23.59696,-39.34551 C 423.39812,398.27009 417.2,396.31684 409.5,394.49311 392.64911,390.502 379.36956,386.14644 368.20271,380.948 l -8.2973,-3.86259 -4.64143,3.54288 C 345.14771,388.35022 319.82097,399 311.57338,399 c -1.82786,0 -4.72435,0.28019 -6.43665,0.62265 -2.64568,0.52914 -3.02646,0.96852 -2.5353,2.92545 0.45219,1.80169 -7.24213,15.10332 -35.35909,61.12735 C 247.47696,496.02895 220.596,540.05 207.50688,561.5 c -13.08912,21.45 -24.29531,39.33061 -24.90264,39.73469 -1.52562,1.01504 -2.61897,0.89827 -6.20458,-0.66263 z M 49.676112,597.43351 c -2.103138,-1.43332 -3.60749,-3.16995 -3.343005,-3.85919 1.781258,-4.64188 121.008053,-198.14315 122.252553,-198.41197 0.85973,-0.18571 2.47612,0.48857 3.59197,1.49841 1.67381,1.51477 1.94649,2.71127 1.55827,6.83765 -0.42406,4.50745 -5.48476,13.20171 -51.22339,88.00159 C 54.782592,602.26391 56.53184,599.46211 54.916444,599.76977 54.1374,599.91814 51.77925,598.86682 49.676112,597.43351 Z M 378,575.55103 c -3.025,-1.30275 -5.62655,-2.98631 -5.78123,-3.74125 -0.65577,-3.20068 3.92589,-8.5738 41.73495,-48.9443 6.34841,-6.77849 10.91012,-12.41087 10.23417,-12.63618 -0.67075,-0.22359 -3.34992,0.34349 -5.95372,1.26016 -2.60379,0.91667 -8.33417,1.90256 -12.73417,2.19087 -7.24613,0.47481 -8.32982,0.30066 -11.5,-1.848 -4.96097,-3.3624 -7.23962,-8.1988 -6.61173,-14.03334 0.81889,-7.60944 6.30406,-17.824 23.25134,-43.29899 17.95377,-26.98791 20.31592,-30.91082 22.88147,-38 0.99522,-2.75 2.17072,-5.41311 2.61222,-5.91801 0.94986,-1.08628 12.4061,2.1581 13.87647,3.92978 1.29676,1.56251 -1.85168,10.72518 -6.60759,19.22953 -1.98141,3.54309 -10.54969,16.80241 -19.04063,29.46517 -15.12714,22.55949 -18.35705,27.87832 -19.84245,32.67531 -0.71148,2.29767 -0.60125,2.35669 3.12169,1.67135 2.12256,-0.39074 9.11983,-2.47504 15.54948,-4.63178 6.42965,-2.15674 13.0895,-3.92135 14.79966,-3.92135 7.81616,0 12.86113,6.32903 10.85236,13.6145 -2.13029,7.7262 -8.65897,15.71454 -37.98447,46.4769 -8.6032,9.02473 -17.97965,19.2211 -20.83655,22.6586 -2.8569,3.4375 -5.49292,6.23193 -5.85782,6.20984 -0.3649,-0.0221 -3.13845,-1.10605 -6.16345,-2.40881 z m 82.25,-0.19159 c -7.9235,-4.77744 -6.86666,-6.40622 26.31974,-40.56356 C 498.90638,522.0983 509,511.33133 509,510.86928 c 0,-0.46205 -2.3625,0.10017 -5.25,1.24939 -8.92454,3.55193 -14.05601,4.85925 -19.11765,4.87051 -4.32767,0.01 -5.29832,-0.41986 -8.75,-3.87153 C 472.31511,509.5504 472,508.78954 472,503.74337 c 0,-10.12982 3.67169,-17.66997 23.00523,-47.24337 17.72123,-27.10712 21.42701,-33.22106 24.37909,-40.22147 3.21691,-7.62843 4.43566,-8.29323 9.81475,-5.35378 6.86865,3.75343 7.21341,4.27165 5.80282,8.72245 -2.29144,7.23012 -9.80807,20.21792 -25.77919,44.54324 C 495.07743,485.73484 489,495.73322 489,497.46016 c 0,1.37923 4.14401,0.14672 15.33872,-4.56205 15.90507,-6.69004 21.40382,-7.86818 26.15309,-5.60341 6.25191,2.98133 7.342,10.98015 2.61734,19.2053 -3.91854,6.82176 -13.70149,17.76573 -40.96231,45.82363 -12.73076,13.103 -23.14684,24.2405 -23.14684,24.75 0,1.73457 -4.48856,0.85522 -8.75,-1.71419 z"
       style="fill:#ecf5a0" />
    <path
       id="path86"
       d="m 176.39966,600.57206 c -4.20128,-1.82892 -4.62728,-3.58024 -1.98892,-8.17644 1.22992,-2.14259 27.80814,-45.73806 59.06272,-96.87881 31.25457,-51.14075 56.8715,-93.66575 56.92652,-94.5 0.0842,-1.27755 -2.50267,-1.60511 -16.39998,-2.07662 -15.83575,-0.53727 -16.89694,-0.70632 -26.36009,-4.19935 -11.17819,-4.12609 -24.96307,-11.63807 -30.38134,-16.55611 l -3.65247,-3.31527 -7.55305,3.52973 c -17.26285,8.06737 -34.53936,12.97734 -51.80334,14.72245 -16.49362,1.66725 -49.51398,0.58147 -61.426824,-2.01983 C 64.659292,384.95196 40.940279,373.34179 24.115976,357.4706 10.402339,344.53384 3.7638831,333.62391 1.3804177,320.10595 -4.0216201,289.46798 6.5664484,265.44447 34.9521,243.93438 l 3.3857,-2.56561 -3.581942,-8.43439 c -4.786606,-11.271 -6.062404,-18.12465 -6.03762,-32.43438 0.02409,-13.90878 1.703056,-22.21418 6.659128,-32.94095 13.805237,-29.87962 43.267645,-51.09733 77.258124,-55.63836 16.98151,-2.26868 41.75828,0.45509 54.71951,6.01546 l 4.85499,2.08279 8.20661,-7.75947 c 4.51363,-4.26771 11.44457,-9.92766 15.40209,-12.57766 C 202.77282,95.025237 218.64297,87 220.89735,87 221.50381,87 222,85.460855 222,83.579678 222,79.544392 226.96793,65.002408 231.25113,56.5 245.57649,28.063363 274.18114,6.2431102 303.27031,1.5621979 c 11.88065,-1.91178554 31.94638,-1.96842073 44.82329,-0.1265129 17.81883,2.548797 35.22729,11.449538 50.37352,25.755395 13.98385,13.207975 22.43156,26.481892 28.69361,45.08641 2.68191,7.967956 3.17229,11.067442 3.60485,22.785027 1.0492,28.421523 -3.62664,45.519893 -18.26948,66.806833 -2.00838,2.91967 -3.49297,5.46711 -3.2991,5.66099 0.19388,0.19387 3.26637,-2.12936 6.82775,-5.16275 14.89399,-12.68585 31.73478,-21.92765 52.50222,-28.81188 58.05408,-19.24445 130.58718,-11.60353 176.47303,18.59036 10.16805,6.6908 26.76685,23.95649 31.25638,32.51217 8.10373,15.44323 8.94773,42.18205 1.77842,56.34176 -3.94853,7.79853 -10.51189,16.24078 -18.72261,24.08235 C 651.20155,272.82832 633.93024,285 631.04953,285 c -1.24494,0 -1.97615,2.20886 -3.30065,9.97075 -3.6044,21.12248 -12.01563,36.45602 -29.6724,54.09228 -25.0593,25.03018 -56.98978,40.27606 -100.57648,48.02237 -9.89113,1.75787 -15.97027,2.13382 -34.59177,2.13923 -12.42548,0.004 -25.02548,-0.29102 -28,-0.65475 l -5.40823,-0.66131 2.3658,2.04978 c 1.57543,1.36498 2.21889,2.8001 1.92607,4.29571 C 433.55002,405.48933 425.2449,419.775 415.33606,436 362.11691,523.14246 342.7665,554.82411 329.21657,577 320.98306,590.475 313.5339,601.64207 312.66286,601.8157 309.84621,602.37718 304,598.94936 304,596.73638 c 0,-1.11966 3.89878,-8.38088 8.66395,-16.13606 10.27471,-16.72179 54.22244,-88.6548 87.0127,-142.42115 12.85381,-21.07645 23.47244,-38.78193 23.59696,-39.34551 C 423.39812,398.27009 417.2,396.31684 409.5,394.49311 392.64911,390.502 379.36956,386.14644 368.20271,380.948 l -8.2973,-3.86259 -4.64143,3.54288 C 345.14771,388.35022 319.82097,399 311.57338,399 c -1.82786,0 -4.72435,0.28019 -6.43665,0.62265 -2.64568,0.52914 -3.02646,0.96852 -2.5353,2.92545 0.45219,1.80169 -7.24213,15.10332 -35.35909,61.12735 C 247.47696,496.02895 220.596,540.05 207.50688,561.5 c -13.08912,21.45 -24.29531,39.33061 -24.90264,39.73469 -1.52562,1.01504 -2.61897,0.89827 -6.20458,-0.66263 z M 49.676112,597.43351 c -2.103138,-1.43332 -3.60749,-3.16995 -3.343005,-3.85919 1.781258,-4.64188 121.008053,-198.14315 122.252553,-198.41197 0.85973,-0.18571 2.47612,0.48857 3.59197,1.49841 1.67381,1.51477 1.94649,2.71127 1.55827,6.83765 -0.42406,4.50745 -5.48476,13.20171 -51.22339,88.00159 C 54.782592,602.26391 56.53184,599.46211 54.916444,599.76977 54.1374,599.91814 51.77925,598.86682 49.676112,597.43351 Z M 461.25,574.43386 c -2.3375,-1.40097 -4.25,-3.15153 -4.25,-3.89013 0,-2.66938 7.96106,-11.80912 31.9203,-36.64626 13.41865,-13.91033 23.89623,-25.45863 23.28351,-25.66287 -0.61273,-0.20424 -5.09004,1.21942 -9.94958,3.16369 -20.2446,8.09972 -30.14322,4.5686 -29.06284,-10.36753 0.58848,-8.13553 6.15166,-18.65921 24.97649,-47.24713 8.79478,-13.356 18.09237,-28.66419 20.66131,-34.01821 2.56895,-5.35402 5.14521,-9.74152 5.72503,-9.75 0.57982,-0.008 3.15387,1.31614 5.7201,2.94359 l 4.66588,2.95902 -1.49947,4.24996 c -2.75327,7.8036 -10.19084,20.63441 -25.26297,43.582 -25.22227,38.40139 -25.46327,39.19607 -9.94475,32.79148 14.0854,-5.81313 24.95506,-9.49653 28.09391,-9.52017 4.27071,-0.0322 8.67308,4.83361 8.67308,9.58605 0,8.50608 -6.1942,16.41038 -39.49014,50.39265 -12.12507,12.375 -23.32845,24.1875 -24.89641,26.25 -1.56795,2.0625 -3.35992,3.74574 -3.98214,3.74054 -0.62222,-0.005 -3.04381,-1.15571 -5.38131,-2.55668 z m -84,-0.40693 c -2.3375,-1.06103 -4.25,-2.37167 -4.25,-2.91253 0,-1.93057 11.96049,-15.90478 29.19844,-34.1144 21.46638,-22.6764 26.36352,-28.31268 24.99583,-28.76858 -0.58293,-0.19431 -4.12762,0.60232 -7.87707,1.77028 -26.28677,8.18839 -37.36939,-1.90384 -26.59943,-24.2224 2.19738,-4.55361 11.32528,-19.3043 20.28423,-32.7793 14.44715,-21.7297 18.46298,-28.6385 22.87392,-39.35211 1.00413,-2.4389 1.56101,-2.75504 3.84379,-2.1821 6.41266,1.60947 9.28029,3.40347 9.28029,5.80576 0,4.639 -8.92135,20.58119 -24.32625,43.47029 C 409.53269,483.23892 403,494.30961 403,497.47148 c 0,2.47853 3.9544,1.85056 19.22871,-3.05357 15.54481,-4.99097 19.2517,-5.19412 23.41469,-1.2832 2.95971,2.78051 3.14289,8.42005 0.44354,13.65513 -2.85707,5.54098 -12.64702,16.87895 -33.60489,38.91862 -10.35105,10.88535 -20.65653,22.15233 -22.90107,25.03773 -4.5464,5.84449 -5.89339,6.20287 -12.33098,3.28074 z"
       style="fill:#cfcfcf" />
    <path
       id="path84"
       d="m 177.1697,599.77821 c -2.15298,-1.32924 -3.17691,-2.64262 -2.89643,-3.7152 0.23863,-0.9125 27.06988,-45.248 59.62502,-98.52332 32.55513,-53.27532 58.96015,-97.4662 58.67782,-98.20195 C 292.17777,398.29969 288.56036,398 276.42889,398 c -14.78698,0 -16.12929,-0.16598 -24.77923,-3.06397 -10.74668,-3.60047 -27.21555,-11.98266 -32.45785,-16.52012 -3.66879,-3.17552 -3.67989,-3.20865 -1.78022,-5.31297 1.37214,-1.51997 -1.30872,-0.59392 -9.5,3.28158 -13.09954,6.19772 -29.40902,11.6722 -42.41159,14.23599 -7.16143,1.41205 -14.31143,1.78529 -35,1.82703 -23.50972,0.0474 -27.02717,-0.16855 -36.724304,-2.25506 C 60.31049,382.99188 33.756368,368.63707 16.871939,348.61932 -11.482939,315.00249 -3.4231182,273.35289 37.215093,243.49485 L 39.930185,241.5 36.926473,235.28767 c -5.586986,-11.5551 -7.190599,-20.56533 -6.703854,-37.66697 0.3981,-13.98712 0.668309,-15.75363 3.604279,-23.56322 4.604438,-12.24766 10.388972,-21.31348 19.883702,-31.16276 16.603264,-17.22325 37.071762,-27.39987 60.45898,-30.05927 19.39821,-2.2058 49.93419,2.26832 55.84882,8.18295 1.85493,1.85493 1.96985,1.80098 5.99288,-2.8136 11.56218,-13.26231 26.98848,-23.361797 47.88674,-31.3511 2.26612,-0.866327 2.29807,-0.989832 0.5809,-2.245454 -1.66674,-1.218749 -1.70446,-1.733351 -0.45591,-6.218475 8.43591,-30.303845 26.8101,-53.304925 53.58595,-67.079669 C 286.89231,6.5343145 298.90509,2.474966 308,1.0403834 c 9.39942,-1.48261335 27.06488,-1.26509619 37.72965,0.4645701 37.57286,6.0937571 69.21229,34.7049845 81.43045,73.6367635 2.08167,6.633 2.30515,9.231055 2.26729,26.358283 -0.0458,20.70656 -1.12996,27.55303 -6.16681,38.94222 -3.8231,8.6447 -10.76208,20.27373 -15.39935,25.80778 -4.00879,4.78402 -3.45208,6.23476 1.16626,3.03921 1.35988,-0.94093 5.35777,-4.14751 8.88419,-7.12573 23.25619,-19.64088 55.26064,-32.27777 92.89753,-36.68039 38.68948,-4.52575 80.70094,1.45469 112.69079,16.04183 15.80955,7.20904 24.30211,13.13793 37.10562,25.90444 10.23064,10.20109 12.67533,13.25945 15.78392,19.74609 11.0307,23.01758 8.15351,46.4262 -8.24225,67.05854 -7.19254,9.05105 -13.8121,14.94658 -26.35798,23.47502 -8.26538,5.61864 -9.94339,6.408 -11.27417,5.30356 -0.85991,-0.71367 -1.70132,-1.12095 -1.8698,-0.90507 -0.16848,0.21587 -0.82973,4.47193 -1.46945,9.4579 -2.79365,21.77371 -12.39919,39.93865 -30.68474,58.02756 -23.99256,23.73456 -61.34276,40.8376 -102.49115,46.93173 -9.54635,1.41383 -16.25671,1.61179 -39.5,1.16531 -25.0478,-0.48114 -29.29628,-0.8112 -40.29453,-3.13044 -14.97538,-3.15791 -36.0664,-9.99234 -47.78913,-15.48579 C 361.63509,376.83319 357.56044,375 357.36158,375 357.16271,375 357,375.88015 357,376.95589 c 0,1.36078 -2.05379,3.14883 -6.75,5.87661 -17.65075,10.25239 -30.76574,14.94799 -42.75,15.3059 -4.4,0.1314 -8.37134,0.42649 -8.82521,0.65575 -0.45386,0.22927 0.14702,1.45172 1.33529,2.71657 l 2.16048,2.29974 -59.61046,97.57861 c -32.78576,53.66823 -59.87228,98.26088 -60.19227,99.09477 -0.72359,1.88564 -1.0792,1.83736 -5.19813,-0.70563 z m 130.89534,-0.58277 -3.35941,-2.80456 60.28137,-98.69544 C 398.14176,443.41295 425.8579,399 426.57843,399 c 0.72052,0 2.54298,1.06053 4.0499,2.35673 l 2.73986,2.35672 -28.00906,45.89328 c -15.40498,25.2413 -42.60032,69.83987 -60.43409,99.10795 -17.83377,29.26807 -32.66704,53.23057 -32.96281,53.25 -0.29578,0.0194 -2.04951,-1.22673 -3.89719,-2.76924 z M 50.167519,596.40478 C 48.914898,595.52741 48.02727,594.19232 48.195013,593.43791 48.362756,592.68349 75.275,548.17788 108,494.53655 172.12412,389.4272 171.1137,390.8838 171.79601,402.56981 l 0.29601,5.06981 -58.14985,95.18019 C 74.130421,567.98403 55.264515,598 54.118665,598 c -0.920509,0 -2.698524,-0.71785 -3.951146,-1.59522 z M 461.25,574.43386 c -2.3375,-1.40097 -4.25,-3.15153 -4.25,-3.89013 0,-2.66938 7.96106,-11.80912 31.9203,-36.64626 13.41865,-13.91033 23.89623,-25.45863 23.28351,-25.66287 -0.61273,-0.20424 -5.09004,1.21942 -9.94958,3.16369 -20.2446,8.09972 -30.14322,4.5686 -29.06284,-10.36753 0.58848,-8.13553 6.15166,-18.65921 24.97649,-47.24713 8.79478,-13.356 18.09237,-28.66419 20.66131,-34.01821 2.56895,-5.35402 5.14521,-9.74152 5.72503,-9.75 0.57982,-0.008 3.15387,1.31614 5.7201,2.94359 l 4.66588,2.95902 -1.49947,4.24996 c -2.75327,7.8036 -10.19084,20.63441 -25.26297,43.582 -25.22227,38.40139 -25.46327,39.19607 -9.94475,32.79148 14.0854,-5.81313 24.95506,-9.49653 28.09391,-9.52017 4.27071,-0.0322 8.67308,4.83361 8.67308,9.58605 0,8.50608 -6.1942,16.41038 -39.49014,50.39265 -12.12507,12.375 -23.32845,24.1875 -24.89641,26.25 -1.56795,2.0625 -3.35992,3.74574 -3.98214,3.74054 -0.62222,-0.005 -3.04381,-1.15571 -5.38131,-2.55668 z m -84,-0.40693 c -2.3375,-1.06103 -4.25,-2.37167 -4.25,-2.91253 0,-1.93057 11.96049,-15.90478 29.19844,-34.1144 21.46638,-22.6764 26.36352,-28.31268 24.99583,-28.76858 -0.58293,-0.19431 -4.12762,0.60232 -7.87707,1.77028 -26.28677,8.18839 -37.36939,-1.90384 -26.59943,-24.2224 2.19738,-4.55361 11.32528,-19.3043 20.28423,-32.7793 14.44715,-21.7297 18.46298,-28.6385 22.87392,-39.35211 1.00413,-2.4389 1.56101,-2.75504 3.84379,-2.1821 6.41266,1.60947 9.28029,3.40347 9.28029,5.80576 0,4.639 -8.92135,20.58119 -24.32625,43.47029 C 409.53269,483.23892 403,494.30961 403,497.47148 c 0,2.47853 3.9544,1.85056 19.22871,-3.05357 15.54481,-4.99097 19.2517,-5.19412 23.41469,-1.2832 2.95971,2.78051 3.14289,8.42005 0.44354,13.65513 -2.85707,5.54098 -12.64702,16.87895 -33.60489,38.91862 -10.35105,10.88535 -20.65653,22.15233 -22.90107,25.03773 -4.5464,5.84449 -5.89339,6.20287 -12.33098,3.28074 z"
       style="fill:#e1f05e" />
    <path
       id="path82"
       d="m 177.1697,599.77821 c -2.15298,-1.32924 -3.17691,-2.64262 -2.89643,-3.7152 0.23863,-0.9125 27.06988,-45.248 59.62502,-98.52332 32.55513,-53.27532 58.96015,-97.4662 58.67782,-98.20195 C 292.17777,398.29969 288.56036,398 276.42889,398 c -14.78698,0 -16.12929,-0.16598 -24.77923,-3.06397 -10.74668,-3.60047 -27.21555,-11.98266 -32.45785,-16.52012 -3.66879,-3.17552 -3.67989,-3.20865 -1.78022,-5.31297 1.37214,-1.51997 -1.30872,-0.59392 -9.5,3.28158 -13.09954,6.19772 -29.40902,11.6722 -42.41159,14.23599 -7.16143,1.41205 -14.31143,1.78529 -35,1.82703 -23.50972,0.0474 -27.02717,-0.16855 -36.724304,-2.25506 C 60.31049,382.99188 33.756368,368.63707 16.871939,348.61932 -11.482939,315.00249 -3.4231182,273.35289 37.215093,243.49485 L 39.930185,241.5 36.926473,235.28767 c -5.586986,-11.5551 -7.190599,-20.56533 -6.703854,-37.66697 0.3981,-13.98712 0.668309,-15.75363 3.604279,-23.56322 4.604438,-12.24766 10.388972,-21.31348 19.883702,-31.16276 16.603264,-17.22325 37.071762,-27.39987 60.45898,-30.05927 19.39821,-2.2058 49.93419,2.26832 55.84882,8.18295 1.85493,1.85493 1.96985,1.80098 5.99288,-2.8136 11.56218,-13.26231 26.98848,-23.361797 47.88674,-31.3511 2.26612,-0.866327 2.29807,-0.989832 0.5809,-2.245454 -1.66674,-1.218749 -1.70446,-1.733351 -0.45591,-6.218475 8.43591,-30.303845 26.8101,-53.304925 53.58595,-67.079669 C 286.89231,6.5343145 298.90509,2.474966 308,1.0403834 c 9.39942,-1.48261335 27.06488,-1.26509619 37.72965,0.4645701 37.57286,6.0937571 69.21229,34.7049845 81.43045,73.6367635 2.08167,6.633 2.30515,9.231055 2.26729,26.358283 -0.0458,20.70656 -1.12996,27.55303 -6.16681,38.94222 -3.8231,8.6447 -10.76208,20.27373 -15.39935,25.80778 -4.00879,4.78402 -3.45208,6.23476 1.16626,3.03921 1.35988,-0.94093 5.35777,-4.14751 8.88419,-7.12573 23.25619,-19.64088 55.26064,-32.27777 92.89753,-36.68039 38.68948,-4.52575 80.70094,1.45469 112.69079,16.04183 15.80955,7.20904 24.30211,13.13793 37.10562,25.90444 10.23064,10.20109 12.67533,13.25945 15.78392,19.74609 11.0307,23.01758 8.15351,46.4262 -8.24225,67.05854 -7.19254,9.05105 -13.8121,14.94658 -26.35798,23.47502 -8.26538,5.61864 -9.94339,6.408 -11.27417,5.30356 -0.85991,-0.71367 -1.70132,-1.12095 -1.8698,-0.90507 -0.16848,0.21587 -0.82973,4.47193 -1.46945,9.4579 -2.79365,21.77371 -12.39919,39.93865 -30.68474,58.02756 -23.99256,23.73456 -61.34276,40.8376 -102.49115,46.93173 -9.54635,1.41383 -16.25671,1.61179 -39.5,1.16531 -25.0478,-0.48114 -29.29628,-0.8112 -40.29453,-3.13044 -14.97538,-3.15791 -36.0664,-9.99234 -47.78913,-15.48579 C 361.63509,376.83319 357.56044,375 357.36158,375 357.16271,375 357,375.88015 357,376.95589 c 0,1.36078 -2.05379,3.14883 -6.75,5.87661 -17.65075,10.25239 -30.76574,14.94799 -42.75,15.3059 -4.4,0.1314 -8.37134,0.42649 -8.82521,0.65575 -0.45386,0.22927 0.14702,1.45172 1.33529,2.71657 l 2.16048,2.29974 -59.61046,97.57861 c -32.78576,53.66823 -59.87228,98.26088 -60.19227,99.09477 -0.72359,1.88564 -1.0792,1.83736 -5.19813,-0.70563 z m 130.89534,-0.58277 -3.35941,-2.80456 60.28137,-98.69544 C 398.14176,443.41295 425.8579,399 426.57843,399 c 0.72052,0 2.54298,1.06053 4.0499,2.35673 l 2.73986,2.35672 -28.00906,45.89328 c -15.40498,25.2413 -42.60032,69.83987 -60.43409,99.10795 -17.83377,29.26807 -32.66704,53.23057 -32.96281,53.25 -0.29578,0.0194 -2.04951,-1.22673 -3.89719,-2.76924 z M 50.167519,596.40478 C 48.914898,595.52741 48.02727,594.19232 48.195013,593.43791 48.362756,592.68349 75.275,548.17788 108,494.53655 172.12412,389.4272 171.1137,390.8838 171.79601,402.56981 l 0.29601,5.06981 -58.14985,95.18019 C 74.130421,567.98403 55.264515,598 54.118665,598 c -0.920509,0 -2.698524,-0.71785 -3.951146,-1.59522 z M 461.73801,573.46794 C 459.68211,572.07092 458,570.53453 458,570.05375 c 0,-1.94828 9.0923,-12.10252 31.10033,-34.73274 23.4097,-24.0715 26.71564,-27.83838 25.49935,-29.05466 -0.36917,-0.36918 -2.79263,0.16644 -5.38545,1.19025 -22.0376,8.70188 -27.38241,9.27717 -32.54192,3.50268 -2.62255,-2.93514 -2.85402,-3.7704 -2.47955,-8.94734 0.59968,-8.29054 6.15879,-19.07403 23.56607,-45.7132 17.22094,-26.35401 21.19091,-32.98106 23.71144,-39.5814 1.00451,-2.63046 2.15479,-4.98561 2.55617,-5.23368 0.40138,-0.24807 2.58092,0.55413 4.84342,1.78265 2.7606,1.499 4.11636,2.91295 4.12189,4.29885 0.016,4.00658 -9.68458,21.21052 -25.61882,45.43484 -17.23842,26.20703 -21.85329,34.30582 -20.92567,36.72315 0.82708,2.15533 4.4964,1.22987 18.53332,-4.67439 15.34435,-6.4542 20.11436,-7.66629 23.93755,-6.08267 3.58823,1.48629 5.529,5.83695 4.663,10.45314 -1.20068,6.40018 -8.428,15.15739 -37.70022,45.6807 -16.03472,16.72004 -29.43548,30.51437 -29.77946,30.65407 -0.34398,0.13969 -2.30753,-0.88903 -4.36344,-2.28606 z M 378.25,573.41556 c -1.7875,-0.78171 -3.25,-2.0652 -3.25,-2.8522 0,-2.3352 8.65466,-12.44362 29.99683,-35.0355 21.89063,-23.17246 25.47662,-27.45441 24.12452,-28.80651 -0.51133,-0.51133 -4.36655,0.2168 -9.15211,1.72855 -20.39135,6.44163 -30.48542,3.23398 -30.19321,-9.59467 0.16863,-7.40295 5.67896,-17.78304 23.81168,-44.85523 8.65706,-12.925 17.69919,-27.61862 20.09362,-32.65249 l 4.35352,-9.15249 5.06418,1.61946 c 4.86708,1.55643 5.04088,1.73751 4.46552,4.65249 -1.26288,6.39816 -7.82262,17.90274 -23.73201,41.62159 C 406.78122,485.50989 402,493.7458 402,497.69634 c 0,1.96398 0.51362,2.30366 3.48331,2.30366 1.91581,0 8.77831,-1.75853 15.25,-3.90784 15.36201,-5.10189 16.83808,-5.38872 20.87505,-4.0564 3.7613,1.24134 5.39164,3.48823 5.39164,7.43062 0,6.88206 -5.22319,13.70569 -33.05196,43.17943 -10.9811,11.63019 -22.0418,23.66769 -24.57932,26.75 -4.87086,5.91659 -5.91672,6.2947 -11.11872,4.01975 z"
       style="fill:#aeaeae" />
    <path
       id="path80"
       d="m 177.17368,598.16445 -2.32633,-1.78819 23.19109,-37.93813 C 210.79353,537.57216 232.37167,502.275 245.98986,480 c 46.03863,-75.30451 49.04958,-80.36066 48.27921,-81.07314 -0.42299,-0.3912 -8.19407,-0.91575 -17.26907,-1.16566 -15.20234,-0.41865 -17.22646,-0.70054 -25.73709,-3.5844 -5.0804,-1.72152 -11.6054,-4.30884 -14.5,-5.7496 -8.02469,-3.99424 -19.73549,-11.7792 -19.74999,-13.12916 -0.007,-0.66108 1.89958,-2.56288 4.23708,-4.22624 6.84578,-4.87142 8.13921,-6.01593 7.5099,-6.64523 -0.32675,-0.32675 -3.21371,1.08165 -6.41546,3.12979 -14.64834,9.37043 -36.56397,18.13512 -55.34444,22.13383 -7.04936,1.50094 -13.27859,1.80981 -36.5,1.80981 -25.6308,0 -28.87523,-0.19599 -38.343724,-2.31631 C 58.669103,381.68478 32.17598,366.75099 15.773287,346.1277 9.1510411,337.80147 6.3227269,332.60213 2.9203967,322.5 -0.50343725,312.33402 -0.30736235,297.49683 3.3890592,287.03583 8.7161028,271.96011 19.386202,258.04353 34.484773,246.47896 41.852579,240.83568 43.362508,239 40.636564,239 38.97532,239 34.679389,229.67985 32.309287,220.93374 29.88952,212.00434 29.889736,190.01999 32.30968,181 c 8.297076,-30.92615 34.551898,-55.84345 68.62852,-65.13231 9.55118,-2.60353 29.31582,-3.53151 42.38586,-1.99007 9.60307,1.13255 25.0784,5.34653 26.17995,7.12887 0.32113,0.51959 -1.64417,4.66819 -4.36732,9.21911 -2.72315,4.55092 -6.34292,12.24776 -8.04394,17.10408 C 153.7438,156.89081 153.51888,158 154.92904,158 c 0.51097,0 1.63771,-2.43773 2.50386,-5.41718 2.60537,-8.96216 11.14112,-24.62489 17.60947,-32.31259 11.86071,-14.09659 30.10538,-26.113593 50.45763,-33.234314 8.71816,-3.050257 13.92673,-5.950695 8.5,-4.733299 -9.04117,2.028234 -10,2.009709 -10,-0.193203 C 224,79.034999 229.19317,64.539129 232.99548,57 245.78609,31.639126 266.5383,14.254634 295.25992,4.8399689 L 308.5,0.5 l 17,0.0429498 c 15.35377,0.0387907 17.96837,0.30832312 27,2.7833589 24.45811,6.7025213 46.04206,21.8559933 59.6292,41.8639473 5.91949,8.71683 12.60138,23.363539 15.0177,32.91882 1.85966,7.353953 2.03186,10.264631 1.58666,26.820064 -0.558,20.75003 -1.49745,25.50442 -7.6221,38.57408 -4.06006,8.66395 -12.44817,21.72997 -15.98639,24.90177 -1.16879,1.04774 -2.12507,2.28524 -2.12507,2.75 0,2.09227 4.26205,0.48444 9.02598,-3.40499 20.73035,-16.92492 34.01753,-24.68361 54.09804,-31.58909 22.74637,-7.82223 43.58807,-11.11244 70.57476,-11.14139 35.64885,-0.0382 65.22078,6.36916 92.37318,20.01465 15.19289,7.63522 26.53753,16.44538 37.6075,29.20571 11.00133,12.68119 15.77658,25.3861 15.69593,41.76012 -0.0453,9.2079 -0.41618,11.42419 -3.01349,18.01026 -3.99317,10.12562 -10.06656,18.88615 -19.77198,28.51999 -8.12796,8.06801 -25.87034,20.87194 -27.96681,20.18246 -0.61771,-0.20315 -1.26691,-1.34662 -1.44266,-2.54104 -0.60406,-4.10517 -2.03731,-2.16437 -2.64254,3.57833 -2.34345,22.23559 -7.59096,36.23472 -19.51327,52.05681 -24.79419,32.90438 -72.53161,56.26936 -125.32071,61.33796 -11.92881,1.14536 -42.29101,0.46356 -56.20393,-1.26209 -26.29658,-3.26162 -59.25438,-14.99157 -80.95908,-28.81401 C 341.16342,364.2809 337.17082,362 336.66847,362 c -1.96723,0 1.92854,3.19789 10.43282,8.56391 4.89429,3.08819 8.89791,6.13717 8.89692,6.77549 -0.004,2.55285 -21.83682,14.02679 -33.49217,17.6013 -3.84668,1.17971 -11.17522,2.41959 -16.28564,2.75528 -5.11043,0.33569 -9.54943,1.02739 -9.86445,1.5371 -0.31502,0.50972 0.37602,1.59131 1.53564,2.40354 1.15963,0.81223 2.10841,1.9689 2.10841,2.57038 0,0.60147 -11.8781,20.48845 -26.39578,44.19329 -33.4695,54.64986 -72.79042,118.99263 -83.74288,137.03265 -4.65244,7.66312 -8.88701,14.06496 -9.41016,14.22632 -0.52315,0.16136 -1.99803,-0.51131 -3.2775,-1.49481 z M 308.75,598.6059 c -3.07982,-2.3343 -8.40471,7.106 48.56886,-86.1059 48.50574,-79.35806 67.89612,-111.00369 68.24033,-111.3701 0.98476,-1.04827 5.44009,1.11525 5.43478,2.63915 -0.003,0.95202 -6.64082,12.56518 -14.75,25.80701 -8.10918,13.24183 -27.56897,45.09083 -43.24397,70.77556 -50.35873,82.51676 -60.58202,99.00973 -61.55058,99.29805 -0.52218,0.15544 -1.73692,-0.31425 -2.69942,-1.04377 z M 51.126301,595.28287 48.94984,593.5 71.575894,556.5 C 84.020223,536.15 101.49642,507.575 110.4119,493 c 8.91547,-14.575 25.61818,-41.9125 37.11712,-60.75 11.49895,-18.8375 21.48404,-34.25 22.18908,-34.25 0.86772,0 1.27015,1.53472 1.24554,4.75 -0.0344,4.49845 -3.09499,9.75085 -57.79212,99.1807 -31.765656,51.93689 -58.231171,94.58918 -58.81225,94.78288 -0.58108,0.19369 -2.035916,-0.45013 -3.232969,-1.43071 z M 461.73801,573.46794 C 459.68211,572.07092 458,570.53453 458,570.05375 c 0,-1.94828 9.0923,-12.10252 31.10033,-34.73274 23.4097,-24.0715 26.71564,-27.83838 25.49935,-29.05466 -0.36917,-0.36918 -2.79263,0.16644 -5.38545,1.19025 -22.0376,8.70188 -27.38241,9.27717 -32.54192,3.50268 -2.62255,-2.93514 -2.85402,-3.7704 -2.47955,-8.94734 0.59968,-8.29054 6.15879,-19.07403 23.56607,-45.7132 17.22094,-26.35401 21.19091,-32.98106 23.71144,-39.5814 1.00451,-2.63046 2.15479,-4.98561 2.55617,-5.23368 0.40138,-0.24807 2.58092,0.55413 4.84342,1.78265 2.7606,1.499 4.11636,2.91295 4.12189,4.29885 0.016,4.00658 -9.68458,21.21052 -25.61882,45.43484 -17.23842,26.20703 -21.85329,34.30582 -20.92567,36.72315 0.82708,2.15533 4.4964,1.22987 18.53332,-4.67439 15.34435,-6.4542 20.11436,-7.66629 23.93755,-6.08267 3.58823,1.48629 5.529,5.83695 4.663,10.45314 -1.20068,6.40018 -8.428,15.15739 -37.70022,45.6807 -16.03472,16.72004 -29.43548,30.51437 -29.77946,30.65407 -0.34398,0.13969 -2.30753,-0.88903 -4.36344,-2.28606 z M 378.25,573.41556 c -1.7875,-0.78171 -3.25,-2.0652 -3.25,-2.8522 0,-2.3352 8.65466,-12.44362 29.99683,-35.0355 21.89063,-23.17246 25.47662,-27.45441 24.12452,-28.80651 -0.51133,-0.51133 -4.36655,0.2168 -9.15211,1.72855 -20.39135,6.44163 -30.48542,3.23398 -30.19321,-9.59467 0.16863,-7.40295 5.67896,-17.78304 23.81168,-44.85523 8.65706,-12.925 17.69919,-27.61862 20.09362,-32.65249 l 4.35352,-9.15249 5.06418,1.61946 c 4.86708,1.55643 5.04088,1.73751 4.46552,4.65249 -1.26288,6.39816 -7.82262,17.90274 -23.73201,41.62159 C 406.78122,485.50989 402,493.7458 402,497.69634 c 0,1.96398 0.51362,2.30366 3.48331,2.30366 1.91581,0 8.77831,-1.75853 15.25,-3.90784 15.36201,-5.10189 16.83808,-5.38872 20.87505,-4.0564 3.7613,1.24134 5.39164,3.48823 5.39164,7.43062 0,6.88206 -5.22319,13.70569 -33.05196,43.17943 -10.9811,11.63019 -22.0418,23.66769 -24.57932,26.75 -4.87086,5.91659 -5.91672,6.2947 -11.11872,4.01975 z"
       style="fill:#d2e907" />
    <path
       id="path78"
       d="m 177.17368,598.16445 -2.32633,-1.78819 23.19109,-37.93813 C 210.79353,537.57216 232.37167,502.275 245.98986,480 c 46.03863,-75.30451 49.04958,-80.36066 48.27921,-81.07314 -0.42299,-0.3912 -8.19407,-0.91575 -17.26907,-1.16566 -15.20234,-0.41865 -17.22646,-0.70054 -25.73709,-3.5844 -5.0804,-1.72152 -11.6054,-4.30884 -14.5,-5.7496 -8.02469,-3.99424 -19.73549,-11.7792 -19.74999,-13.12916 -0.007,-0.66108 1.89958,-2.56288 4.23708,-4.22624 6.84578,-4.87142 8.13921,-6.01593 7.5099,-6.64523 -0.32675,-0.32675 -3.21371,1.08165 -6.41546,3.12979 -14.64834,9.37043 -36.56397,18.13512 -55.34444,22.13383 -7.04936,1.50094 -13.27859,1.80981 -36.5,1.80981 -25.6308,0 -28.87523,-0.19599 -38.343724,-2.31631 C 58.669103,381.68478 32.17598,366.75099 15.773287,346.1277 9.1510411,337.80147 6.3227269,332.60213 2.9203967,322.5 -0.50343725,312.33402 -0.30736235,297.49683 3.3890592,287.03583 8.7161028,271.96011 19.386202,258.04353 34.484773,246.47896 41.852579,240.83568 43.362508,239 40.636564,239 38.97532,239 34.679389,229.67985 32.309287,220.93374 29.88952,212.00434 29.889736,190.01999 32.30968,181 c 8.297076,-30.92615 34.551898,-55.84345 68.62852,-65.13231 9.55118,-2.60353 29.31582,-3.53151 42.38586,-1.99007 9.60307,1.13255 25.0784,5.34653 26.17995,7.12887 0.32113,0.51959 -1.64417,4.66819 -4.36732,9.21911 -2.72315,4.55092 -6.34292,12.24776 -8.04394,17.10408 C 153.7438,156.89081 153.51888,158 154.92904,158 c 0.51097,0 1.63771,-2.43773 2.50386,-5.41718 2.60537,-8.96216 11.14112,-24.62489 17.60947,-32.31259 11.86071,-14.09659 30.10538,-26.113593 50.45763,-33.234314 8.71816,-3.050257 13.92673,-5.950695 8.5,-4.733299 -9.04117,2.028234 -10,2.009709 -10,-0.193203 C 224,79.034999 229.19317,64.539129 232.99548,57 245.78609,31.639126 266.5383,14.254634 295.25992,4.8399689 L 308.5,0.5 l 17,0.0429498 c 15.35377,0.0387907 17.96837,0.30832312 27,2.7833589 24.45811,6.7025213 46.04206,21.8559933 59.6292,41.8639473 5.91949,8.71683 12.60138,23.363539 15.0177,32.91882 1.85966,7.353953 2.03186,10.264631 1.58666,26.820064 -0.558,20.75003 -1.49745,25.50442 -7.6221,38.57408 -4.06006,8.66395 -12.44817,21.72997 -15.98639,24.90177 -1.16879,1.04774 -2.12507,2.28524 -2.12507,2.75 0,2.09227 4.26205,0.48444 9.02598,-3.40499 20.73035,-16.92492 34.01753,-24.68361 54.09804,-31.58909 22.74637,-7.82223 43.58807,-11.11244 70.57476,-11.14139 35.64885,-0.0382 65.22078,6.36916 92.37318,20.01465 15.19289,7.63522 26.53753,16.44538 37.6075,29.20571 11.00133,12.68119 15.77658,25.3861 15.69593,41.76012 -0.0453,9.2079 -0.41618,11.42419 -3.01349,18.01026 -3.99317,10.12562 -10.06656,18.88615 -19.77198,28.51999 -8.12796,8.06801 -25.87034,20.87194 -27.96681,20.18246 -0.61771,-0.20315 -1.26691,-1.34662 -1.44266,-2.54104 -0.60406,-4.10517 -2.03731,-2.16437 -2.64254,3.57833 -2.34345,22.23559 -7.59096,36.23472 -19.51327,52.05681 -24.79419,32.90438 -72.53161,56.26936 -125.32071,61.33796 -11.92881,1.14536 -42.29101,0.46356 -56.20393,-1.26209 -26.29658,-3.26162 -59.25438,-14.99157 -80.95908,-28.81401 C 341.16342,364.2809 337.17082,362 336.66847,362 c -1.96723,0 1.92854,3.19789 10.43282,8.56391 4.89429,3.08819 8.89791,6.13717 8.89692,6.77549 -0.004,2.55285 -21.83682,14.02679 -33.49217,17.6013 -3.84668,1.17971 -11.17522,2.41959 -16.28564,2.75528 -5.11043,0.33569 -9.54943,1.02739 -9.86445,1.5371 -0.31502,0.50972 0.37602,1.59131 1.53564,2.40354 1.15963,0.81223 2.10841,1.9689 2.10841,2.57038 0,0.60147 -11.8781,20.48845 -26.39578,44.19329 -33.4695,54.64986 -72.79042,118.99263 -83.74288,137.03265 -4.65244,7.66312 -8.88701,14.06496 -9.41016,14.22632 -0.52315,0.16136 -1.99803,-0.51131 -3.2775,-1.49481 z M 308.75,598.6059 c -3.07982,-2.3343 -8.40471,7.106 48.56886,-86.1059 48.50574,-79.35806 67.89612,-111.00369 68.24033,-111.3701 0.98476,-1.04827 5.44009,1.11525 5.43478,2.63915 -0.003,0.95202 -6.64082,12.56518 -14.75,25.80701 -8.10918,13.24183 -27.56897,45.09083 -43.24397,70.77556 -50.35873,82.51676 -60.58202,99.00973 -61.55058,99.29805 -0.52218,0.15544 -1.73692,-0.31425 -2.69942,-1.04377 z M 51.126301,595.28287 48.94984,593.5 71.575894,556.5 C 84.020223,536.15 101.49642,507.575 110.4119,493 c 8.91547,-14.575 25.61818,-41.9125 37.11712,-60.75 11.49895,-18.8375 21.48404,-34.25 22.18908,-34.25 0.86772,0 1.27015,1.53472 1.24554,4.75 -0.0344,4.49845 -3.09499,9.75085 -57.79212,99.1807 -31.765656,51.93689 -58.231171,94.58918 -58.81225,94.78288 -0.58108,0.19369 -2.035916,-0.45013 -3.232969,-1.43071 z"
       style="fill:#949494" />
    <path
       id="path76"
       d="m 262,396.04422 c -5.79672,-1.06876 -15.6839,-4.42756 -23.60287,-8.01819 -7.03279,-3.18882 -20.42002,-11.57868 -20.35381,-12.75586 0.0238,-0.42359 3.20982,-3.00451 7.07999,-5.73537 13.27471,-9.36689 10.88784,-11.8528 -3.015,-3.14012 -12.4347,7.79262 -21.79965,12.2404 -34.98704,16.61668 -19.50453,6.47266 -23.91109,7.12263 -52.12127,7.68796 -23.08724,0.46266 -26.63541,0.30752 -37.5,-1.63957 -20.906836,-3.74683 -42.974112,-12.25658 -58,-22.36642 -8.60167,-5.78744 -21.882988,-19.01455 -27.479619,-27.36746 -2.643753,-3.94577 -5.7792032,-10.24577 -6.9676669,-14 C 3.8642503,321.57164 2.436814,317.67155 1.8806333,316.659 0.67479678,314.46373 0.42210853,296.74407 1.5701502,294.88649 2.0113488,294.17262 3.5523813,290.18063 4.9946668,286.0154 9.9896948,271.59009 21.123888,257.6243 37.25,245.55704 c 8.137138,-6.08906 9.793005,-8.84734 5.00966,-8.34489 -2.562241,0.26914 -2.948034,-0.23208 -5.936023,-7.71215 -5.588308,-13.98965 -6.703143,-33.81476 -2.763785,-49.1484 2.013118,-7.83591 7.518436,-19.30596 12.857565,-26.78807 4.800881,-6.72784 15.901502,-17.6272 22.713686,-22.30189 11.296626,-7.75201 28.176402,-14.31986 41.996397,-16.34061 10.01514,-1.46441 33.51428,-0.61632 42.50439,1.53399 7.75806,1.85562 14.36811,4.48174 14.36811,5.70833 0,0.52041 -1.79922,3.92935 -3.99827,7.57542 -4.59072,7.61151 -9.99631,20.97319 -10.76635,26.61253 -0.45986,3.36768 -0.2905,3.80596 1.3487,3.49028 1.03412,-0.19915 2.29882,-1.7017 2.82081,-3.3513 5.42895,-17.15684 11.82882,-28.43499 22.58192,-39.79489 12.82501,-13.54875 27.92442,-22.854045 46.81214,-28.84888 10.59696,-3.363405 13.81269,-5.290834 10.77322,-6.457191 -0.98061,-0.376293 -4.05287,-0.1602 -6.82726,0.480205 -2.77439,0.640406 -5.29036,0.918355 -5.59105,0.617666 -0.96497,-0.964971 4.87124,-17.3351 9.37668,-26.300857 12.61627,-25.106214 37.48541,-44.629918 66.17697,-51.9527205 3.73587,-0.9534869 7.07581,-2.1225008 7.42208,-2.5978087 0.84809,-1.16409905 33.91271,-1.1529771 34.72749,0.011681 0.35361,0.5054427 3.54008,1.5016586 7.08106,2.2138132 22.62022,4.5493394 48.15626,21.973797 61.40112,41.89692 6.30074,9.477665 12.04385,21.951206 14.58625,31.680119 2.67126,10.22195 2.93271,35.470133 0.49037,47.353823 -2.91037,14.161 -12.58061,33.13728 -21.36119,41.91785 -4.27133,4.27134 -4.89218,5.75464 -2.75232,6.57578 2.24866,0.86289 6.93661,-1.777 14.69763,-8.27657 25.25485,-21.14999 55.32988,-33.30611 93.97377,-37.98356 21.02079,-2.54435 55.72409,-0.70714 76.02623,4.02487 21.76829,5.07374 46.85594,15.88587 60.11823,25.90939 15.75455,11.90715 28.83532,28.90533 31.96674,41.54008 0.68157,2.75 1.66682,5.2828 2.18946,5.62845 1.41274,0.93431 1.29514,21.18169 -0.12577,21.65533 -0.63177,0.21059 -1.14866,1.42464 -1.14866,2.6979 0,3.9489 -8.66264,19.68305 -14.72522,26.74575 -6.64908,7.74596 -14.96978,15.028 -24.2931,21.26062 -8.07468,5.39792 -9.13848,5.6674 -9.937,2.5172 -0.3478,-1.37211 -1.35208,-2.63335 -2.23174,-2.80276 -1.30201,-0.25074 -1.72239,1.04971 -2.26112,6.99475 -1.88163,20.76446 -6.64017,34.18183 -17.6628,49.80276 -24.23576,34.34615 -72.9757,58.39416 -128.03599,63.17224 -18.40109,1.59683 -50.29224,-0.12341 -67.35303,-3.63309 -24.67581,-5.0762 -50.57618,-15.36901 -68.87831,-27.37225 -8.30639,-5.44766 -10.98192,-6.32291 -10.44501,-3.4169 0.26845,1.45302 17.00342,13.46746 20.31492,14.58458 2.07982,0.70162 -1.72923,3.48408 -12.23459,8.93721 -5.91636,3.07107 -14.35701,6.82205 -18.75701,8.33551 -7.76907,2.67231 -8.70724,2.75917 -32.5,3.00917 -13.475,0.14159 -26.525,-0.11592 -29,-0.57225 z"
       style="fill:#656565" />
  </g>
</svg>
